<?xml version="1.0" standalone="no"?>
 <!DOCTYPE svg PUBLIC "-//W3C//DTD SVG 1.1//EN" 
 "http://www.w3.org/Graphics/SVG/1.1/DTD/svg11.dtd"> 
<svg xmlns="http://www.w3.org/2000/svg" version="1.1" 
    width="29.7002cm" height="21.0007cm" viewBox="0 0 116930 82680 ">
<title>SVG Picture created as MainBoard.svg date 2017/04/19 11:35:13 </title>
  <desc>Picture generated by Eeschema-SVG </desc>
<g style="fill:#000000; fill-opacity:1;stroke:#000000; stroke-opacity:1;
stroke-linecap:round; stroke-linejoin:round; "
 transform="translate(0 0) scale(1 1)">
</g>
<g style="fill:#000000; fill-opacity:0.0; 
stroke:#000000; stroke-width:-10; stroke-opacity:1; 
stroke-linecap:round; stroke-linejoin:round;">
</g>
<g style="fill:#840000; fill-opacity:0.0; 
stroke:#840000; stroke-width:-10; stroke-opacity:1; 
stroke-linecap:round; stroke-linejoin:round;">
</g>
<g style="fill:#840000; fill-opacity:0.0; 
stroke:#840000; stroke-width:100; stroke-opacity:1; 
stroke-linecap:round; stroke-linejoin:round;">
</g>
<g style="fill:#840000; fill-opacity:0.0; 
stroke:#840000; stroke-width:60; stroke-opacity:1; 
stroke-linecap:round; stroke-linejoin:round;">
<rect x="69690" y="65360" width="42520" height="12600" rx="0" />
</g>
<g style="fill:#840000; fill-opacity:0.0; 
stroke:#840000; stroke-width:100; stroke-opacity:1; 
stroke-linecap:round; stroke-linejoin:round;">
</g>
<g style="fill:#840000; fill-opacity:0.0; 
stroke:#840000; stroke-width:60; stroke-opacity:1; 
stroke-linecap:round; stroke-linejoin:round;">
<rect x="3940" y="3940" width="109050" height="74800" rx="0" />
</g>
<g style="fill:#840000; fill-opacity:0.0; 
stroke:#840000; stroke-width:100; stroke-opacity:1; 
stroke-linecap:round; stroke-linejoin:round;">
</g>
<g style="fill:#840000; fill-opacity:0.0; 
stroke:#840000; stroke-width:60; stroke-opacity:1; 
stroke-linecap:round; stroke-linejoin:round;">
<rect x="4720" y="4720" width="107490" height="73240" rx="0" />
</g>
<g style="fill:#840000; fill-opacity:0.0; 
stroke:#840000; stroke-width:100; stroke-opacity:1; 
stroke-linecap:round; stroke-linejoin:round;">
</g>
<g style="fill:#840000; fill-opacity:0.0; 
stroke:#840000; stroke-width:60; stroke-opacity:1; 
stroke-linecap:round; stroke-linejoin:round;">
<path d="M23620 4720
L23620 3940
" />
</g>
<g style="fill:#840000; fill-opacity:0.0; 
stroke:#840000; stroke-width:100; stroke-opacity:1; 
stroke-linecap:round; stroke-linejoin:round;">
</g>
<g style="fill:#840000; fill-opacity:0.0; 
stroke:#840000; stroke-width:60; stroke-opacity:1; 
stroke-linecap:round; stroke-linejoin:round;">
<path d="M43310 4720
L43310 3940
" />
</g>
<g style="fill:#840000; fill-opacity:0.0; 
stroke:#840000; stroke-width:100; stroke-opacity:1; 
stroke-linecap:round; stroke-linejoin:round;">
</g>
<g style="fill:#840000; fill-opacity:0.0; 
stroke:#840000; stroke-width:60; stroke-opacity:1; 
stroke-linecap:round; stroke-linejoin:round;">
<path d="M62990 4720
L62990 3940
" />
</g>
<g style="fill:#840000; fill-opacity:0.0; 
stroke:#840000; stroke-width:100; stroke-opacity:1; 
stroke-linecap:round; stroke-linejoin:round;">
</g>
<g style="fill:#840000; fill-opacity:0.0; 
stroke:#840000; stroke-width:60; stroke-opacity:1; 
stroke-linecap:round; stroke-linejoin:round;">
<path d="M82680 4720
L82680 3940
" />
</g>
<g style="fill:#840000; fill-opacity:0.0; 
stroke:#840000; stroke-width:100; stroke-opacity:1; 
stroke-linecap:round; stroke-linejoin:round;">
</g>
<g style="fill:#840000; fill-opacity:0.0; 
stroke:#840000; stroke-width:60; stroke-opacity:1; 
stroke-linecap:round; stroke-linejoin:round;">
<path d="M102360 4720
L102360 3940
" />
</g>
<g style="fill:#840000; fill-opacity:0.0; 
stroke:#840000; stroke-width:100; stroke-opacity:1; 
stroke-linecap:round; stroke-linejoin:round;">
</g>
<g style="fill:#840000; fill-opacity:0.0; 
stroke:#840000; stroke-width:60; stroke-opacity:1; 
stroke-linecap:round; stroke-linejoin:round;">
<path d="M14170 4560
L13880 4560
" />
<path d="M14020 4560
L14020 4050
L13970 4120
L13930 4170
L13880 4190
" />
</g>
<g style="fill:#840000; fill-opacity:0.0; 
stroke:#840000; stroke-width:100; stroke-opacity:1; 
stroke-linecap:round; stroke-linejoin:round;">
</g>
<g style="fill:#840000; fill-opacity:0.0; 
stroke:#840000; stroke-width:60; stroke-opacity:1; 
stroke-linecap:round; stroke-linejoin:round;">
<path d="M33560 4090
L33580 4070
L33630 4050
L33750 4050
L33800 4070
L33820 4090
L33850 4140
L33850 4190
L33820 4260
L33530 4560
L33850 4560
" />
</g>
<g style="fill:#840000; fill-opacity:0.0; 
stroke:#840000; stroke-width:100; stroke-opacity:1; 
stroke-linecap:round; stroke-linejoin:round;">
</g>
<g style="fill:#840000; fill-opacity:0.0; 
stroke:#840000; stroke-width:60; stroke-opacity:1; 
stroke-linecap:round; stroke-linejoin:round;">
<path d="M53220 4050
L53540 4050
L53370 4240
L53440 4240
L53490 4260
L53510 4290
L53540 4340
L53540 4460
L53510 4510
L53490 4530
L53440 4560
L53300 4560
L53250 4530
L53220 4510
" />
</g>
<g style="fill:#840000; fill-opacity:0.0; 
stroke:#840000; stroke-width:100; stroke-opacity:1; 
stroke-linecap:round; stroke-linejoin:round;">
</g>
<g style="fill:#840000; fill-opacity:0.0; 
stroke:#840000; stroke-width:60; stroke-opacity:1; 
stroke-linecap:round; stroke-linejoin:round;">
<path d="M73170 4220
L73170 4560
" />
<path d="M73050 4020
L72930 4390
L73240 4390
" />
</g>
<g style="fill:#840000; fill-opacity:0.0; 
stroke:#840000; stroke-width:100; stroke-opacity:1; 
stroke-linecap:round; stroke-linejoin:round;">
</g>
<g style="fill:#840000; fill-opacity:0.0; 
stroke:#840000; stroke-width:60; stroke-opacity:1; 
stroke-linecap:round; stroke-linejoin:round;">
<path d="M92880 4050
L92640 4050
L92620 4290
L92640 4260
L92690 4240
L92810 4240
L92860 4260
L92880 4290
L92910 4340
L92910 4460
L92880 4510
L92860 4530
L92810 4560
L92690 4560
L92640 4530
L92620 4510
" />
</g>
<g style="fill:#840000; fill-opacity:0.0; 
stroke:#840000; stroke-width:100; stroke-opacity:1; 
stroke-linecap:round; stroke-linejoin:round;">
</g>
<g style="fill:#840000; fill-opacity:0.0; 
stroke:#840000; stroke-width:60; stroke-opacity:1; 
stroke-linecap:round; stroke-linejoin:round;">
<path d="M112540 4050
L112440 4050
L112390 4070
L112370 4090
L112320 4170
L112300 4260
L112300 4460
L112320 4510
L112350 4530
L112390 4560
L112490 4560
L112540 4530
L112560 4510
L112590 4460
L112590 4340
L112560 4290
L112540 4260
L112490 4240
L112390 4240
L112350 4260
L112320 4290
L112300 4340
" />
</g>
<g style="fill:#840000; fill-opacity:0.0; 
stroke:#840000; stroke-width:100; stroke-opacity:1; 
stroke-linecap:round; stroke-linejoin:round;">
</g>
<g style="fill:#840000; fill-opacity:0.0; 
stroke:#840000; stroke-width:60; stroke-opacity:1; 
stroke-linecap:round; stroke-linejoin:round;">
<path d="M23620 77960
L23620 78740
" />
</g>
<g style="fill:#840000; fill-opacity:0.0; 
stroke:#840000; stroke-width:100; stroke-opacity:1; 
stroke-linecap:round; stroke-linejoin:round;">
</g>
<g style="fill:#840000; fill-opacity:0.0; 
stroke:#840000; stroke-width:60; stroke-opacity:1; 
stroke-linecap:round; stroke-linejoin:round;">
<path d="M43310 77960
L43310 78740
" />
</g>
<g style="fill:#840000; fill-opacity:0.0; 
stroke:#840000; stroke-width:100; stroke-opacity:1; 
stroke-linecap:round; stroke-linejoin:round;">
</g>
<g style="fill:#840000; fill-opacity:0.0; 
stroke:#840000; stroke-width:60; stroke-opacity:1; 
stroke-linecap:round; stroke-linejoin:round;">
<path d="M62990 77960
L62990 78740
" />
</g>
<g style="fill:#840000; fill-opacity:0.0; 
stroke:#840000; stroke-width:100; stroke-opacity:1; 
stroke-linecap:round; stroke-linejoin:round;">
</g>
<g style="fill:#840000; fill-opacity:0.0; 
stroke:#840000; stroke-width:60; stroke-opacity:1; 
stroke-linecap:round; stroke-linejoin:round;">
<path d="M82680 77960
L82680 78740
" />
</g>
<g style="fill:#840000; fill-opacity:0.0; 
stroke:#840000; stroke-width:100; stroke-opacity:1; 
stroke-linecap:round; stroke-linejoin:round;">
</g>
<g style="fill:#840000; fill-opacity:0.0; 
stroke:#840000; stroke-width:60; stroke-opacity:1; 
stroke-linecap:round; stroke-linejoin:round;">
<path d="M102360 77960
L102360 78740
" />
</g>
<g style="fill:#840000; fill-opacity:0.0; 
stroke:#840000; stroke-width:100; stroke-opacity:1; 
stroke-linecap:round; stroke-linejoin:round;">
</g>
<g style="fill:#840000; fill-opacity:0.0; 
stroke:#840000; stroke-width:60; stroke-opacity:1; 
stroke-linecap:round; stroke-linejoin:round;">
<path d="M14170 78580
L13880 78580
" />
<path d="M14020 78580
L14020 78070
L13970 78140
L13930 78190
L13880 78210
" />
</g>
<g style="fill:#840000; fill-opacity:0.0; 
stroke:#840000; stroke-width:100; stroke-opacity:1; 
stroke-linecap:round; stroke-linejoin:round;">
</g>
<g style="fill:#840000; fill-opacity:0.0; 
stroke:#840000; stroke-width:60; stroke-opacity:1; 
stroke-linecap:round; stroke-linejoin:round;">
<path d="M33560 78110
L33580 78090
L33630 78070
L33750 78070
L33800 78090
L33820 78110
L33850 78160
L33850 78210
L33820 78280
L33530 78580
L33850 78580
" />
</g>
<g style="fill:#840000; fill-opacity:0.0; 
stroke:#840000; stroke-width:100; stroke-opacity:1; 
stroke-linecap:round; stroke-linejoin:round;">
</g>
<g style="fill:#840000; fill-opacity:0.0; 
stroke:#840000; stroke-width:60; stroke-opacity:1; 
stroke-linecap:round; stroke-linejoin:round;">
<path d="M53220 78070
L53540 78070
L53370 78260
L53440 78260
L53490 78280
L53510 78310
L53540 78360
L53540 78480
L53510 78530
L53490 78550
L53440 78580
L53300 78580
L53250 78550
L53220 78530
" />
</g>
<g style="fill:#840000; fill-opacity:0.0; 
stroke:#840000; stroke-width:100; stroke-opacity:1; 
stroke-linecap:round; stroke-linejoin:round;">
</g>
<g style="fill:#840000; fill-opacity:0.0; 
stroke:#840000; stroke-width:60; stroke-opacity:1; 
stroke-linecap:round; stroke-linejoin:round;">
<path d="M73170 78240
L73170 78580
" />
<path d="M73050 78040
L72930 78410
L73240 78410
" />
</g>
<g style="fill:#840000; fill-opacity:0.0; 
stroke:#840000; stroke-width:100; stroke-opacity:1; 
stroke-linecap:round; stroke-linejoin:round;">
</g>
<g style="fill:#840000; fill-opacity:0.0; 
stroke:#840000; stroke-width:60; stroke-opacity:1; 
stroke-linecap:round; stroke-linejoin:round;">
<path d="M92880 78070
L92640 78070
L92620 78310
L92640 78280
L92690 78260
L92810 78260
L92860 78280
L92880 78310
L92910 78360
L92910 78480
L92880 78530
L92860 78550
L92810 78580
L92690 78580
L92640 78550
L92620 78530
" />
</g>
<g style="fill:#840000; fill-opacity:0.0; 
stroke:#840000; stroke-width:100; stroke-opacity:1; 
stroke-linecap:round; stroke-linejoin:round;">
</g>
<g style="fill:#840000; fill-opacity:0.0; 
stroke:#840000; stroke-width:60; stroke-opacity:1; 
stroke-linecap:round; stroke-linejoin:round;">
<path d="M112540 78070
L112440 78070
L112390 78090
L112370 78110
L112320 78190
L112300 78280
L112300 78480
L112320 78530
L112350 78550
L112390 78580
L112490 78580
L112540 78550
L112560 78530
L112590 78480
L112590 78360
L112560 78310
L112540 78280
L112490 78260
L112390 78260
L112350 78280
L112320 78310
L112300 78360
" />
</g>
<g style="fill:#840000; fill-opacity:0.0; 
stroke:#840000; stroke-width:100; stroke-opacity:1; 
stroke-linecap:round; stroke-linejoin:round;">
</g>
<g style="fill:#840000; fill-opacity:0.0; 
stroke:#840000; stroke-width:60; stroke-opacity:1; 
stroke-linecap:round; stroke-linejoin:round;">
<path d="M3940 23620
L4720 23620
" />
</g>
<g style="fill:#840000; fill-opacity:0.0; 
stroke:#840000; stroke-width:100; stroke-opacity:1; 
stroke-linecap:round; stroke-linejoin:round;">
</g>
<g style="fill:#840000; fill-opacity:0.0; 
stroke:#840000; stroke-width:60; stroke-opacity:1; 
stroke-linecap:round; stroke-linejoin:round;">
<path d="M3940 43310
L4720 43310
" />
</g>
<g style="fill:#840000; fill-opacity:0.0; 
stroke:#840000; stroke-width:100; stroke-opacity:1; 
stroke-linecap:round; stroke-linejoin:round;">
</g>
<g style="fill:#840000; fill-opacity:0.0; 
stroke:#840000; stroke-width:60; stroke-opacity:1; 
stroke-linecap:round; stroke-linejoin:round;">
<path d="M3940 62990
L4720 62990
" />
</g>
<g style="fill:#840000; fill-opacity:0.0; 
stroke:#840000; stroke-width:100; stroke-opacity:1; 
stroke-linecap:round; stroke-linejoin:round;">
</g>
<g style="fill:#840000; fill-opacity:0.0; 
stroke:#840000; stroke-width:60; stroke-opacity:1; 
stroke-linecap:round; stroke-linejoin:round;">
<path d="M4210 13860
L4450 13860
" />
<path d="M4160 14010
L4330 13500
L4500 14010
" />
</g>
<g style="fill:#840000; fill-opacity:0.0; 
stroke:#840000; stroke-width:100; stroke-opacity:1; 
stroke-linecap:round; stroke-linejoin:round;">
</g>
<g style="fill:#840000; fill-opacity:0.0; 
stroke:#840000; stroke-width:60; stroke-opacity:1; 
stroke-linecap:round; stroke-linejoin:round;">
<path d="M4370 33420
L4440 33440
L4470 33470
L4490 33520
L4490 33590
L4470 33640
L4440 33660
L4400 33690
L4200 33690
L4200 33180
L4370 33180
L4420 33200
L4440 33220
L4470 33270
L4470 33320
L4440 33370
L4420 33390
L4370 33420
L4200 33420
" />
</g>
<g style="fill:#840000; fill-opacity:0.0; 
stroke:#840000; stroke-width:100; stroke-opacity:1; 
stroke-linecap:round; stroke-linejoin:round;">
</g>
<g style="fill:#840000; fill-opacity:0.0; 
stroke:#840000; stroke-width:60; stroke-opacity:1; 
stroke-linecap:round; stroke-linejoin:round;">
<path d="M4490 53330
L4470 53350
L4400 53380
L4350 53380
L4270 53350
L4230 53300
L4200 53250
L4180 53160
L4180 53080
L4200 52990
L4230 52940
L4270 52890
L4350 52870
L4400 52870
L4470 52890
L4490 52910
" />
</g>
<g style="fill:#840000; fill-opacity:0.0; 
stroke:#840000; stroke-width:100; stroke-opacity:1; 
stroke-linecap:round; stroke-linejoin:round;">
</g>
<g style="fill:#840000; fill-opacity:0.0; 
stroke:#840000; stroke-width:60; stroke-opacity:1; 
stroke-linecap:round; stroke-linejoin:round;">
<path d="M4200 73060
L4200 72550
L4320 72550
L4400 72570
L4440 72620
L4470 72670
L4490 72760
L4490 72840
L4470 72930
L4440 72980
L4400 73030
L4320 73060
L4200 73060
" />
</g>
<g style="fill:#840000; fill-opacity:0.0; 
stroke:#840000; stroke-width:100; stroke-opacity:1; 
stroke-linecap:round; stroke-linejoin:round;">
</g>
<g style="fill:#840000; fill-opacity:0.0; 
stroke:#840000; stroke-width:60; stroke-opacity:1; 
stroke-linecap:round; stroke-linejoin:round;">
<path d="M112990 23620
L112210 23620
" />
</g>
<g style="fill:#840000; fill-opacity:0.0; 
stroke:#840000; stroke-width:100; stroke-opacity:1; 
stroke-linecap:round; stroke-linejoin:round;">
</g>
<g style="fill:#840000; fill-opacity:0.0; 
stroke:#840000; stroke-width:60; stroke-opacity:1; 
stroke-linecap:round; stroke-linejoin:round;">
<path d="M112990 43310
L112210 43310
" />
</g>
<g style="fill:#840000; fill-opacity:0.0; 
stroke:#840000; stroke-width:100; stroke-opacity:1; 
stroke-linecap:round; stroke-linejoin:round;">
</g>
<g style="fill:#840000; fill-opacity:0.0; 
stroke:#840000; stroke-width:60; stroke-opacity:1; 
stroke-linecap:round; stroke-linejoin:round;">
<path d="M112990 62990
L112210 62990
" />
</g>
<g style="fill:#840000; fill-opacity:0.0; 
stroke:#840000; stroke-width:100; stroke-opacity:1; 
stroke-linecap:round; stroke-linejoin:round;">
</g>
<g style="fill:#840000; fill-opacity:0.0; 
stroke:#840000; stroke-width:60; stroke-opacity:1; 
stroke-linecap:round; stroke-linejoin:round;">
<path d="M112480 13860
L112720 13860
" />
<path d="M112430 14010
L112600 13500
L112770 14010
" />
</g>
<g style="fill:#840000; fill-opacity:0.0; 
stroke:#840000; stroke-width:100; stroke-opacity:1; 
stroke-linecap:round; stroke-linejoin:round;">
</g>
<g style="fill:#840000; fill-opacity:0.0; 
stroke:#840000; stroke-width:60; stroke-opacity:1; 
stroke-linecap:round; stroke-linejoin:round;">
<path d="M112640 33420
L112710 33440
L112740 33470
L112760 33520
L112760 33590
L112740 33640
L112710 33660
L112670 33690
L112470 33690
L112470 33180
L112640 33180
L112690 33200
L112710 33220
L112740 33270
L112740 33320
L112710 33370
L112690 33390
L112640 33420
L112470 33420
" />
</g>
<g style="fill:#840000; fill-opacity:0.0; 
stroke:#840000; stroke-width:100; stroke-opacity:1; 
stroke-linecap:round; stroke-linejoin:round;">
</g>
<g style="fill:#840000; fill-opacity:0.0; 
stroke:#840000; stroke-width:60; stroke-opacity:1; 
stroke-linecap:round; stroke-linejoin:round;">
<path d="M112760 53330
L112740 53350
L112670 53380
L112620 53380
L112540 53350
L112500 53300
L112470 53250
L112450 53160
L112450 53080
L112470 52990
L112500 52940
L112540 52890
L112620 52870
L112670 52870
L112740 52890
L112760 52910
" />
</g>
<g style="fill:#840000; fill-opacity:0.0; 
stroke:#840000; stroke-width:100; stroke-opacity:1; 
stroke-linecap:round; stroke-linejoin:round;">
</g>
<g style="fill:#840000; fill-opacity:0.0; 
stroke:#840000; stroke-width:60; stroke-opacity:1; 
stroke-linecap:round; stroke-linejoin:round;">
<path d="M112470 73060
L112470 72550
L112590 72550
L112670 72570
L112710 72620
L112740 72670
L112760 72760
L112760 72840
L112740 72930
L112710 72980
L112670 73030
L112590 73060
L112470 73060
" />
</g>
<g style="fill:#840000; fill-opacity:0.0; 
stroke:#840000; stroke-width:100; stroke-opacity:1; 
stroke-linecap:round; stroke-linejoin:round;">
</g>
<g style="fill:#840000; fill-opacity:0.0; 
stroke:#840000; stroke-width:60; stroke-opacity:1; 
stroke-linecap:round; stroke-linejoin:round;">
<path d="M78880 76290
L78880 75700
L79020 75700
L79110 75730
L79160 75790
L79190 75840
L79220 75950
L79220 76040
L79190 76150
L79160 76210
L79110 76260
L79020 76290
L78880 76290
" />
<path d="M79720 76290
L79720 75980
L79700 75930
L79640 75900
L79530 75900
L79470 75930
" />
<path d="M79720 76260
L79670 76290
L79530 76290
L79470 76260
L79440 76210
L79440 76150
L79470 76100
L79530 76070
L79670 76070
L79720 76040
" />
<path d="M79920 75900
L80140 75900
" />
<path d="M80000 75700
L80000 76210
L80030 76260
L80080 76290
L80140 76290
" />
<path d="M80570 76260
L80510 76290
L80400 76290
L80340 76260
L80310 76210
L80310 75980
L80340 75930
L80400 75900
L80510 75900
L80570 75930
L80590 75980
L80590 76040
L80310 76100
" />
<path d="M80850 76240
L80880 76260
L80850 76290
L80820 76260
L80850 76240
L80850 76290
" />
<path d="M80850 75930
L80880 75950
L80850 75980
L80820 75950
L80850 75930
L80850 75980
" />
</g>
<g style="fill:#840000; fill-opacity:0.0; 
stroke:#840000; stroke-width:100; stroke-opacity:1; 
stroke-linecap:round; stroke-linejoin:round;">
</g>
<g style="fill:#840000; fill-opacity:0.0; 
stroke:#840000; stroke-width:60; stroke-opacity:1; 
stroke-linecap:round; stroke-linejoin:round;">
<path d="M69690 76580
L112210 76580
" />
</g>
<g style="fill:#840000; fill-opacity:0.0; 
stroke:#840000; stroke-width:100; stroke-opacity:1; 
stroke-linecap:round; stroke-linejoin:round;">
</g>
<g style="fill:#840000; fill-opacity:0.0; 
stroke:#840000; stroke-width:60; stroke-opacity:1; 
stroke-linecap:round; stroke-linejoin:round;">
<path d="M70220 77390
L70220 76800
" />
<path d="M70560 77390
L70300 77050
" />
<path d="M70560 76800
L70220 77140
" />
<path d="M70810 77390
L70810 77000
" />
<path d="M70810 76800
L70780 76830
L70810 76860
L70840 76830
L70810 76800
L70810 76860
" />
<path d="M71430 77340
L71400 77360
L71320 77390
L71260 77390
L71170 77360
L71120 77310
L71090 77250
L71060 77140
L71060 77050
L71090 76940
L71120 76890
L71170 76830
L71260 76800
L71320 76800
L71400 76830
L71430 76860
" />
<path d="M71930 77390
L71930 77080
L71910 77030
L71850 77000
L71740 77000
L71680 77030
" />
<path d="M71930 77360
L71880 77390
L71740 77390
L71680 77360
L71650 77310
L71650 77250
L71680 77200
L71740 77170
L71880 77170
L71930 77140
" />
<path d="M72460 77390
L72460 76800
" />
<path d="M72460 77360
L72410 77390
L72290 77390
L72240 77360
L72210 77340
L72180 77280
L72180 77110
L72210 77050
L72240 77030
L72290 77000
L72410 77000
L72460 77030
" />
<path d="M73190 77080
L73390 77080
" />
<path d="M73470 77390
L73190 77390
L73190 76800
L73470 76800
" />
<path d="M73720 77340
L73750 77360
L73720 77390
L73690 77360
L73720 77340
L73720 77390
" />
<path d="M74000 77390
L74000 76800
L74140 76800
L74230 76830
L74280 76890
L74310 76940
L74340 77050
L74340 77140
L74310 77250
L74280 77310
L74230 77360
L74140 77390
L74000 77390
" />
<path d="M74590 77340
L74620 77360
L74590 77390
L74560 77360
L74590 77340
L74590 77390
" />
<path d="M74840 77220
L75120 77220
" />
<path d="M74790 77390
L74980 76800
L75180 77390
" />
<path d="M75380 77340
L75410 77360
L75380 77390
L75350 77360
L75380 77340
L75380 77390
" />
<path d="M76560 77390
L76560 76800
" />
<path d="M76620 77170
L76790 77390
" />
<path d="M76790 77000
L76560 77220
" />
<path d="M77040 77390
L77040 77000
" />
<path d="M77040 76800
L77010 76830
L77040 76860
L77070 76830
L77040 76800
L77040 76860
" />
<path d="M77570 77360
L77520 77390
L77400 77390
L77350 77360
L77320 77340
L77290 77280
L77290 77110
L77320 77050
L77350 77030
L77400 77000
L77520 77000
L77570 77030
" />
<path d="M78080 77390
L78080 77080
L78060 77030
L78000 77000
L77890 77000
L77830 77030
" />
<path d="M78080 77360
L78030 77390
L77890 77390
L77830 77360
L77800 77310
L77800 77250
L77830 77200
L77890 77170
L78030 77170
L78080 77140
" />
<path d="M78610 77390
L78610 76800
" />
<path d="M78610 77360
L78560 77390
L78440 77390
L78390 77360
L78360 77340
L78330 77280
L78330 77110
L78360 77050
L78390 77030
L78440 77000
L78560 77000
L78610 77030
" />
<path d="M79590 77000
L79590 77390
" />
<path d="M79450 76770
L79310 77200
L79680 77200
" />
<path d="M79900 77340
L79930 77360
L79900 77390
L79870 77360
L79900 77340
L79900 77390
" />
<path d="M80290 76800
L80350 76800
L80410 76830
L80430 76860
L80460 76910
L80490 77030
L80490 77170
L80460 77280
L80430 77340
L80410 77360
L80350 77390
L80290 77390
L80240 77360
L80210 77340
L80180 77280
L80150 77170
L80150 77030
L80180 76910
L80210 76860
L80240 76830
L80290 76800
" />
<path d="M80740 77340
L80770 77360
L80740 77390
L80710 77360
L80740 77340
L80740 77390
" />
<path d="M81270 76800
L81160 76800
L81100 76830
L81080 76860
L81020 76940
L80990 77050
L80990 77280
L81020 77340
L81050 77360
L81100 77390
L81220 77390
L81270 77360
L81300 77340
L81330 77280
L81330 77140
L81300 77080
L81270 77050
L81220 77030
L81100 77030
L81050 77050
L81020 77080
L80990 77140
" />
</g>
<g style="fill:#840000; fill-opacity:0.0; 
stroke:#840000; stroke-width:100; stroke-opacity:1; 
stroke-linecap:round; stroke-linejoin:round;">
</g>
<g style="fill:#840000; fill-opacity:0.0; 
stroke:#840000; stroke-width:60; stroke-opacity:1; 
stroke-linecap:round; stroke-linejoin:round;">
<path d="M69690 75400
L112210 75400
" />
</g>
<g style="fill:#840000; fill-opacity:0.0; 
stroke:#840000; stroke-width:100; stroke-opacity:1; 
stroke-linecap:round; stroke-linejoin:round;">
</g>
<g style="fill:#840000; fill-opacity:0.0; 
stroke:#840000; stroke-width:120; stroke-opacity:1; 
stroke-linecap:round; stroke-linejoin:round;">
<path d="M104020 76290
L103820 76010
" />
<path d="M103680 76290
L103680 75700
L103910 75700
L103960 75730
L103990 75760
L104020 75810
L104020 75900
L103990 75950
L103960 75980
L103910 76010
L103680 76010
" />
<path d="M104500 76260
L104440 76290
L104330 76290
L104270 76260
L104240 76210
L104240 75980
L104270 75930
L104330 75900
L104440 75900
L104500 75930
L104520 75980
L104520 76040
L104240 76100
" />
<path d="M104720 75900
L104860 76290
L105010 75900
" />
<path d="M105230 76240
L105260 76260
L105230 76290
L105200 76260
L105230 76240
L105230 76290
" />
<path d="M105230 75930
L105260 75950
L105230 75980
L105200 75950
L105230 75930
L105230 75980
" />
</g>
<g style="fill:#840000; fill-opacity:0.0; 
stroke:#840000; stroke-width:100; stroke-opacity:1; 
stroke-linecap:round; stroke-linejoin:round;">
</g>
<g style="fill:#840000; fill-opacity:0.0; 
stroke:#840000; stroke-width:60; stroke-opacity:1; 
stroke-linecap:round; stroke-linejoin:round;">
<path d="M70190 76260
L70280 76290
L70420 76290
L70470 76260
L70500 76240
L70530 76180
L70530 76120
L70500 76070
L70470 76040
L70420 76010
L70300 75980
L70250 75950
L70220 75930
L70190 75870
L70190 75810
L70220 75760
L70250 75730
L70300 75700
L70450 75700
L70530 75730
" />
<path d="M70780 76290
L70780 75900
" />
<path d="M70780 75700
L70750 75730
L70780 75760
L70810 75730
L70780 75700
L70780 75760
" />
<path d="M71000 75900
L71310 75900
L71000 76290
L71310 76290
" />
<path d="M71770 76260
L71710 76290
L71600 76290
L71540 76260
L71510 76210
L71510 75980
L71540 75930
L71600 75900
L71710 75900
L71770 75930
L71790 75980
L71790 76040
L71510 76100
" />
<path d="M72050 76240
L72080 76260
L72050 76290
L72020 76260
L72050 76240
L72050 76290
" />
<path d="M72050 75930
L72080 75950
L72050 75980
L72020 75950
L72050 75930
L72050 75980
" />
<path d="M72750 76120
L73030 76120
" />
<path d="M72700 76290
L72890 75700
L73090 76290
" />
<path d="M73540 75900
L73540 76290
" />
<path d="M73400 75670
L73260 76100
L73630 76100
" />
</g>
<g style="fill:#840000; fill-opacity:0.0; 
stroke:#840000; stroke-width:100; stroke-opacity:1; 
stroke-linecap:round; stroke-linejoin:round;">
</g>
<g style="fill:#840000; fill-opacity:0.0; 
stroke:#840000; stroke-width:60; stroke-opacity:1; 
stroke-linecap:round; stroke-linejoin:round;">
<path d="M103680 77390
L103680 76800
" />
<path d="M104210 77390
L104210 76800
" />
<path d="M104210 77360
L104160 77390
L104040 77390
L103990 77360
L103960 77340
L103930 77280
L103930 77110
L103960 77050
L103990 77030
L104040 77000
L104160 77000
L104210 77030
" />
<path d="M104490 77340
L104520 77360
L104490 77390
L104460 77360
L104490 77340
L104490 77390
" />
<path d="M104490 77030
L104520 77050
L104490 77080
L104460 77050
L104490 77030
L104490 77080
" />
<path d="M105530 77390
L105190 77390
" />
<path d="M105360 77390
L105360 76800
L105300 76890
L105250 76940
L105190 76970
" />
<path d="M106200 76770
L105700 77530
" />
<path d="M106340 76800
L106710 76800
L106510 77030
L106600 77030
L106650 77050
L106680 77080
L106710 77140
L106710 77280
L106680 77340
L106650 77360
L106600 77390
L106430 77390
L106370 77360
L106340 77340
" />
</g>
<g style="fill:#840000; fill-opacity:0.0; 
stroke:#840000; stroke-width:100; stroke-opacity:1; 
stroke-linecap:round; stroke-linejoin:round;">
</g>
<g style="fill:#840000; fill-opacity:0.0; 
stroke:#840000; stroke-width:60; stroke-opacity:1; 
stroke-linecap:round; stroke-linejoin:round;">
<path d="M69690 73820
L112210 73820
" />
</g>
<g style="fill:#840000; fill-opacity:0.0; 
stroke:#840000; stroke-width:100; stroke-opacity:1; 
stroke-linecap:round; stroke-linejoin:round;">
</g>
<g style="fill:#840000; fill-opacity:0.0; 
stroke:#840000; stroke-width:160; stroke-opacity:1; 
stroke-linecap:round; stroke-linejoin:round;">
<path d="M70260 74090
L70710 74090
" />
<path d="M70390 74880
L70480 74090
" />
<path d="M70880 74880
L70940 74360
" />
<path d="M70970 74090
L70930 74130
L70960 74170
L71010 74130
L70970 74090
L70960 74170
" />
<path d="M71210 74360
L71510 74360
" />
<path d="M71350 74090
L71270 74770
L71300 74840
L71370 74880
L71450 74880
" />
<path d="M71820 74880
L71750 74840
L71720 74770
L71800 74090
" />
<path d="M72420 74840
L72340 74880
L72190 74880
L72120 74840
L72090 74770
L72130 74470
L72180 74390
L72250 74360
L72400 74360
L72480 74390
L72510 74470
L72500 74540
L72110 74620
" />
<path d="M72800 74810
L72840 74840
L72800 74880
L72760 74840
L72800 74810
L72800 74880
" />
<path d="M72860 74390
L72890 74430
L72850 74470
L72810 74430
L72860 74390
L72850 74470
" />
</g>
<g style="fill:#840000; fill-opacity:0.0; 
stroke:#840000; stroke-width:100; stroke-opacity:1; 
stroke-linecap:round; stroke-linejoin:round;">
</g>
<g style="fill:#840000; fill-opacity:0.0; 
stroke:#840000; stroke-width:60; stroke-opacity:1; 
stroke-linecap:round; stroke-linejoin:round;">
<path d="M70420 73060
L70220 73060
" />
<path d="M70220 73370
L70220 72780
L70500 72780
" />
<path d="M70730 73370
L70730 72980
" />
<path d="M70730 72780
L70700 72810
L70730 72840
L70760 72810
L70730 72780
L70730 72840
" />
<path d="M71090 73370
L71040 73340
L71010 73290
L71010 72780
" />
<path d="M71550 73340
L71490 73370
L71380 73370
L71320 73340
L71290 73290
L71290 73060
L71320 73010
L71380 72980
L71490 72980
L71550 73010
L71570 73060
L71570 73120
L71290 73180
" />
<path d="M71830 73320
L71860 73340
L71830 73370
L71800 73340
L71830 73320
L71830 73370
" />
<path d="M71830 73010
L71860 73030
L71830 73060
L71800 73030
L71830 73010
L71830 73060
" />
<path d="M72560 73370
L72560 72780
L72760 73200
L72950 72780
L72950 73370
" />
<path d="M73480 73370
L73480 73060
L73460 73010
L73400 72980
L73290 72980
L73230 73010
" />
<path d="M73480 73340
L73430 73370
L73290 73370
L73230 73340
L73200 73290
L73200 73230
L73230 73180
L73290 73150
L73430 73150
L73480 73120
" />
<path d="M73760 73370
L73760 72980
" />
<path d="M73760 72780
L73730 72810
L73760 72840
L73790 72810
L73760 72780
L73760 72840
" />
<path d="M74040 72980
L74040 73370
" />
<path d="M74040 73030
L74070 73010
L74120 72980
L74210 72980
L74270 73010
L74290 73060
L74290 73370
" />
<path d="M74770 73060
L74850 73090
L74880 73120
L74910 73180
L74910 73260
L74880 73320
L74850 73340
L74800 73370
L74570 73370
L74570 72780
L74770 72780
L74820 72810
L74850 72840
L74880 72890
L74880 72950
L74850 73010
L74820 73030
L74770 73060
L74570 73060
" />
<path d="M75240 73370
L75190 73340
L75160 73320
L75130 73260
L75130 73090
L75160 73030
L75190 73010
L75240 72980
L75330 72980
L75390 73010
L75410 73030
L75440 73090
L75440 73260
L75410 73320
L75390 73340
L75330 73370
L75240 73370
" />
<path d="M75940 73370
L75940 73060
L75920 73010
L75860 72980
L75750 72980
L75690 73010
" />
<path d="M75940 73340
L75890 73370
L75750 73370
L75690 73340
L75660 73290
L75660 73230
L75690 73180
L75750 73150
L75890 73150
L75940 73120
" />
<path d="M76220 73370
L76220 72980
" />
<path d="M76220 73090
L76250 73030
L76280 73010
L76330 72980
L76390 72980
" />
<path d="M76840 73370
L76840 72780
" />
<path d="M76840 73340
L76790 73370
L76670 73370
L76620 73340
L76590 73320
L76560 73260
L76560 73090
L76590 73030
L76620 73010
L76670 72980
L76790 72980
L76840 73010
" />
<path d="M77120 73320
L77150 73340
L77120 73370
L77090 73340
L77120 73320
L77120 73370
" />
<path d="M77370 73340
L77430 73370
L77540 73370
L77600 73340
L77630 73290
L77630 73260
L77600 73200
L77540 73180
L77460 73180
L77400 73150
L77370 73090
L77370 73060
L77400 73010
L77460 72980
L77540 72980
L77600 73010
" />
<path d="M78130 73340
L78080 73370
L77960 73370
L77910 73340
L77880 73320
L77850 73260
L77850 73090
L77880 73030
L77910 73010
L77960 72980
L78080 72980
L78130 73010
" />
<path d="M78390 73370
L78390 72780
" />
<path d="M78640 73370
L78640 73060
L78620 73010
L78560 72980
L78470 72980
L78420 73010
L78390 73030
" />
</g>
<g style="fill:#840000; fill-opacity:0.0; 
stroke:#840000; stroke-width:100; stroke-opacity:1; 
stroke-linecap:round; stroke-linejoin:round;">
</g>
<g style="fill:#840000; fill-opacity:0.0; 
stroke:#840000; stroke-width:60; stroke-opacity:1; 
stroke-linecap:round; stroke-linejoin:round;">
<path d="M69690 71460
L112210 71460
" />
</g>
<g style="fill:#840000; fill-opacity:0.0; 
stroke:#840000; stroke-width:100; stroke-opacity:1; 
stroke-linecap:round; stroke-linejoin:round;">
</g>
<g style="fill:#840000; fill-opacity:0.0; 
stroke:#840000; stroke-width:60; stroke-opacity:1; 
stroke-linecap:round; stroke-linejoin:round;">
<path d="M70190 72280
L70280 72310
L70420 72310
L70470 72280
L70500 72260
L70530 72200
L70530 72140
L70500 72090
L70470 72060
L70420 72030
L70300 72000
L70250 71970
L70220 71950
L70190 71890
L70190 71830
L70220 71780
L70250 71750
L70300 71720
L70450 71720
L70530 71750
" />
<path d="M70780 72310
L70780 71720
" />
<path d="M71030 72310
L71030 72000
L71010 71950
L70950 71920
L70860 71920
L70810 71950
L70780 71970
" />
<path d="M71540 72280
L71480 72310
L71370 72310
L71310 72280
L71280 72230
L71280 72000
L71310 71950
L71370 71920
L71480 71920
L71540 71950
L71560 72000
L71560 72060
L71280 72120
" />
<path d="M72050 72280
L71990 72310
L71880 72310
L71820 72280
L71790 72230
L71790 72000
L71820 71950
L71880 71920
L71990 71920
L72050 71950
L72070 72000
L72070 72060
L71790 72120
" />
<path d="M72250 71920
L72470 71920
" />
<path d="M72330 71720
L72330 72230
L72360 72280
L72410 72310
L72470 72310
" />
<path d="M72670 72260
L72700 72280
L72670 72310
L72640 72280
L72670 72260
L72670 72310
" />
<path d="M72670 71950
L72700 71970
L72670 72000
L72640 71970
L72670 71950
L72670 72000
" />
<path d="M73820 71690
L73320 72450
" />
</g>
<g style="fill:#840000; fill-opacity:0.0; 
stroke:#840000; stroke-width:100; stroke-opacity:1; 
stroke-linecap:round; stroke-linejoin:round;">
</g>
<g style="fill:#840000; fill-opacity:0.0; 
stroke:#840000; stroke-width:60; stroke-opacity:1; 
stroke-linecap:round; stroke-linejoin:round;">
<path d="M77560 75400
L77560 76580
" />
</g>
<g style="fill:#840000; fill-opacity:0.0; 
stroke:#840000; stroke-width:100; stroke-opacity:1; 
stroke-linecap:round; stroke-linejoin:round;">
</g>
<g style="fill:#840000; fill-opacity:0.0; 
stroke:#840000; stroke-width:60; stroke-opacity:1; 
stroke-linecap:round; stroke-linejoin:round;">
<path d="M102760 75400
L102760 77960
" />
</g>
<g style="fill:#840084; fill-opacity:0.0; 
stroke:#840084; stroke-width:60; stroke-opacity:1; 
stroke-linecap:round; stroke-linejoin:round;">
<path d="M49500 28000
L58500 28000
L58500 36500
L49500 36500
L49500 28000
" />
</g>
<g style="fill:#008484; fill-opacity:0.0; 
stroke:#008484; stroke-width:60; stroke-opacity:1; 
stroke-linecap:round; stroke-linejoin:round;">
<path d="M49990 27870
L49960 27900
L49870 27930
L49810 27930
L49730 27900
L49670 27850
L49640 27790
L49610 27670
L49610 27590
L49640 27470
L49670 27420
L49730 27360
L49810 27330
L49870 27330
L49960 27360
L49990 27390
" />
<path d="M50330 27930
L50270 27900
L50240 27870
L50210 27820
L50210 27650
L50240 27590
L50270 27560
L50330 27530
L50410 27530
L50470 27560
L50500 27590
L50530 27650
L50530 27820
L50500 27870
L50470 27900
L50410 27930
L50330 27930
" />
<path d="M50780 27530
L50780 27930
" />
<path d="M50780 27590
L50810 27560
L50870 27530
L50950 27530
L51010 27560
L51040 27620
L51040 27930
" />
<path d="M51320 27530
L51320 27930
" />
<path d="M51320 27590
L51350 27560
L51410 27530
L51490 27530
L51550 27560
L51580 27620
L51580 27930
" />
<path d="M52090 27900
L52030 27930
L51920 27930
L51860 27900
L51830 27850
L51830 27620
L51860 27560
L51920 27530
L52030 27530
L52090 27560
L52120 27620
L52120 27670
L51830 27730
" />
<path d="M52630 27900
L52570 27930
L52460 27930
L52400 27900
L52370 27870
L52340 27820
L52340 27650
L52370 27590
L52400 27560
L52460 27530
L52570 27530
L52630 27560
" />
<path d="M52800 27530
L53030 27530
" />
<path d="M52880 27330
L52880 27850
L52910 27900
L52970 27930
L53030 27930
" />
<path d="M53310 27930
L53250 27900
L53220 27870
L53190 27820
L53190 27650
L53220 27590
L53250 27560
L53310 27530
L53390 27530
L53450 27560
L53480 27590
L53510 27650
L53510 27820
L53480 27870
L53450 27900
L53390 27930
L53310 27930
" />
<path d="M53760 27930
L53760 27530
" />
<path d="M53760 27650
L53790 27590
L53820 27560
L53880 27530
L53930 27530
" />
<path d="M54100 27900
L54160 27930
L54280 27930
L54330 27900
L54360 27850
L54360 27820
L54330 27760
L54280 27730
L54190 27730
L54130 27700
L54100 27650
L54100 27620
L54130 27560
L54190 27530
L54280 27530
L54330 27560
" />
</g>
<g style="fill:#848400; fill-opacity:0.0; 
stroke:#848400; stroke-width:60; stroke-opacity:1; 
stroke-linecap:round; stroke-linejoin:round;">
<path d="M49990 37050
L49960 37080
L49870 37110
L49810 37110
L49730 37080
L49670 37030
L49640 36970
L49610 36850
L49610 36770
L49640 36650
L49670 36600
L49730 36540
L49810 36510
L49870 36510
L49960 36540
L49990 36570
" />
<path d="M50330 37110
L50270 37080
L50240 37050
L50210 37000
L50210 36830
L50240 36770
L50270 36740
L50330 36710
L50410 36710
L50470 36740
L50500 36770
L50530 36830
L50530 37000
L50500 37050
L50470 37080
L50410 37110
L50330 37110
" />
<path d="M50780 36710
L50780 37110
" />
<path d="M50780 36770
L50810 36740
L50870 36710
L50950 36710
L51010 36740
L51040 36800
L51040 37110
" />
<path d="M51320 36710
L51320 37110
" />
<path d="M51320 36770
L51350 36740
L51410 36710
L51490 36710
L51550 36740
L51580 36800
L51580 37110
" />
<path d="M52090 37080
L52030 37110
L51920 37110
L51860 37080
L51830 37030
L51830 36800
L51860 36740
L51920 36710
L52030 36710
L52090 36740
L52120 36800
L52120 36850
L51830 36910
" />
<path d="M52630 37080
L52570 37110
L52460 37110
L52400 37080
L52370 37050
L52340 37000
L52340 36830
L52370 36770
L52400 36740
L52460 36710
L52570 36710
L52630 36740
" />
<path d="M52800 36710
L53030 36710
" />
<path d="M52880 36510
L52880 37030
L52910 37080
L52970 37110
L53030 37110
" />
<path d="M53310 37110
L53250 37080
L53220 37050
L53190 37000
L53190 36830
L53220 36770
L53250 36740
L53310 36710
L53390 36710
L53450 36740
L53480 36770
L53510 36830
L53510 37000
L53480 37050
L53450 37080
L53390 37110
L53310 37110
" />
<path d="M53760 37110
L53760 36710
" />
<path d="M53760 36830
L53790 36770
L53820 36740
L53880 36710
L53930 36710
" />
<path d="M54100 37080
L54160 37110
L54280 37110
L54330 37080
L54360 37030
L54360 37000
L54330 36940
L54280 36910
L54190 36910
L54130 36880
L54100 36830
L54100 36800
L54130 36740
L54190 36710
L54280 36710
L54330 36740
" />
<path d="M54620 37050
L54650 37080
L54620 37110
L54590 37080
L54620 37050
L54620 37110
" />
<path d="M54880 37080
L54940 37110
L55060 37110
L55110 37080
L55140 37030
L55140 37000
L55110 36940
L55060 36910
L54970 36910
L54910 36880
L54880 36830
L54880 36800
L54910 36740
L54970 36710
L55060 36710
L55110 36740
" />
<path d="M55660 37080
L55600 37110
L55490 37110
L55430 37080
L55400 37050
L55370 37000
L55370 36830
L55400 36770
L55430 36740
L55490 36710
L55600 36710
L55660 36740
" />
<path d="M55910 37110
L55910 36510
" />
<path d="M56170 37110
L56170 36800
L56140 36740
L56080 36710
L56000 36710
L55940 36740
L55910 36770
" />
</g>
<g style="fill:#840084; fill-opacity:0.0; 
stroke:#840084; stroke-width:60; stroke-opacity:1; 
stroke-linecap:round; stroke-linejoin:round;">
</g>
<g style="fill:#848400; fill-opacity:0.0; 
stroke:#848400; stroke-width:60; stroke-opacity:1; 
stroke-linecap:round; stroke-linejoin:round;">
<path d="M51130 29270
L51130 28670
" />
<path d="M51540 28670
L51650 28670
L51710 28700
L51770 28760
L51790 28870
L51790 29070
L51770 29190
L51710 29240
L51650 29270
L51540 29270
L51480 29240
L51420 29190
L51390 29070
L51390 28870
L51420 28760
L51480 28700
L51540 28670
" />
<path d="M52170 28670
L52220 28670
L52280 28700
L52310 28730
L52340 28790
L52370 28900
L52370 29040
L52340 29160
L52310 29210
L52280 29240
L52220 29270
L52170 29270
L52110 29240
L52080 29210
L52050 29160
L52020 29040
L52020 28900
L52050 28790
L52080 28730
L52110 28700
L52170 28670
" />
<path d="M52480 29330
L52940 29330
" />
<path d="M53250 29470
L53110 29470
L53110 28610
L53250 28610
" />
<path d="M53800 29270
L53450 29270
" />
<path d="M53630 29270
L53630 28670
L53570 28760
L53510 28810
L53450 28840
" />
<path d="M54310 28670
L54200 28670
L54140 28700
L54110 28730
L54050 28810
L54020 28930
L54020 29160
L54050 29210
L54080 29240
L54140 29270
L54250 29270
L54310 29240
L54340 29210
L54370 29160
L54370 29010
L54340 28960
L54310 28930
L54250 28900
L54140 28900
L54080 28930
L54050 28960
L54020 29010
" />
<path d="M54710 28930
L54650 28900
L54620 28870
L54590 28810
L54590 28790
L54620 28730
L54650 28700
L54710 28670
L54820 28670
L54880 28700
L54910 28730
L54940 28790
L54940 28810
L54910 28870
L54880 28900
L54820 28930
L54710 28930
L54650 28960
L54620 28990
L54590 29040
L54590 29160
L54620 29210
L54650 29240
L54710 29270
L54820 29270
L54880 29240
L54910 29210
L54940 29160
L54940 29040
L54910 28990
L54880 28960
L54820 28930
" />
<path d="M55190 29210
L55220 29240
L55190 29270
L55160 29240
L55190 29210
L55190 29270
" />
<path d="M55480 29210
L55510 29240
L55480 29270
L55450 29240
L55480 29210
L55480 29270
" />
<path d="M55740 28730
L55770 28700
L55830 28670
L55970 28670
L56030 28700
L56060 28730
L56090 28790
L56090 28840
L56060 28930
L55720 29270
L56090 29270
" />
<path d="M56310 28730
L56340 28700
L56400 28670
L56540 28670
L56600 28700
L56630 28730
L56660 28790
L56660 28840
L56630 28930
L56290 29270
L56660 29270
" />
<path d="M56880 28730
L56910 28700
L56970 28670
L57110 28670
L57170 28700
L57200 28730
L57230 28790
L57230 28840
L57200 28930
L56860 29270
L57230 29270
" />
<path d="M57430 29470
L57570 29470
L57570 28610
L57430 28610
" />
</g>
<g style="fill:#848400; fill-opacity:0.0; 
stroke:#848400; stroke-width:100; stroke-opacity:1; 
stroke-linecap:round; stroke-linejoin:round;">
<polyline fill="none;"
points="57900,29000
58200,29300
58500,29300
58500,28700
58200,28700
57900,29000
" /> 
</g>
<g style="fill:#848400; fill-opacity:0.0; 
stroke:#848400; stroke-width:60; stroke-opacity:1; 
stroke-linecap:round; stroke-linejoin:round;">
<path d="M51130 30270
L51130 29670
" />
<path d="M51540 29670
L51650 29670
L51710 29700
L51770 29760
L51790 29870
L51790 30070
L51770 30190
L51710 30240
L51650 30270
L51540 30270
L51480 30240
L51420 30190
L51390 30070
L51390 29870
L51420 29760
L51480 29700
L51540 29670
" />
<path d="M52370 30270
L52020 30270
" />
<path d="M52200 30270
L52200 29670
L52140 29760
L52080 29810
L52020 29840
" />
<path d="M52480 30330
L52940 30330
" />
<path d="M53250 30470
L53110 30470
L53110 29610
L53250 29610
" />
<path d="M53800 30270
L53450 30270
" />
<path d="M53630 30270
L53630 29670
L53570 29760
L53510 29810
L53450 29840
" />
<path d="M54170 29670
L54220 29670
L54280 29700
L54310 29730
L54340 29790
L54370 29900
L54370 30040
L54340 30160
L54310 30210
L54280 30240
L54220 30270
L54170 30270
L54110 30240
L54080 30210
L54050 30160
L54020 30040
L54020 29900
L54050 29790
L54080 29730
L54110 29700
L54170 29670
" />
<path d="M54650 30270
L54770 30270
L54820 30240
L54850 30210
L54910 30130
L54940 30010
L54940 29790
L54910 29730
L54880 29700
L54820 29670
L54710 29670
L54650 29700
L54620 29730
L54590 29790
L54590 29930
L54620 29990
L54650 30010
L54710 30040
L54820 30040
L54880 30010
L54910 29990
L54940 29930
" />
<path d="M55190 30210
L55220 30240
L55190 30270
L55160 30240
L55190 30210
L55190 30270
" />
<path d="M55480 30210
L55510 30240
L55480 30270
L55450 30240
L55480 30210
L55480 30270
" />
<path d="M56090 30270
L55740 30270
" />
<path d="M55920 30270
L55920 29670
L55860 29760
L55800 29810
L55740 29840
" />
<path d="M56600 29670
L56490 29670
L56430 29700
L56400 29730
L56340 29810
L56310 29930
L56310 30160
L56340 30210
L56370 30240
L56430 30270
L56540 30270
L56600 30240
L56630 30210
L56660 30160
L56660 30010
L56630 29960
L56600 29930
L56540 29900
L56430 29900
L56370 29930
L56340 29960
L56310 30010
" />
<path d="M56860 29670
L57260 29670
L57000 30270
" />
<path d="M57430 30470
L57570 30470
L57570 29610
L57430 29610
" />
</g>
<g style="fill:#848400; fill-opacity:0.0; 
stroke:#848400; stroke-width:100; stroke-opacity:1; 
stroke-linecap:round; stroke-linejoin:round;">
<polyline fill="none;"
points="57900,30000
58200,30300
58500,30300
58500,29700
58200,29700
57900,30000
" /> 
</g>
<g style="fill:#848400; fill-opacity:0.0; 
stroke:#848400; stroke-width:60; stroke-opacity:1; 
stroke-linecap:round; stroke-linejoin:round;">
<path d="M51700 31270
L51700 30670
" />
<path d="M52110 30670
L52220 30670
L52280 30700
L52340 30760
L52360 30870
L52360 31070
L52340 31190
L52280 31240
L52220 31270
L52110 31270
L52050 31240
L51990 31190
L51960 31070
L51960 30870
L51990 30760
L52050 30700
L52110 30670
" />
<path d="M52590 30730
L52620 30700
L52680 30670
L52820 30670
L52880 30700
L52910 30730
L52940 30790
L52940 30840
L52910 30930
L52570 31270
L52940 31270
" />
<path d="M53050 31330
L53510 31330
" />
<path d="M53820 31470
L53680 31470
L53680 30610
L53820 30610
" />
<path d="M54340 30670
L54050 30670
L54020 30960
L54050 30930
L54110 30900
L54250 30900
L54310 30930
L54340 30960
L54370 31010
L54370 31160
L54340 31210
L54310 31240
L54250 31270
L54110 31270
L54050 31240
L54020 31210
" />
<path d="M54880 30670
L54770 30670
L54710 30700
L54680 30730
L54620 30810
L54590 30930
L54590 31160
L54620 31210
L54650 31240
L54710 31270
L54820 31270
L54880 31240
L54910 31210
L54940 31160
L54940 31010
L54910 30960
L54880 30930
L54820 30900
L54710 30900
L54650 30930
L54620 30960
L54590 31010
" />
<path d="M55190 31210
L55220 31240
L55190 31270
L55160 31240
L55190 31210
L55190 31270
" />
<path d="M55480 31210
L55510 31240
L55480 31270
L55450 31240
L55480 31210
L55480 31270
" />
<path d="M56090 31270
L55740 31270
" />
<path d="M55920 31270
L55920 30670
L55860 30760
L55800 30810
L55740 30840
" />
<path d="M56460 30670
L56510 30670
L56570 30700
L56600 30730
L56630 30790
L56660 30900
L56660 31040
L56630 31160
L56600 31210
L56570 31240
L56510 31270
L56460 31270
L56400 31240
L56370 31210
L56340 31160
L56310 31040
L56310 30900
L56340 30790
L56370 30730
L56400 30700
L56460 30670
" />
<path d="M57170 30870
L57170 31270
" />
<path d="M57030 30640
L56880 31070
L57260 31070
" />
<path d="M57430 31470
L57570 31470
L57570 30610
L57430 30610
" />
</g>
<g style="fill:#848400; fill-opacity:0.0; 
stroke:#848400; stroke-width:100; stroke-opacity:1; 
stroke-linecap:round; stroke-linejoin:round;">
<polyline fill="none;"
points="57900,31000
58200,31300
58500,31300
58500,30700
58200,30700
57900,31000
" /> 
</g>
<g style="fill:#848400; fill-opacity:0.0; 
stroke:#848400; stroke-width:60; stroke-opacity:1; 
stroke-linecap:round; stroke-linejoin:round;">
<path d="M51700 32270
L51700 31670
" />
<path d="M52110 31670
L52220 31670
L52280 31700
L52340 31760
L52360 31870
L52360 32070
L52340 32190
L52280 32240
L52220 32270
L52110 32270
L52050 32240
L51990 32190
L51960 32070
L51960 31870
L51990 31760
L52050 31700
L52110 31670
" />
<path d="M52570 31670
L52940 31670
L52740 31900
L52820 31900
L52880 31930
L52910 31960
L52940 32010
L52940 32160
L52910 32210
L52880 32240
L52820 32270
L52650 32270
L52590 32240
L52570 32210
" />
<path d="M53050 32330
L53510 32330
" />
<path d="M53820 32470
L53680 32470
L53680 31610
L53820 31610
" />
<path d="M54020 31730
L54050 31700
L54110 31670
L54250 31670
L54310 31700
L54340 31730
L54370 31790
L54370 31840
L54340 31930
L54000 32270
L54370 32270
" />
<path d="M54940 32270
L54590 32270
" />
<path d="M54770 32270
L54770 31670
L54710 31760
L54650 31810
L54590 31840
" />
<path d="M55190 32210
L55220 32240
L55190 32270
L55160 32240
L55190 32210
L55190 32270
" />
<path d="M55480 32210
L55510 32240
L55480 32270
L55450 32240
L55480 32210
L55480 32270
" />
<path d="M55740 31730
L55770 31700
L55830 31670
L55970 31670
L56030 31700
L56060 31730
L56090 31790
L56090 31840
L56060 31930
L55720 32270
L56090 32270
" />
<path d="M56630 31670
L56340 31670
L56310 31960
L56340 31930
L56400 31900
L56540 31900
L56600 31930
L56630 31960
L56660 32010
L56660 32160
L56630 32210
L56600 32240
L56540 32270
L56400 32270
L56340 32240
L56310 32210
" />
<path d="M56880 31730
L56910 31700
L56970 31670
L57110 31670
L57170 31700
L57200 31730
L57230 31790
L57230 31840
L57200 31930
L56860 32270
L57230 32270
" />
<path d="M57430 32470
L57570 32470
L57570 31610
L57430 31610
" />
</g>
<g style="fill:#848400; fill-opacity:0.0; 
stroke:#848400; stroke-width:100; stroke-opacity:1; 
stroke-linecap:round; stroke-linejoin:round;">
<polyline fill="none;"
points="57900,32000
58200,32300
58500,32300
58500,31700
58200,31700
57900,32000
" /> 
</g>
<g style="fill:#848400; fill-opacity:0.0; 
stroke:#848400; stroke-width:60; stroke-opacity:1; 
stroke-linecap:round; stroke-linejoin:round;">
<path d="M51680 33460
L51480 33460
" />
<path d="M51480 33770
L51480 33170
L51770 33170
" />
<path d="M51990 33770
L51990 33170
L52220 33170
L52280 33200
L52310 33230
L52340 33290
L52340 33370
L52310 33430
L52280 33460
L52220 33490
L51990 33490
" />
<path d="M52910 33200
L52850 33170
L52760 33170
L52680 33200
L52620 33260
L52590 33310
L52560 33430
L52560 33510
L52590 33630
L52620 33690
L52680 33740
L52760 33770
L52820 33770
L52910 33740
L52940 33710
L52940 33510
L52820 33510
" />
<path d="M53160 33600
L53450 33600
" />
<path d="M53110 33770
L53310 33170
L53510 33770
" />
<path d="M53560 33830
L54020 33830
" />
<path d="M54160 33460
L54360 33460
" />
<path d="M54450 33770
L54160 33770
L54160 33170
L54450 33170
" />
<path d="M54650 33170
L55050 33770
" />
<path d="M55050 33170
L54650 33770
" />
<path d="M55190 33170
L55530 33170
" />
<path d="M55360 33770
L55360 33170
" />
<path d="M55590 33830
L56050 33830
" />
<path d="M56540 33710
L56510 33740
L56420 33770
L56360 33770
L56280 33740
L56220 33690
L56190 33630
L56160 33510
L56160 33430
L56190 33310
L56220 33260
L56280 33200
L56360 33170
L56420 33170
L56510 33200
L56540 33230
" />
<path d="M57080 33770
L56790 33770
L56790 33170
" />
<path d="M57280 33770
L57280 33170
" />
<path d="M57630 33770
L57370 33430
" />
<path d="M57630 33170
L57280 33510
" />
</g>
<g style="fill:#848400; fill-opacity:0.0; 
stroke:#848400; stroke-width:100; stroke-opacity:1; 
stroke-linecap:round; stroke-linejoin:round;">
<polyline fill="none;"
points="57900,33500
58200,33800
58500,33800
58500,33200
58200,33200
57900,33500
" /> 
</g>
<g style="fill:#848400; fill-opacity:0.0; 
stroke:#848400; stroke-width:60; stroke-opacity:1; 
stroke-linecap:round; stroke-linejoin:round;">
</g>
<g style="fill:#840084; fill-opacity:0.0; 
stroke:#840084; stroke-width:60; stroke-opacity:1; 
stroke-linecap:round; stroke-linejoin:round;">
<path d="M64500 28000
L76000 28000
L76000 36500
L64500 36500
L64500 28000
" />
</g>
<g style="fill:#008484; fill-opacity:0.0; 
stroke:#008484; stroke-width:60; stroke-opacity:1; 
stroke-linecap:round; stroke-linejoin:round;">
<path d="M64840 27620
L64640 27620
" />
<path d="M64640 27930
L64640 27330
L64930 27330
" />
<path d="M65150 27930
L65150 27330
L65380 27330
L65440 27360
L65470 27390
L65500 27450
L65500 27530
L65470 27590
L65440 27620
L65380 27650
L65150 27650
" />
<path d="M66070 27360
L66010 27330
L65920 27330
L65840 27360
L65780 27420
L65750 27470
L65720 27590
L65720 27670
L65750 27790
L65780 27850
L65840 27900
L65920 27930
L65980 27930
L66070 27900
L66100 27870
L66100 27670
L65980 27670
" />
<path d="M66320 27760
L66610 27760
" />
<path d="M66270 27930
L66470 27330
L66670 27930
" />
</g>
<g style="fill:#848400; fill-opacity:0.0; 
stroke:#848400; stroke-width:60; stroke-opacity:1; 
stroke-linecap:round; stroke-linejoin:round;">
<path d="M64840 36800
L64640 36800
" />
<path d="M64640 37110
L64640 36510
L64930 36510
" />
<path d="M65150 37110
L65150 36510
L65380 36510
L65440 36540
L65470 36570
L65500 36630
L65500 36710
L65470 36770
L65440 36800
L65380 36830
L65150 36830
" />
<path d="M66070 36540
L66010 36510
L65920 36510
L65840 36540
L65780 36600
L65750 36650
L65720 36770
L65720 36850
L65750 36970
L65780 37030
L65840 37080
L65920 37110
L65980 37110
L66070 37080
L66100 37050
L66100 36850
L65980 36850
" />
<path d="M66320 36940
L66610 36940
" />
<path d="M66270 37110
L66470 36510
L66670 37110
" />
<path d="M66860 37050
L66890 37080
L66860 37110
L66830 37080
L66860 37050
L66860 37110
" />
<path d="M67120 37080
L67180 37110
L67300 37110
L67350 37080
L67380 37030
L67380 37000
L67350 36940
L67300 36910
L67210 36910
L67150 36880
L67120 36830
L67120 36800
L67150 36740
L67210 36710
L67300 36710
L67350 36740
" />
<path d="M67900 37080
L67840 37110
L67730 37110
L67670 37080
L67640 37050
L67610 37000
L67610 36830
L67640 36770
L67670 36740
L67730 36710
L67840 36710
L67900 36740
" />
<path d="M68150 37110
L68150 36510
" />
<path d="M68410 37110
L68410 36800
L68380 36740
L68320 36710
L68240 36710
L68180 36740
L68150 36770
" />
</g>
<g style="fill:#840084; fill-opacity:0.0; 
stroke:#840084; stroke-width:60; stroke-opacity:1; 
stroke-linecap:round; stroke-linejoin:round;">
</g>
<g style="fill:#848400; fill-opacity:0.0; 
stroke:#848400; stroke-width:60; stroke-opacity:1; 
stroke-linecap:round; stroke-linejoin:round;">
<path d="M74210 35240
L74300 35270
L74440 35270
L74500 35240
L74530 35210
L74560 35160
L74560 35100
L74530 35040
L74500 35010
L74440 34990
L74330 34960
L74270 34930
L74240 34900
L74210 34840
L74210 34790
L74240 34730
L74270 34700
L74330 34670
L74470 34670
L74560 34700
" />
<path d="M74780 35240
L74870 35270
L75010 35270
L75070 35240
L75100 35210
L75130 35160
L75130 35100
L75100 35040
L75070 35010
L75010 34990
L74900 34960
L74840 34930
L74810 34900
L74780 34840
L74780 34790
L74810 34730
L74840 34700
L74900 34670
L75040 34670
L75130 34700
" />
<path d="M74100 34570
L75240 34570
" />
</g>
<g style="fill:#848400; fill-opacity:0.0; 
stroke:#848400; stroke-width:100; stroke-opacity:1; 
stroke-linecap:round; stroke-linejoin:round;">
<polyline fill="none;"
points="75400,35000
75700,35300
76000,35300
76000,34700
75700,34700
75400,35000
" /> 
</g>
<g style="fill:#848400; fill-opacity:0.0; 
stroke:#848400; stroke-width:60; stroke-opacity:1; 
stroke-linecap:round; stroke-linejoin:round;">
<path d="M73550 29240
L73640 29270
L73780 29270
L73840 29240
L73870 29210
L73900 29160
L73900 29100
L73870 29040
L73840 29010
L73780 28990
L73670 28960
L73610 28930
L73580 28900
L73550 28840
L73550 28790
L73580 28730
L73610 28700
L73670 28670
L73810 28670
L73900 28700
" />
<path d="M74150 29270
L74150 28670
L74300 28670
L74380 28700
L74440 28760
L74470 28810
L74500 28930
L74500 29010
L74470 29130
L74440 29190
L74380 29240
L74300 29270
L74150 29270
" />
<path d="M74870 28670
L74980 28670
L75040 28700
L75100 28760
L75120 28870
L75120 29070
L75100 29190
L75040 29240
L74980 29270
L74870 29270
L74810 29240
L74750 29190
L74720 29070
L74720 28870
L74750 28760
L74810 28700
L74870 28670
" />
</g>
<g style="fill:#848400; fill-opacity:0.0; 
stroke:#848400; stroke-width:100; stroke-opacity:1; 
stroke-linecap:round; stroke-linejoin:round;">
<polyline fill="none;"
points="75400,29000
75700,29300
76000,29300
76000,28700
75700,28700
75400,29000
" /> 
</g>
<g style="fill:#848400; fill-opacity:0.0; 
stroke:#848400; stroke-width:60; stroke-opacity:1; 
stroke-linecap:round; stroke-linejoin:round;">
<path d="M73890 30240
L73980 30270
L74120 30270
L74180 30240
L74210 30210
L74240 30160
L74240 30100
L74210 30040
L74180 30010
L74120 29990
L74010 29960
L73950 29930
L73920 29900
L73890 29840
L73890 29790
L73920 29730
L73950 29700
L74010 29670
L74150 29670
L74240 29700
" />
<path d="M74490 30270
L74490 29670
L74640 29670
L74720 29700
L74780 29760
L74810 29810
L74840 29930
L74840 30010
L74810 30130
L74780 30190
L74720 30240
L74640 30270
L74490 30270
" />
<path d="M75090 30270
L75090 29670
" />
</g>
<g style="fill:#848400; fill-opacity:0.0; 
stroke:#848400; stroke-width:100; stroke-opacity:1; 
stroke-linecap:round; stroke-linejoin:round;">
<polyline fill="none;"
points="75400,30000
75700,30300
76000,30300
76000,29700
75700,29700
75400,30000
" /> 
</g>
<g style="fill:#848400; fill-opacity:0.0; 
stroke:#848400; stroke-width:60; stroke-opacity:1; 
stroke-linecap:round; stroke-linejoin:round;">
<path d="M73580 31240
L73670 31270
L73810 31270
L73870 31240
L73900 31210
L73930 31160
L73930 31100
L73900 31040
L73870 31010
L73810 30990
L73700 30960
L73640 30930
L73610 30900
L73580 30840
L73580 30790
L73610 30730
L73640 30700
L73700 30670
L73840 30670
L73930 30700
" />
<path d="M74530 31210
L74500 31240
L74410 31270
L74350 31270
L74270 31240
L74210 31190
L74180 31130
L74150 31010
L74150 30930
L74180 30810
L74210 30760
L74270 30700
L74350 30670
L74410 30670
L74500 30700
L74530 30730
" />
<path d="M74780 31270
L74780 30670
" />
<path d="M75130 31270
L74870 30930
" />
<path d="M75130 30670
L74780 31010
" />
</g>
<g style="fill:#848400; fill-opacity:0.0; 
stroke:#848400; stroke-width:100; stroke-opacity:1; 
stroke-linecap:round; stroke-linejoin:round;">
<polyline fill="none;"
points="75400,31000
75700,31300
76000,31300
76000,30700
75700,30700
75400,31000
" /> 
</g>
<g style="fill:#848400; fill-opacity:0.0; 
stroke:#848400; stroke-width:60; stroke-opacity:1; 
stroke-linecap:round; stroke-linejoin:round;">
<path d="M72980 34270
L72980 33670
L73130 33670
L73210 33700
L73270 33760
L73300 33810
L73330 33930
L73330 34010
L73300 34130
L73270 34190
L73210 34240
L73130 34270
L72980 34270
" />
<path d="M73700 33670
L73810 33670
L73870 33700
L73930 33760
L73950 33870
L73950 34070
L73930 34190
L73870 34240
L73810 34270
L73700 34270
L73640 34240
L73580 34190
L73550 34070
L73550 33870
L73580 33760
L73640 33700
L73700 33670
" />
<path d="M74210 34270
L74210 33670
L74560 34270
L74560 33670
" />
<path d="M74840 33960
L75040 33960
" />
<path d="M75130 34270
L74840 34270
L74840 33670
L75130 33670
" />
</g>
<g style="fill:#848400; fill-opacity:0.0; 
stroke:#848400; stroke-width:100; stroke-opacity:1; 
stroke-linecap:round; stroke-linejoin:round;">
<polyline fill="none;"
points="75400,34000
75700,34300
76000,34300
76000,33700
75700,33700
75400,34000
" /> 
</g>
<g style="fill:#848400; fill-opacity:0.0; 
stroke:#848400; stroke-width:60; stroke-opacity:1; 
stroke-linecap:round; stroke-linejoin:round;">
<path d="M73020 33270
L72820 32990
" />
<path d="M72670 33270
L72670 32670
L72900 32670
L72960 32700
L72990 32730
L73020 32790
L73020 32870
L72990 32930
L72960 32960
L72900 32990
L72670 32990
" />
<path d="M73270 32960
L73470 32960
" />
<path d="M73560 33270
L73270 33270
L73270 32670
L73560 32670
" />
<path d="M73780 33240
L73870 33270
L74010 33270
L74070 33240
L74100 33210
L74130 33160
L74130 33100
L74100 33040
L74070 33010
L74010 32990
L73900 32960
L73840 32930
L73810 32900
L73780 32840
L73780 32790
L73810 32730
L73840 32700
L73900 32670
L74040 32670
L74130 32700
" />
<path d="M74380 32960
L74580 32960
" />
<path d="M74670 33270
L74380 33270
L74380 32670
L74670 32670
" />
<path d="M74840 32670
L75180 32670
" />
<path d="M75010 33270
L75010 32670
" />
</g>
<g style="fill:#848400; fill-opacity:0.0; 
stroke:#848400; stroke-width:100; stroke-opacity:1; 
stroke-linecap:round; stroke-linejoin:round;">
<polyline fill="none;"
points="75400,33000
75700,33300
76000,33300
76000,32700
75700,32700
75400,33000
" /> 
</g>
<g style="fill:#848400; fill-opacity:0.0; 
stroke:#848400; stroke-width:60; stroke-opacity:1; 
stroke-linecap:round; stroke-linejoin:round;">
<path d="M65400 29270
L65400 28670
" />
<path d="M65810 28670
L65920 28670
L65980 28700
L66040 28760
L66060 28870
L66060 29070
L66040 29190
L65980 29240
L65920 29270
L65810 29270
L65750 29240
L65690 29190
L65660 29070
L65660 28870
L65690 28760
L65750 28700
L65810 28670
" />
<path d="M66440 28670
L66490 28670
L66550 28700
L66580 28730
L66610 28790
L66640 28900
L66640 29040
L66610 29160
L66580 29210
L66550 29240
L66490 29270
L66440 29270
L66380 29240
L66350 29210
L66320 29160
L66290 29040
L66290 28900
L66320 28790
L66350 28730
L66380 28700
L66440 28670
" />
<path d="M66750 29330
L67210 29330
" />
<path d="M67520 29470
L67380 29470
L67380 28610
L67520 28610
" />
<path d="M68070 29270
L67720 29270
" />
<path d="M67900 29270
L67900 28670
L67840 28760
L67780 28810
L67720 28840
" />
<path d="M68580 28670
L68470 28670
L68410 28700
L68380 28730
L68320 28810
L68290 28930
L68290 29160
L68320 29210
L68350 29240
L68410 29270
L68520 29270
L68580 29240
L68610 29210
L68640 29160
L68640 29010
L68610 28960
L68580 28930
L68520 28900
L68410 28900
L68350 28930
L68320 28960
L68290 29010
" />
<path d="M68980 28930
L68920 28900
L68890 28870
L68860 28810
L68860 28790
L68890 28730
L68920 28700
L68980 28670
L69090 28670
L69150 28700
L69180 28730
L69210 28790
L69210 28810
L69180 28870
L69150 28900
L69090 28930
L68980 28930
L68920 28960
L68890 28990
L68860 29040
L68860 29160
L68890 29210
L68920 29240
L68980 29270
L69090 29270
L69150 29240
L69180 29210
L69210 29160
L69210 29040
L69180 28990
L69150 28960
L69090 28930
" />
<path d="M69460 29210
L69490 29240
L69460 29270
L69430 29240
L69460 29210
L69460 29270
" />
<path d="M69750 29210
L69780 29240
L69750 29270
L69720 29240
L69750 29210
L69750 29270
" />
<path d="M70010 28730
L70040 28700
L70100 28670
L70240 28670
L70300 28700
L70330 28730
L70360 28790
L70360 28840
L70330 28930
L69990 29270
L70360 29270
" />
<path d="M70580 28730
L70610 28700
L70670 28670
L70810 28670
L70870 28700
L70900 28730
L70930 28790
L70930 28840
L70900 28930
L70560 29270
L70930 29270
" />
<path d="M71150 28730
L71180 28700
L71240 28670
L71380 28670
L71440 28700
L71470 28730
L71500 28790
L71500 28840
L71470 28930
L71130 29270
L71500 29270
" />
<path d="M71700 29470
L71840 29470
L71840 28610
L71700 28610
" />
</g>
<g style="fill:#848400; fill-opacity:0.0; 
stroke:#848400; stroke-width:100; stroke-opacity:1; 
stroke-linecap:round; stroke-linejoin:round;">
<polyline fill="none;"
points="65100,29000
64800,28700
64500,28700
64500,29300
64800,29300
65100,29000
" /> 
</g>
<g style="fill:#848400; fill-opacity:0.0; 
stroke:#848400; stroke-width:60; stroke-opacity:1; 
stroke-linecap:round; stroke-linejoin:round;">
<path d="M65400 32270
L65400 31670
" />
<path d="M65810 31670
L65920 31670
L65980 31700
L66040 31760
L66060 31870
L66060 32070
L66040 32190
L65980 32240
L65920 32270
L65810 32270
L65750 32240
L65690 32190
L65660 32070
L65660 31870
L65690 31760
L65750 31700
L65810 31670
" />
<path d="M66270 31670
L66640 31670
L66440 31900
L66520 31900
L66580 31930
L66610 31960
L66640 32010
L66640 32160
L66610 32210
L66580 32240
L66520 32270
L66350 32270
L66290 32240
L66270 32210
" />
<path d="M66750 32330
L67210 32330
" />
<path d="M67520 32470
L67380 32470
L67380 31610
L67520 31610
" />
<path d="M67720 31730
L67750 31700
L67810 31670
L67950 31670
L68010 31700
L68040 31730
L68070 31790
L68070 31840
L68040 31930
L67700 32270
L68070 32270
" />
<path d="M68640 32270
L68290 32270
" />
<path d="M68470 32270
L68470 31670
L68410 31760
L68350 31810
L68290 31840
" />
<path d="M68890 32210
L68920 32240
L68890 32270
L68860 32240
L68890 32210
L68890 32270
" />
<path d="M69180 32210
L69210 32240
L69180 32270
L69150 32240
L69180 32210
L69180 32270
" />
<path d="M69440 31730
L69470 31700
L69530 31670
L69670 31670
L69730 31700
L69760 31730
L69790 31790
L69790 31840
L69760 31930
L69420 32270
L69790 32270
" />
<path d="M70330 31670
L70040 31670
L70010 31960
L70040 31930
L70100 31900
L70240 31900
L70300 31930
L70330 31960
L70360 32010
L70360 32160
L70330 32210
L70300 32240
L70240 32270
L70100 32270
L70040 32240
L70010 32210
" />
<path d="M70580 31730
L70610 31700
L70670 31670
L70810 31670
L70870 31700
L70900 31730
L70930 31790
L70930 31840
L70900 31930
L70560 32270
L70930 32270
" />
<path d="M71130 32470
L71270 32470
L71270 31610
L71130 31610
" />
</g>
<g style="fill:#848400; fill-opacity:0.0; 
stroke:#848400; stroke-width:100; stroke-opacity:1; 
stroke-linecap:round; stroke-linejoin:round;">
<polyline fill="none;"
points="65100,32000
64800,31700
64500,31700
64500,32300
64800,32300
65100,32000
" /> 
</g>
<g style="fill:#848400; fill-opacity:0.0; 
stroke:#848400; stroke-width:60; stroke-opacity:1; 
stroke-linecap:round; stroke-linejoin:round;">
<path d="M65400 31270
L65400 30670
" />
<path d="M65810 30670
L65920 30670
L65980 30700
L66040 30760
L66060 30870
L66060 31070
L66040 31190
L65980 31240
L65920 31270
L65810 31270
L65750 31240
L65690 31190
L65660 31070
L65660 30870
L65690 30760
L65750 30700
L65810 30670
" />
<path d="M66290 30730
L66320 30700
L66380 30670
L66520 30670
L66580 30700
L66610 30730
L66640 30790
L66640 30840
L66610 30930
L66270 31270
L66640 31270
" />
<path d="M66750 31330
L67210 31330
" />
<path d="M67520 31470
L67380 31470
L67380 30610
L67520 30610
" />
<path d="M68040 30670
L67750 30670
L67720 30960
L67750 30930
L67810 30900
L67950 30900
L68010 30930
L68040 30960
L68070 31010
L68070 31160
L68040 31210
L68010 31240
L67950 31270
L67810 31270
L67750 31240
L67720 31210
" />
<path d="M68580 30670
L68470 30670
L68410 30700
L68380 30730
L68320 30810
L68290 30930
L68290 31160
L68320 31210
L68350 31240
L68410 31270
L68520 31270
L68580 31240
L68610 31210
L68640 31160
L68640 31010
L68610 30960
L68580 30930
L68520 30900
L68410 30900
L68350 30930
L68320 30960
L68290 31010
" />
<path d="M68890 31210
L68920 31240
L68890 31270
L68860 31240
L68890 31210
L68890 31270
" />
<path d="M69180 31210
L69210 31240
L69180 31270
L69150 31240
L69180 31210
L69180 31270
" />
<path d="M69790 31270
L69440 31270
" />
<path d="M69620 31270
L69620 30670
L69560 30760
L69500 30810
L69440 30840
" />
<path d="M70160 30670
L70210 30670
L70270 30700
L70300 30730
L70330 30790
L70360 30900
L70360 31040
L70330 31160
L70300 31210
L70270 31240
L70210 31270
L70160 31270
L70100 31240
L70070 31210
L70040 31160
L70010 31040
L70010 30900
L70040 30790
L70070 30730
L70100 30700
L70160 30670
" />
<path d="M70870 30870
L70870 31270
" />
<path d="M70730 30640
L70580 31070
L70960 31070
" />
<path d="M71130 31470
L71270 31470
L71270 30610
L71130 30610
" />
</g>
<g style="fill:#848400; fill-opacity:0.0; 
stroke:#848400; stroke-width:100; stroke-opacity:1; 
stroke-linecap:round; stroke-linejoin:round;">
<polyline fill="none;"
points="65100,31000
64800,30700
64500,30700
64500,31300
64800,31300
65100,31000
" /> 
</g>
<g style="fill:#848400; fill-opacity:0.0; 
stroke:#848400; stroke-width:60; stroke-opacity:1; 
stroke-linecap:round; stroke-linejoin:round;">
<path d="M65400 30270
L65400 29670
" />
<path d="M65810 29670
L65920 29670
L65980 29700
L66040 29760
L66060 29870
L66060 30070
L66040 30190
L65980 30240
L65920 30270
L65810 30270
L65750 30240
L65690 30190
L65660 30070
L65660 29870
L65690 29760
L65750 29700
L65810 29670
" />
<path d="M66640 30270
L66290 30270
" />
<path d="M66470 30270
L66470 29670
L66410 29760
L66350 29810
L66290 29840
" />
<path d="M66750 30330
L67210 30330
" />
<path d="M67520 30470
L67380 30470
L67380 29610
L67520 29610
" />
<path d="M68070 30270
L67720 30270
" />
<path d="M67900 30270
L67900 29670
L67840 29760
L67780 29810
L67720 29840
" />
<path d="M68440 29670
L68490 29670
L68550 29700
L68580 29730
L68610 29790
L68640 29900
L68640 30040
L68610 30160
L68580 30210
L68550 30240
L68490 30270
L68440 30270
L68380 30240
L68350 30210
L68320 30160
L68290 30040
L68290 29900
L68320 29790
L68350 29730
L68380 29700
L68440 29670
" />
<path d="M68920 30270
L69040 30270
L69090 30240
L69120 30210
L69180 30130
L69210 30010
L69210 29790
L69180 29730
L69150 29700
L69090 29670
L68980 29670
L68920 29700
L68890 29730
L68860 29790
L68860 29930
L68890 29990
L68920 30010
L68980 30040
L69090 30040
L69150 30010
L69180 29990
L69210 29930
" />
<path d="M69460 30210
L69490 30240
L69460 30270
L69430 30240
L69460 30210
L69460 30270
" />
<path d="M69750 30210
L69780 30240
L69750 30270
L69720 30240
L69750 30210
L69750 30270
" />
<path d="M70360 30270
L70010 30270
" />
<path d="M70190 30270
L70190 29670
L70130 29760
L70070 29810
L70010 29840
" />
<path d="M70870 29670
L70760 29670
L70700 29700
L70670 29730
L70610 29810
L70580 29930
L70580 30160
L70610 30210
L70640 30240
L70700 30270
L70810 30270
L70870 30240
L70900 30210
L70930 30160
L70930 30010
L70900 29960
L70870 29930
L70810 29900
L70700 29900
L70640 29930
L70610 29960
L70580 30010
" />
<path d="M71130 29670
L71530 29670
L71270 30270
" />
<path d="M71700 30470
L71840 30470
L71840 29610
L71700 29610
" />
</g>
<g style="fill:#848400; fill-opacity:0.0; 
stroke:#848400; stroke-width:100; stroke-opacity:1; 
stroke-linecap:round; stroke-linejoin:round;">
<polyline fill="none;"
points="65100,30000
64800,29700
64500,29700
64500,30300
64800,30300
65100,30000
" /> 
</g>
<g style="fill:#848400; fill-opacity:0.0; 
stroke:#848400; stroke-width:60; stroke-opacity:1; 
stroke-linecap:round; stroke-linejoin:round;">
<path d="M65600 33460
L65400 33460
" />
<path d="M65400 33770
L65400 33170
L65690 33170
" />
<path d="M65910 33770
L65910 33170
L66140 33170
L66200 33200
L66230 33230
L66260 33290
L66260 33370
L66230 33430
L66200 33460
L66140 33490
L65910 33490
" />
<path d="M66830 33200
L66770 33170
L66680 33170
L66600 33200
L66540 33260
L66510 33310
L66480 33430
L66480 33510
L66510 33630
L66540 33690
L66600 33740
L66680 33770
L66740 33770
L66830 33740
L66860 33710
L66860 33510
L66740 33510
" />
<path d="M67080 33600
L67370 33600
" />
<path d="M67030 33770
L67230 33170
L67430 33770
" />
<path d="M67480 33830
L67940 33830
" />
<path d="M68080 33460
L68280 33460
" />
<path d="M68370 33770
L68080 33770
L68080 33170
L68370 33170
" />
<path d="M68570 33170
L68970 33770
" />
<path d="M68970 33170
L68570 33770
" />
<path d="M69110 33170
L69450 33170
" />
<path d="M69280 33770
L69280 33170
" />
<path d="M69510 33830
L69970 33830
" />
<path d="M70460 33710
L70430 33740
L70340 33770
L70280 33770
L70200 33740
L70140 33690
L70110 33630
L70080 33510
L70080 33430
L70110 33310
L70140 33260
L70200 33200
L70280 33170
L70340 33170
L70430 33200
L70460 33230
" />
<path d="M71000 33770
L70710 33770
L70710 33170
" />
<path d="M71200 33770
L71200 33170
" />
<path d="M71550 33770
L71290 33430
" />
<path d="M71550 33170
L71200 33510
" />
</g>
<g style="fill:#848400; fill-opacity:0.0; 
stroke:#848400; stroke-width:100; stroke-opacity:1; 
stroke-linecap:round; stroke-linejoin:round;">
<polyline fill="none;"
points="65100,33500
64800,33200
64500,33200
64500,33800
64800,33800
65100,33500
" /> 
</g>
<g style="fill:#848400; fill-opacity:0.0; 
stroke:#848400; stroke-width:120; stroke-opacity:1; 
stroke-linecap:round; stroke-linejoin:round;">
</g>
<g style="fill:#000084; fill-opacity:0.0; 
stroke:#000084; stroke-width:120; stroke-opacity:1; 
stroke-linecap:round; stroke-linejoin:round;">
<path d="M58500 30000
L64500 30000
" />
<path d="M58500 31000
L64500 31000
" />
<path d="M58500 32000
L64500 32000
" />
<path d="M64500 29000
L58500 29000
" />
</g>
<g style="fill:#000084; fill-opacity:0.0; 
stroke:#000084; stroke-width:60; stroke-opacity:1; 
stroke-linecap:round; stroke-linejoin:round;">
</g>
<g style="fill:#008400; fill-opacity:0.0; 
stroke:#008400; stroke-width:60; stroke-opacity:1; 
stroke-linecap:round; stroke-linejoin:round;">
<path d="M64500 33500
L58500 33500
" />
</g> 
</svg>
