<?xml version="1.0" standalone="no"?>
 <!DOCTYPE svg PUBLIC "-//W3C//DTD SVG 1.1//EN" 
 "http://www.w3.org/Graphics/SVG/1.1/DTD/svg11.dtd"> 
<svg xmlns="http://www.w3.org/2000/svg" version="1.1" 
    width="29.7002cm" height="21.0007cm" viewBox="0 0 116930 82680 ">
<title>SVG Picture created as Regulator-LD29150-3.3V.svg date 2017/04/19 11:33:27 </title>
  <desc>Picture generated by Eeschema-SVG </desc>
<g style="fill:#000000; fill-opacity:1;stroke:#000000; stroke-opacity:1;
stroke-linecap:round; stroke-linejoin:round; "
 transform="translate(0 0) scale(1 1)">
</g>
<g style="fill:#000000; fill-opacity:0.0; 
stroke:#000000; stroke-width:-10; stroke-opacity:1; 
stroke-linecap:round; stroke-linejoin:round;">
</g>
<g style="fill:#840000; fill-opacity:0.0; 
stroke:#840000; stroke-width:-10; stroke-opacity:1; 
stroke-linecap:round; stroke-linejoin:round;">
</g>
<g style="fill:#840000; fill-opacity:0.0; 
stroke:#840000; stroke-width:100; stroke-opacity:1; 
stroke-linecap:round; stroke-linejoin:round;">
</g>
<g style="fill:#840000; fill-opacity:0.0; 
stroke:#840000; stroke-width:60; stroke-opacity:1; 
stroke-linecap:round; stroke-linejoin:round;">
<rect x="69690" y="65360" width="42520" height="12600" rx="0" />
</g>
<g style="fill:#840000; fill-opacity:0.0; 
stroke:#840000; stroke-width:100; stroke-opacity:1; 
stroke-linecap:round; stroke-linejoin:round;">
</g>
<g style="fill:#840000; fill-opacity:0.0; 
stroke:#840000; stroke-width:60; stroke-opacity:1; 
stroke-linecap:round; stroke-linejoin:round;">
<rect x="3940" y="3940" width="109050" height="74800" rx="0" />
</g>
<g style="fill:#840000; fill-opacity:0.0; 
stroke:#840000; stroke-width:100; stroke-opacity:1; 
stroke-linecap:round; stroke-linejoin:round;">
</g>
<g style="fill:#840000; fill-opacity:0.0; 
stroke:#840000; stroke-width:60; stroke-opacity:1; 
stroke-linecap:round; stroke-linejoin:round;">
<rect x="4720" y="4720" width="107490" height="73240" rx="0" />
</g>
<g style="fill:#840000; fill-opacity:0.0; 
stroke:#840000; stroke-width:100; stroke-opacity:1; 
stroke-linecap:round; stroke-linejoin:round;">
</g>
<g style="fill:#840000; fill-opacity:0.0; 
stroke:#840000; stroke-width:60; stroke-opacity:1; 
stroke-linecap:round; stroke-linejoin:round;">
<path d="M23620 4720
L23620 3940
" />
</g>
<g style="fill:#840000; fill-opacity:0.0; 
stroke:#840000; stroke-width:100; stroke-opacity:1; 
stroke-linecap:round; stroke-linejoin:round;">
</g>
<g style="fill:#840000; fill-opacity:0.0; 
stroke:#840000; stroke-width:60; stroke-opacity:1; 
stroke-linecap:round; stroke-linejoin:round;">
<path d="M43310 4720
L43310 3940
" />
</g>
<g style="fill:#840000; fill-opacity:0.0; 
stroke:#840000; stroke-width:100; stroke-opacity:1; 
stroke-linecap:round; stroke-linejoin:round;">
</g>
<g style="fill:#840000; fill-opacity:0.0; 
stroke:#840000; stroke-width:60; stroke-opacity:1; 
stroke-linecap:round; stroke-linejoin:round;">
<path d="M62990 4720
L62990 3940
" />
</g>
<g style="fill:#840000; fill-opacity:0.0; 
stroke:#840000; stroke-width:100; stroke-opacity:1; 
stroke-linecap:round; stroke-linejoin:round;">
</g>
<g style="fill:#840000; fill-opacity:0.0; 
stroke:#840000; stroke-width:60; stroke-opacity:1; 
stroke-linecap:round; stroke-linejoin:round;">
<path d="M82680 4720
L82680 3940
" />
</g>
<g style="fill:#840000; fill-opacity:0.0; 
stroke:#840000; stroke-width:100; stroke-opacity:1; 
stroke-linecap:round; stroke-linejoin:round;">
</g>
<g style="fill:#840000; fill-opacity:0.0; 
stroke:#840000; stroke-width:60; stroke-opacity:1; 
stroke-linecap:round; stroke-linejoin:round;">
<path d="M102360 4720
L102360 3940
" />
</g>
<g style="fill:#840000; fill-opacity:0.0; 
stroke:#840000; stroke-width:100; stroke-opacity:1; 
stroke-linecap:round; stroke-linejoin:round;">
</g>
<g style="fill:#840000; fill-opacity:0.0; 
stroke:#840000; stroke-width:60; stroke-opacity:1; 
stroke-linecap:round; stroke-linejoin:round;">
<path d="M14170 4560
L13880 4560
" />
<path d="M14020 4560
L14020 4050
L13970 4120
L13930 4170
L13880 4190
" />
</g>
<g style="fill:#840000; fill-opacity:0.0; 
stroke:#840000; stroke-width:100; stroke-opacity:1; 
stroke-linecap:round; stroke-linejoin:round;">
</g>
<g style="fill:#840000; fill-opacity:0.0; 
stroke:#840000; stroke-width:60; stroke-opacity:1; 
stroke-linecap:round; stroke-linejoin:round;">
<path d="M33560 4090
L33580 4070
L33630 4050
L33750 4050
L33800 4070
L33820 4090
L33850 4140
L33850 4190
L33820 4260
L33530 4560
L33850 4560
" />
</g>
<g style="fill:#840000; fill-opacity:0.0; 
stroke:#840000; stroke-width:100; stroke-opacity:1; 
stroke-linecap:round; stroke-linejoin:round;">
</g>
<g style="fill:#840000; fill-opacity:0.0; 
stroke:#840000; stroke-width:60; stroke-opacity:1; 
stroke-linecap:round; stroke-linejoin:round;">
<path d="M53220 4050
L53540 4050
L53370 4240
L53440 4240
L53490 4260
L53510 4290
L53540 4340
L53540 4460
L53510 4510
L53490 4530
L53440 4560
L53300 4560
L53250 4530
L53220 4510
" />
</g>
<g style="fill:#840000; fill-opacity:0.0; 
stroke:#840000; stroke-width:100; stroke-opacity:1; 
stroke-linecap:round; stroke-linejoin:round;">
</g>
<g style="fill:#840000; fill-opacity:0.0; 
stroke:#840000; stroke-width:60; stroke-opacity:1; 
stroke-linecap:round; stroke-linejoin:round;">
<path d="M73170 4220
L73170 4560
" />
<path d="M73050 4020
L72930 4390
L73240 4390
" />
</g>
<g style="fill:#840000; fill-opacity:0.0; 
stroke:#840000; stroke-width:100; stroke-opacity:1; 
stroke-linecap:round; stroke-linejoin:round;">
</g>
<g style="fill:#840000; fill-opacity:0.0; 
stroke:#840000; stroke-width:60; stroke-opacity:1; 
stroke-linecap:round; stroke-linejoin:round;">
<path d="M92880 4050
L92640 4050
L92620 4290
L92640 4260
L92690 4240
L92810 4240
L92860 4260
L92880 4290
L92910 4340
L92910 4460
L92880 4510
L92860 4530
L92810 4560
L92690 4560
L92640 4530
L92620 4510
" />
</g>
<g style="fill:#840000; fill-opacity:0.0; 
stroke:#840000; stroke-width:100; stroke-opacity:1; 
stroke-linecap:round; stroke-linejoin:round;">
</g>
<g style="fill:#840000; fill-opacity:0.0; 
stroke:#840000; stroke-width:60; stroke-opacity:1; 
stroke-linecap:round; stroke-linejoin:round;">
<path d="M112540 4050
L112440 4050
L112390 4070
L112370 4090
L112320 4170
L112300 4260
L112300 4460
L112320 4510
L112350 4530
L112390 4560
L112490 4560
L112540 4530
L112560 4510
L112590 4460
L112590 4340
L112560 4290
L112540 4260
L112490 4240
L112390 4240
L112350 4260
L112320 4290
L112300 4340
" />
</g>
<g style="fill:#840000; fill-opacity:0.0; 
stroke:#840000; stroke-width:100; stroke-opacity:1; 
stroke-linecap:round; stroke-linejoin:round;">
</g>
<g style="fill:#840000; fill-opacity:0.0; 
stroke:#840000; stroke-width:60; stroke-opacity:1; 
stroke-linecap:round; stroke-linejoin:round;">
<path d="M23620 77960
L23620 78740
" />
</g>
<g style="fill:#840000; fill-opacity:0.0; 
stroke:#840000; stroke-width:100; stroke-opacity:1; 
stroke-linecap:round; stroke-linejoin:round;">
</g>
<g style="fill:#840000; fill-opacity:0.0; 
stroke:#840000; stroke-width:60; stroke-opacity:1; 
stroke-linecap:round; stroke-linejoin:round;">
<path d="M43310 77960
L43310 78740
" />
</g>
<g style="fill:#840000; fill-opacity:0.0; 
stroke:#840000; stroke-width:100; stroke-opacity:1; 
stroke-linecap:round; stroke-linejoin:round;">
</g>
<g style="fill:#840000; fill-opacity:0.0; 
stroke:#840000; stroke-width:60; stroke-opacity:1; 
stroke-linecap:round; stroke-linejoin:round;">
<path d="M62990 77960
L62990 78740
" />
</g>
<g style="fill:#840000; fill-opacity:0.0; 
stroke:#840000; stroke-width:100; stroke-opacity:1; 
stroke-linecap:round; stroke-linejoin:round;">
</g>
<g style="fill:#840000; fill-opacity:0.0; 
stroke:#840000; stroke-width:60; stroke-opacity:1; 
stroke-linecap:round; stroke-linejoin:round;">
<path d="M82680 77960
L82680 78740
" />
</g>
<g style="fill:#840000; fill-opacity:0.0; 
stroke:#840000; stroke-width:100; stroke-opacity:1; 
stroke-linecap:round; stroke-linejoin:round;">
</g>
<g style="fill:#840000; fill-opacity:0.0; 
stroke:#840000; stroke-width:60; stroke-opacity:1; 
stroke-linecap:round; stroke-linejoin:round;">
<path d="M102360 77960
L102360 78740
" />
</g>
<g style="fill:#840000; fill-opacity:0.0; 
stroke:#840000; stroke-width:100; stroke-opacity:1; 
stroke-linecap:round; stroke-linejoin:round;">
</g>
<g style="fill:#840000; fill-opacity:0.0; 
stroke:#840000; stroke-width:60; stroke-opacity:1; 
stroke-linecap:round; stroke-linejoin:round;">
<path d="M14170 78580
L13880 78580
" />
<path d="M14020 78580
L14020 78070
L13970 78140
L13930 78190
L13880 78210
" />
</g>
<g style="fill:#840000; fill-opacity:0.0; 
stroke:#840000; stroke-width:100; stroke-opacity:1; 
stroke-linecap:round; stroke-linejoin:round;">
</g>
<g style="fill:#840000; fill-opacity:0.0; 
stroke:#840000; stroke-width:60; stroke-opacity:1; 
stroke-linecap:round; stroke-linejoin:round;">
<path d="M33560 78110
L33580 78090
L33630 78070
L33750 78070
L33800 78090
L33820 78110
L33850 78160
L33850 78210
L33820 78280
L33530 78580
L33850 78580
" />
</g>
<g style="fill:#840000; fill-opacity:0.0; 
stroke:#840000; stroke-width:100; stroke-opacity:1; 
stroke-linecap:round; stroke-linejoin:round;">
</g>
<g style="fill:#840000; fill-opacity:0.0; 
stroke:#840000; stroke-width:60; stroke-opacity:1; 
stroke-linecap:round; stroke-linejoin:round;">
<path d="M53220 78070
L53540 78070
L53370 78260
L53440 78260
L53490 78280
L53510 78310
L53540 78360
L53540 78480
L53510 78530
L53490 78550
L53440 78580
L53300 78580
L53250 78550
L53220 78530
" />
</g>
<g style="fill:#840000; fill-opacity:0.0; 
stroke:#840000; stroke-width:100; stroke-opacity:1; 
stroke-linecap:round; stroke-linejoin:round;">
</g>
<g style="fill:#840000; fill-opacity:0.0; 
stroke:#840000; stroke-width:60; stroke-opacity:1; 
stroke-linecap:round; stroke-linejoin:round;">
<path d="M73170 78240
L73170 78580
" />
<path d="M73050 78040
L72930 78410
L73240 78410
" />
</g>
<g style="fill:#840000; fill-opacity:0.0; 
stroke:#840000; stroke-width:100; stroke-opacity:1; 
stroke-linecap:round; stroke-linejoin:round;">
</g>
<g style="fill:#840000; fill-opacity:0.0; 
stroke:#840000; stroke-width:60; stroke-opacity:1; 
stroke-linecap:round; stroke-linejoin:round;">
<path d="M92880 78070
L92640 78070
L92620 78310
L92640 78280
L92690 78260
L92810 78260
L92860 78280
L92880 78310
L92910 78360
L92910 78480
L92880 78530
L92860 78550
L92810 78580
L92690 78580
L92640 78550
L92620 78530
" />
</g>
<g style="fill:#840000; fill-opacity:0.0; 
stroke:#840000; stroke-width:100; stroke-opacity:1; 
stroke-linecap:round; stroke-linejoin:round;">
</g>
<g style="fill:#840000; fill-opacity:0.0; 
stroke:#840000; stroke-width:60; stroke-opacity:1; 
stroke-linecap:round; stroke-linejoin:round;">
<path d="M112540 78070
L112440 78070
L112390 78090
L112370 78110
L112320 78190
L112300 78280
L112300 78480
L112320 78530
L112350 78550
L112390 78580
L112490 78580
L112540 78550
L112560 78530
L112590 78480
L112590 78360
L112560 78310
L112540 78280
L112490 78260
L112390 78260
L112350 78280
L112320 78310
L112300 78360
" />
</g>
<g style="fill:#840000; fill-opacity:0.0; 
stroke:#840000; stroke-width:100; stroke-opacity:1; 
stroke-linecap:round; stroke-linejoin:round;">
</g>
<g style="fill:#840000; fill-opacity:0.0; 
stroke:#840000; stroke-width:60; stroke-opacity:1; 
stroke-linecap:round; stroke-linejoin:round;">
<path d="M3940 23620
L4720 23620
" />
</g>
<g style="fill:#840000; fill-opacity:0.0; 
stroke:#840000; stroke-width:100; stroke-opacity:1; 
stroke-linecap:round; stroke-linejoin:round;">
</g>
<g style="fill:#840000; fill-opacity:0.0; 
stroke:#840000; stroke-width:60; stroke-opacity:1; 
stroke-linecap:round; stroke-linejoin:round;">
<path d="M3940 43310
L4720 43310
" />
</g>
<g style="fill:#840000; fill-opacity:0.0; 
stroke:#840000; stroke-width:100; stroke-opacity:1; 
stroke-linecap:round; stroke-linejoin:round;">
</g>
<g style="fill:#840000; fill-opacity:0.0; 
stroke:#840000; stroke-width:60; stroke-opacity:1; 
stroke-linecap:round; stroke-linejoin:round;">
<path d="M3940 62990
L4720 62990
" />
</g>
<g style="fill:#840000; fill-opacity:0.0; 
stroke:#840000; stroke-width:100; stroke-opacity:1; 
stroke-linecap:round; stroke-linejoin:round;">
</g>
<g style="fill:#840000; fill-opacity:0.0; 
stroke:#840000; stroke-width:60; stroke-opacity:1; 
stroke-linecap:round; stroke-linejoin:round;">
<path d="M4210 13860
L4450 13860
" />
<path d="M4160 14010
L4330 13500
L4500 14010
" />
</g>
<g style="fill:#840000; fill-opacity:0.0; 
stroke:#840000; stroke-width:100; stroke-opacity:1; 
stroke-linecap:round; stroke-linejoin:round;">
</g>
<g style="fill:#840000; fill-opacity:0.0; 
stroke:#840000; stroke-width:60; stroke-opacity:1; 
stroke-linecap:round; stroke-linejoin:round;">
<path d="M4370 33420
L4440 33440
L4470 33470
L4490 33520
L4490 33590
L4470 33640
L4440 33660
L4400 33690
L4200 33690
L4200 33180
L4370 33180
L4420 33200
L4440 33220
L4470 33270
L4470 33320
L4440 33370
L4420 33390
L4370 33420
L4200 33420
" />
</g>
<g style="fill:#840000; fill-opacity:0.0; 
stroke:#840000; stroke-width:100; stroke-opacity:1; 
stroke-linecap:round; stroke-linejoin:round;">
</g>
<g style="fill:#840000; fill-opacity:0.0; 
stroke:#840000; stroke-width:60; stroke-opacity:1; 
stroke-linecap:round; stroke-linejoin:round;">
<path d="M4490 53330
L4470 53350
L4400 53380
L4350 53380
L4270 53350
L4230 53300
L4200 53250
L4180 53160
L4180 53080
L4200 52990
L4230 52940
L4270 52890
L4350 52870
L4400 52870
L4470 52890
L4490 52910
" />
</g>
<g style="fill:#840000; fill-opacity:0.0; 
stroke:#840000; stroke-width:100; stroke-opacity:1; 
stroke-linecap:round; stroke-linejoin:round;">
</g>
<g style="fill:#840000; fill-opacity:0.0; 
stroke:#840000; stroke-width:60; stroke-opacity:1; 
stroke-linecap:round; stroke-linejoin:round;">
<path d="M4200 73060
L4200 72550
L4320 72550
L4400 72570
L4440 72620
L4470 72670
L4490 72760
L4490 72840
L4470 72930
L4440 72980
L4400 73030
L4320 73060
L4200 73060
" />
</g>
<g style="fill:#840000; fill-opacity:0.0; 
stroke:#840000; stroke-width:100; stroke-opacity:1; 
stroke-linecap:round; stroke-linejoin:round;">
</g>
<g style="fill:#840000; fill-opacity:0.0; 
stroke:#840000; stroke-width:60; stroke-opacity:1; 
stroke-linecap:round; stroke-linejoin:round;">
<path d="M112990 23620
L112210 23620
" />
</g>
<g style="fill:#840000; fill-opacity:0.0; 
stroke:#840000; stroke-width:100; stroke-opacity:1; 
stroke-linecap:round; stroke-linejoin:round;">
</g>
<g style="fill:#840000; fill-opacity:0.0; 
stroke:#840000; stroke-width:60; stroke-opacity:1; 
stroke-linecap:round; stroke-linejoin:round;">
<path d="M112990 43310
L112210 43310
" />
</g>
<g style="fill:#840000; fill-opacity:0.0; 
stroke:#840000; stroke-width:100; stroke-opacity:1; 
stroke-linecap:round; stroke-linejoin:round;">
</g>
<g style="fill:#840000; fill-opacity:0.0; 
stroke:#840000; stroke-width:60; stroke-opacity:1; 
stroke-linecap:round; stroke-linejoin:round;">
<path d="M112990 62990
L112210 62990
" />
</g>
<g style="fill:#840000; fill-opacity:0.0; 
stroke:#840000; stroke-width:100; stroke-opacity:1; 
stroke-linecap:round; stroke-linejoin:round;">
</g>
<g style="fill:#840000; fill-opacity:0.0; 
stroke:#840000; stroke-width:60; stroke-opacity:1; 
stroke-linecap:round; stroke-linejoin:round;">
<path d="M112480 13860
L112720 13860
" />
<path d="M112430 14010
L112600 13500
L112770 14010
" />
</g>
<g style="fill:#840000; fill-opacity:0.0; 
stroke:#840000; stroke-width:100; stroke-opacity:1; 
stroke-linecap:round; stroke-linejoin:round;">
</g>
<g style="fill:#840000; fill-opacity:0.0; 
stroke:#840000; stroke-width:60; stroke-opacity:1; 
stroke-linecap:round; stroke-linejoin:round;">
<path d="M112640 33420
L112710 33440
L112740 33470
L112760 33520
L112760 33590
L112740 33640
L112710 33660
L112670 33690
L112470 33690
L112470 33180
L112640 33180
L112690 33200
L112710 33220
L112740 33270
L112740 33320
L112710 33370
L112690 33390
L112640 33420
L112470 33420
" />
</g>
<g style="fill:#840000; fill-opacity:0.0; 
stroke:#840000; stroke-width:100; stroke-opacity:1; 
stroke-linecap:round; stroke-linejoin:round;">
</g>
<g style="fill:#840000; fill-opacity:0.0; 
stroke:#840000; stroke-width:60; stroke-opacity:1; 
stroke-linecap:round; stroke-linejoin:round;">
<path d="M112760 53330
L112740 53350
L112670 53380
L112620 53380
L112540 53350
L112500 53300
L112470 53250
L112450 53160
L112450 53080
L112470 52990
L112500 52940
L112540 52890
L112620 52870
L112670 52870
L112740 52890
L112760 52910
" />
</g>
<g style="fill:#840000; fill-opacity:0.0; 
stroke:#840000; stroke-width:100; stroke-opacity:1; 
stroke-linecap:round; stroke-linejoin:round;">
</g>
<g style="fill:#840000; fill-opacity:0.0; 
stroke:#840000; stroke-width:60; stroke-opacity:1; 
stroke-linecap:round; stroke-linejoin:round;">
<path d="M112470 73060
L112470 72550
L112590 72550
L112670 72570
L112710 72620
L112740 72670
L112760 72760
L112760 72840
L112740 72930
L112710 72980
L112670 73030
L112590 73060
L112470 73060
" />
</g>
<g style="fill:#840000; fill-opacity:0.0; 
stroke:#840000; stroke-width:100; stroke-opacity:1; 
stroke-linecap:round; stroke-linejoin:round;">
</g>
<g style="fill:#840000; fill-opacity:0.0; 
stroke:#840000; stroke-width:60; stroke-opacity:1; 
stroke-linecap:round; stroke-linejoin:round;">
<path d="M78880 76290
L78880 75700
L79020 75700
L79110 75730
L79160 75790
L79190 75840
L79220 75950
L79220 76040
L79190 76150
L79160 76210
L79110 76260
L79020 76290
L78880 76290
" />
<path d="M79720 76290
L79720 75980
L79700 75930
L79640 75900
L79530 75900
L79470 75930
" />
<path d="M79720 76260
L79670 76290
L79530 76290
L79470 76260
L79440 76210
L79440 76150
L79470 76100
L79530 76070
L79670 76070
L79720 76040
" />
<path d="M79920 75900
L80140 75900
" />
<path d="M80000 75700
L80000 76210
L80030 76260
L80080 76290
L80140 76290
" />
<path d="M80570 76260
L80510 76290
L80400 76290
L80340 76260
L80310 76210
L80310 75980
L80340 75930
L80400 75900
L80510 75900
L80570 75930
L80590 75980
L80590 76040
L80310 76100
" />
<path d="M80850 76240
L80880 76260
L80850 76290
L80820 76260
L80850 76240
L80850 76290
" />
<path d="M80850 75930
L80880 75950
L80850 75980
L80820 75950
L80850 75930
L80850 75980
" />
</g>
<g style="fill:#840000; fill-opacity:0.0; 
stroke:#840000; stroke-width:100; stroke-opacity:1; 
stroke-linecap:round; stroke-linejoin:round;">
</g>
<g style="fill:#840000; fill-opacity:0.0; 
stroke:#840000; stroke-width:60; stroke-opacity:1; 
stroke-linecap:round; stroke-linejoin:round;">
<path d="M69690 76580
L112210 76580
" />
</g>
<g style="fill:#840000; fill-opacity:0.0; 
stroke:#840000; stroke-width:100; stroke-opacity:1; 
stroke-linecap:round; stroke-linejoin:round;">
</g>
<g style="fill:#840000; fill-opacity:0.0; 
stroke:#840000; stroke-width:60; stroke-opacity:1; 
stroke-linecap:round; stroke-linejoin:round;">
<path d="M70220 77390
L70220 76800
" />
<path d="M70560 77390
L70300 77050
" />
<path d="M70560 76800
L70220 77140
" />
<path d="M70810 77390
L70810 77000
" />
<path d="M70810 76800
L70780 76830
L70810 76860
L70840 76830
L70810 76800
L70810 76860
" />
<path d="M71430 77340
L71400 77360
L71320 77390
L71260 77390
L71170 77360
L71120 77310
L71090 77250
L71060 77140
L71060 77050
L71090 76940
L71120 76890
L71170 76830
L71260 76800
L71320 76800
L71400 76830
L71430 76860
" />
<path d="M71930 77390
L71930 77080
L71910 77030
L71850 77000
L71740 77000
L71680 77030
" />
<path d="M71930 77360
L71880 77390
L71740 77390
L71680 77360
L71650 77310
L71650 77250
L71680 77200
L71740 77170
L71880 77170
L71930 77140
" />
<path d="M72460 77390
L72460 76800
" />
<path d="M72460 77360
L72410 77390
L72290 77390
L72240 77360
L72210 77340
L72180 77280
L72180 77110
L72210 77050
L72240 77030
L72290 77000
L72410 77000
L72460 77030
" />
<path d="M73190 77080
L73390 77080
" />
<path d="M73470 77390
L73190 77390
L73190 76800
L73470 76800
" />
<path d="M73720 77340
L73750 77360
L73720 77390
L73690 77360
L73720 77340
L73720 77390
" />
<path d="M74000 77390
L74000 76800
L74140 76800
L74230 76830
L74280 76890
L74310 76940
L74340 77050
L74340 77140
L74310 77250
L74280 77310
L74230 77360
L74140 77390
L74000 77390
" />
<path d="M74590 77340
L74620 77360
L74590 77390
L74560 77360
L74590 77340
L74590 77390
" />
<path d="M74840 77220
L75120 77220
" />
<path d="M74790 77390
L74980 76800
L75180 77390
" />
<path d="M75380 77340
L75410 77360
L75380 77390
L75350 77360
L75380 77340
L75380 77390
" />
<path d="M76560 77390
L76560 76800
" />
<path d="M76620 77170
L76790 77390
" />
<path d="M76790 77000
L76560 77220
" />
<path d="M77040 77390
L77040 77000
" />
<path d="M77040 76800
L77010 76830
L77040 76860
L77070 76830
L77040 76800
L77040 76860
" />
<path d="M77570 77360
L77520 77390
L77400 77390
L77350 77360
L77320 77340
L77290 77280
L77290 77110
L77320 77050
L77350 77030
L77400 77000
L77520 77000
L77570 77030
" />
<path d="M78080 77390
L78080 77080
L78060 77030
L78000 77000
L77890 77000
L77830 77030
" />
<path d="M78080 77360
L78030 77390
L77890 77390
L77830 77360
L77800 77310
L77800 77250
L77830 77200
L77890 77170
L78030 77170
L78080 77140
" />
<path d="M78610 77390
L78610 76800
" />
<path d="M78610 77360
L78560 77390
L78440 77390
L78390 77360
L78360 77340
L78330 77280
L78330 77110
L78360 77050
L78390 77030
L78440 77000
L78560 77000
L78610 77030
" />
<path d="M79590 77000
L79590 77390
" />
<path d="M79450 76770
L79310 77200
L79680 77200
" />
<path d="M79900 77340
L79930 77360
L79900 77390
L79870 77360
L79900 77340
L79900 77390
" />
<path d="M80290 76800
L80350 76800
L80410 76830
L80430 76860
L80460 76910
L80490 77030
L80490 77170
L80460 77280
L80430 77340
L80410 77360
L80350 77390
L80290 77390
L80240 77360
L80210 77340
L80180 77280
L80150 77170
L80150 77030
L80180 76910
L80210 76860
L80240 76830
L80290 76800
" />
<path d="M80740 77340
L80770 77360
L80740 77390
L80710 77360
L80740 77340
L80740 77390
" />
<path d="M81270 76800
L81160 76800
L81100 76830
L81080 76860
L81020 76940
L80990 77050
L80990 77280
L81020 77340
L81050 77360
L81100 77390
L81220 77390
L81270 77360
L81300 77340
L81330 77280
L81330 77140
L81300 77080
L81270 77050
L81220 77030
L81100 77030
L81050 77050
L81020 77080
L80990 77140
" />
</g>
<g style="fill:#840000; fill-opacity:0.0; 
stroke:#840000; stroke-width:100; stroke-opacity:1; 
stroke-linecap:round; stroke-linejoin:round;">
</g>
<g style="fill:#840000; fill-opacity:0.0; 
stroke:#840000; stroke-width:60; stroke-opacity:1; 
stroke-linecap:round; stroke-linejoin:round;">
<path d="M69690 75400
L112210 75400
" />
</g>
<g style="fill:#840000; fill-opacity:0.0; 
stroke:#840000; stroke-width:100; stroke-opacity:1; 
stroke-linecap:round; stroke-linejoin:round;">
</g>
<g style="fill:#840000; fill-opacity:0.0; 
stroke:#840000; stroke-width:120; stroke-opacity:1; 
stroke-linecap:round; stroke-linejoin:round;">
<path d="M104020 76290
L103820 76010
" />
<path d="M103680 76290
L103680 75700
L103910 75700
L103960 75730
L103990 75760
L104020 75810
L104020 75900
L103990 75950
L103960 75980
L103910 76010
L103680 76010
" />
<path d="M104500 76260
L104440 76290
L104330 76290
L104270 76260
L104240 76210
L104240 75980
L104270 75930
L104330 75900
L104440 75900
L104500 75930
L104520 75980
L104520 76040
L104240 76100
" />
<path d="M104720 75900
L104860 76290
L105010 75900
" />
<path d="M105230 76240
L105260 76260
L105230 76290
L105200 76260
L105230 76240
L105230 76290
" />
<path d="M105230 75930
L105260 75950
L105230 75980
L105200 75950
L105230 75930
L105230 75980
" />
</g>
<g style="fill:#840000; fill-opacity:0.0; 
stroke:#840000; stroke-width:100; stroke-opacity:1; 
stroke-linecap:round; stroke-linejoin:round;">
</g>
<g style="fill:#840000; fill-opacity:0.0; 
stroke:#840000; stroke-width:60; stroke-opacity:1; 
stroke-linecap:round; stroke-linejoin:round;">
<path d="M70190 76260
L70280 76290
L70420 76290
L70470 76260
L70500 76240
L70530 76180
L70530 76120
L70500 76070
L70470 76040
L70420 76010
L70300 75980
L70250 75950
L70220 75930
L70190 75870
L70190 75810
L70220 75760
L70250 75730
L70300 75700
L70450 75700
L70530 75730
" />
<path d="M70780 76290
L70780 75900
" />
<path d="M70780 75700
L70750 75730
L70780 75760
L70810 75730
L70780 75700
L70780 75760
" />
<path d="M71000 75900
L71310 75900
L71000 76290
L71310 76290
" />
<path d="M71770 76260
L71710 76290
L71600 76290
L71540 76260
L71510 76210
L71510 75980
L71540 75930
L71600 75900
L71710 75900
L71770 75930
L71790 75980
L71790 76040
L71510 76100
" />
<path d="M72050 76240
L72080 76260
L72050 76290
L72020 76260
L72050 76240
L72050 76290
" />
<path d="M72050 75930
L72080 75950
L72050 75980
L72020 75950
L72050 75930
L72050 75980
" />
<path d="M72750 76120
L73030 76120
" />
<path d="M72700 76290
L72890 75700
L73090 76290
" />
<path d="M73540 75900
L73540 76290
" />
<path d="M73400 75670
L73260 76100
L73630 76100
" />
</g>
<g style="fill:#840000; fill-opacity:0.0; 
stroke:#840000; stroke-width:100; stroke-opacity:1; 
stroke-linecap:round; stroke-linejoin:round;">
</g>
<g style="fill:#840000; fill-opacity:0.0; 
stroke:#840000; stroke-width:60; stroke-opacity:1; 
stroke-linecap:round; stroke-linejoin:round;">
<path d="M103680 77390
L103680 76800
" />
<path d="M104210 77390
L104210 76800
" />
<path d="M104210 77360
L104160 77390
L104040 77390
L103990 77360
L103960 77340
L103930 77280
L103930 77110
L103960 77050
L103990 77030
L104040 77000
L104160 77000
L104210 77030
" />
<path d="M104490 77340
L104520 77360
L104490 77390
L104460 77360
L104490 77340
L104490 77390
" />
<path d="M104490 77030
L104520 77050
L104490 77080
L104460 77050
L104490 77030
L104490 77080
" />
<path d="M105530 77390
L105190 77390
" />
<path d="M105360 77390
L105360 76800
L105300 76890
L105250 76940
L105190 76970
" />
<path d="M106200 76770
L105700 77530
" />
<path d="M106710 77390
L106370 77390
" />
<path d="M106540 77390
L106540 76800
L106480 76890
L106430 76940
L106370 76970
" />
</g>
<g style="fill:#840000; fill-opacity:0.0; 
stroke:#840000; stroke-width:100; stroke-opacity:1; 
stroke-linecap:round; stroke-linejoin:round;">
</g>
<g style="fill:#840000; fill-opacity:0.0; 
stroke:#840000; stroke-width:60; stroke-opacity:1; 
stroke-linecap:round; stroke-linejoin:round;">
<path d="M69690 73820
L112210 73820
" />
</g>
<g style="fill:#840000; fill-opacity:0.0; 
stroke:#840000; stroke-width:100; stroke-opacity:1; 
stroke-linecap:round; stroke-linejoin:round;">
</g>
<g style="fill:#840000; fill-opacity:0.0; 
stroke:#840000; stroke-width:160; stroke-opacity:1; 
stroke-linecap:round; stroke-linejoin:round;">
<path d="M70260 74090
L70710 74090
" />
<path d="M70390 74880
L70480 74090
" />
<path d="M70880 74880
L70940 74360
" />
<path d="M70970 74090
L70930 74130
L70960 74170
L71010 74130
L70970 74090
L70960 74170
" />
<path d="M71210 74360
L71510 74360
" />
<path d="M71350 74090
L71270 74770
L71300 74840
L71370 74880
L71450 74880
" />
<path d="M71820 74880
L71750 74840
L71720 74770
L71800 74090
" />
<path d="M72420 74840
L72340 74880
L72190 74880
L72120 74840
L72090 74770
L72130 74470
L72180 74390
L72250 74360
L72400 74360
L72480 74390
L72510 74470
L72500 74540
L72110 74620
" />
<path d="M72800 74810
L72840 74840
L72800 74880
L72760 74840
L72800 74810
L72800 74880
" />
<path d="M72860 74390
L72890 74430
L72850 74470
L72810 74430
L72860 74390
L72850 74470
" />
</g>
<g style="fill:#840000; fill-opacity:0.0; 
stroke:#840000; stroke-width:100; stroke-opacity:1; 
stroke-linecap:round; stroke-linejoin:round;">
</g>
<g style="fill:#840000; fill-opacity:0.0; 
stroke:#840000; stroke-width:60; stroke-opacity:1; 
stroke-linecap:round; stroke-linejoin:round;">
<path d="M70420 73060
L70220 73060
" />
<path d="M70220 73370
L70220 72780
L70500 72780
" />
<path d="M70730 73370
L70730 72980
" />
<path d="M70730 72780
L70700 72810
L70730 72840
L70760 72810
L70730 72780
L70730 72840
" />
<path d="M71090 73370
L71040 73340
L71010 73290
L71010 72780
" />
<path d="M71550 73340
L71490 73370
L71380 73370
L71320 73340
L71290 73290
L71290 73060
L71320 73010
L71380 72980
L71490 72980
L71550 73010
L71570 73060
L71570 73120
L71290 73180
" />
<path d="M71830 73320
L71860 73340
L71830 73370
L71800 73340
L71830 73320
L71830 73370
" />
<path d="M71830 73010
L71860 73030
L71830 73060
L71800 73030
L71830 73010
L71830 73060
" />
<path d="M72900 73370
L72700 73090
" />
<path d="M72560 73370
L72560 72780
L72790 72780
L72840 72810
L72870 72840
L72900 72890
L72900 72980
L72870 73030
L72840 73060
L72790 73090
L72560 73090
" />
<path d="M73380 73340
L73320 73370
L73210 73370
L73150 73340
L73120 73290
L73120 73060
L73150 73010
L73210 72980
L73320 72980
L73380 73010
L73400 73060
L73400 73120
L73120 73180
" />
<path d="M73910 72980
L73910 73460
L73890 73510
L73860 73540
L73800 73570
L73720 73570
L73660 73540
" />
<path d="M73910 73340
L73860 73370
L73740 73370
L73690 73340
L73660 73320
L73630 73260
L73630 73090
L73660 73030
L73690 73010
L73740 72980
L73860 72980
L73910 73010
" />
<path d="M74440 72980
L74440 73370
" />
<path d="M74190 72980
L74190 73290
L74220 73340
L74270 73370
L74360 73370
L74420 73340
L74440 73320
" />
<path d="M74800 73370
L74750 73340
L74720 73290
L74720 72780
" />
<path d="M75280 73370
L75280 73060
L75260 73010
L75200 72980
L75090 72980
L75030 73010
" />
<path d="M75280 73340
L75230 73370
L75090 73370
L75030 73340
L75000 73290
L75000 73230
L75030 73180
L75090 73150
L75230 73150
L75280 73120
" />
<path d="M75480 72980
L75700 72980
" />
<path d="M75560 72780
L75560 73290
L75590 73340
L75640 73370
L75700 73370
" />
<path d="M75980 73370
L75930 73340
L75900 73320
L75870 73260
L75870 73090
L75900 73030
L75930 73010
L75980 72980
L76070 72980
L76130 73010
L76150 73030
L76180 73090
L76180 73260
L76150 73320
L76130 73340
L76070 73370
L75980 73370
" />
<path d="M76430 73370
L76430 72980
" />
<path d="M76430 73090
L76460 73030
L76490 73010
L76540 72980
L76600 72980
" />
<path d="M76800 73150
L77250 73150
" />
<path d="M77810 73370
L77530 73370
L77530 72780
" />
<path d="M78010 73370
L78010 72780
L78150 72780
L78240 72810
L78290 72870
L78320 72920
L78350 73030
L78350 73120
L78320 73230
L78290 73290
L78240 73340
L78150 73370
L78010 73370
" />
<path d="M78570 72840
L78600 72810
L78660 72780
L78800 72780
L78850 72810
L78880 72840
L78910 72890
L78910 72950
L78880 73030
L78540 73370
L78910 73370
" />
<path d="M79190 73370
L79300 73370
L79360 73340
L79390 73320
L79440 73230
L79470 73120
L79470 72890
L79440 72840
L79410 72810
L79360 72780
L79240 72780
L79190 72810
L79160 72840
L79130 72890
L79130 73030
L79160 73090
L79190 73120
L79240 73150
L79360 73150
L79410 73120
L79440 73090
L79470 73030
" />
<path d="M80030 73370
L79690 73370
" />
<path d="M79860 73370
L79860 72780
L79800 72870
L79750 72920
L79690 72950
" />
<path d="M80560 72780
L80280 72780
L80250 73060
L80280 73030
L80340 73010
L80480 73010
L80530 73030
L80560 73060
L80590 73120
L80590 73260
L80560 73320
L80530 73340
L80480 73370
L80340 73370
L80280 73340
L80250 73320
" />
<path d="M80950 72780
L81010 72780
L81070 72810
L81090 72840
L81120 72890
L81150 73010
L81150 73150
L81120 73260
L81090 73320
L81070 73340
L81010 73370
L80950 73370
L80900 73340
L80870 73320
L80840 73260
L80810 73150
L80810 73010
L80840 72890
L80870 72840
L80900 72810
L80950 72780
" />
<path d="M81400 73150
L81850 73150
" />
<path d="M82070 72780
L82440 72780
L82240 73010
L82330 73010
L82380 73030
L82410 73060
L82440 73120
L82440 73260
L82410 73320
L82380 73340
L82330 73370
L82160 73370
L82100 73340
L82070 73320
" />
<path d="M82690 73320
L82720 73340
L82690 73370
L82660 73340
L82690 73320
L82690 73370
" />
<path d="M82910 72780
L83280 72780
L83080 73010
L83170 73010
L83220 73030
L83250 73060
L83280 73120
L83280 73260
L83250 73320
L83220 73340
L83170 73370
L83000 73370
L82940 73340
L82910 73320
" />
<path d="M83450 72780
L83640 73370
L83840 72780
" />
<path d="M84040 73320
L84070 73340
L84040 73370
L84010 73340
L84040 73320
L84040 73370
" />
<path d="M84290 73340
L84350 73370
L84460 73370
L84520 73340
L84550 73290
L84550 73260
L84520 73200
L84460 73180
L84380 73180
L84320 73150
L84290 73090
L84290 73060
L84320 73010
L84380 72980
L84460 72980
L84520 73010
" />
<path d="M85050 73340
L85000 73370
L84880 73370
L84830 73340
L84800 73320
L84770 73260
L84770 73090
L84800 73030
L84830 73010
L84880 72980
L85000 72980
L85050 73010
" />
<path d="M85310 73370
L85310 72780
" />
<path d="M85560 73370
L85560 73060
L85540 73010
L85480 72980
L85390 72980
L85340 73010
L85310 73030
" />
</g>
<g style="fill:#840000; fill-opacity:0.0; 
stroke:#840000; stroke-width:100; stroke-opacity:1; 
stroke-linecap:round; stroke-linejoin:round;">
</g>
<g style="fill:#840000; fill-opacity:0.0; 
stroke:#840000; stroke-width:60; stroke-opacity:1; 
stroke-linecap:round; stroke-linejoin:round;">
<path d="M69690 71460
L112210 71460
" />
</g>
<g style="fill:#840000; fill-opacity:0.0; 
stroke:#840000; stroke-width:100; stroke-opacity:1; 
stroke-linecap:round; stroke-linejoin:round;">
</g>
<g style="fill:#840000; fill-opacity:0.0; 
stroke:#840000; stroke-width:60; stroke-opacity:1; 
stroke-linecap:round; stroke-linejoin:round;">
<path d="M70190 72280
L70280 72310
L70420 72310
L70470 72280
L70500 72260
L70530 72200
L70530 72140
L70500 72090
L70470 72060
L70420 72030
L70300 72000
L70250 71970
L70220 71950
L70190 71890
L70190 71830
L70220 71780
L70250 71750
L70300 71720
L70450 71720
L70530 71750
" />
<path d="M70780 72310
L70780 71720
" />
<path d="M71030 72310
L71030 72000
L71010 71950
L70950 71920
L70860 71920
L70810 71950
L70780 71970
" />
<path d="M71540 72280
L71480 72310
L71370 72310
L71310 72280
L71280 72230
L71280 72000
L71310 71950
L71370 71920
L71480 71920
L71540 71950
L71560 72000
L71560 72060
L71280 72120
" />
<path d="M72050 72280
L71990 72310
L71880 72310
L71820 72280
L71790 72230
L71790 72000
L71820 71950
L71880 71920
L71990 71920
L72050 71950
L72070 72000
L72070 72060
L71790 72120
" />
<path d="M72250 71920
L72470 71920
" />
<path d="M72330 71720
L72330 72230
L72360 72280
L72410 72310
L72470 72310
" />
<path d="M72670 72260
L72700 72280
L72670 72310
L72640 72280
L72670 72260
L72670 72310
" />
<path d="M72670 71950
L72700 71970
L72670 72000
L72640 71970
L72670 71950
L72670 72000
" />
<path d="M73820 71690
L73320 72450
" />
</g>
<g style="fill:#840000; fill-opacity:0.0; 
stroke:#840000; stroke-width:100; stroke-opacity:1; 
stroke-linecap:round; stroke-linejoin:round;">
</g>
<g style="fill:#840000; fill-opacity:0.0; 
stroke:#840000; stroke-width:60; stroke-opacity:1; 
stroke-linecap:round; stroke-linejoin:round;">
<path d="M77560 75400
L77560 76580
" />
</g>
<g style="fill:#840000; fill-opacity:0.0; 
stroke:#840000; stroke-width:100; stroke-opacity:1; 
stroke-linecap:round; stroke-linejoin:round;">
</g>
<g style="fill:#840000; fill-opacity:0.0; 
stroke:#840000; stroke-width:60; stroke-opacity:1; 
stroke-linecap:round; stroke-linejoin:round;">
<path d="M102760 75400
L102760 77960
" />
</g>
<g style="fill:#840000; fill-opacity:0.0; 
stroke:#840000; stroke-width:0; stroke-opacity:1; 
stroke-linecap:round; stroke-linejoin:round;">
</g>
<g style="fill:#840000; fill-opacity:0.0; 
stroke:#840000; stroke-width:130; stroke-opacity:1; 
stroke-linecap:round; stroke-linejoin:round;">
<polyline fill="none;"
points="40900,30200
42100,30200
" /> 
</g>
<g style="fill:#840000; fill-opacity:0.0; 
stroke:#840000; stroke-width:120; stroke-opacity:1; 
stroke-linecap:round; stroke-linejoin:round;">
<polyline fill="none;"
points="40900,29800
42100,29800
" /> 
</g>
<g style="fill:#840000; fill-opacity:0.0; 
stroke:#840000; stroke-width:60; stroke-opacity:1; 
stroke-linecap:round; stroke-linejoin:round;">
<path d="M41500 29800
L41500 29000
" />
<path d="M41500 30200
L41500 31000
" />
</g>
<g style="fill:#008484; fill-opacity:0.0; 
stroke:#008484; stroke-width:60; stroke-opacity:1; 
stroke-linecap:round; stroke-linejoin:round;">
<path d="M42000 29510
L41980 29530
L41910 29560
L41860 29560
L41790 29530
L41740 29480
L41720 29440
L41700 29340
L41700 29270
L41720 29180
L41740 29130
L41790 29080
L41860 29060
L41910 29060
L41980 29080
L42000 29100
" />
<path d="M42480 29560
L42200 29560
" />
<path d="M42340 29560
L42340 29060
L42290 29130
L42240 29180
L42200 29200
" />
<path d="M41810 30560
L41860 30560
L41910 30580
L41930 30600
L41960 30650
L41980 30750
L41980 30870
L41960 30960
L41930 31010
L41910 31030
L41860 31060
L41810 31060
L41770 31030
L41740 31010
L41720 30960
L41700 30870
L41700 30750
L41720 30650
L41740 30600
L41770 30580
L41810 30560
" />
<path d="M42200 31010
L42220 31030
L42200 31060
L42180 31030
L42200 31010
L42200 31060
" />
<path d="M42390 30560
L42700 30560
L42530 30750
L42610 30750
L42650 30770
L42680 30790
L42700 30840
L42700 30960
L42680 31010
L42650 31030
L42610 31060
L42460 31060
L42420 31030
L42390 31010
" />
<path d="M42870 30560
L43180 30560
L43010 30750
L43090 30750
L43130 30770
L43160 30790
L43180 30840
L43180 30960
L43160 31010
L43130 31030
L43090 31060
L42940 31060
L42900 31030
L42870 31010
" />
<path d="M43400 30560
L43400 30960
L43420 31010
L43450 31030
L43490 31060
L43590 31060
L43640 31030
L43660 31010
L43680 30960
L43680 30560
" />
<path d="M43850 30720
L44040 30720
" />
<path d="M43920 31060
L43920 30630
L43940 30580
L43990 30560
L44040 30560
" />
</g>
<g style="fill:#008484; fill-opacity:0.0; 
stroke:#008484; stroke-width:0; stroke-opacity:1; 
stroke-linecap:round; stroke-linejoin:round;">
</g>
<g style="fill:#840000; fill-opacity:0.0; 
stroke:#840000; stroke-width:0; stroke-opacity:1; 
stroke-linecap:round; stroke-linejoin:round;">
</g>
<g style="fill:#840000; fill-opacity:1.0; 
stroke:#840000; stroke-width:60; stroke-opacity:1; 
stroke-linecap:round; stroke-linejoin:round;">
<rect x="51400" y="30120" width="1200" height="150" rx="0" />
</g>
<g style="fill:#840000; fill-opacity:0.0; 
stroke:#840000; stroke-width:60; stroke-opacity:1; 
stroke-linecap:round; stroke-linejoin:round;">
<rect x="51400" y="29730" width="1200" height="150" rx="0" />
<polyline fill="none;"
points="51500,29400
51700,29400
" /> 
<polyline fill="none;"
points="51600,29500
51600,29300
" /> 
<path d="M52000 29730
L52000 29000
" />
<path d="M52000 30270
L52000 31000
" />
</g>
<g style="fill:#008484; fill-opacity:0.0; 
stroke:#008484; stroke-width:60; stroke-opacity:1; 
stroke-linecap:round; stroke-linejoin:round;">
<path d="M52500 29510
L52480 29530
L52410 29560
L52360 29560
L52290 29530
L52240 29480
L52220 29440
L52200 29340
L52200 29270
L52220 29180
L52240 29130
L52290 29080
L52360 29060
L52410 29060
L52480 29080
L52500 29100
" />
<path d="M52700 29100
L52720 29080
L52770 29060
L52890 29060
L52930 29080
L52960 29100
L52980 29150
L52980 29200
L52960 29270
L52670 29560
L52980 29560
" />
<path d="M52480 31060
L52200 31060
" />
<path d="M52340 31060
L52340 30560
L52290 30630
L52240 30680
L52200 30700
" />
<path d="M52790 30560
L52840 30560
L52890 30580
L52910 30600
L52940 30650
L52960 30750
L52960 30870
L52940 30960
L52910 31010
L52890 31030
L52840 31060
L52790 31060
L52750 31030
L52720 31010
L52700 30960
L52680 30870
L52680 30750
L52700 30650
L52720 30600
L52750 30580
L52790 30560
" />
<path d="M53180 30560
L53180 30960
L53200 31010
L53230 31030
L53270 31060
L53370 31060
L53420 31030
L53440 31010
L53460 30960
L53460 30560
" />
<path d="M53630 30720
L53820 30720
" />
<path d="M53700 31060
L53700 30630
L53720 30580
L53770 30560
L53820 30560
" />
</g>
<g style="fill:#008484; fill-opacity:0.0; 
stroke:#008484; stroke-width:0; stroke-opacity:1; 
stroke-linecap:round; stroke-linejoin:round;">
</g>
<g style="fill:#840000; fill-opacity:0.0; 
stroke:#840000; stroke-width:0; stroke-opacity:1; 
stroke-linecap:round; stroke-linejoin:round;">
</g>
<g style="fill:#840000; fill-opacity:0.0; 
stroke:#840000; stroke-width:60; stroke-opacity:1; 
stroke-linecap:round; stroke-linejoin:round;">
<polyline fill="none;"
points="47000,31500
47000,32000
47500,32000
47000,32500
46500,32000
47000,32000
" /> 
</g>
<g style="fill:#008484; fill-opacity:0.0; 
stroke:#008484; stroke-width:60; stroke-opacity:1; 
stroke-linecap:round; stroke-linejoin:round;">
<path d="M46620 32780
L46570 32760
L46500 32760
L46430 32780
L46380 32830
L46360 32880
L46340 32970
L46340 33040
L46360 33140
L46380 33180
L46430 33230
L46500 33260
L46550 33260
L46620 33230
L46640 33210
L46640 33040
L46550 33040
" />
<path d="M46860 33260
L46860 32760
L47140 33260
L47140 32760
" />
<path d="M47380 33260
L47380 32760
L47500 32760
L47570 32780
L47620 32830
L47640 32880
L47660 32970
L47660 33040
L47640 33140
L47620 33180
L47570 33230
L47500 33260
L47380 33260
" />
</g>
<g style="fill:#008484; fill-opacity:0.0; 
stroke:#008484; stroke-width:0; stroke-opacity:1; 
stroke-linecap:round; stroke-linejoin:round;">
</g>
<g style="fill:#840000; fill-opacity:0.0; 
stroke:#840000; stroke-width:0; stroke-opacity:1; 
stroke-linecap:round; stroke-linejoin:round;">
</g>
<g style="fill:#840000; fill-opacity:0.0; 
stroke:#840000; stroke-width:60; stroke-opacity:1; 
stroke-linecap:round; stroke-linejoin:round;">
<polyline fill="none;"
points="52000,31000
52000,31500
52500,31500
52000,32000
51500,31500
52000,31500
" /> 
</g>
<g style="fill:#008484; fill-opacity:0.0; 
stroke:#008484; stroke-width:60; stroke-opacity:1; 
stroke-linecap:round; stroke-linejoin:round;">
<path d="M51620 32280
L51570 32260
L51500 32260
L51430 32280
L51380 32330
L51360 32380
L51340 32470
L51340 32540
L51360 32640
L51380 32680
L51430 32730
L51500 32760
L51550 32760
L51620 32730
L51640 32710
L51640 32540
L51550 32540
" />
<path d="M51860 32760
L51860 32260
L52140 32760
L52140 32260
" />
<path d="M52380 32760
L52380 32260
L52500 32260
L52570 32280
L52620 32330
L52640 32380
L52660 32470
L52660 32540
L52640 32640
L52620 32680
L52570 32730
L52500 32760
L52380 32760
" />
</g>
<g style="fill:#008484; fill-opacity:0.0; 
stroke:#008484; stroke-width:0; stroke-opacity:1; 
stroke-linecap:round; stroke-linejoin:round;">
</g>
<g style="fill:#840000; fill-opacity:0.0; 
stroke:#840000; stroke-width:0; stroke-opacity:1; 
stroke-linecap:round; stroke-linejoin:round;">
</g>
<g style="fill:#840000; fill-opacity:0.0; 
stroke:#840000; stroke-width:60; stroke-opacity:1; 
stroke-linecap:round; stroke-linejoin:round;">
<polyline fill="none;"
points="41500,31000
41500,31500
42000,31500
41500,32000
41000,31500
41500,31500
" /> 
</g>
<g style="fill:#008484; fill-opacity:0.0; 
stroke:#008484; stroke-width:60; stroke-opacity:1; 
stroke-linecap:round; stroke-linejoin:round;">
<path d="M41120 32280
L41070 32260
L41000 32260
L40930 32280
L40880 32330
L40860 32380
L40840 32470
L40840 32540
L40860 32640
L40880 32680
L40930 32730
L41000 32760
L41050 32760
L41120 32730
L41140 32710
L41140 32540
L41050 32540
" />
<path d="M41360 32760
L41360 32260
L41640 32760
L41640 32260
" />
<path d="M41880 32760
L41880 32260
L42000 32260
L42070 32280
L42120 32330
L42140 32380
L42160 32470
L42160 32540
L42140 32640
L42120 32680
L42070 32730
L42000 32760
L41880 32760
" />
</g>
<g style="fill:#008400; fill-opacity:0.0; 
stroke:#008400; stroke-width:60; stroke-opacity:1; 
stroke-linecap:round; stroke-linejoin:round;">
<path d="M51000 28500
L56000 28500
" />
<path d="M52000 28000
L52000 29000
" />
</g>
<g style="fill:#008400; fill-opacity:0.0; 
stroke:#008400; stroke-width:0; stroke-opacity:1; 
stroke-linecap:round; stroke-linejoin:round;">
</g>
<g style="fill:#008400; fill-opacity:1.0; 
stroke:#008400; stroke-width:100; stroke-opacity:1; 
stroke-linecap:round; stroke-linejoin:round;">
<circle cx="52000" cy="28500" r="200" /> 
</g>
<g style="fill:#008400; fill-opacity:1.0; 
stroke:#008400; stroke-width:0; stroke-opacity:1; 
stroke-linecap:round; stroke-linejoin:round;">
</g>
<g style="fill:#840000; fill-opacity:1.0; 
stroke:#840000; stroke-width:0; stroke-opacity:1; 
stroke-linecap:round; stroke-linejoin:round;">
</g>
<g style="fill:#840000; fill-opacity:0.0; 
stroke:#840000; stroke-width:60; stroke-opacity:1; 
stroke-linecap:round; stroke-linejoin:round;">
<circle cx="34500" cy="26250" r="250" /> 
<polyline fill="none;"
points="34500,27000
34500,26500
" /> 
</g>
<g style="fill:#008484; fill-opacity:0.0; 
stroke:#008484; stroke-width:60; stroke-opacity:1; 
stroke-linecap:round; stroke-linejoin:round;">
<path d="M33860 25260
L34020 25760
L34190 25260
" />
<path d="M34340 25730
L34410 25760
L34530 25760
L34570 25730
L34600 25710
L34620 25660
L34620 25610
L34600 25570
L34570 25540
L34530 25520
L34430 25490
L34380 25470
L34360 25450
L34340 25400
L34340 25350
L34360 25300
L34380 25280
L34430 25260
L34550 25260
L34620 25280
" />
<path d="M34820 25730
L34890 25760
L35010 25760
L35050 25730
L35080 25710
L35100 25660
L35100 25610
L35080 25570
L35050 25540
L35010 25520
L34910 25490
L34860 25470
L34840 25450
L34820 25400
L34820 25350
L34840 25300
L34860 25280
L34910 25260
L35030 25260
L35100 25280
" />
</g>
<g style="fill:#008400; fill-opacity:0.0; 
stroke:#008400; stroke-width:60; stroke-opacity:1; 
stroke-linecap:round; stroke-linejoin:round;">
<path d="M40000 28500
L43000 28500
" />
</g>
<g style="fill:#008400; fill-opacity:0.0; 
stroke:#008400; stroke-width:0; stroke-opacity:1; 
stroke-linecap:round; stroke-linejoin:round;">
</g>
<g style="fill:#008400; fill-opacity:1.0; 
stroke:#008400; stroke-width:100; stroke-opacity:1; 
stroke-linecap:round; stroke-linejoin:round;">
<circle cx="41500" cy="28500" r="200" /> 
</g>
<g style="fill:#008400; fill-opacity:1.0; 
stroke:#008400; stroke-width:60; stroke-opacity:1; 
stroke-linecap:round; stroke-linejoin:round;">
</g>
<g style="fill:#0000C2; fill-opacity:0.0; 
stroke:#0000C2; stroke-width:60; stroke-opacity:1; 
stroke-linecap:round; stroke-linejoin:round;">
<path d="M31140 35970
L31140 35370
" />
<path d="M31430 35570
L31430 35970
" />
<path d="M31430 35630
L31460 35600
L31520 35570
L31600 35570
L31660 35600
L31690 35660
L31690 35970
" />
<path d="M31970 35570
L31970 36170
" />
<path d="M31970 35600
L32030 35570
L32140 35570
L32200 35600
L32230 35630
L32260 35690
L32260 35860
L32230 35910
L32200 35940
L32140 35970
L32030 35970
L31970 35940
" />
<path d="M32770 35570
L32770 35970
" />
<path d="M32510 35570
L32510 35890
L32540 35940
L32600 35970
L32680 35970
L32740 35940
L32770 35910
" />
<path d="M32970 35570
L33200 35570
" />
<path d="M33050 35370
L33050 35890
L33080 35940
L33140 35970
L33200 35970
" />
<path d="M33390 35910
L33420 35940
L33390 35970
L33360 35940
L33390 35910
L33390 35970
" />
<path d="M33390 35600
L33420 35630
L33390 35660
L33360 35630
L33390 35600
L33390 35660
" />
<path d="M34140 35970
L34140 35370
L34340 35800
L34540 35370
L34540 35970
" />
<path d="M35090 35970
L35090 35660
L35060 35600
L35000 35570
L34890 35570
L34830 35600
" />
<path d="M35090 35940
L35030 35970
L34890 35970
L34830 35940
L34800 35890
L34800 35830
L34830 35770
L34890 35740
L35030 35740
L35090 35710
" />
<path d="M35320 35970
L35630 35570
" />
<path d="M35320 35570
L35630 35970
" />
<path d="M36270 35370
L36640 35370
L36440 35600
L36520 35600
L36580 35630
L36610 35660
L36640 35710
L36640 35860
L36610 35910
L36580 35940
L36520 35970
L36350 35970
L36290 35940
L36270 35910
" />
<path d="M37010 35370
L37060 35370
L37120 35400
L37150 35430
L37180 35490
L37210 35600
L37210 35740
L37180 35860
L37150 35910
L37120 35940
L37060 35970
L37010 35970
L36950 35940
L36920 35910
L36890 35860
L36860 35740
L36860 35600
L36890 35490
L36920 35430
L36950 35400
L37010 35370
" />
<path d="M37380 35370
L37580 35970
L37780 35370
" />
<path d="M31260 36270
L31370 36270
L31430 36300
L31490 36360
L31510 36470
L31510 36670
L31490 36790
L31430 36840
L31370 36870
L31260 36870
L31200 36840
L31140 36790
L31110 36670
L31110 36470
L31140 36360
L31200 36300
L31260 36270
" />
<path d="M32030 36470
L32030 36870
" />
<path d="M31770 36470
L31770 36790
L31800 36840
L31860 36870
L31940 36870
L32000 36840
L32030 36810
" />
<path d="M32230 36470
L32460 36470
" />
<path d="M32310 36270
L32310 36790
L32340 36840
L32400 36870
L32460 36870
" />
<path d="M32650 36470
L32650 37070
" />
<path d="M32650 36500
L32710 36470
L32820 36470
L32880 36500
L32910 36530
L32940 36590
L32940 36760
L32910 36810
L32880 36840
L32820 36870
L32710 36870
L32650 36840
" />
<path d="M33450 36470
L33450 36870
" />
<path d="M33190 36470
L33190 36790
L33220 36840
L33280 36870
L33360 36870
L33420 36840
L33450 36810
" />
<path d="M33650 36470
L33880 36470
" />
<path d="M33730 36270
L33730 36790
L33760 36840
L33820 36870
L33880 36870
" />
<path d="M34070 36810
L34100 36840
L34070 36870
L34040 36840
L34070 36810
L34070 36870
" />
<path d="M34070 36500
L34100 36530
L34070 36560
L34040 36530
L34070 36500
L34070 36560
" />
<path d="M34770 36270
L35140 36270
L34940 36500
L35020 36500
L35080 36530
L35110 36560
L35140 36610
L35140 36760
L35110 36810
L35080 36840
L35020 36870
L34850 36870
L34790 36840
L34770 36810
" />
<path d="M35390 36810
L35420 36840
L35390 36870
L35360 36840
L35390 36810
L35390 36870
" />
<path d="M35630 36270
L36000 36270
L35800 36500
L35880 36500
L35940 36530
L35970 36560
L36000 36610
L36000 36760
L35970 36810
L35940 36840
L35880 36870
L35710 36870
L35650 36840
L35630 36810
" />
<path d="M36170 36270
L36370 36870
L36570 36270
" />
<path d="M36790 36840
L36790 36870
L36760 36930
L36730 36960
" />
<path d="M37510 36870
L37510 36270
L37710 36700
L37910 36270
L37910 36870
" />
<path d="M38460 36870
L38460 36560
L38430 36500
L38370 36470
L38260 36470
L38200 36500
" />
<path d="M38460 36840
L38400 36870
L38260 36870
L38200 36840
L38170 36790
L38170 36730
L38200 36670
L38260 36640
L38400 36640
L38460 36610
" />
<path d="M38690 36870
L39000 36470
" />
<path d="M38690 36470
L39000 36870
" />
<path d="M40010 36870
L39660 36870
" />
<path d="M39840 36870
L39840 36270
L39780 36360
L39720 36410
L39660 36440
" />
<path d="M40260 36810
L40290 36840
L40260 36870
L40230 36840
L40260 36810
L40260 36870
" />
<path d="M40840 36270
L40550 36270
L40520 36560
L40550 36530
L40610 36500
L40750 36500
L40810 36530
L40840 36560
L40870 36610
L40870 36760
L40840 36810
L40810 36840
L40750 36870
L40610 36870
L40550 36840
L40520 36810
" />
<path d="M41090 36700
L41380 36700
" />
<path d="M41040 36870
L41240 36270
L41440 36870
" />
<path d="M42260 37100
L42240 37070
L42180 36990
L42150 36930
L42120 36840
L42090 36700
L42090 36590
L42120 36440
L42150 36360
L42180 36300
L42240 36210
L42260 36190
" />
<path d="M42490 36870
L42490 36470
" />
<path d="M42490 36590
L42520 36530
L42550 36500
L42610 36470
L42660 36470
" />
<path d="M43090 36840
L43030 36870
L42920 36870
L42860 36840
L42830 36790
L42830 36560
L42860 36500
L42920 36470
L43030 36470
L43090 36500
L43120 36560
L43120 36610
L42830 36670
" />
<path d="M43630 36470
L43630 36960
L43600 37010
L43570 37040
L43520 37070
L43430 37070
L43370 37040
" />
<path d="M43630 36840
L43570 36870
L43460 36870
L43400 36840
L43370 36810
L43340 36760
L43340 36590
L43370 36530
L43400 36500
L43460 36470
L43570 36470
L43630 36500
" />
<path d="M44170 36470
L44170 36870
" />
<path d="M43910 36470
L43910 36790
L43940 36840
L44000 36870
L44080 36870
L44140 36840
L44170 36810
" />
<path d="M44540 36870
L44480 36840
L44450 36790
L44450 36270
" />
<path d="M45020 36870
L45020 36560
L44990 36500
L44930 36470
L44820 36470
L44760 36500
" />
<path d="M45020 36840
L44960 36870
L44820 36870
L44760 36840
L44730 36790
L44730 36730
L44760 36670
L44820 36640
L44960 36640
L45020 36610
" />
<path d="M45220 36470
L45450 36470
" />
<path d="M45300 36270
L45300 36790
L45330 36840
L45390 36870
L45450 36870
" />
<path d="M45730 36870
L45670 36840
L45640 36810
L45610 36760
L45610 36590
L45640 36530
L45670 36500
L45730 36470
L45810 36470
L45870 36500
L45900 36530
L45930 36590
L45930 36760
L45900 36810
L45870 36840
L45810 36870
L45730 36870
" />
<path d="M46180 36870
L46180 36470
" />
<path d="M46180 36590
L46210 36530
L46240 36500
L46300 36470
L46350 36470
" />
<path d="M46500 37100
L46520 37070
L46580 36990
L46610 36930
L46640 36840
L46670 36700
L46670 36590
L46640 36440
L46610 36360
L46580 36300
L46520 36210
L46500 36190
" />
<path d="M31490 38610
L31460 38640
L31370 38670
L31310 38670
L31230 38640
L31170 38590
L31140 38530
L31110 38410
L31110 38330
L31140 38210
L31170 38160
L31230 38100
L31310 38070
L31370 38070
L31460 38100
L31490 38130
" />
<path d="M32000 38270
L32000 38670
" />
<path d="M31740 38270
L31740 38590
L31770 38640
L31830 38670
L31910 38670
L31970 38640
L32000 38610
" />
<path d="M32280 38670
L32280 38270
" />
<path d="M32280 38390
L32310 38330
L32340 38300
L32400 38270
L32450 38270
" />
<path d="M32650 38670
L32650 38270
" />
<path d="M32650 38390
L32680 38330
L32710 38300
L32770 38270
L32820 38270
" />
<path d="M33250 38640
L33190 38670
L33080 38670
L33020 38640
L32990 38590
L32990 38360
L33020 38300
L33080 38270
L33190 38270
L33250 38300
L33280 38360
L33280 38410
L32990 38470
" />
<path d="M33530 38270
L33530 38670
" />
<path d="M33530 38330
L33560 38300
L33620 38270
L33700 38270
L33760 38300
L33790 38360
L33790 38670
" />
<path d="M33990 38270
L34220 38270
" />
<path d="M34070 38070
L34070 38590
L34100 38640
L34160 38670
L34220 38670
" />
<path d="M34960 38670
L34900 38640
L34870 38590
L34870 38070
" />
<path d="M35180 38670
L35180 38270
" />
<path d="M35180 38070
L35150 38100
L35180 38130
L35210 38100
L35180 38070
L35180 38130
" />
<path d="M35470 38670
L35470 38270
" />
<path d="M35470 38330
L35500 38300
L35560 38270
L35640 38270
L35700 38300
L35730 38360
L35730 38670
" />
<path d="M35730 38360
L35760 38300
L35820 38270
L35900 38270
L35960 38300
L35990 38360
L35990 38670
" />
<path d="M36270 38670
L36270 38270
" />
<path d="M36270 38070
L36240 38100
L36270 38130
L36300 38100
L36270 38070
L36270 38130
" />
<path d="M36480 38270
L36710 38270
" />
<path d="M36560 38070
L36560 38590
L36590 38640
L36650 38670
L36710 38670
" />
<path d="M37130 38640
L37070 38670
L36960 38670
L36900 38640
L36870 38590
L36870 38360
L36900 38300
L36960 38270
L37070 38270
L37130 38300
L37160 38360
L37160 38410
L36870 38470
" />
<path d="M37670 38670
L37670 38070
" />
<path d="M37670 38640
L37610 38670
L37500 38670
L37440 38640
L37410 38610
L37380 38560
L37380 38390
L37410 38330
L37440 38300
L37500 38270
L37610 38270
L37670 38300
" />
<path d="M38330 38270
L38560 38270
" />
<path d="M38410 38070
L38410 38590
L38440 38640
L38500 38670
L38560 38670
" />
<path d="M38840 38670
L38780 38640
L38750 38610
L38720 38560
L38720 38390
L38750 38330
L38780 38300
L38840 38270
L38920 38270
L38980 38300
L39010 38330
L39040 38390
L39040 38560
L39010 38610
L38980 38640
L38920 38670
L38840 38670
" />
<path d="M40040 38070
L39750 38070
L39720 38360
L39750 38330
L39810 38300
L39950 38300
L40010 38330
L40040 38360
L40070 38410
L40070 38560
L40040 38610
L40010 38640
L39950 38670
L39810 38670
L39750 38640
L39720 38610
" />
<path d="M40440 38070
L40490 38070
L40550 38100
L40580 38130
L40610 38190
L40640 38300
L40640 38440
L40610 38560
L40580 38610
L40550 38640
L40490 38670
L40440 38670
L40380 38640
L40350 38610
L40320 38560
L40290 38440
L40290 38300
L40320 38190
L40350 38130
L40380 38100
L40440 38070
" />
<path d="M41010 38070
L41060 38070
L41120 38100
L41150 38130
L41180 38190
L41210 38300
L41210 38440
L41180 38560
L41150 38610
L41120 38640
L41060 38670
L41010 38670
L40950 38640
L40920 38610
L40890 38560
L40860 38440
L40860 38300
L40890 38190
L40920 38130
L40950 38100
L41010 38070
" />
<path d="M41460 38670
L41460 38270
" />
<path d="M41460 38330
L41490 38300
L41550 38270
L41630 38270
L41690 38300
L41720 38360
L41720 38670
" />
<path d="M41720 38360
L41750 38300
L41810 38270
L41890 38270
L41950 38300
L41980 38360
L41980 38670
" />
<path d="M42230 38500
L42520 38500
" />
<path d="M42180 38670
L42380 38070
L42580 38670
" />
<path d="M43180 38270
L43290 38670
L43400 38390
L43520 38670
L43630 38270
" />
<path d="M43860 38670
L43860 38270
" />
<path d="M43860 38070
L43830 38100
L43860 38130
L43890 38100
L43860 38070
L43860 38130
" />
<path d="M44070 38270
L44300 38270
" />
<path d="M44150 38070
L44150 38590
L44180 38640
L44240 38670
L44300 38670
" />
<path d="M44490 38670
L44490 38070
" />
<path d="M44750 38670
L44750 38360
L44720 38300
L44660 38270
L44580 38270
L44520 38300
L44490 38330
" />
<path d="M45490 38670
L45490 38270
" />
<path d="M45490 38390
L45520 38330
L45550 38300
L45610 38270
L45660 38270
" />
<path d="M46090 38640
L46030 38670
L45920 38670
L45860 38640
L45830 38590
L45830 38360
L45860 38300
L45920 38270
L46030 38270
L46090 38300
L46120 38360
L46120 38410
L45830 38470
" />
<path d="M46340 38640
L46400 38670
L46520 38670
L46570 38640
L46600 38590
L46600 38560
L46570 38500
L46520 38470
L46430 38470
L46370 38440
L46340 38390
L46340 38360
L46370 38300
L46430 38270
L46520 38270
L46570 38300
" />
<path d="M47090 38640
L47030 38670
L46920 38670
L46860 38640
L46830 38590
L46830 38360
L46860 38300
L46920 38270
L47030 38270
L47090 38300
L47120 38360
L47120 38410
L46830 38470
" />
<path d="M47290 38270
L47520 38270
" />
<path d="M47370 38070
L47370 38590
L47400 38640
L47460 38670
L47520 38670
" />
<path d="M47630 38270
L47860 38270
" />
<path d="M47710 38070
L47710 38590
L47740 38640
L47800 38670
L47860 38670
" />
<path d="M48310 38670
L48310 38360
L48280 38300
L48220 38270
L48110 38270
L48050 38300
" />
<path d="M48310 38640
L48250 38670
L48110 38670
L48050 38640
L48020 38590
L48020 38530
L48050 38470
L48110 38440
L48250 38440
L48310 38410
" />
<path d="M48590 38670
L48590 38070
" />
<path d="M48590 38300
L48650 38270
L48760 38270
L48820 38300
L48850 38330
L48880 38390
L48880 38560
L48850 38610
L48820 38640
L48760 38670
L48650 38670
L48590 38640
" />
<path d="M49220 38670
L49160 38640
L49130 38590
L49130 38070
" />
<path d="M49670 38640
L49610 38670
L49500 38670
L49440 38640
L49410 38590
L49410 38360
L49440 38300
L49500 38270
L49610 38270
L49670 38300
L49700 38360
L49700 38410
L49410 38470
" />
<path d="M50330 38270
L50560 38270
" />
<path d="M50410 38670
L50410 38160
L50440 38100
L50500 38070
L50560 38070
" />
<path d="M51010 38270
L51010 38670
" />
<path d="M50750 38270
L50750 38590
L50780 38640
L50840 38670
L50920 38670
L50980 38640
L51010 38610
" />
<path d="M51260 38640
L51320 38670
L51440 38670
L51490 38640
L51520 38590
L51520 38560
L51490 38500
L51440 38470
L51350 38470
L51290 38440
L51260 38390
L51260 38360
L51290 38300
L51350 38270
L51440 38270
L51490 38300
" />
<path d="M52010 38640
L51950 38670
L51840 38670
L51780 38640
L51750 38590
L51750 38360
L51780 38300
L51840 38270
L51950 38270
L52010 38300
L52040 38360
L52040 38410
L51750 38470
" />
<path d="M31140 39570
L31140 38970
L31370 38970
L31430 39000
L31460 39030
L31490 39090
L31490 39170
L31460 39230
L31430 39260
L31370 39290
L31140 39290
" />
<path d="M31740 39570
L31740 39170
" />
<path d="M31740 39290
L31770 39230
L31800 39200
L31860 39170
L31910 39170
" />
<path d="M32200 39570
L32140 39540
L32110 39510
L32080 39460
L32080 39290
L32110 39230
L32140 39200
L32200 39170
L32280 39170
L32340 39200
L32370 39230
L32400 39290
L32400 39460
L32370 39510
L32340 39540
L32280 39570
L32200 39570
" />
<path d="M32570 39170
L32800 39170
" />
<path d="M32650 38970
L32650 39490
L32680 39540
L32740 39570
L32800 39570
" />
<path d="M33220 39540
L33160 39570
L33050 39570
L32990 39540
L32960 39490
L32960 39260
L32990 39200
L33050 39170
L33160 39170
L33220 39200
L33250 39260
L33250 39310
L32960 39370
" />
<path d="M33760 39540
L33700 39570
L33590 39570
L33530 39540
L33500 39510
L33470 39460
L33470 39290
L33500 39230
L33530 39200
L33590 39170
L33700 39170
L33760 39200
" />
<path d="M33930 39170
L34160 39170
" />
<path d="M34010 38970
L34010 39490
L34040 39540
L34100 39570
L34160 39570
" />
<path d="M34350 39570
L34350 39170
" />
<path d="M34350 38970
L34320 39000
L34350 39030
L34380 39000
L34350 38970
L34350 39030
" />
<path d="M34730 39570
L34670 39540
L34640 39510
L34610 39460
L34610 39290
L34640 39230
L34670 39200
L34730 39170
L34810 39170
L34870 39200
L34900 39230
L34930 39290
L34930 39460
L34900 39510
L34870 39540
L34810 39570
L34730 39570
" />
<path d="M35180 39170
L35180 39570
" />
<path d="M35180 39230
L35210 39200
L35270 39170
L35350 39170
L35410 39200
L35440 39260
L35440 39570
" />
<path d="M36440 39570
L36440 38970
" />
<path d="M36440 39540
L36380 39570
L36270 39570
L36210 39540
L36180 39510
L36150 39460
L36150 39290
L36180 39230
L36210 39200
L36270 39170
L36380 39170
L36440 39200
" />
<path d="M36720 39570
L36720 39170
" />
<path d="M36720 38970
L36690 39000
L36720 39030
L36750 39000
L36720 38970
L36720 39030
" />
<path d="M37100 39570
L37040 39540
L37010 39510
L36980 39460
L36980 39290
L37010 39230
L37040 39200
L37100 39170
L37180 39170
L37240 39200
L37270 39230
L37300 39290
L37300 39460
L37270 39510
L37240 39540
L37180 39570
L37100 39570
" />
<path d="M37810 39570
L37810 38970
" />
<path d="M37810 39540
L37750 39570
L37640 39570
L37580 39540
L37550 39510
L37520 39460
L37520 39290
L37550 39230
L37580 39200
L37640 39170
L37750 39170
L37810 39200
" />
<path d="M38320 39540
L38260 39570
L38150 39570
L38090 39540
L38060 39490
L38060 39260
L38090 39200
L38150 39170
L38260 39170
L38320 39200
L38350 39260
L38350 39310
L38060 39370
" />
<path d="M39320 39570
L39320 39260
L39290 39200
L39230 39170
L39120 39170
L39060 39200
" />
<path d="M39320 39540
L39260 39570
L39120 39570
L39060 39540
L39030 39490
L39030 39430
L39060 39370
L39120 39340
L39260 39340
L39320 39310
" />
<path d="M39860 39570
L39860 38970
" />
<path d="M39860 39540
L39800 39570
L39690 39570
L39630 39540
L39600 39510
L39570 39460
L39570 39290
L39600 39230
L39630 39200
L39690 39170
L39800 39170
L39860 39200
" />
<path d="M40400 39570
L40400 38970
" />
<path d="M40400 39540
L40340 39570
L40230 39570
L40170 39540
L40140 39510
L40110 39460
L40110 39290
L40140 39230
L40170 39200
L40230 39170
L40340 39170
L40400 39200
" />
<path d="M40910 39540
L40850 39570
L40740 39570
L40680 39540
L40650 39490
L40650 39260
L40680 39200
L40740 39170
L40850 39170
L40910 39200
L40940 39260
L40940 39310
L40650 39370
" />
<path d="M41450 39570
L41450 38970
" />
<path d="M41450 39540
L41390 39570
L41280 39570
L41220 39540
L41190 39510
L41160 39460
L41160 39290
L41190 39230
L41220 39200
L41280 39170
L41390 39170
L41450 39200
" />
<path d="M42360 39800
L42340 39770
L42280 39690
L42250 39630
L42220 39540
L42190 39400
L42190 39290
L42220 39140
L42250 39060
L42280 39000
L42340 38910
L42360 38890
" />
<path d="M42590 39570
L42590 39170
" />
<path d="M42590 39230
L42620 39200
L42680 39170
L42760 39170
L42820 39200
L42850 39260
L42850 39570
" />
<path d="M42850 39260
L42880 39200
L42940 39170
L43020 39170
L43080 39200
L43110 39260
L43110 39570
" />
<path d="M43650 39570
L43650 39260
L43620 39200
L43560 39170
L43450 39170
L43390 39200
" />
<path d="M43650 39540
L43590 39570
L43450 39570
L43390 39540
L43360 39490
L43360 39430
L43390 39370
L43450 39340
L43590 39340
L43650 39310
" />
<path d="M43880 39570
L44190 39170
" />
<path d="M43880 39170
L44190 39570
" />
<path d="M45200 39570
L44850 39570
" />
<path d="M45030 39570
L45030 38970
L44970 39060
L44910 39110
L44850 39140
" />
<path d="M45420 39400
L45710 39400
" />
<path d="M45370 39570
L45570 38970
L45770 39570
" />
<path d="M45910 39800
L45930 39770
L45990 39690
L46020 39630
L46050 39540
L46080 39400
L46080 39290
L46050 39140
L46020 39060
L45990 39000
L45930 38910
L45910 38890
" />
<path d="M31490 40470
L31290 40190
" />
<path d="M31140 40470
L31140 39870
L31370 39870
L31430 39900
L31460 39930
L31490 39990
L31490 40070
L31460 40130
L31430 40160
L31370 40190
L31140 40190
" />
<path d="M31970 40440
L31910 40470
L31800 40470
L31740 40440
L31710 40390
L31710 40160
L31740 40100
L31800 40070
L31910 40070
L31970 40100
L32000 40160
L32000 40210
L31710 40270
" />
<path d="M32510 40070
L32510 40560
L32480 40610
L32450 40640
L32400 40670
L32310 40670
L32250 40640
" />
<path d="M32510 40440
L32450 40470
L32340 40470
L32280 40440
L32250 40410
L32220 40360
L32220 40190
L32250 40130
L32280 40100
L32340 40070
L32450 40070
L32510 40100
" />
<path d="M33050 40070
L33050 40470
" />
<path d="M32790 40070
L32790 40390
L32820 40440
L32880 40470
L32960 40470
L33020 40440
L33050 40410
" />
<path d="M33420 40470
L33360 40440
L33330 40390
L33330 39870
" />
<path d="M33900 40470
L33900 40160
L33870 40100
L33810 40070
L33700 40070
L33640 40100
" />
<path d="M33900 40440
L33840 40470
L33700 40470
L33640 40440
L33610 40390
L33610 40330
L33640 40270
L33700 40240
L33840 40240
L33900 40210
" />
<path d="M34100 40070
L34330 40070
" />
<path d="M34180 39870
L34180 40390
L34210 40440
L34270 40470
L34330 40470
" />
<path d="M34610 40470
L34550 40440
L34520 40410
L34490 40360
L34490 40190
L34520 40130
L34550 40100
L34610 40070
L34690 40070
L34750 40100
L34780 40130
L34810 40190
L34810 40360
L34780 40410
L34750 40440
L34690 40470
L34610 40470
" />
<path d="M35060 40470
L35060 40070
" />
<path d="M35060 40190
L35090 40130
L35120 40100
L35180 40070
L35230 40070
" />
<path d="M35890 40470
L35890 40070
" />
<path d="M35890 39870
L35860 39900
L35890 39930
L35920 39900
L35890 39870
L35890 39930
" />
<path d="M36150 40440
L36210 40470
L36330 40470
L36380 40440
L36410 40390
L36410 40360
L36380 40300
L36330 40270
L36240 40270
L36180 40240
L36150 40190
L36150 40160
L36180 40100
L36240 40070
L36330 40070
L36380 40100
" />
<path d="M37390 40470
L37390 40160
L37360 40100
L37300 40070
L37190 40070
L37130 40100
" />
<path d="M37390 40440
L37330 40470
L37190 40470
L37130 40440
L37100 40390
L37100 40330
L37130 40270
L37190 40240
L37330 40240
L37390 40210
" />
<path d="M37930 40440
L37870 40470
L37760 40470
L37700 40440
L37670 40410
L37640 40360
L37640 40190
L37670 40130
L37700 40100
L37760 40070
L37870 40070
L37930 40100
" />
<path d="M38100 40070
L38330 40070
" />
<path d="M38180 39870
L38180 40390
L38210 40440
L38270 40470
L38330 40470
" />
<path d="M38780 40070
L38780 40470
" />
<path d="M38520 40070
L38520 40390
L38550 40440
L38610 40470
L38690 40470
L38750 40440
L38780 40410
" />
<path d="M39320 40470
L39320 40160
L39290 40100
L39230 40070
L39120 40070
L39060 40100
" />
<path d="M39320 40440
L39260 40470
L39120 40470
L39060 40440
L39030 40390
L39030 40330
L39060 40270
L39120 40240
L39260 40240
L39320 40210
" />
<path d="M39690 40470
L39630 40440
L39600 40390
L39600 39870
" />
<path d="M40000 40470
L39940 40440
L39910 40390
L39910 39870
" />
<path d="M40170 40070
L40310 40470
" />
<path d="M40450 40070
L40310 40470
L40250 40610
L40220 40640
L40170 40670
" />
<path d="M41400 40440
L41340 40470
L41230 40470
L41170 40440
L41140 40410
L41110 40360
L41110 40190
L41140 40130
L41170 40100
L41230 40070
L41340 40070
L41400 40100
" />
<path d="M41910 40470
L41910 40160
L41880 40100
L41820 40070
L41710 40070
L41650 40100
" />
<path d="M41910 40440
L41850 40470
L41710 40470
L41650 40440
L41620 40390
L41620 40330
L41650 40270
L41710 40240
L41850 40240
L41910 40210
" />
<path d="M42190 40070
L42190 40670
" />
<path d="M42190 40100
L42250 40070
L42360 40070
L42420 40100
L42450 40130
L42480 40190
L42480 40360
L42450 40410
L42420 40440
L42360 40470
L42250 40470
L42190 40440
" />
<path d="M42990 40470
L42990 40160
L42960 40100
L42900 40070
L42790 40070
L42730 40100
" />
<path d="M42990 40440
L42930 40470
L42790 40470
L42730 40440
L42700 40390
L42700 40330
L42730 40270
L42790 40240
L42930 40240
L42990 40210
" />
<path d="M43270 40470
L43270 39870
" />
<path d="M43270 40100
L43330 40070
L43440 40070
L43500 40100
L43530 40130
L43560 40190
L43560 40360
L43530 40410
L43500 40440
L43440 40470
L43330 40470
L43270 40440
" />
<path d="M43900 40470
L43840 40440
L43810 40390
L43810 39870
" />
<path d="M44350 40440
L44290 40470
L44180 40470
L44120 40440
L44090 40390
L44090 40160
L44120 40100
L44180 40070
L44290 40070
L44350 40100
L44380 40160
L44380 40210
L44090 40270
" />
<path d="M45180 40470
L45120 40440
L45090 40410
L45060 40360
L45060 40190
L45090 40130
L45120 40100
L45180 40070
L45260 40070
L45320 40100
L45350 40130
L45380 40190
L45380 40360
L45350 40410
L45320 40440
L45260 40470
L45180 40470
" />
<path d="M45550 40070
L45780 40070
" />
<path d="M45630 40470
L45630 39960
L45660 39900
L45720 39870
L45780 39870
" />
<path d="M46750 40470
L46400 40470
" />
<path d="M46580 40470
L46580 39870
L46520 39960
L46460 40010
L46400 40040
" />
<path d="M47000 40410
L47030 40440
L47000 40470
L46970 40440
L47000 40410
L47000 40470
" />
<path d="M47580 39870
L47290 39870
L47260 40160
L47290 40130
L47350 40100
L47490 40100
L47550 40130
L47580 40160
L47610 40210
L47610 40360
L47580 40410
L47550 40440
L47490 40470
L47350 40470
L47290 40440
L47260 40410
" />
<path d="M47830 40300
L48120 40300
" />
<path d="M47780 40470
L47980 39870
L48180 40470
" />
</g>
<g style="fill:#0000C2; fill-opacity:0.0; 
stroke:#0000C2; stroke-width:0; stroke-opacity:1; 
stroke-linecap:round; stroke-linejoin:round;">
</g>
<g style="fill:#840000; fill-opacity:0.0; 
stroke:#840000; stroke-width:0; stroke-opacity:1; 
stroke-linecap:round; stroke-linejoin:round;">
</g>
<g style="fill:#840000; fill-opacity:0.0; 
stroke:#840000; stroke-width:60; stroke-opacity:1; 
stroke-linecap:round; stroke-linejoin:round;">
<polyline fill="none;"
points="39300,28100
39300,28900
" /> 
<polyline fill="none;"
points="39300,28500
38700,28500
" /> 
<polyline fill="none;"
points="39300,28100
39200,28100
39200,28200
" /> 
<polyline fill="none;"
points="39300,28900
39400,28900
39400,28800
" /> 
<polyline fill="none;"
points="38700,28100
39300,28500
38700,28900
38700,28100
" /> 
<path d="M39300 28500
L40000 28500
" />
<path d="M38700 28500
L38000 28500
" />
</g>
<g style="fill:#008484; fill-opacity:0.0; 
stroke:#008484; stroke-width:60; stroke-opacity:1; 
stroke-linecap:round; stroke-linejoin:round;">
<path d="M38640 29490
L38640 28990
L38760 28990
L38830 29010
L38880 29060
L38900 29110
L38920 29200
L38920 29270
L38900 29370
L38880 29410
L38830 29460
L38760 29490
L38640 29490
" />
<path d="M39400 29490
L39120 29490
" />
<path d="M39260 29490
L39260 28990
L39210 29060
L39160 29110
L39120 29130
" />
<path d="M37780 27660
L37850 27690
L37970 27690
L38010 27660
L38040 27640
L38060 27590
L38060 27540
L38040 27500
L38010 27470
L37970 27450
L37870 27420
L37820 27400
L37800 27380
L37780 27330
L37780 27280
L37800 27230
L37820 27210
L37870 27190
L37990 27190
L38060 27210
" />
<path d="M38260 27660
L38330 27690
L38450 27690
L38490 27660
L38520 27640
L38540 27590
L38540 27540
L38520 27500
L38490 27470
L38450 27450
L38350 27420
L38300 27400
L38280 27380
L38260 27330
L38260 27280
L38280 27230
L38300 27210
L38350 27190
L38470 27190
L38540 27210
" />
<path d="M39020 27690
L38740 27690
" />
<path d="M38880 27690
L38880 27190
L38830 27260
L38780 27310
L38740 27330
" />
<path d="M39240 27690
L39240 27190
L39430 27190
L39480 27210
L39500 27230
L39520 27280
L39520 27350
L39500 27400
L39480 27420
L39430 27450
L39240 27450
" />
<path d="M39690 27190
L40000 27190
L39830 27380
L39910 27380
L39950 27400
L39980 27420
L40000 27470
L40000 27590
L39980 27640
L39950 27660
L39910 27690
L39760 27690
L39720 27660
L39690 27640
" />
<path d="M40460 27690
L40220 27690
L40220 27190
" />
</g>
<g style="fill:#008400; fill-opacity:0.0; 
stroke:#008400; stroke-width:60; stroke-opacity:1; 
stroke-linecap:round; stroke-linejoin:round;">
<path d="M41500 28500
L41500 29000
" />
</g>
<g style="fill:#008400; fill-opacity:0.0; 
stroke:#008400; stroke-width:0; stroke-opacity:1; 
stroke-linecap:round; stroke-linejoin:round;">
</g>
<g style="fill:#840000; fill-opacity:0.0; 
stroke:#840000; stroke-width:0; stroke-opacity:1; 
stroke-linecap:round; stroke-linejoin:round;">
</g>
<g style="fill:#840000; fill-opacity:0.0; 
stroke:#840000; stroke-width:80; stroke-opacity:1; 
stroke-linecap:round; stroke-linejoin:round;">
<rect x="55700" y="32300" width="600" height="1400" rx="0" />
</g>
<g style="fill:#840000; fill-opacity:0.0; 
stroke:#840000; stroke-width:60; stroke-opacity:1; 
stroke-linecap:round; stroke-linejoin:round;">
<path d="M56000 32300
L56000 32000
" />
<path d="M56000 33700
L56000 34000
" />
</g>
<g style="fill:#008484; fill-opacity:0.0; 
stroke:#008484; stroke-width:60; stroke-opacity:1; 
stroke-linecap:round; stroke-linejoin:round;">
<path d="M56700 33060
L56540 32820
" />
<path d="M56420 33060
L56420 32560
L56610 32560
L56660 32580
L56680 32600
L56700 32650
L56700 32720
L56680 32770
L56660 32790
L56610 32820
L56420 32820
" />
<path d="M57180 33060
L56900 33060
" />
<path d="M57040 33060
L57040 32560
L56990 32630
L56940 32680
L56900 32700
" />
<path d="M56660 33160
L56420 33160
L56400 33390
L56420 33370
L56470 33350
L56590 33350
L56630 33370
L56660 33390
L56680 33440
L56680 33560
L56660 33610
L56630 33630
L56590 33660
L56470 33660
L56420 33630
L56400 33610
" />
<path d="M56990 33160
L57040 33160
L57090 33180
L57110 33200
L57140 33250
L57160 33350
L57160 33470
L57140 33560
L57110 33610
L57090 33630
L57040 33660
L56990 33660
L56950 33630
L56920 33610
L56900 33560
L56880 33470
L56880 33350
L56900 33250
L56920 33200
L56950 33180
L56990 33160
" />
<path d="M57470 33160
L57520 33160
L57570 33180
L57590 33200
L57620 33250
L57640 33350
L57640 33470
L57620 33560
L57590 33610
L57570 33630
L57520 33660
L57470 33660
L57430 33630
L57400 33610
L57380 33560
L57360 33470
L57360 33350
L57380 33250
L57400 33200
L57430 33180
L57470 33160
" />
<path d="M58140 33660
L57980 33420
" />
<path d="M57860 33660
L57860 33160
L58050 33160
L58100 33180
L58120 33200
L58140 33250
L58140 33320
L58120 33370
L58100 33390
L58050 33420
L57860 33420
" />
</g>
<g style="fill:#008484; fill-opacity:0.0; 
stroke:#008484; stroke-width:0; stroke-opacity:1; 
stroke-linecap:round; stroke-linejoin:round;">
</g>
<g style="fill:#840000; fill-opacity:0.0; 
stroke:#840000; stroke-width:0; stroke-opacity:1; 
stroke-linecap:round; stroke-linejoin:round;">
</g>
<g style="fill:#840000; fill-opacity:0.0; 
stroke:#840000; stroke-width:60; stroke-opacity:1; 
stroke-linecap:round; stroke-linejoin:round;">
<polyline fill="none;"
points="56000,34000
56000,34500
56500,34500
56000,35000
55500,34500
56000,34500
" /> 
</g>
<g style="fill:#008484; fill-opacity:0.0; 
stroke:#008484; stroke-width:60; stroke-opacity:1; 
stroke-linecap:round; stroke-linejoin:round;">
<path d="M55620 35280
L55570 35260
L55500 35260
L55430 35280
L55380 35330
L55360 35380
L55340 35470
L55340 35540
L55360 35640
L55380 35680
L55430 35730
L55500 35760
L55550 35760
L55620 35730
L55640 35710
L55640 35540
L55550 35540
" />
<path d="M55860 35760
L55860 35260
L56140 35760
L56140 35260
" />
<path d="M56380 35760
L56380 35260
L56500 35260
L56570 35280
L56620 35330
L56640 35380
L56660 35470
L56660 35540
L56640 35640
L56620 35680
L56570 35730
L56500 35760
L56380 35760
" />
</g>
<g style="fill:#008484; fill-opacity:0.0; 
stroke:#008484; stroke-width:0; stroke-opacity:1; 
stroke-linecap:round; stroke-linejoin:round;">
</g>
<g style="fill:#840000; fill-opacity:0.0; 
stroke:#840000; stroke-width:0; stroke-opacity:1; 
stroke-linecap:round; stroke-linejoin:round;">
</g>
<g style="fill:#840000; fill-opacity:0.0; 
stroke:#840000; stroke-width:80; stroke-opacity:1; 
stroke-linecap:round; stroke-linejoin:round;">
<polyline fill="none;"
points="56500,31000
55500,31000
" /> 
</g>
<g style="fill:#840000; fill-opacity:0.0; 
stroke:#840000; stroke-width:60; stroke-opacity:1; 
stroke-linecap:round; stroke-linejoin:round;">
<polyline fill="none;"
points="56000,31000
56000,30000
" /> 
</g>
<g style="fill:#840000; fill-opacity:0.0; 
stroke:#840000; stroke-width:80; stroke-opacity:1; 
stroke-linecap:round; stroke-linejoin:round;">
<polyline fill="none;"
points="56500,30000
55500,30000
56000,31000
56500,30000
" /> 
</g>
<g style="fill:#840000; fill-opacity:0.0; 
stroke:#840000; stroke-width:60; stroke-opacity:1; 
stroke-linecap:round; stroke-linejoin:round;">
<polyline fill="none;"
points="56300,31700
56900,32300
56900,32000
56900,32300
56600,32300
" /> 
<polyline fill="none;"
points="56300,31200
56900,31800
56900,31500
56900,31800
56600,31800
" /> 
<path d="M56000 31000
L56000 32000
" />
<path d="M55880 31360
L55880 31640
" />
<path d="M55880 31500
L55380 31500
L55450 31550
L55500 31600
L55520 31640
" />
<path d="M56000 30000
L56000 29000
" />
<path d="M55420 29640
L55400 29620
L55380 29570
L55380 29450
L55400 29410
L55420 29380
L55470 29360
L55520 29360
L55590 29380
L55880 29670
L55880 29360
" />
</g>
<g style="fill:#008484; fill-opacity:0.0; 
stroke:#008484; stroke-width:60; stroke-opacity:1; 
stroke-linecap:round; stroke-linejoin:round;">
<path d="M55260 30870
L54760 30870
L54760 30750
L54780 30680
L54830 30630
L54880 30610
L54970 30590
L55040 30590
L55140 30610
L55180 30630
L55230 30680
L55260 30750
L55260 30870
" />
<path d="M54800 30390
L54780 30370
L54760 30320
L54760 30200
L54780 30160
L54800 30130
L54850 30110
L54900 30110
L54970 30130
L55260 30420
L55260 30110
" />
<path d="M58260 32050
L58260 32290
L57760 32290
" />
<path d="M57990 31890
L57990 31720
" />
<path d="M58260 31650
L58260 31890
L57760 31890
L57760 31650
" />
<path d="M58260 31440
L57760 31440
L57760 31320
L57780 31250
L57830 31200
L57880 31180
L57970 31160
L58040 31160
L58140 31180
L58180 31200
L58230 31250
L58260 31320
L58260 31440
" />
<path d="M57780 30300
L57760 30350
L57760 30420
L57780 30490
L57830 30540
L57880 30560
L57970 30580
L58040 30580
L58140 30560
L58180 30540
L58230 30490
L58260 30420
L58260 30370
L58230 30300
L58210 30280
L58040 30280
L58040 30370
" />
<path d="M58260 30060
L57920 30060
" />
<path d="M58020 30060
L57970 30040
L57950 30010
L57920 29970
L57920 29920
" />
<path d="M58230 29560
L58260 29610
L58260 29700
L58230 29750
L58180 29770
L57990 29770
L57950 29750
L57920 29700
L57920 29610
L57950 29560
L57990 29540
L58040 29540
L58090 29770
" />
<path d="M58230 29130
L58260 29180
L58260 29270
L58230 29320
L58180 29340
L57990 29340
L57950 29320
L57920 29270
L57920 29180
L57950 29130
L57990 29110
L58040 29110
L58090 29340
" />
<path d="M57920 28890
L58260 28890
" />
<path d="M57970 28890
L57950 28870
L57920 28820
L57920 28750
L57950 28700
L57990 28680
L58260 28680
" />
</g>
<g style="fill:#008400; fill-opacity:0.0; 
stroke:#008400; stroke-width:60; stroke-opacity:1; 
stroke-linecap:round; stroke-linejoin:round;">
<path d="M56000 28500
L56000 29000
" />
</g>
<g style="fill:#008400; fill-opacity:0.0; 
stroke:#008400; stroke-width:0; stroke-opacity:1; 
stroke-linecap:round; stroke-linejoin:round;">
</g>
<g style="fill:#840000; fill-opacity:0.0; 
stroke:#840000; stroke-width:0; stroke-opacity:1; 
stroke-linecap:round; stroke-linejoin:round;">
</g>
<g style="fill:#840000; fill-opacity:0.0; 
stroke:#840000; stroke-width:60; stroke-opacity:1; 
stroke-linecap:round; stroke-linejoin:round;">
<rect x="35000" y="28300" width="1000" height="400" rx="0" />
<polyline fill="none;"
points="35000,28500
36000,28500
" /> 
<path d="M35000 28500
L34500 28500
" />
<path d="M36000 28500
L36500 28500
" />
</g>
<g style="fill:#008484; fill-opacity:0.0; 
stroke:#008484; stroke-width:60; stroke-opacity:1; 
stroke-linecap:round; stroke-linejoin:round;">
<path d="M35340 29090
L35170 29090
" />
<path d="M35170 29360
L35170 28860
L35410 28860
" />
<path d="M35860 29360
L35580 29360
" />
<path d="M35720 29360
L35720 28860
L35670 28930
L35620 28980
L35580 29000
" />
<path d="M29060 30260
L29060 29760
L29230 30110
L29390 29760
L29390 30260
" />
<path d="M29800 29990
L29630 29990
" />
<path d="M29630 30260
L29630 29760
L29870 29760
" />
<path d="M30060 30070
L30440 30070
" />
<path d="M30680 30260
L30680 29760
L30850 30110
L31010 29760
L31010 30260
" />
<path d="M31230 30230
L31300 30260
L31420 30260
L31460 30230
L31490 30210
L31510 30160
L31510 30110
L31490 30070
L31460 30040
L31420 30020
L31320 29990
L31270 29970
L31250 29950
L31230 29900
L31230 29850
L31250 29800
L31270 29780
L31320 29760
L31440 29760
L31510 29780
" />
<path d="M31730 30260
L31730 29760
L31900 30110
L32060 29760
L32060 30260
" />
<path d="M32470 29990
L32300 29990
" />
<path d="M32300 30260
L32300 29760
L32540 29760
" />
<path d="M32820 29760
L32870 29760
L32920 29780
L32940 29800
L32970 29850
L32990 29950
L32990 30070
L32970 30160
L32940 30210
L32920 30230
L32870 30260
L32820 30260
L32780 30230
L32750 30210
L32730 30160
L32710 30070
L32710 29950
L32730 29850
L32750 29800
L32780 29780
L32820 29760
" />
<path d="M33450 29760
L33210 29760
L33190 29990
L33210 29970
L33260 29950
L33380 29950
L33420 29970
L33450 29990
L33470 30040
L33470 30160
L33450 30210
L33420 30230
L33380 30260
L33260 30260
L33210 30230
L33190 30210
" />
<path d="M33780 29760
L33830 29760
L33880 29780
L33900 29800
L33930 29850
L33950 29950
L33950 30070
L33930 30160
L33900 30210
L33880 30230
L33830 30260
L33780 30260
L33740 30230
L33710 30210
L33690 30160
L33670 30070
L33670 29950
L33690 29850
L33710 29800
L33740 29780
L33780 29760
" />
<path d="M34170 30070
L34550 30070
" />
<path d="M34770 29800
L34790 29780
L34840 29760
L34960 29760
L35000 29780
L35030 29800
L35050 29850
L35050 29900
L35030 29970
L34740 30260
L35050 30260
" />
<path d="M35890 29760
L35650 29760
L35630 29990
L35650 29970
L35700 29950
L35820 29950
L35860 29970
L35890 29990
L35910 30040
L35910 30160
L35890 30210
L35860 30230
L35820 30260
L35700 30260
L35650 30230
L35630 30210
" />
<path d="M36220 29760
L36270 29760
L36320 29780
L36340 29800
L36370 29850
L36390 29950
L36390 30070
L36370 30160
L36340 30210
L36320 30230
L36270 30260
L36220 30260
L36180 30230
L36150 30210
L36130 30160
L36110 30070
L36110 29950
L36130 29850
L36150 29800
L36180 29780
L36220 29760
" />
<path d="M36700 29760
L36750 29760
L36800 29780
L36820 29800
L36850 29850
L36870 29950
L36870 30070
L36850 30160
L36820 30210
L36800 30230
L36750 30260
L36700 30260
L36660 30230
L36630 30210
L36610 30160
L36590 30070
L36590 29950
L36610 29850
L36630 29800
L36660 29780
L36700 29760
" />
<path d="M37090 30260
L37090 29920
" />
<path d="M37090 29970
L37110 29950
L37160 29920
L37230 29920
L37280 29950
L37300 29990
L37300 30260
" />
<path d="M37300 29990
L37330 29950
L37370 29920
L37450 29920
L37490 29950
L37520 29990
L37520 30260
" />
<path d="M37740 30110
L37970 30110
" />
<path d="M37690 30260
L37850 29760
L38020 30260
" />
</g>
<g style="fill:#008400; fill-opacity:0.0; 
stroke:#008400; stroke-width:60; stroke-opacity:1; 
stroke-linecap:round; stroke-linejoin:round;">
<path d="M38000 28500
L36500 28500
" />
<path d="M34500 27000
L34500 28500
" />
</g>
<g style="fill:#008400; fill-opacity:0.0; 
stroke:#008400; stroke-width:0; stroke-opacity:1; 
stroke-linecap:round; stroke-linejoin:round;">
</g>
<g style="fill:#840000; fill-opacity:0.0; 
stroke:#840000; stroke-width:0; stroke-opacity:1; 
stroke-linecap:round; stroke-linejoin:round;">
</g>
<g style="fill:#FFFFC2; fill-opacity:0.0; 
stroke:#FFFFC2; stroke-width:0; stroke-opacity:1; 
stroke-linecap:round; stroke-linejoin:round;">
</g>
<g style="fill:#FFFFC2; fill-opacity:0.6; 
stroke:#FFFFC2; stroke-width:0; stroke-opacity:1; 
stroke-linecap:round; stroke-linejoin:round;">
<rect x="45000" y="27500" width="4000" height="3000" rx="0" />
</g>
<g style="fill:#840000; fill-opacity:0.6; 
stroke:#840000; stroke-width:0; stroke-opacity:1; 
stroke-linecap:round; stroke-linejoin:round;">
</g>
<g style="fill:#840000; fill-opacity:0.0; 
stroke:#840000; stroke-width:60; stroke-opacity:1; 
stroke-linecap:round; stroke-linejoin:round;">
<rect x="45000" y="27500" width="4000" height="3000" rx="0" />
<path d="M45000 28500
L43000 28500
" />
</g>
<g style="fill:#008484; fill-opacity:0.0; 
stroke:#008484; stroke-width:60; stroke-opacity:1; 
stroke-linecap:round; stroke-linejoin:round;">
<path d="M45340 28280
L45470 28680
L45600 28280
" />
<path d="M45740 28680
L45740 28280
" />
</g>
<g style="fill:#840000; fill-opacity:0.0; 
stroke:#840000; stroke-width:60; stroke-opacity:1; 
stroke-linecap:round; stroke-linejoin:round;">
<path d="M49000 28500
L51000 28500
" />
</g>
<g style="fill:#008484; fill-opacity:0.0; 
stroke:#008484; stroke-width:60; stroke-opacity:1; 
stroke-linecap:round; stroke-linejoin:round;">
<path d="M47980 28280
L48110 28680
L48240 28280
" />
<path d="M48450 28280
L48530 28280
L48570 28300
L48600 28340
L48620 28410
L48620 28550
L48600 28620
L48570 28660
L48530 28680
L48450 28680
L48410 28660
L48380 28620
L48360 28550
L48360 28410
L48380 28340
L48410 28300
L48450 28280
" />
</g>
<g style="fill:#840000; fill-opacity:0.0; 
stroke:#840000; stroke-width:60; stroke-opacity:1; 
stroke-linecap:round; stroke-linejoin:round;">
<path d="M47000 30500
L47000 31500
" />
</g>
<g style="fill:#008484; fill-opacity:0.0; 
stroke:#008484; stroke-width:60; stroke-opacity:1; 
stroke-linecap:round; stroke-linejoin:round;">
<path d="M46800 29900
L46780 29930
L46780 29990
L46800 30050
L46840 30090
L46880 30100
L46950 30120
L47010 30120
L47090 30100
L47120 30090
L47160 30050
L47180 29990
L47180 29950
L47160 29900
L47140 29880
L47010 29880
L47010 29950
" />
<path d="M47180 29700
L46780 29700
L47180 29480
L46780 29480
" />
<path d="M47180 29280
L46780 29280
L46780 29190
L46800 29130
L46840 29090
L46880 29080
L46950 29060
L47010 29060
L47090 29080
L47120 29090
L47160 29130
L47180 29190
L47180 29280
" />
<path d="M48120 30720
L48120 31120
L48140 31170
L48170 31190
L48210 31220
L48310 31220
L48360 31190
L48380 31170
L48400 31120
L48400 30720
" />
<path d="M48900 31220
L48620 31220
" />
<path d="M48760 31220
L48760 30720
L48710 30790
L48660 30840
L48620 30860
" />
<path d="M44540 27260
L44300 27260
L44300 26760
" />
<path d="M44700 27260
L44700 26760
L44820 26760
L44890 26780
L44940 26830
L44960 26880
L44980 26970
L44980 27040
L44960 27140
L44940 27180
L44890 27230
L44820 27260
L44700 27260
" />
<path d="M45180 26800
L45200 26780
L45250 26760
L45370 26760
L45410 26780
L45440 26800
L45460 26850
L45460 26900
L45440 26970
L45150 27260
L45460 27260
" />
<path d="M45700 27260
L45800 27260
L45850 27230
L45870 27210
L45920 27140
L45940 27040
L45940 26850
L45920 26800
L45890 26780
L45850 26760
L45750 26760
L45700 26780
L45680 26800
L45660 26850
L45660 26970
L45680 27020
L45700 27040
L45750 27070
L45850 27070
L45890 27040
L45920 27020
L45940 26970
" />
<path d="M46420 27260
L46140 27260
" />
<path d="M46280 27260
L46280 26760
L46230 26830
L46180 26880
L46140 26900
" />
<path d="M46880 26760
L46640 26760
L46620 26990
L46640 26970
L46690 26950
L46810 26950
L46850 26970
L46880 26990
L46900 27040
L46900 27160
L46880 27210
L46850 27230
L46810 27260
L46690 27260
L46640 27230
L46620 27210
" />
<path d="M47210 26760
L47260 26760
L47310 26780
L47330 26800
L47360 26850
L47380 26950
L47380 27070
L47360 27160
L47330 27210
L47310 27230
L47260 27260
L47210 27260
L47170 27230
L47140 27210
L47120 27160
L47100 27070
L47100 26950
L47120 26850
L47140 26800
L47170 26780
L47210 26760
" />
<path d="M47600 27260
L47600 26760
L47720 26760
L47790 26780
L47840 26830
L47860 26880
L47880 26970
L47880 27040
L47860 27140
L47840 27180
L47790 27230
L47720 27260
L47600 27260
" />
<path d="M48030 26760
L48310 26760
" />
<path d="M48170 27260
L48170 26760
" />
<path d="M48430 26760
L48740 26760
L48570 26950
L48650 26950
L48690 26970
L48720 26990
L48740 27040
L48740 27160
L48720 27210
L48690 27230
L48650 27260
L48500 27260
L48460 27230
L48430 27210
" />
<path d="M48910 26760
L49220 26760
L49050 26950
L49130 26950
L49170 26970
L49200 26990
L49220 27040
L49220 27160
L49200 27210
L49170 27230
L49130 27260
L48980 27260
L48940 27230
L48910 27210
" />
<path d="M49720 27260
L49560 27020
" />
<path d="M49440 27260
L49440 26760
L49630 26760
L49680 26780
L49700 26800
L49720 26850
L49720 26920
L49700 26970
L49680 26990
L49630 27020
L49440 27020
" />
</g>
<g style="fill:#008484; fill-opacity:0.0; 
stroke:#008484; stroke-width:0; stroke-opacity:1; 
stroke-linecap:round; stroke-linejoin:round;">
</g>
<g style="fill:#840000; fill-opacity:0.0; 
stroke:#840000; stroke-width:0; stroke-opacity:1; 
stroke-linecap:round; stroke-linejoin:round;">
</g>
<g style="fill:#840000; fill-opacity:0.0; 
stroke:#840000; stroke-width:60; stroke-opacity:1; 
stroke-linecap:round; stroke-linejoin:round;">
<polyline fill="none;"
points="51700,27500
52000,27000
" /> 
<polyline fill="none;"
points="52000,28000
52000,27000
" /> 
<polyline fill="none;"
points="52000,27000
52300,27500
" /> 
</g>
<g style="fill:#008484; fill-opacity:0.0; 
stroke:#008484; stroke-width:60; stroke-opacity:1; 
stroke-linecap:round; stroke-linejoin:round;">
<path d="M51000 26670
L51380 26670
" />
<path d="M51190 26860
L51190 26480
" />
<path d="M51570 26360
L51880 26360
L51710 26550
L51790 26550
L51830 26570
L51860 26590
L51880 26640
L51880 26760
L51860 26810
L51830 26830
L51790 26860
L51640 26860
L51600 26830
L51570 26810
" />
<path d="M52100 26810
L52120 26830
L52100 26860
L52080 26830
L52100 26810
L52100 26860
" />
<path d="M52290 26360
L52600 26360
L52430 26550
L52510 26550
L52550 26570
L52580 26590
L52600 26640
L52600 26760
L52580 26810
L52550 26830
L52510 26860
L52360 26860
L52320 26830
L52290 26810
" />
<path d="M52750 26360
L52910 26860
L53080 26360
" />
</g> 
</svg>
