<?xml version="1.0" standalone="no"?>
 <!DOCTYPE svg PUBLIC "-//W3C//DTD SVG 1.1//EN" 
 "http://www.w3.org/Graphics/SVG/1.1/DTD/svg11.dtd"> 
<svg xmlns="http://www.w3.org/2000/svg" version="1.1" 
    width="29.7002cm" height="21.0007cm" viewBox="0 0 116930 82680 ">
<title>SVG Picture created as Regulator-LD29150-5V.svg date 2017/04/19 11:33:51 </title>
  <desc>Picture generated by Eeschema-SVG </desc>
<g style="fill:#000000; fill-opacity:1;stroke:#000000; stroke-opacity:1;
stroke-linecap:round; stroke-linejoin:round; "
 transform="translate(0 0) scale(1 1)">
</g>
<g style="fill:#000000; fill-opacity:0.0; 
stroke:#000000; stroke-width:-10; stroke-opacity:1; 
stroke-linecap:round; stroke-linejoin:round;">
</g>
<g style="fill:#840000; fill-opacity:0.0; 
stroke:#840000; stroke-width:-10; stroke-opacity:1; 
stroke-linecap:round; stroke-linejoin:round;">
</g>
<g style="fill:#840000; fill-opacity:0.0; 
stroke:#840000; stroke-width:100; stroke-opacity:1; 
stroke-linecap:round; stroke-linejoin:round;">
</g>
<g style="fill:#840000; fill-opacity:0.0; 
stroke:#840000; stroke-width:60; stroke-opacity:1; 
stroke-linecap:round; stroke-linejoin:round;">
<rect x="69690" y="65360" width="42520" height="12600" rx="0" />
</g>
<g style="fill:#840000; fill-opacity:0.0; 
stroke:#840000; stroke-width:100; stroke-opacity:1; 
stroke-linecap:round; stroke-linejoin:round;">
</g>
<g style="fill:#840000; fill-opacity:0.0; 
stroke:#840000; stroke-width:60; stroke-opacity:1; 
stroke-linecap:round; stroke-linejoin:round;">
<rect x="3940" y="3940" width="109050" height="74800" rx="0" />
</g>
<g style="fill:#840000; fill-opacity:0.0; 
stroke:#840000; stroke-width:100; stroke-opacity:1; 
stroke-linecap:round; stroke-linejoin:round;">
</g>
<g style="fill:#840000; fill-opacity:0.0; 
stroke:#840000; stroke-width:60; stroke-opacity:1; 
stroke-linecap:round; stroke-linejoin:round;">
<rect x="4720" y="4720" width="107490" height="73240" rx="0" />
</g>
<g style="fill:#840000; fill-opacity:0.0; 
stroke:#840000; stroke-width:100; stroke-opacity:1; 
stroke-linecap:round; stroke-linejoin:round;">
</g>
<g style="fill:#840000; fill-opacity:0.0; 
stroke:#840000; stroke-width:60; stroke-opacity:1; 
stroke-linecap:round; stroke-linejoin:round;">
<path d="M23620 4720
L23620 3940
" />
</g>
<g style="fill:#840000; fill-opacity:0.0; 
stroke:#840000; stroke-width:100; stroke-opacity:1; 
stroke-linecap:round; stroke-linejoin:round;">
</g>
<g style="fill:#840000; fill-opacity:0.0; 
stroke:#840000; stroke-width:60; stroke-opacity:1; 
stroke-linecap:round; stroke-linejoin:round;">
<path d="M43310 4720
L43310 3940
" />
</g>
<g style="fill:#840000; fill-opacity:0.0; 
stroke:#840000; stroke-width:100; stroke-opacity:1; 
stroke-linecap:round; stroke-linejoin:round;">
</g>
<g style="fill:#840000; fill-opacity:0.0; 
stroke:#840000; stroke-width:60; stroke-opacity:1; 
stroke-linecap:round; stroke-linejoin:round;">
<path d="M62990 4720
L62990 3940
" />
</g>
<g style="fill:#840000; fill-opacity:0.0; 
stroke:#840000; stroke-width:100; stroke-opacity:1; 
stroke-linecap:round; stroke-linejoin:round;">
</g>
<g style="fill:#840000; fill-opacity:0.0; 
stroke:#840000; stroke-width:60; stroke-opacity:1; 
stroke-linecap:round; stroke-linejoin:round;">
<path d="M82680 4720
L82680 3940
" />
</g>
<g style="fill:#840000; fill-opacity:0.0; 
stroke:#840000; stroke-width:100; stroke-opacity:1; 
stroke-linecap:round; stroke-linejoin:round;">
</g>
<g style="fill:#840000; fill-opacity:0.0; 
stroke:#840000; stroke-width:60; stroke-opacity:1; 
stroke-linecap:round; stroke-linejoin:round;">
<path d="M102360 4720
L102360 3940
" />
</g>
<g style="fill:#840000; fill-opacity:0.0; 
stroke:#840000; stroke-width:100; stroke-opacity:1; 
stroke-linecap:round; stroke-linejoin:round;">
</g>
<g style="fill:#840000; fill-opacity:0.0; 
stroke:#840000; stroke-width:60; stroke-opacity:1; 
stroke-linecap:round; stroke-linejoin:round;">
<path d="M14170 4560
L13880 4560
" />
<path d="M14020 4560
L14020 4050
L13970 4120
L13930 4170
L13880 4190
" />
</g>
<g style="fill:#840000; fill-opacity:0.0; 
stroke:#840000; stroke-width:100; stroke-opacity:1; 
stroke-linecap:round; stroke-linejoin:round;">
</g>
<g style="fill:#840000; fill-opacity:0.0; 
stroke:#840000; stroke-width:60; stroke-opacity:1; 
stroke-linecap:round; stroke-linejoin:round;">
<path d="M33560 4090
L33580 4070
L33630 4050
L33750 4050
L33800 4070
L33820 4090
L33850 4140
L33850 4190
L33820 4260
L33530 4560
L33850 4560
" />
</g>
<g style="fill:#840000; fill-opacity:0.0; 
stroke:#840000; stroke-width:100; stroke-opacity:1; 
stroke-linecap:round; stroke-linejoin:round;">
</g>
<g style="fill:#840000; fill-opacity:0.0; 
stroke:#840000; stroke-width:60; stroke-opacity:1; 
stroke-linecap:round; stroke-linejoin:round;">
<path d="M53220 4050
L53540 4050
L53370 4240
L53440 4240
L53490 4260
L53510 4290
L53540 4340
L53540 4460
L53510 4510
L53490 4530
L53440 4560
L53300 4560
L53250 4530
L53220 4510
" />
</g>
<g style="fill:#840000; fill-opacity:0.0; 
stroke:#840000; stroke-width:100; stroke-opacity:1; 
stroke-linecap:round; stroke-linejoin:round;">
</g>
<g style="fill:#840000; fill-opacity:0.0; 
stroke:#840000; stroke-width:60; stroke-opacity:1; 
stroke-linecap:round; stroke-linejoin:round;">
<path d="M73170 4220
L73170 4560
" />
<path d="M73050 4020
L72930 4390
L73240 4390
" />
</g>
<g style="fill:#840000; fill-opacity:0.0; 
stroke:#840000; stroke-width:100; stroke-opacity:1; 
stroke-linecap:round; stroke-linejoin:round;">
</g>
<g style="fill:#840000; fill-opacity:0.0; 
stroke:#840000; stroke-width:60; stroke-opacity:1; 
stroke-linecap:round; stroke-linejoin:round;">
<path d="M92880 4050
L92640 4050
L92620 4290
L92640 4260
L92690 4240
L92810 4240
L92860 4260
L92880 4290
L92910 4340
L92910 4460
L92880 4510
L92860 4530
L92810 4560
L92690 4560
L92640 4530
L92620 4510
" />
</g>
<g style="fill:#840000; fill-opacity:0.0; 
stroke:#840000; stroke-width:100; stroke-opacity:1; 
stroke-linecap:round; stroke-linejoin:round;">
</g>
<g style="fill:#840000; fill-opacity:0.0; 
stroke:#840000; stroke-width:60; stroke-opacity:1; 
stroke-linecap:round; stroke-linejoin:round;">
<path d="M112540 4050
L112440 4050
L112390 4070
L112370 4090
L112320 4170
L112300 4260
L112300 4460
L112320 4510
L112350 4530
L112390 4560
L112490 4560
L112540 4530
L112560 4510
L112590 4460
L112590 4340
L112560 4290
L112540 4260
L112490 4240
L112390 4240
L112350 4260
L112320 4290
L112300 4340
" />
</g>
<g style="fill:#840000; fill-opacity:0.0; 
stroke:#840000; stroke-width:100; stroke-opacity:1; 
stroke-linecap:round; stroke-linejoin:round;">
</g>
<g style="fill:#840000; fill-opacity:0.0; 
stroke:#840000; stroke-width:60; stroke-opacity:1; 
stroke-linecap:round; stroke-linejoin:round;">
<path d="M23620 77960
L23620 78740
" />
</g>
<g style="fill:#840000; fill-opacity:0.0; 
stroke:#840000; stroke-width:100; stroke-opacity:1; 
stroke-linecap:round; stroke-linejoin:round;">
</g>
<g style="fill:#840000; fill-opacity:0.0; 
stroke:#840000; stroke-width:60; stroke-opacity:1; 
stroke-linecap:round; stroke-linejoin:round;">
<path d="M43310 77960
L43310 78740
" />
</g>
<g style="fill:#840000; fill-opacity:0.0; 
stroke:#840000; stroke-width:100; stroke-opacity:1; 
stroke-linecap:round; stroke-linejoin:round;">
</g>
<g style="fill:#840000; fill-opacity:0.0; 
stroke:#840000; stroke-width:60; stroke-opacity:1; 
stroke-linecap:round; stroke-linejoin:round;">
<path d="M62990 77960
L62990 78740
" />
</g>
<g style="fill:#840000; fill-opacity:0.0; 
stroke:#840000; stroke-width:100; stroke-opacity:1; 
stroke-linecap:round; stroke-linejoin:round;">
</g>
<g style="fill:#840000; fill-opacity:0.0; 
stroke:#840000; stroke-width:60; stroke-opacity:1; 
stroke-linecap:round; stroke-linejoin:round;">
<path d="M82680 77960
L82680 78740
" />
</g>
<g style="fill:#840000; fill-opacity:0.0; 
stroke:#840000; stroke-width:100; stroke-opacity:1; 
stroke-linecap:round; stroke-linejoin:round;">
</g>
<g style="fill:#840000; fill-opacity:0.0; 
stroke:#840000; stroke-width:60; stroke-opacity:1; 
stroke-linecap:round; stroke-linejoin:round;">
<path d="M102360 77960
L102360 78740
" />
</g>
<g style="fill:#840000; fill-opacity:0.0; 
stroke:#840000; stroke-width:100; stroke-opacity:1; 
stroke-linecap:round; stroke-linejoin:round;">
</g>
<g style="fill:#840000; fill-opacity:0.0; 
stroke:#840000; stroke-width:60; stroke-opacity:1; 
stroke-linecap:round; stroke-linejoin:round;">
<path d="M14170 78580
L13880 78580
" />
<path d="M14020 78580
L14020 78070
L13970 78140
L13930 78190
L13880 78210
" />
</g>
<g style="fill:#840000; fill-opacity:0.0; 
stroke:#840000; stroke-width:100; stroke-opacity:1; 
stroke-linecap:round; stroke-linejoin:round;">
</g>
<g style="fill:#840000; fill-opacity:0.0; 
stroke:#840000; stroke-width:60; stroke-opacity:1; 
stroke-linecap:round; stroke-linejoin:round;">
<path d="M33560 78110
L33580 78090
L33630 78070
L33750 78070
L33800 78090
L33820 78110
L33850 78160
L33850 78210
L33820 78280
L33530 78580
L33850 78580
" />
</g>
<g style="fill:#840000; fill-opacity:0.0; 
stroke:#840000; stroke-width:100; stroke-opacity:1; 
stroke-linecap:round; stroke-linejoin:round;">
</g>
<g style="fill:#840000; fill-opacity:0.0; 
stroke:#840000; stroke-width:60; stroke-opacity:1; 
stroke-linecap:round; stroke-linejoin:round;">
<path d="M53220 78070
L53540 78070
L53370 78260
L53440 78260
L53490 78280
L53510 78310
L53540 78360
L53540 78480
L53510 78530
L53490 78550
L53440 78580
L53300 78580
L53250 78550
L53220 78530
" />
</g>
<g style="fill:#840000; fill-opacity:0.0; 
stroke:#840000; stroke-width:100; stroke-opacity:1; 
stroke-linecap:round; stroke-linejoin:round;">
</g>
<g style="fill:#840000; fill-opacity:0.0; 
stroke:#840000; stroke-width:60; stroke-opacity:1; 
stroke-linecap:round; stroke-linejoin:round;">
<path d="M73170 78240
L73170 78580
" />
<path d="M73050 78040
L72930 78410
L73240 78410
" />
</g>
<g style="fill:#840000; fill-opacity:0.0; 
stroke:#840000; stroke-width:100; stroke-opacity:1; 
stroke-linecap:round; stroke-linejoin:round;">
</g>
<g style="fill:#840000; fill-opacity:0.0; 
stroke:#840000; stroke-width:60; stroke-opacity:1; 
stroke-linecap:round; stroke-linejoin:round;">
<path d="M92880 78070
L92640 78070
L92620 78310
L92640 78280
L92690 78260
L92810 78260
L92860 78280
L92880 78310
L92910 78360
L92910 78480
L92880 78530
L92860 78550
L92810 78580
L92690 78580
L92640 78550
L92620 78530
" />
</g>
<g style="fill:#840000; fill-opacity:0.0; 
stroke:#840000; stroke-width:100; stroke-opacity:1; 
stroke-linecap:round; stroke-linejoin:round;">
</g>
<g style="fill:#840000; fill-opacity:0.0; 
stroke:#840000; stroke-width:60; stroke-opacity:1; 
stroke-linecap:round; stroke-linejoin:round;">
<path d="M112540 78070
L112440 78070
L112390 78090
L112370 78110
L112320 78190
L112300 78280
L112300 78480
L112320 78530
L112350 78550
L112390 78580
L112490 78580
L112540 78550
L112560 78530
L112590 78480
L112590 78360
L112560 78310
L112540 78280
L112490 78260
L112390 78260
L112350 78280
L112320 78310
L112300 78360
" />
</g>
<g style="fill:#840000; fill-opacity:0.0; 
stroke:#840000; stroke-width:100; stroke-opacity:1; 
stroke-linecap:round; stroke-linejoin:round;">
</g>
<g style="fill:#840000; fill-opacity:0.0; 
stroke:#840000; stroke-width:60; stroke-opacity:1; 
stroke-linecap:round; stroke-linejoin:round;">
<path d="M3940 23620
L4720 23620
" />
</g>
<g style="fill:#840000; fill-opacity:0.0; 
stroke:#840000; stroke-width:100; stroke-opacity:1; 
stroke-linecap:round; stroke-linejoin:round;">
</g>
<g style="fill:#840000; fill-opacity:0.0; 
stroke:#840000; stroke-width:60; stroke-opacity:1; 
stroke-linecap:round; stroke-linejoin:round;">
<path d="M3940 43310
L4720 43310
" />
</g>
<g style="fill:#840000; fill-opacity:0.0; 
stroke:#840000; stroke-width:100; stroke-opacity:1; 
stroke-linecap:round; stroke-linejoin:round;">
</g>
<g style="fill:#840000; fill-opacity:0.0; 
stroke:#840000; stroke-width:60; stroke-opacity:1; 
stroke-linecap:round; stroke-linejoin:round;">
<path d="M3940 62990
L4720 62990
" />
</g>
<g style="fill:#840000; fill-opacity:0.0; 
stroke:#840000; stroke-width:100; stroke-opacity:1; 
stroke-linecap:round; stroke-linejoin:round;">
</g>
<g style="fill:#840000; fill-opacity:0.0; 
stroke:#840000; stroke-width:60; stroke-opacity:1; 
stroke-linecap:round; stroke-linejoin:round;">
<path d="M4210 13860
L4450 13860
" />
<path d="M4160 14010
L4330 13500
L4500 14010
" />
</g>
<g style="fill:#840000; fill-opacity:0.0; 
stroke:#840000; stroke-width:100; stroke-opacity:1; 
stroke-linecap:round; stroke-linejoin:round;">
</g>
<g style="fill:#840000; fill-opacity:0.0; 
stroke:#840000; stroke-width:60; stroke-opacity:1; 
stroke-linecap:round; stroke-linejoin:round;">
<path d="M4370 33420
L4440 33440
L4470 33470
L4490 33520
L4490 33590
L4470 33640
L4440 33660
L4400 33690
L4200 33690
L4200 33180
L4370 33180
L4420 33200
L4440 33220
L4470 33270
L4470 33320
L4440 33370
L4420 33390
L4370 33420
L4200 33420
" />
</g>
<g style="fill:#840000; fill-opacity:0.0; 
stroke:#840000; stroke-width:100; stroke-opacity:1; 
stroke-linecap:round; stroke-linejoin:round;">
</g>
<g style="fill:#840000; fill-opacity:0.0; 
stroke:#840000; stroke-width:60; stroke-opacity:1; 
stroke-linecap:round; stroke-linejoin:round;">
<path d="M4490 53330
L4470 53350
L4400 53380
L4350 53380
L4270 53350
L4230 53300
L4200 53250
L4180 53160
L4180 53080
L4200 52990
L4230 52940
L4270 52890
L4350 52870
L4400 52870
L4470 52890
L4490 52910
" />
</g>
<g style="fill:#840000; fill-opacity:0.0; 
stroke:#840000; stroke-width:100; stroke-opacity:1; 
stroke-linecap:round; stroke-linejoin:round;">
</g>
<g style="fill:#840000; fill-opacity:0.0; 
stroke:#840000; stroke-width:60; stroke-opacity:1; 
stroke-linecap:round; stroke-linejoin:round;">
<path d="M4200 73060
L4200 72550
L4320 72550
L4400 72570
L4440 72620
L4470 72670
L4490 72760
L4490 72840
L4470 72930
L4440 72980
L4400 73030
L4320 73060
L4200 73060
" />
</g>
<g style="fill:#840000; fill-opacity:0.0; 
stroke:#840000; stroke-width:100; stroke-opacity:1; 
stroke-linecap:round; stroke-linejoin:round;">
</g>
<g style="fill:#840000; fill-opacity:0.0; 
stroke:#840000; stroke-width:60; stroke-opacity:1; 
stroke-linecap:round; stroke-linejoin:round;">
<path d="M112990 23620
L112210 23620
" />
</g>
<g style="fill:#840000; fill-opacity:0.0; 
stroke:#840000; stroke-width:100; stroke-opacity:1; 
stroke-linecap:round; stroke-linejoin:round;">
</g>
<g style="fill:#840000; fill-opacity:0.0; 
stroke:#840000; stroke-width:60; stroke-opacity:1; 
stroke-linecap:round; stroke-linejoin:round;">
<path d="M112990 43310
L112210 43310
" />
</g>
<g style="fill:#840000; fill-opacity:0.0; 
stroke:#840000; stroke-width:100; stroke-opacity:1; 
stroke-linecap:round; stroke-linejoin:round;">
</g>
<g style="fill:#840000; fill-opacity:0.0; 
stroke:#840000; stroke-width:60; stroke-opacity:1; 
stroke-linecap:round; stroke-linejoin:round;">
<path d="M112990 62990
L112210 62990
" />
</g>
<g style="fill:#840000; fill-opacity:0.0; 
stroke:#840000; stroke-width:100; stroke-opacity:1; 
stroke-linecap:round; stroke-linejoin:round;">
</g>
<g style="fill:#840000; fill-opacity:0.0; 
stroke:#840000; stroke-width:60; stroke-opacity:1; 
stroke-linecap:round; stroke-linejoin:round;">
<path d="M112480 13860
L112720 13860
" />
<path d="M112430 14010
L112600 13500
L112770 14010
" />
</g>
<g style="fill:#840000; fill-opacity:0.0; 
stroke:#840000; stroke-width:100; stroke-opacity:1; 
stroke-linecap:round; stroke-linejoin:round;">
</g>
<g style="fill:#840000; fill-opacity:0.0; 
stroke:#840000; stroke-width:60; stroke-opacity:1; 
stroke-linecap:round; stroke-linejoin:round;">
<path d="M112640 33420
L112710 33440
L112740 33470
L112760 33520
L112760 33590
L112740 33640
L112710 33660
L112670 33690
L112470 33690
L112470 33180
L112640 33180
L112690 33200
L112710 33220
L112740 33270
L112740 33320
L112710 33370
L112690 33390
L112640 33420
L112470 33420
" />
</g>
<g style="fill:#840000; fill-opacity:0.0; 
stroke:#840000; stroke-width:100; stroke-opacity:1; 
stroke-linecap:round; stroke-linejoin:round;">
</g>
<g style="fill:#840000; fill-opacity:0.0; 
stroke:#840000; stroke-width:60; stroke-opacity:1; 
stroke-linecap:round; stroke-linejoin:round;">
<path d="M112760 53330
L112740 53350
L112670 53380
L112620 53380
L112540 53350
L112500 53300
L112470 53250
L112450 53160
L112450 53080
L112470 52990
L112500 52940
L112540 52890
L112620 52870
L112670 52870
L112740 52890
L112760 52910
" />
</g>
<g style="fill:#840000; fill-opacity:0.0; 
stroke:#840000; stroke-width:100; stroke-opacity:1; 
stroke-linecap:round; stroke-linejoin:round;">
</g>
<g style="fill:#840000; fill-opacity:0.0; 
stroke:#840000; stroke-width:60; stroke-opacity:1; 
stroke-linecap:round; stroke-linejoin:round;">
<path d="M112470 73060
L112470 72550
L112590 72550
L112670 72570
L112710 72620
L112740 72670
L112760 72760
L112760 72840
L112740 72930
L112710 72980
L112670 73030
L112590 73060
L112470 73060
" />
</g>
<g style="fill:#840000; fill-opacity:0.0; 
stroke:#840000; stroke-width:100; stroke-opacity:1; 
stroke-linecap:round; stroke-linejoin:round;">
</g>
<g style="fill:#840000; fill-opacity:0.0; 
stroke:#840000; stroke-width:60; stroke-opacity:1; 
stroke-linecap:round; stroke-linejoin:round;">
<path d="M78880 76290
L78880 75700
L79020 75700
L79110 75730
L79160 75790
L79190 75840
L79220 75950
L79220 76040
L79190 76150
L79160 76210
L79110 76260
L79020 76290
L78880 76290
" />
<path d="M79720 76290
L79720 75980
L79700 75930
L79640 75900
L79530 75900
L79470 75930
" />
<path d="M79720 76260
L79670 76290
L79530 76290
L79470 76260
L79440 76210
L79440 76150
L79470 76100
L79530 76070
L79670 76070
L79720 76040
" />
<path d="M79920 75900
L80140 75900
" />
<path d="M80000 75700
L80000 76210
L80030 76260
L80080 76290
L80140 76290
" />
<path d="M80570 76260
L80510 76290
L80400 76290
L80340 76260
L80310 76210
L80310 75980
L80340 75930
L80400 75900
L80510 75900
L80570 75930
L80590 75980
L80590 76040
L80310 76100
" />
<path d="M80850 76240
L80880 76260
L80850 76290
L80820 76260
L80850 76240
L80850 76290
" />
<path d="M80850 75930
L80880 75950
L80850 75980
L80820 75950
L80850 75930
L80850 75980
" />
</g>
<g style="fill:#840000; fill-opacity:0.0; 
stroke:#840000; stroke-width:100; stroke-opacity:1; 
stroke-linecap:round; stroke-linejoin:round;">
</g>
<g style="fill:#840000; fill-opacity:0.0; 
stroke:#840000; stroke-width:60; stroke-opacity:1; 
stroke-linecap:round; stroke-linejoin:round;">
<path d="M69690 76580
L112210 76580
" />
</g>
<g style="fill:#840000; fill-opacity:0.0; 
stroke:#840000; stroke-width:100; stroke-opacity:1; 
stroke-linecap:round; stroke-linejoin:round;">
</g>
<g style="fill:#840000; fill-opacity:0.0; 
stroke:#840000; stroke-width:60; stroke-opacity:1; 
stroke-linecap:round; stroke-linejoin:round;">
<path d="M70220 77390
L70220 76800
" />
<path d="M70560 77390
L70300 77050
" />
<path d="M70560 76800
L70220 77140
" />
<path d="M70810 77390
L70810 77000
" />
<path d="M70810 76800
L70780 76830
L70810 76860
L70840 76830
L70810 76800
L70810 76860
" />
<path d="M71430 77340
L71400 77360
L71320 77390
L71260 77390
L71170 77360
L71120 77310
L71090 77250
L71060 77140
L71060 77050
L71090 76940
L71120 76890
L71170 76830
L71260 76800
L71320 76800
L71400 76830
L71430 76860
" />
<path d="M71930 77390
L71930 77080
L71910 77030
L71850 77000
L71740 77000
L71680 77030
" />
<path d="M71930 77360
L71880 77390
L71740 77390
L71680 77360
L71650 77310
L71650 77250
L71680 77200
L71740 77170
L71880 77170
L71930 77140
" />
<path d="M72460 77390
L72460 76800
" />
<path d="M72460 77360
L72410 77390
L72290 77390
L72240 77360
L72210 77340
L72180 77280
L72180 77110
L72210 77050
L72240 77030
L72290 77000
L72410 77000
L72460 77030
" />
<path d="M73190 77080
L73390 77080
" />
<path d="M73470 77390
L73190 77390
L73190 76800
L73470 76800
" />
<path d="M73720 77340
L73750 77360
L73720 77390
L73690 77360
L73720 77340
L73720 77390
" />
<path d="M74000 77390
L74000 76800
L74140 76800
L74230 76830
L74280 76890
L74310 76940
L74340 77050
L74340 77140
L74310 77250
L74280 77310
L74230 77360
L74140 77390
L74000 77390
" />
<path d="M74590 77340
L74620 77360
L74590 77390
L74560 77360
L74590 77340
L74590 77390
" />
<path d="M74840 77220
L75120 77220
" />
<path d="M74790 77390
L74980 76800
L75180 77390
" />
<path d="M75380 77340
L75410 77360
L75380 77390
L75350 77360
L75380 77340
L75380 77390
" />
<path d="M76560 77390
L76560 76800
" />
<path d="M76620 77170
L76790 77390
" />
<path d="M76790 77000
L76560 77220
" />
<path d="M77040 77390
L77040 77000
" />
<path d="M77040 76800
L77010 76830
L77040 76860
L77070 76830
L77040 76800
L77040 76860
" />
<path d="M77570 77360
L77520 77390
L77400 77390
L77350 77360
L77320 77340
L77290 77280
L77290 77110
L77320 77050
L77350 77030
L77400 77000
L77520 77000
L77570 77030
" />
<path d="M78080 77390
L78080 77080
L78060 77030
L78000 77000
L77890 77000
L77830 77030
" />
<path d="M78080 77360
L78030 77390
L77890 77390
L77830 77360
L77800 77310
L77800 77250
L77830 77200
L77890 77170
L78030 77170
L78080 77140
" />
<path d="M78610 77390
L78610 76800
" />
<path d="M78610 77360
L78560 77390
L78440 77390
L78390 77360
L78360 77340
L78330 77280
L78330 77110
L78360 77050
L78390 77030
L78440 77000
L78560 77000
L78610 77030
" />
<path d="M79590 77000
L79590 77390
" />
<path d="M79450 76770
L79310 77200
L79680 77200
" />
<path d="M79900 77340
L79930 77360
L79900 77390
L79870 77360
L79900 77340
L79900 77390
" />
<path d="M80290 76800
L80350 76800
L80410 76830
L80430 76860
L80460 76910
L80490 77030
L80490 77170
L80460 77280
L80430 77340
L80410 77360
L80350 77390
L80290 77390
L80240 77360
L80210 77340
L80180 77280
L80150 77170
L80150 77030
L80180 76910
L80210 76860
L80240 76830
L80290 76800
" />
<path d="M80740 77340
L80770 77360
L80740 77390
L80710 77360
L80740 77340
L80740 77390
" />
<path d="M81270 76800
L81160 76800
L81100 76830
L81080 76860
L81020 76940
L80990 77050
L80990 77280
L81020 77340
L81050 77360
L81100 77390
L81220 77390
L81270 77360
L81300 77340
L81330 77280
L81330 77140
L81300 77080
L81270 77050
L81220 77030
L81100 77030
L81050 77050
L81020 77080
L80990 77140
" />
</g>
<g style="fill:#840000; fill-opacity:0.0; 
stroke:#840000; stroke-width:100; stroke-opacity:1; 
stroke-linecap:round; stroke-linejoin:round;">
</g>
<g style="fill:#840000; fill-opacity:0.0; 
stroke:#840000; stroke-width:60; stroke-opacity:1; 
stroke-linecap:round; stroke-linejoin:round;">
<path d="M69690 75400
L112210 75400
" />
</g>
<g style="fill:#840000; fill-opacity:0.0; 
stroke:#840000; stroke-width:100; stroke-opacity:1; 
stroke-linecap:round; stroke-linejoin:round;">
</g>
<g style="fill:#840000; fill-opacity:0.0; 
stroke:#840000; stroke-width:120; stroke-opacity:1; 
stroke-linecap:round; stroke-linejoin:round;">
<path d="M104020 76290
L103820 76010
" />
<path d="M103680 76290
L103680 75700
L103910 75700
L103960 75730
L103990 75760
L104020 75810
L104020 75900
L103990 75950
L103960 75980
L103910 76010
L103680 76010
" />
<path d="M104500 76260
L104440 76290
L104330 76290
L104270 76260
L104240 76210
L104240 75980
L104270 75930
L104330 75900
L104440 75900
L104500 75930
L104520 75980
L104520 76040
L104240 76100
" />
<path d="M104720 75900
L104860 76290
L105010 75900
" />
<path d="M105230 76240
L105260 76260
L105230 76290
L105200 76260
L105230 76240
L105230 76290
" />
<path d="M105230 75930
L105260 75950
L105230 75980
L105200 75950
L105230 75930
L105230 75980
" />
</g>
<g style="fill:#840000; fill-opacity:0.0; 
stroke:#840000; stroke-width:100; stroke-opacity:1; 
stroke-linecap:round; stroke-linejoin:round;">
</g>
<g style="fill:#840000; fill-opacity:0.0; 
stroke:#840000; stroke-width:60; stroke-opacity:1; 
stroke-linecap:round; stroke-linejoin:round;">
<path d="M70190 76260
L70280 76290
L70420 76290
L70470 76260
L70500 76240
L70530 76180
L70530 76120
L70500 76070
L70470 76040
L70420 76010
L70300 75980
L70250 75950
L70220 75930
L70190 75870
L70190 75810
L70220 75760
L70250 75730
L70300 75700
L70450 75700
L70530 75730
" />
<path d="M70780 76290
L70780 75900
" />
<path d="M70780 75700
L70750 75730
L70780 75760
L70810 75730
L70780 75700
L70780 75760
" />
<path d="M71000 75900
L71310 75900
L71000 76290
L71310 76290
" />
<path d="M71770 76260
L71710 76290
L71600 76290
L71540 76260
L71510 76210
L71510 75980
L71540 75930
L71600 75900
L71710 75900
L71770 75930
L71790 75980
L71790 76040
L71510 76100
" />
<path d="M72050 76240
L72080 76260
L72050 76290
L72020 76260
L72050 76240
L72050 76290
" />
<path d="M72050 75930
L72080 75950
L72050 75980
L72020 75950
L72050 75930
L72050 75980
" />
<path d="M72750 76120
L73030 76120
" />
<path d="M72700 76290
L72890 75700
L73090 76290
" />
<path d="M73540 75900
L73540 76290
" />
<path d="M73400 75670
L73260 76100
L73630 76100
" />
</g>
<g style="fill:#840000; fill-opacity:0.0; 
stroke:#840000; stroke-width:100; stroke-opacity:1; 
stroke-linecap:round; stroke-linejoin:round;">
</g>
<g style="fill:#840000; fill-opacity:0.0; 
stroke:#840000; stroke-width:60; stroke-opacity:1; 
stroke-linecap:round; stroke-linejoin:round;">
<path d="M103680 77390
L103680 76800
" />
<path d="M104210 77390
L104210 76800
" />
<path d="M104210 77360
L104160 77390
L104040 77390
L103990 77360
L103960 77340
L103930 77280
L103930 77110
L103960 77050
L103990 77030
L104040 77000
L104160 77000
L104210 77030
" />
<path d="M104490 77340
L104520 77360
L104490 77390
L104460 77360
L104490 77340
L104490 77390
" />
<path d="M104490 77030
L104520 77050
L104490 77080
L104460 77050
L104490 77030
L104490 77080
" />
<path d="M105530 77390
L105190 77390
" />
<path d="M105360 77390
L105360 76800
L105300 76890
L105250 76940
L105190 76970
" />
<path d="M106200 76770
L105700 77530
" />
<path d="M106710 77390
L106370 77390
" />
<path d="M106540 77390
L106540 76800
L106480 76890
L106430 76940
L106370 76970
" />
</g>
<g style="fill:#840000; fill-opacity:0.0; 
stroke:#840000; stroke-width:100; stroke-opacity:1; 
stroke-linecap:round; stroke-linejoin:round;">
</g>
<g style="fill:#840000; fill-opacity:0.0; 
stroke:#840000; stroke-width:60; stroke-opacity:1; 
stroke-linecap:round; stroke-linejoin:round;">
<path d="M69690 73820
L112210 73820
" />
</g>
<g style="fill:#840000; fill-opacity:0.0; 
stroke:#840000; stroke-width:100; stroke-opacity:1; 
stroke-linecap:round; stroke-linejoin:round;">
</g>
<g style="fill:#840000; fill-opacity:0.0; 
stroke:#840000; stroke-width:160; stroke-opacity:1; 
stroke-linecap:round; stroke-linejoin:round;">
<path d="M70260 74090
L70710 74090
" />
<path d="M70390 74880
L70480 74090
" />
<path d="M70880 74880
L70940 74360
" />
<path d="M70970 74090
L70930 74130
L70960 74170
L71010 74130
L70970 74090
L70960 74170
" />
<path d="M71210 74360
L71510 74360
" />
<path d="M71350 74090
L71270 74770
L71300 74840
L71370 74880
L71450 74880
" />
<path d="M71820 74880
L71750 74840
L71720 74770
L71800 74090
" />
<path d="M72420 74840
L72340 74880
L72190 74880
L72120 74840
L72090 74770
L72130 74470
L72180 74390
L72250 74360
L72400 74360
L72480 74390
L72510 74470
L72500 74540
L72110 74620
" />
<path d="M72800 74810
L72840 74840
L72800 74880
L72760 74840
L72800 74810
L72800 74880
" />
<path d="M72860 74390
L72890 74430
L72850 74470
L72810 74430
L72860 74390
L72850 74470
" />
</g>
<g style="fill:#840000; fill-opacity:0.0; 
stroke:#840000; stroke-width:100; stroke-opacity:1; 
stroke-linecap:round; stroke-linejoin:round;">
</g>
<g style="fill:#840000; fill-opacity:0.0; 
stroke:#840000; stroke-width:60; stroke-opacity:1; 
stroke-linecap:round; stroke-linejoin:round;">
<path d="M70420 73060
L70220 73060
" />
<path d="M70220 73370
L70220 72780
L70500 72780
" />
<path d="M70730 73370
L70730 72980
" />
<path d="M70730 72780
L70700 72810
L70730 72840
L70760 72810
L70730 72780
L70730 72840
" />
<path d="M71090 73370
L71040 73340
L71010 73290
L71010 72780
" />
<path d="M71550 73340
L71490 73370
L71380 73370
L71320 73340
L71290 73290
L71290 73060
L71320 73010
L71380 72980
L71490 72980
L71550 73010
L71570 73060
L71570 73120
L71290 73180
" />
<path d="M71830 73320
L71860 73340
L71830 73370
L71800 73340
L71830 73320
L71830 73370
" />
<path d="M71830 73010
L71860 73030
L71830 73060
L71800 73030
L71830 73010
L71830 73060
" />
<path d="M72900 73370
L72700 73090
" />
<path d="M72560 73370
L72560 72780
L72790 72780
L72840 72810
L72870 72840
L72900 72890
L72900 72980
L72870 73030
L72840 73060
L72790 73090
L72560 73090
" />
<path d="M73380 73340
L73320 73370
L73210 73370
L73150 73340
L73120 73290
L73120 73060
L73150 73010
L73210 72980
L73320 72980
L73380 73010
L73400 73060
L73400 73120
L73120 73180
" />
<path d="M73910 72980
L73910 73460
L73890 73510
L73860 73540
L73800 73570
L73720 73570
L73660 73540
" />
<path d="M73910 73340
L73860 73370
L73740 73370
L73690 73340
L73660 73320
L73630 73260
L73630 73090
L73660 73030
L73690 73010
L73740 72980
L73860 72980
L73910 73010
" />
<path d="M74440 72980
L74440 73370
" />
<path d="M74190 72980
L74190 73290
L74220 73340
L74270 73370
L74360 73370
L74420 73340
L74440 73320
" />
<path d="M74800 73370
L74750 73340
L74720 73290
L74720 72780
" />
<path d="M75280 73370
L75280 73060
L75260 73010
L75200 72980
L75090 72980
L75030 73010
" />
<path d="M75280 73340
L75230 73370
L75090 73370
L75030 73340
L75000 73290
L75000 73230
L75030 73180
L75090 73150
L75230 73150
L75280 73120
" />
<path d="M75480 72980
L75700 72980
" />
<path d="M75560 72780
L75560 73290
L75590 73340
L75640 73370
L75700 73370
" />
<path d="M75980 73370
L75930 73340
L75900 73320
L75870 73260
L75870 73090
L75900 73030
L75930 73010
L75980 72980
L76070 72980
L76130 73010
L76150 73030
L76180 73090
L76180 73260
L76150 73320
L76130 73340
L76070 73370
L75980 73370
" />
<path d="M76430 73370
L76430 72980
" />
<path d="M76430 73090
L76460 73030
L76490 73010
L76540 72980
L76600 72980
" />
<path d="M76800 73150
L77250 73150
" />
<path d="M77810 73370
L77530 73370
L77530 72780
" />
<path d="M78010 73370
L78010 72780
L78150 72780
L78240 72810
L78290 72870
L78320 72920
L78350 73030
L78350 73120
L78320 73230
L78290 73290
L78240 73340
L78150 73370
L78010 73370
" />
<path d="M78570 72840
L78600 72810
L78660 72780
L78800 72780
L78850 72810
L78880 72840
L78910 72890
L78910 72950
L78880 73030
L78540 73370
L78910 73370
" />
<path d="M79190 73370
L79300 73370
L79360 73340
L79390 73320
L79440 73230
L79470 73120
L79470 72890
L79440 72840
L79410 72810
L79360 72780
L79240 72780
L79190 72810
L79160 72840
L79130 72890
L79130 73030
L79160 73090
L79190 73120
L79240 73150
L79360 73150
L79410 73120
L79440 73090
L79470 73030
" />
<path d="M80030 73370
L79690 73370
" />
<path d="M79860 73370
L79860 72780
L79800 72870
L79750 72920
L79690 72950
" />
<path d="M80560 72780
L80280 72780
L80250 73060
L80280 73030
L80340 73010
L80480 73010
L80530 73030
L80560 73060
L80590 73120
L80590 73260
L80560 73320
L80530 73340
L80480 73370
L80340 73370
L80280 73340
L80250 73320
" />
<path d="M80950 72780
L81010 72780
L81070 72810
L81090 72840
L81120 72890
L81150 73010
L81150 73150
L81120 73260
L81090 73320
L81070 73340
L81010 73370
L80950 73370
L80900 73340
L80870 73320
L80840 73260
L80810 73150
L80810 73010
L80840 72890
L80870 72840
L80900 72810
L80950 72780
" />
<path d="M81400 73150
L81850 73150
" />
<path d="M82410 72780
L82130 72780
L82100 73060
L82130 73030
L82190 73010
L82330 73010
L82380 73030
L82410 73060
L82440 73120
L82440 73260
L82410 73320
L82380 73340
L82330 73370
L82190 73370
L82130 73340
L82100 73320
" />
<path d="M82610 72780
L82800 73370
L83000 72780
" />
<path d="M83200 73320
L83230 73340
L83200 73370
L83170 73340
L83200 73320
L83200 73370
" />
<path d="M83450 73340
L83510 73370
L83620 73370
L83680 73340
L83710 73290
L83710 73260
L83680 73200
L83620 73180
L83540 73180
L83480 73150
L83450 73090
L83450 73060
L83480 73010
L83540 72980
L83620 72980
L83680 73010
" />
<path d="M84210 73340
L84160 73370
L84040 73370
L83990 73340
L83960 73320
L83930 73260
L83930 73090
L83960 73030
L83990 73010
L84040 72980
L84160 72980
L84210 73010
" />
<path d="M84470 73370
L84470 72780
" />
<path d="M84720 73370
L84720 73060
L84700 73010
L84640 72980
L84550 72980
L84500 73010
L84470 73030
" />
</g>
<g style="fill:#840000; fill-opacity:0.0; 
stroke:#840000; stroke-width:100; stroke-opacity:1; 
stroke-linecap:round; stroke-linejoin:round;">
</g>
<g style="fill:#840000; fill-opacity:0.0; 
stroke:#840000; stroke-width:60; stroke-opacity:1; 
stroke-linecap:round; stroke-linejoin:round;">
<path d="M69690 71460
L112210 71460
" />
</g>
<g style="fill:#840000; fill-opacity:0.0; 
stroke:#840000; stroke-width:100; stroke-opacity:1; 
stroke-linecap:round; stroke-linejoin:round;">
</g>
<g style="fill:#840000; fill-opacity:0.0; 
stroke:#840000; stroke-width:60; stroke-opacity:1; 
stroke-linecap:round; stroke-linejoin:round;">
<path d="M70190 72280
L70280 72310
L70420 72310
L70470 72280
L70500 72260
L70530 72200
L70530 72140
L70500 72090
L70470 72060
L70420 72030
L70300 72000
L70250 71970
L70220 71950
L70190 71890
L70190 71830
L70220 71780
L70250 71750
L70300 71720
L70450 71720
L70530 71750
" />
<path d="M70780 72310
L70780 71720
" />
<path d="M71030 72310
L71030 72000
L71010 71950
L70950 71920
L70860 71920
L70810 71950
L70780 71970
" />
<path d="M71540 72280
L71480 72310
L71370 72310
L71310 72280
L71280 72230
L71280 72000
L71310 71950
L71370 71920
L71480 71920
L71540 71950
L71560 72000
L71560 72060
L71280 72120
" />
<path d="M72050 72280
L71990 72310
L71880 72310
L71820 72280
L71790 72230
L71790 72000
L71820 71950
L71880 71920
L71990 71920
L72050 71950
L72070 72000
L72070 72060
L71790 72120
" />
<path d="M72250 71920
L72470 71920
" />
<path d="M72330 71720
L72330 72230
L72360 72280
L72410 72310
L72470 72310
" />
<path d="M72670 72260
L72700 72280
L72670 72310
L72640 72280
L72670 72260
L72670 72310
" />
<path d="M72670 71950
L72700 71970
L72670 72000
L72640 71970
L72670 71950
L72670 72000
" />
<path d="M73820 71690
L73320 72450
" />
</g>
<g style="fill:#840000; fill-opacity:0.0; 
stroke:#840000; stroke-width:100; stroke-opacity:1; 
stroke-linecap:round; stroke-linejoin:round;">
</g>
<g style="fill:#840000; fill-opacity:0.0; 
stroke:#840000; stroke-width:60; stroke-opacity:1; 
stroke-linecap:round; stroke-linejoin:round;">
<path d="M77560 75400
L77560 76580
" />
</g>
<g style="fill:#840000; fill-opacity:0.0; 
stroke:#840000; stroke-width:100; stroke-opacity:1; 
stroke-linecap:round; stroke-linejoin:round;">
</g>
<g style="fill:#840000; fill-opacity:0.0; 
stroke:#840000; stroke-width:60; stroke-opacity:1; 
stroke-linecap:round; stroke-linejoin:round;">
<path d="M102760 75400
L102760 77960
" />
</g>
<g style="fill:#840000; fill-opacity:0.0; 
stroke:#840000; stroke-width:0; stroke-opacity:1; 
stroke-linecap:round; stroke-linejoin:round;">
</g>
<g style="fill:#840000; fill-opacity:0.0; 
stroke:#840000; stroke-width:130; stroke-opacity:1; 
stroke-linecap:round; stroke-linejoin:round;">
<polyline fill="none;"
points="40900,30200
42100,30200
" /> 
</g>
<g style="fill:#840000; fill-opacity:0.0; 
stroke:#840000; stroke-width:120; stroke-opacity:1; 
stroke-linecap:round; stroke-linejoin:round;">
<polyline fill="none;"
points="40900,29800
42100,29800
" /> 
</g>
<g style="fill:#840000; fill-opacity:0.0; 
stroke:#840000; stroke-width:60; stroke-opacity:1; 
stroke-linecap:round; stroke-linejoin:round;">
<path d="M41500 29800
L41500 29000
" />
<path d="M41500 30200
L41500 31000
" />
</g>
<g style="fill:#008484; fill-opacity:0.0; 
stroke:#008484; stroke-width:60; stroke-opacity:1; 
stroke-linecap:round; stroke-linejoin:round;">
<path d="M42000 29510
L41980 29530
L41910 29560
L41860 29560
L41790 29530
L41740 29480
L41720 29440
L41700 29340
L41700 29270
L41720 29180
L41740 29130
L41790 29080
L41860 29060
L41910 29060
L41980 29080
L42000 29100
" />
<path d="M42480 29560
L42200 29560
" />
<path d="M42340 29560
L42340 29060
L42290 29130
L42240 29180
L42200 29200
" />
<path d="M41810 30560
L41860 30560
L41910 30580
L41930 30600
L41960 30650
L41980 30750
L41980 30870
L41960 30960
L41930 31010
L41910 31030
L41860 31060
L41810 31060
L41770 31030
L41740 31010
L41720 30960
L41700 30870
L41700 30750
L41720 30650
L41740 30600
L41770 30580
L41810 30560
" />
<path d="M42200 31010
L42220 31030
L42200 31060
L42180 31030
L42200 31010
L42200 31060
" />
<path d="M42390 30560
L42700 30560
L42530 30750
L42610 30750
L42650 30770
L42680 30790
L42700 30840
L42700 30960
L42680 31010
L42650 31030
L42610 31060
L42460 31060
L42420 31030
L42390 31010
" />
<path d="M42870 30560
L43180 30560
L43010 30750
L43090 30750
L43130 30770
L43160 30790
L43180 30840
L43180 30960
L43160 31010
L43130 31030
L43090 31060
L42940 31060
L42900 31030
L42870 31010
" />
<path d="M43400 30560
L43400 30960
L43420 31010
L43450 31030
L43490 31060
L43590 31060
L43640 31030
L43660 31010
L43680 30960
L43680 30560
" />
<path d="M43850 30720
L44040 30720
" />
<path d="M43920 31060
L43920 30630
L43940 30580
L43990 30560
L44040 30560
" />
</g>
<g style="fill:#008484; fill-opacity:0.0; 
stroke:#008484; stroke-width:0; stroke-opacity:1; 
stroke-linecap:round; stroke-linejoin:round;">
</g>
<g style="fill:#840000; fill-opacity:0.0; 
stroke:#840000; stroke-width:0; stroke-opacity:1; 
stroke-linecap:round; stroke-linejoin:round;">
</g>
<g style="fill:#840000; fill-opacity:1.0; 
stroke:#840000; stroke-width:60; stroke-opacity:1; 
stroke-linecap:round; stroke-linejoin:round;">
<rect x="51400" y="30120" width="1200" height="150" rx="0" />
</g>
<g style="fill:#840000; fill-opacity:0.0; 
stroke:#840000; stroke-width:60; stroke-opacity:1; 
stroke-linecap:round; stroke-linejoin:round;">
<rect x="51400" y="29730" width="1200" height="150" rx="0" />
<polyline fill="none;"
points="51500,29400
51700,29400
" /> 
<polyline fill="none;"
points="51600,29500
51600,29300
" /> 
<path d="M52000 29730
L52000 29000
" />
<path d="M52000 30270
L52000 31000
" />
</g>
<g style="fill:#008484; fill-opacity:0.0; 
stroke:#008484; stroke-width:60; stroke-opacity:1; 
stroke-linecap:round; stroke-linejoin:round;">
<path d="M52500 29510
L52480 29530
L52410 29560
L52360 29560
L52290 29530
L52240 29480
L52220 29440
L52200 29340
L52200 29270
L52220 29180
L52240 29130
L52290 29080
L52360 29060
L52410 29060
L52480 29080
L52500 29100
" />
<path d="M52700 29100
L52720 29080
L52770 29060
L52890 29060
L52930 29080
L52960 29100
L52980 29150
L52980 29200
L52960 29270
L52670 29560
L52980 29560
" />
<path d="M52480 31060
L52200 31060
" />
<path d="M52340 31060
L52340 30560
L52290 30630
L52240 30680
L52200 30700
" />
<path d="M52790 30560
L52840 30560
L52890 30580
L52910 30600
L52940 30650
L52960 30750
L52960 30870
L52940 30960
L52910 31010
L52890 31030
L52840 31060
L52790 31060
L52750 31030
L52720 31010
L52700 30960
L52680 30870
L52680 30750
L52700 30650
L52720 30600
L52750 30580
L52790 30560
" />
<path d="M53180 30560
L53180 30960
L53200 31010
L53230 31030
L53270 31060
L53370 31060
L53420 31030
L53440 31010
L53460 30960
L53460 30560
" />
<path d="M53630 30720
L53820 30720
" />
<path d="M53700 31060
L53700 30630
L53720 30580
L53770 30560
L53820 30560
" />
</g>
<g style="fill:#008484; fill-opacity:0.0; 
stroke:#008484; stroke-width:0; stroke-opacity:1; 
stroke-linecap:round; stroke-linejoin:round;">
</g>
<g style="fill:#840000; fill-opacity:0.0; 
stroke:#840000; stroke-width:0; stroke-opacity:1; 
stroke-linecap:round; stroke-linejoin:round;">
</g>
<g style="fill:#840000; fill-opacity:0.0; 
stroke:#840000; stroke-width:60; stroke-opacity:1; 
stroke-linecap:round; stroke-linejoin:round;">
<polyline fill="none;"
points="47000,31500
47000,32000
47500,32000
47000,32500
46500,32000
47000,32000
" /> 
</g>
<g style="fill:#008484; fill-opacity:0.0; 
stroke:#008484; stroke-width:60; stroke-opacity:1; 
stroke-linecap:round; stroke-linejoin:round;">
<path d="M46620 32780
L46570 32760
L46500 32760
L46430 32780
L46380 32830
L46360 32880
L46340 32970
L46340 33040
L46360 33140
L46380 33180
L46430 33230
L46500 33260
L46550 33260
L46620 33230
L46640 33210
L46640 33040
L46550 33040
" />
<path d="M46860 33260
L46860 32760
L47140 33260
L47140 32760
" />
<path d="M47380 33260
L47380 32760
L47500 32760
L47570 32780
L47620 32830
L47640 32880
L47660 32970
L47660 33040
L47640 33140
L47620 33180
L47570 33230
L47500 33260
L47380 33260
" />
</g>
<g style="fill:#008484; fill-opacity:0.0; 
stroke:#008484; stroke-width:0; stroke-opacity:1; 
stroke-linecap:round; stroke-linejoin:round;">
</g>
<g style="fill:#840000; fill-opacity:0.0; 
stroke:#840000; stroke-width:0; stroke-opacity:1; 
stroke-linecap:round; stroke-linejoin:round;">
</g>
<g style="fill:#840000; fill-opacity:0.0; 
stroke:#840000; stroke-width:60; stroke-opacity:1; 
stroke-linecap:round; stroke-linejoin:round;">
<polyline fill="none;"
points="52000,31000
52000,31500
52500,31500
52000,32000
51500,31500
52000,31500
" /> 
</g>
<g style="fill:#008484; fill-opacity:0.0; 
stroke:#008484; stroke-width:60; stroke-opacity:1; 
stroke-linecap:round; stroke-linejoin:round;">
<path d="M51620 32280
L51570 32260
L51500 32260
L51430 32280
L51380 32330
L51360 32380
L51340 32470
L51340 32540
L51360 32640
L51380 32680
L51430 32730
L51500 32760
L51550 32760
L51620 32730
L51640 32710
L51640 32540
L51550 32540
" />
<path d="M51860 32760
L51860 32260
L52140 32760
L52140 32260
" />
<path d="M52380 32760
L52380 32260
L52500 32260
L52570 32280
L52620 32330
L52640 32380
L52660 32470
L52660 32540
L52640 32640
L52620 32680
L52570 32730
L52500 32760
L52380 32760
" />
</g>
<g style="fill:#008484; fill-opacity:0.0; 
stroke:#008484; stroke-width:0; stroke-opacity:1; 
stroke-linecap:round; stroke-linejoin:round;">
</g>
<g style="fill:#840000; fill-opacity:0.0; 
stroke:#840000; stroke-width:0; stroke-opacity:1; 
stroke-linecap:round; stroke-linejoin:round;">
</g>
<g style="fill:#840000; fill-opacity:0.0; 
stroke:#840000; stroke-width:60; stroke-opacity:1; 
stroke-linecap:round; stroke-linejoin:round;">
<polyline fill="none;"
points="41500,31000
41500,31500
42000,31500
41500,32000
41000,31500
41500,31500
" /> 
</g>
<g style="fill:#008484; fill-opacity:0.0; 
stroke:#008484; stroke-width:60; stroke-opacity:1; 
stroke-linecap:round; stroke-linejoin:round;">
<path d="M41120 32280
L41070 32260
L41000 32260
L40930 32280
L40880 32330
L40860 32380
L40840 32470
L40840 32540
L40860 32640
L40880 32680
L40930 32730
L41000 32760
L41050 32760
L41120 32730
L41140 32710
L41140 32540
L41050 32540
" />
<path d="M41360 32760
L41360 32260
L41640 32760
L41640 32260
" />
<path d="M41880 32760
L41880 32260
L42000 32260
L42070 32280
L42120 32330
L42140 32380
L42160 32470
L42160 32540
L42140 32640
L42120 32680
L42070 32730
L42000 32760
L41880 32760
" />
</g>
<g style="fill:#008400; fill-opacity:0.0; 
stroke:#008400; stroke-width:60; stroke-opacity:1; 
stroke-linecap:round; stroke-linejoin:round;">
<path d="M51000 28500
L56000 28500
" />
<path d="M52000 28000
L52000 29000
" />
</g>
<g style="fill:#008400; fill-opacity:0.0; 
stroke:#008400; stroke-width:0; stroke-opacity:1; 
stroke-linecap:round; stroke-linejoin:round;">
</g>
<g style="fill:#008400; fill-opacity:1.0; 
stroke:#008400; stroke-width:100; stroke-opacity:1; 
stroke-linecap:round; stroke-linejoin:round;">
<circle cx="52000" cy="28500" r="200" /> 
</g>
<g style="fill:#008400; fill-opacity:1.0; 
stroke:#008400; stroke-width:0; stroke-opacity:1; 
stroke-linecap:round; stroke-linejoin:round;">
</g>
<g style="fill:#840000; fill-opacity:1.0; 
stroke:#840000; stroke-width:0; stroke-opacity:1; 
stroke-linecap:round; stroke-linejoin:round;">
</g>
<g style="fill:#840000; fill-opacity:0.0; 
stroke:#840000; stroke-width:60; stroke-opacity:1; 
stroke-linecap:round; stroke-linejoin:round;">
<circle cx="34500" cy="26250" r="250" /> 
<polyline fill="none;"
points="34500,27000
34500,26500
" /> 
</g>
<g style="fill:#008484; fill-opacity:0.0; 
stroke:#008484; stroke-width:60; stroke-opacity:1; 
stroke-linecap:round; stroke-linejoin:round;">
<path d="M33860 25260
L34020 25760
L34190 25260
" />
<path d="M34340 25730
L34410 25760
L34530 25760
L34570 25730
L34600 25710
L34620 25660
L34620 25610
L34600 25570
L34570 25540
L34530 25520
L34430 25490
L34380 25470
L34360 25450
L34340 25400
L34340 25350
L34360 25300
L34380 25280
L34430 25260
L34550 25260
L34620 25280
" />
<path d="M34820 25730
L34890 25760
L35010 25760
L35050 25730
L35080 25710
L35100 25660
L35100 25610
L35080 25570
L35050 25540
L35010 25520
L34910 25490
L34860 25470
L34840 25450
L34820 25400
L34820 25350
L34840 25300
L34860 25280
L34910 25260
L35030 25260
L35100 25280
" />
</g>
<g style="fill:#008400; fill-opacity:0.0; 
stroke:#008400; stroke-width:60; stroke-opacity:1; 
stroke-linecap:round; stroke-linejoin:round;">
<path d="M40000 28500
L43000 28500
" />
</g>
<g style="fill:#008400; fill-opacity:0.0; 
stroke:#008400; stroke-width:0; stroke-opacity:1; 
stroke-linecap:round; stroke-linejoin:round;">
</g>
<g style="fill:#008400; fill-opacity:1.0; 
stroke:#008400; stroke-width:100; stroke-opacity:1; 
stroke-linecap:round; stroke-linejoin:round;">
<circle cx="41500" cy="28500" r="200" /> 
</g>
<g style="fill:#008400; fill-opacity:1.0; 
stroke:#008400; stroke-width:60; stroke-opacity:1; 
stroke-linecap:round; stroke-linejoin:round;">
</g>
<g style="fill:#0000C2; fill-opacity:0.0; 
stroke:#0000C2; stroke-width:60; stroke-opacity:1; 
stroke-linecap:round; stroke-linejoin:round;">
<path d="M33140 34970
L33140 34370
" />
<path d="M33430 34570
L33430 34970
" />
<path d="M33430 34630
L33460 34600
L33520 34570
L33600 34570
L33660 34600
L33690 34660
L33690 34970
" />
<path d="M33970 34570
L33970 35170
" />
<path d="M33970 34600
L34030 34570
L34140 34570
L34200 34600
L34230 34630
L34260 34690
L34260 34860
L34230 34910
L34200 34940
L34140 34970
L34030 34970
L33970 34940
" />
<path d="M34770 34570
L34770 34970
" />
<path d="M34510 34570
L34510 34890
L34540 34940
L34600 34970
L34680 34970
L34740 34940
L34770 34910
" />
<path d="M34970 34570
L35200 34570
" />
<path d="M35050 34370
L35050 34890
L35080 34940
L35140 34970
L35200 34970
" />
<path d="M35390 34910
L35420 34940
L35390 34970
L35360 34940
L35390 34910
L35390 34970
" />
<path d="M35390 34600
L35420 34630
L35390 34660
L35360 34630
L35390 34600
L35390 34660
" />
<path d="M36140 34970
L36140 34370
L36340 34800
L36540 34370
L36540 34970
" />
<path d="M37090 34970
L37090 34660
L37060 34600
L37000 34570
L36890 34570
L36830 34600
" />
<path d="M37090 34940
L37030 34970
L36890 34970
L36830 34940
L36800 34890
L36800 34830
L36830 34770
L36890 34740
L37030 34740
L37090 34710
" />
<path d="M37320 34970
L37630 34570
" />
<path d="M37320 34570
L37630 34970
" />
<path d="M38270 34370
L38640 34370
L38440 34600
L38520 34600
L38580 34630
L38610 34660
L38640 34710
L38640 34860
L38610 34910
L38580 34940
L38520 34970
L38350 34970
L38290 34940
L38270 34910
" />
<path d="M39010 34370
L39060 34370
L39120 34400
L39150 34430
L39180 34490
L39210 34600
L39210 34740
L39180 34860
L39150 34910
L39120 34940
L39060 34970
L39010 34970
L38950 34940
L38920 34910
L38890 34860
L38860 34740
L38860 34600
L38890 34490
L38920 34430
L38950 34400
L39010 34370
" />
<path d="M39380 34370
L39580 34970
L39780 34370
" />
<path d="M33260 35270
L33370 35270
L33430 35300
L33490 35360
L33510 35470
L33510 35670
L33490 35790
L33430 35840
L33370 35870
L33260 35870
L33200 35840
L33140 35790
L33110 35670
L33110 35470
L33140 35360
L33200 35300
L33260 35270
" />
<path d="M34030 35470
L34030 35870
" />
<path d="M33770 35470
L33770 35790
L33800 35840
L33860 35870
L33940 35870
L34000 35840
L34030 35810
" />
<path d="M34230 35470
L34460 35470
" />
<path d="M34310 35270
L34310 35790
L34340 35840
L34400 35870
L34460 35870
" />
<path d="M34650 35470
L34650 36070
" />
<path d="M34650 35500
L34710 35470
L34820 35470
L34880 35500
L34910 35530
L34940 35590
L34940 35760
L34910 35810
L34880 35840
L34820 35870
L34710 35870
L34650 35840
" />
<path d="M35450 35470
L35450 35870
" />
<path d="M35190 35470
L35190 35790
L35220 35840
L35280 35870
L35360 35870
L35420 35840
L35450 35810
" />
<path d="M35650 35470
L35880 35470
" />
<path d="M35730 35270
L35730 35790
L35760 35840
L35820 35870
L35880 35870
" />
<path d="M36070 35810
L36100 35840
L36070 35870
L36040 35840
L36070 35810
L36070 35870
" />
<path d="M36070 35500
L36100 35530
L36070 35560
L36040 35530
L36070 35500
L36070 35560
" />
<path d="M37110 35270
L36820 35270
L36790 35560
L36820 35530
L36880 35500
L37020 35500
L37080 35530
L37110 35560
L37140 35610
L37140 35760
L37110 35810
L37080 35840
L37020 35870
L36880 35870
L36820 35840
L36790 35810
" />
<path d="M37310 35270
L37510 35870
L37710 35270
" />
<path d="M37930 35840
L37930 35870
L37900 35930
L37870 35960
" />
<path d="M38650 35870
L38650 35270
L38850 35700
L39050 35270
L39050 35870
" />
<path d="M39600 35870
L39600 35560
L39570 35500
L39510 35470
L39400 35470
L39340 35500
" />
<path d="M39600 35840
L39540 35870
L39400 35870
L39340 35840
L39310 35790
L39310 35730
L39340 35670
L39400 35640
L39540 35640
L39600 35610
" />
<path d="M39830 35870
L40140 35470
" />
<path d="M39830 35470
L40140 35870
" />
<path d="M41150 35870
L40800 35870
" />
<path d="M40980 35870
L40980 35270
L40920 35360
L40860 35410
L40800 35440
" />
<path d="M41400 35810
L41430 35840
L41400 35870
L41370 35840
L41400 35810
L41400 35870
" />
<path d="M41980 35270
L41690 35270
L41660 35560
L41690 35530
L41750 35500
L41890 35500
L41950 35530
L41980 35560
L42010 35610
L42010 35760
L41980 35810
L41950 35840
L41890 35870
L41750 35870
L41690 35840
L41660 35810
" />
<path d="M42230 35700
L42520 35700
" />
<path d="M42180 35870
L42380 35270
L42580 35870
" />
<path d="M43400 36100
L43380 36070
L43320 35990
L43290 35930
L43260 35840
L43230 35700
L43230 35590
L43260 35440
L43290 35360
L43320 35300
L43380 35210
L43400 35190
" />
<path d="M43630 35870
L43630 35470
" />
<path d="M43630 35590
L43660 35530
L43690 35500
L43750 35470
L43800 35470
" />
<path d="M44230 35840
L44170 35870
L44060 35870
L44000 35840
L43970 35790
L43970 35560
L44000 35500
L44060 35470
L44170 35470
L44230 35500
L44260 35560
L44260 35610
L43970 35670
" />
<path d="M44770 35470
L44770 35960
L44740 36010
L44710 36040
L44660 36070
L44570 36070
L44510 36040
" />
<path d="M44770 35840
L44710 35870
L44600 35870
L44540 35840
L44510 35810
L44480 35760
L44480 35590
L44510 35530
L44540 35500
L44600 35470
L44710 35470
L44770 35500
" />
<path d="M45310 35470
L45310 35870
" />
<path d="M45050 35470
L45050 35790
L45080 35840
L45140 35870
L45220 35870
L45280 35840
L45310 35810
" />
<path d="M45680 35870
L45620 35840
L45590 35790
L45590 35270
" />
<path d="M46160 35870
L46160 35560
L46130 35500
L46070 35470
L45960 35470
L45900 35500
" />
<path d="M46160 35840
L46100 35870
L45960 35870
L45900 35840
L45870 35790
L45870 35730
L45900 35670
L45960 35640
L46100 35640
L46160 35610
" />
<path d="M46360 35470
L46590 35470
" />
<path d="M46440 35270
L46440 35790
L46470 35840
L46530 35870
L46590 35870
" />
<path d="M46870 35870
L46810 35840
L46780 35810
L46750 35760
L46750 35590
L46780 35530
L46810 35500
L46870 35470
L46950 35470
L47010 35500
L47040 35530
L47070 35590
L47070 35760
L47040 35810
L47010 35840
L46950 35870
L46870 35870
" />
<path d="M47320 35870
L47320 35470
" />
<path d="M47320 35590
L47350 35530
L47380 35500
L47440 35470
L47490 35470
" />
<path d="M47640 36100
L47660 36070
L47720 35990
L47750 35930
L47780 35840
L47810 35700
L47810 35590
L47780 35440
L47750 35360
L47720 35300
L47660 35210
L47640 35190
" />
<path d="M33490 37610
L33460 37640
L33370 37670
L33310 37670
L33230 37640
L33170 37590
L33140 37530
L33110 37410
L33110 37330
L33140 37210
L33170 37160
L33230 37100
L33310 37070
L33370 37070
L33460 37100
L33490 37130
" />
<path d="M34000 37270
L34000 37670
" />
<path d="M33740 37270
L33740 37590
L33770 37640
L33830 37670
L33910 37670
L33970 37640
L34000 37610
" />
<path d="M34280 37670
L34280 37270
" />
<path d="M34280 37390
L34310 37330
L34340 37300
L34400 37270
L34450 37270
" />
<path d="M34650 37670
L34650 37270
" />
<path d="M34650 37390
L34680 37330
L34710 37300
L34770 37270
L34820 37270
" />
<path d="M35250 37640
L35190 37670
L35080 37670
L35020 37640
L34990 37590
L34990 37360
L35020 37300
L35080 37270
L35190 37270
L35250 37300
L35280 37360
L35280 37410
L34990 37470
" />
<path d="M35530 37270
L35530 37670
" />
<path d="M35530 37330
L35560 37300
L35620 37270
L35700 37270
L35760 37300
L35790 37360
L35790 37670
" />
<path d="M35990 37270
L36220 37270
" />
<path d="M36070 37070
L36070 37590
L36100 37640
L36160 37670
L36220 37670
" />
<path d="M36960 37670
L36900 37640
L36870 37590
L36870 37070
" />
<path d="M37180 37670
L37180 37270
" />
<path d="M37180 37070
L37150 37100
L37180 37130
L37210 37100
L37180 37070
L37180 37130
" />
<path d="M37470 37670
L37470 37270
" />
<path d="M37470 37330
L37500 37300
L37560 37270
L37640 37270
L37700 37300
L37730 37360
L37730 37670
" />
<path d="M37730 37360
L37760 37300
L37820 37270
L37900 37270
L37960 37300
L37990 37360
L37990 37670
" />
<path d="M38270 37670
L38270 37270
" />
<path d="M38270 37070
L38240 37100
L38270 37130
L38300 37100
L38270 37070
L38270 37130
" />
<path d="M38480 37270
L38710 37270
" />
<path d="M38560 37070
L38560 37590
L38590 37640
L38650 37670
L38710 37670
" />
<path d="M39130 37640
L39070 37670
L38960 37670
L38900 37640
L38870 37590
L38870 37360
L38900 37300
L38960 37270
L39070 37270
L39130 37300
L39160 37360
L39160 37410
L38870 37470
" />
<path d="M39670 37670
L39670 37070
" />
<path d="M39670 37640
L39610 37670
L39500 37670
L39440 37640
L39410 37610
L39380 37560
L39380 37390
L39410 37330
L39440 37300
L39500 37270
L39610 37270
L39670 37300
" />
<path d="M40330 37270
L40560 37270
" />
<path d="M40410 37070
L40410 37590
L40440 37640
L40500 37670
L40560 37670
" />
<path d="M40840 37670
L40780 37640
L40750 37610
L40720 37560
L40720 37390
L40750 37330
L40780 37300
L40840 37270
L40920 37270
L40980 37300
L41010 37330
L41040 37390
L41040 37560
L41010 37610
L40980 37640
L40920 37670
L40840 37670
" />
<path d="M42040 37070
L41750 37070
L41720 37360
L41750 37330
L41810 37300
L41950 37300
L42010 37330
L42040 37360
L42070 37410
L42070 37560
L42040 37610
L42010 37640
L41950 37670
L41810 37670
L41750 37640
L41720 37610
" />
<path d="M42440 37070
L42490 37070
L42550 37100
L42580 37130
L42610 37190
L42640 37300
L42640 37440
L42610 37560
L42580 37610
L42550 37640
L42490 37670
L42440 37670
L42380 37640
L42350 37610
L42320 37560
L42290 37440
L42290 37300
L42320 37190
L42350 37130
L42380 37100
L42440 37070
" />
<path d="M43010 37070
L43060 37070
L43120 37100
L43150 37130
L43180 37190
L43210 37300
L43210 37440
L43180 37560
L43150 37610
L43120 37640
L43060 37670
L43010 37670
L42950 37640
L42920 37610
L42890 37560
L42860 37440
L42860 37300
L42890 37190
L42920 37130
L42950 37100
L43010 37070
" />
<path d="M43460 37670
L43460 37270
" />
<path d="M43460 37330
L43490 37300
L43550 37270
L43630 37270
L43690 37300
L43720 37360
L43720 37670
" />
<path d="M43720 37360
L43750 37300
L43810 37270
L43890 37270
L43950 37300
L43980 37360
L43980 37670
" />
<path d="M44230 37500
L44520 37500
" />
<path d="M44180 37670
L44380 37070
L44580 37670
" />
<path d="M45180 37270
L45290 37670
L45400 37390
L45520 37670
L45630 37270
" />
<path d="M45860 37670
L45860 37270
" />
<path d="M45860 37070
L45830 37100
L45860 37130
L45890 37100
L45860 37070
L45860 37130
" />
<path d="M46070 37270
L46300 37270
" />
<path d="M46150 37070
L46150 37590
L46180 37640
L46240 37670
L46300 37670
" />
<path d="M46490 37670
L46490 37070
" />
<path d="M46750 37670
L46750 37360
L46720 37300
L46660 37270
L46580 37270
L46520 37300
L46490 37330
" />
<path d="M47490 37670
L47490 37270
" />
<path d="M47490 37390
L47520 37330
L47550 37300
L47610 37270
L47660 37270
" />
<path d="M48090 37640
L48030 37670
L47920 37670
L47860 37640
L47830 37590
L47830 37360
L47860 37300
L47920 37270
L48030 37270
L48090 37300
L48120 37360
L48120 37410
L47830 37470
" />
<path d="M48340 37640
L48400 37670
L48520 37670
L48570 37640
L48600 37590
L48600 37560
L48570 37500
L48520 37470
L48430 37470
L48370 37440
L48340 37390
L48340 37360
L48370 37300
L48430 37270
L48520 37270
L48570 37300
" />
<path d="M49090 37640
L49030 37670
L48920 37670
L48860 37640
L48830 37590
L48830 37360
L48860 37300
L48920 37270
L49030 37270
L49090 37300
L49120 37360
L49120 37410
L48830 37470
" />
<path d="M49290 37270
L49520 37270
" />
<path d="M49370 37070
L49370 37590
L49400 37640
L49460 37670
L49520 37670
" />
<path d="M49630 37270
L49860 37270
" />
<path d="M49710 37070
L49710 37590
L49740 37640
L49800 37670
L49860 37670
" />
<path d="M50310 37670
L50310 37360
L50280 37300
L50220 37270
L50110 37270
L50050 37300
" />
<path d="M50310 37640
L50250 37670
L50110 37670
L50050 37640
L50020 37590
L50020 37530
L50050 37470
L50110 37440
L50250 37440
L50310 37410
" />
<path d="M50590 37670
L50590 37070
" />
<path d="M50590 37300
L50650 37270
L50760 37270
L50820 37300
L50850 37330
L50880 37390
L50880 37560
L50850 37610
L50820 37640
L50760 37670
L50650 37670
L50590 37640
" />
<path d="M51220 37670
L51160 37640
L51130 37590
L51130 37070
" />
<path d="M51670 37640
L51610 37670
L51500 37670
L51440 37640
L51410 37590
L51410 37360
L51440 37300
L51500 37270
L51610 37270
L51670 37300
L51700 37360
L51700 37410
L51410 37470
" />
<path d="M52330 37270
L52560 37270
" />
<path d="M52410 37670
L52410 37160
L52440 37100
L52500 37070
L52560 37070
" />
<path d="M53010 37270
L53010 37670
" />
<path d="M52750 37270
L52750 37590
L52780 37640
L52840 37670
L52920 37670
L52980 37640
L53010 37610
" />
<path d="M53260 37640
L53320 37670
L53440 37670
L53490 37640
L53520 37590
L53520 37560
L53490 37500
L53440 37470
L53350 37470
L53290 37440
L53260 37390
L53260 37360
L53290 37300
L53350 37270
L53440 37270
L53490 37300
" />
<path d="M54010 37640
L53950 37670
L53840 37670
L53780 37640
L53750 37590
L53750 37360
L53780 37300
L53840 37270
L53950 37270
L54010 37300
L54040 37360
L54040 37410
L53750 37470
" />
<path d="M33140 38570
L33140 37970
L33370 37970
L33430 38000
L33460 38030
L33490 38090
L33490 38170
L33460 38230
L33430 38260
L33370 38290
L33140 38290
" />
<path d="M33740 38570
L33740 38170
" />
<path d="M33740 38290
L33770 38230
L33800 38200
L33860 38170
L33910 38170
" />
<path d="M34200 38570
L34140 38540
L34110 38510
L34080 38460
L34080 38290
L34110 38230
L34140 38200
L34200 38170
L34280 38170
L34340 38200
L34370 38230
L34400 38290
L34400 38460
L34370 38510
L34340 38540
L34280 38570
L34200 38570
" />
<path d="M34570 38170
L34800 38170
" />
<path d="M34650 37970
L34650 38490
L34680 38540
L34740 38570
L34800 38570
" />
<path d="M35220 38540
L35160 38570
L35050 38570
L34990 38540
L34960 38490
L34960 38260
L34990 38200
L35050 38170
L35160 38170
L35220 38200
L35250 38260
L35250 38310
L34960 38370
" />
<path d="M35760 38540
L35700 38570
L35590 38570
L35530 38540
L35500 38510
L35470 38460
L35470 38290
L35500 38230
L35530 38200
L35590 38170
L35700 38170
L35760 38200
" />
<path d="M35930 38170
L36160 38170
" />
<path d="M36010 37970
L36010 38490
L36040 38540
L36100 38570
L36160 38570
" />
<path d="M36350 38570
L36350 38170
" />
<path d="M36350 37970
L36320 38000
L36350 38030
L36380 38000
L36350 37970
L36350 38030
" />
<path d="M36730 38570
L36670 38540
L36640 38510
L36610 38460
L36610 38290
L36640 38230
L36670 38200
L36730 38170
L36810 38170
L36870 38200
L36900 38230
L36930 38290
L36930 38460
L36900 38510
L36870 38540
L36810 38570
L36730 38570
" />
<path d="M37180 38170
L37180 38570
" />
<path d="M37180 38230
L37210 38200
L37270 38170
L37350 38170
L37410 38200
L37440 38260
L37440 38570
" />
<path d="M38440 38570
L38440 37970
" />
<path d="M38440 38540
L38380 38570
L38270 38570
L38210 38540
L38180 38510
L38150 38460
L38150 38290
L38180 38230
L38210 38200
L38270 38170
L38380 38170
L38440 38200
" />
<path d="M38720 38570
L38720 38170
" />
<path d="M38720 37970
L38690 38000
L38720 38030
L38750 38000
L38720 37970
L38720 38030
" />
<path d="M39100 38570
L39040 38540
L39010 38510
L38980 38460
L38980 38290
L39010 38230
L39040 38200
L39100 38170
L39180 38170
L39240 38200
L39270 38230
L39300 38290
L39300 38460
L39270 38510
L39240 38540
L39180 38570
L39100 38570
" />
<path d="M39810 38570
L39810 37970
" />
<path d="M39810 38540
L39750 38570
L39640 38570
L39580 38540
L39550 38510
L39520 38460
L39520 38290
L39550 38230
L39580 38200
L39640 38170
L39750 38170
L39810 38200
" />
<path d="M40320 38540
L40260 38570
L40150 38570
L40090 38540
L40060 38490
L40060 38260
L40090 38200
L40150 38170
L40260 38170
L40320 38200
L40350 38260
L40350 38310
L40060 38370
" />
<path d="M41320 38570
L41320 38260
L41290 38200
L41230 38170
L41120 38170
L41060 38200
" />
<path d="M41320 38540
L41260 38570
L41120 38570
L41060 38540
L41030 38490
L41030 38430
L41060 38370
L41120 38340
L41260 38340
L41320 38310
" />
<path d="M41860 38570
L41860 37970
" />
<path d="M41860 38540
L41800 38570
L41690 38570
L41630 38540
L41600 38510
L41570 38460
L41570 38290
L41600 38230
L41630 38200
L41690 38170
L41800 38170
L41860 38200
" />
<path d="M42400 38570
L42400 37970
" />
<path d="M42400 38540
L42340 38570
L42230 38570
L42170 38540
L42140 38510
L42110 38460
L42110 38290
L42140 38230
L42170 38200
L42230 38170
L42340 38170
L42400 38200
" />
<path d="M42910 38540
L42850 38570
L42740 38570
L42680 38540
L42650 38490
L42650 38260
L42680 38200
L42740 38170
L42850 38170
L42910 38200
L42940 38260
L42940 38310
L42650 38370
" />
<path d="M43450 38570
L43450 37970
" />
<path d="M43450 38540
L43390 38570
L43280 38570
L43220 38540
L43190 38510
L43160 38460
L43160 38290
L43190 38230
L43220 38200
L43280 38170
L43390 38170
L43450 38200
" />
<path d="M44360 38800
L44340 38770
L44280 38690
L44250 38630
L44220 38540
L44190 38400
L44190 38290
L44220 38140
L44250 38060
L44280 38000
L44340 37910
L44360 37890
" />
<path d="M44590 38570
L44590 38170
" />
<path d="M44590 38230
L44620 38200
L44680 38170
L44760 38170
L44820 38200
L44850 38260
L44850 38570
" />
<path d="M44850 38260
L44880 38200
L44940 38170
L45020 38170
L45080 38200
L45110 38260
L45110 38570
" />
<path d="M45650 38570
L45650 38260
L45620 38200
L45560 38170
L45450 38170
L45390 38200
" />
<path d="M45650 38540
L45590 38570
L45450 38570
L45390 38540
L45360 38490
L45360 38430
L45390 38370
L45450 38340
L45590 38340
L45650 38310
" />
<path d="M45880 38570
L46190 38170
" />
<path d="M45880 38170
L46190 38570
" />
<path d="M47200 38570
L46850 38570
" />
<path d="M47030 38570
L47030 37970
L46970 38060
L46910 38110
L46850 38140
" />
<path d="M47420 38400
L47710 38400
" />
<path d="M47370 38570
L47570 37970
L47770 38570
" />
<path d="M47910 38800
L47930 38770
L47990 38690
L48020 38630
L48050 38540
L48080 38400
L48080 38290
L48050 38140
L48020 38060
L47990 38000
L47930 37910
L47910 37890
" />
<path d="M33490 39470
L33290 39190
" />
<path d="M33140 39470
L33140 38870
L33370 38870
L33430 38900
L33460 38930
L33490 38990
L33490 39070
L33460 39130
L33430 39160
L33370 39190
L33140 39190
" />
<path d="M33970 39440
L33910 39470
L33800 39470
L33740 39440
L33710 39390
L33710 39160
L33740 39100
L33800 39070
L33910 39070
L33970 39100
L34000 39160
L34000 39210
L33710 39270
" />
<path d="M34510 39070
L34510 39560
L34480 39610
L34450 39640
L34400 39670
L34310 39670
L34250 39640
" />
<path d="M34510 39440
L34450 39470
L34340 39470
L34280 39440
L34250 39410
L34220 39360
L34220 39190
L34250 39130
L34280 39100
L34340 39070
L34450 39070
L34510 39100
" />
<path d="M35050 39070
L35050 39470
" />
<path d="M34790 39070
L34790 39390
L34820 39440
L34880 39470
L34960 39470
L35020 39440
L35050 39410
" />
<path d="M35420 39470
L35360 39440
L35330 39390
L35330 38870
" />
<path d="M35900 39470
L35900 39160
L35870 39100
L35810 39070
L35700 39070
L35640 39100
" />
<path d="M35900 39440
L35840 39470
L35700 39470
L35640 39440
L35610 39390
L35610 39330
L35640 39270
L35700 39240
L35840 39240
L35900 39210
" />
<path d="M36100 39070
L36330 39070
" />
<path d="M36180 38870
L36180 39390
L36210 39440
L36270 39470
L36330 39470
" />
<path d="M36610 39470
L36550 39440
L36520 39410
L36490 39360
L36490 39190
L36520 39130
L36550 39100
L36610 39070
L36690 39070
L36750 39100
L36780 39130
L36810 39190
L36810 39360
L36780 39410
L36750 39440
L36690 39470
L36610 39470
" />
<path d="M37060 39470
L37060 39070
" />
<path d="M37060 39190
L37090 39130
L37120 39100
L37180 39070
L37230 39070
" />
<path d="M37890 39470
L37890 39070
" />
<path d="M37890 38870
L37860 38900
L37890 38930
L37920 38900
L37890 38870
L37890 38930
" />
<path d="M38150 39440
L38210 39470
L38330 39470
L38380 39440
L38410 39390
L38410 39360
L38380 39300
L38330 39270
L38240 39270
L38180 39240
L38150 39190
L38150 39160
L38180 39100
L38240 39070
L38330 39070
L38380 39100
" />
<path d="M39390 39470
L39390 39160
L39360 39100
L39300 39070
L39190 39070
L39130 39100
" />
<path d="M39390 39440
L39330 39470
L39190 39470
L39130 39440
L39100 39390
L39100 39330
L39130 39270
L39190 39240
L39330 39240
L39390 39210
" />
<path d="M39930 39440
L39870 39470
L39760 39470
L39700 39440
L39670 39410
L39640 39360
L39640 39190
L39670 39130
L39700 39100
L39760 39070
L39870 39070
L39930 39100
" />
<path d="M40100 39070
L40330 39070
" />
<path d="M40180 38870
L40180 39390
L40210 39440
L40270 39470
L40330 39470
" />
<path d="M40780 39070
L40780 39470
" />
<path d="M40520 39070
L40520 39390
L40550 39440
L40610 39470
L40690 39470
L40750 39440
L40780 39410
" />
<path d="M41320 39470
L41320 39160
L41290 39100
L41230 39070
L41120 39070
L41060 39100
" />
<path d="M41320 39440
L41260 39470
L41120 39470
L41060 39440
L41030 39390
L41030 39330
L41060 39270
L41120 39240
L41260 39240
L41320 39210
" />
<path d="M41690 39470
L41630 39440
L41600 39390
L41600 38870
" />
<path d="M42000 39470
L41940 39440
L41910 39390
L41910 38870
" />
<path d="M42170 39070
L42310 39470
" />
<path d="M42450 39070
L42310 39470
L42250 39610
L42220 39640
L42170 39670
" />
<path d="M43400 39440
L43340 39470
L43230 39470
L43170 39440
L43140 39410
L43110 39360
L43110 39190
L43140 39130
L43170 39100
L43230 39070
L43340 39070
L43400 39100
" />
<path d="M43910 39470
L43910 39160
L43880 39100
L43820 39070
L43710 39070
L43650 39100
" />
<path d="M43910 39440
L43850 39470
L43710 39470
L43650 39440
L43620 39390
L43620 39330
L43650 39270
L43710 39240
L43850 39240
L43910 39210
" />
<path d="M44190 39070
L44190 39670
" />
<path d="M44190 39100
L44250 39070
L44360 39070
L44420 39100
L44450 39130
L44480 39190
L44480 39360
L44450 39410
L44420 39440
L44360 39470
L44250 39470
L44190 39440
" />
<path d="M44990 39470
L44990 39160
L44960 39100
L44900 39070
L44790 39070
L44730 39100
" />
<path d="M44990 39440
L44930 39470
L44790 39470
L44730 39440
L44700 39390
L44700 39330
L44730 39270
L44790 39240
L44930 39240
L44990 39210
" />
<path d="M45270 39470
L45270 38870
" />
<path d="M45270 39100
L45330 39070
L45440 39070
L45500 39100
L45530 39130
L45560 39190
L45560 39360
L45530 39410
L45500 39440
L45440 39470
L45330 39470
L45270 39440
" />
<path d="M45900 39470
L45840 39440
L45810 39390
L45810 38870
" />
<path d="M46350 39440
L46290 39470
L46180 39470
L46120 39440
L46090 39390
L46090 39160
L46120 39100
L46180 39070
L46290 39070
L46350 39100
L46380 39160
L46380 39210
L46090 39270
" />
<path d="M47180 39470
L47120 39440
L47090 39410
L47060 39360
L47060 39190
L47090 39130
L47120 39100
L47180 39070
L47260 39070
L47320 39100
L47350 39130
L47380 39190
L47380 39360
L47350 39410
L47320 39440
L47260 39470
L47180 39470
" />
<path d="M47550 39070
L47780 39070
" />
<path d="M47630 39470
L47630 38960
L47660 38900
L47720 38870
L47780 38870
" />
<path d="M48750 39470
L48400 39470
" />
<path d="M48580 39470
L48580 38870
L48520 38960
L48460 39010
L48400 39040
" />
<path d="M49000 39410
L49030 39440
L49000 39470
L48970 39440
L49000 39410
L49000 39470
" />
<path d="M49580 38870
L49290 38870
L49260 39160
L49290 39130
L49350 39100
L49490 39100
L49550 39130
L49580 39160
L49610 39210
L49610 39360
L49580 39410
L49550 39440
L49490 39470
L49350 39470
L49290 39440
L49260 39410
" />
<path d="M49830 39300
L50120 39300
" />
<path d="M49780 39470
L49980 38870
L50180 39470
" />
</g>
<g style="fill:#0000C2; fill-opacity:0.0; 
stroke:#0000C2; stroke-width:0; stroke-opacity:1; 
stroke-linecap:round; stroke-linejoin:round;">
</g>
<g style="fill:#840000; fill-opacity:0.0; 
stroke:#840000; stroke-width:0; stroke-opacity:1; 
stroke-linecap:round; stroke-linejoin:round;">
</g>
<g style="fill:#840000; fill-opacity:0.0; 
stroke:#840000; stroke-width:60; stroke-opacity:1; 
stroke-linecap:round; stroke-linejoin:round;">
<polyline fill="none;"
points="39300,28100
39300,28900
" /> 
<polyline fill="none;"
points="39300,28500
38700,28500
" /> 
<polyline fill="none;"
points="39300,28100
39200,28100
39200,28200
" /> 
<polyline fill="none;"
points="39300,28900
39400,28900
39400,28800
" /> 
<polyline fill="none;"
points="38700,28100
39300,28500
38700,28900
38700,28100
" /> 
<path d="M39300 28500
L40000 28500
" />
<path d="M38700 28500
L38000 28500
" />
</g>
<g style="fill:#008484; fill-opacity:0.0; 
stroke:#008484; stroke-width:60; stroke-opacity:1; 
stroke-linecap:round; stroke-linejoin:round;">
<path d="M38640 29490
L38640 28990
L38760 28990
L38830 29010
L38880 29060
L38900 29110
L38920 29200
L38920 29270
L38900 29370
L38880 29410
L38830 29460
L38760 29490
L38640 29490
" />
<path d="M39400 29490
L39120 29490
" />
<path d="M39260 29490
L39260 28990
L39210 29060
L39160 29110
L39120 29130
" />
<path d="M37780 27660
L37850 27690
L37970 27690
L38010 27660
L38040 27640
L38060 27590
L38060 27540
L38040 27500
L38010 27470
L37970 27450
L37870 27420
L37820 27400
L37800 27380
L37780 27330
L37780 27280
L37800 27230
L37820 27210
L37870 27190
L37990 27190
L38060 27210
" />
<path d="M38260 27660
L38330 27690
L38450 27690
L38490 27660
L38520 27640
L38540 27590
L38540 27540
L38520 27500
L38490 27470
L38450 27450
L38350 27420
L38300 27400
L38280 27380
L38260 27330
L38260 27280
L38280 27230
L38300 27210
L38350 27190
L38470 27190
L38540 27210
" />
<path d="M39020 27690
L38740 27690
" />
<path d="M38880 27690
L38880 27190
L38830 27260
L38780 27310
L38740 27330
" />
<path d="M39240 27690
L39240 27190
L39430 27190
L39480 27210
L39500 27230
L39520 27280
L39520 27350
L39500 27400
L39480 27420
L39430 27450
L39240 27450
" />
<path d="M39690 27190
L40000 27190
L39830 27380
L39910 27380
L39950 27400
L39980 27420
L40000 27470
L40000 27590
L39980 27640
L39950 27660
L39910 27690
L39760 27690
L39720 27660
L39690 27640
" />
<path d="M40460 27690
L40220 27690
L40220 27190
" />
</g>
<g style="fill:#008400; fill-opacity:0.0; 
stroke:#008400; stroke-width:60; stroke-opacity:1; 
stroke-linecap:round; stroke-linejoin:round;">
<path d="M41500 28500
L41500 29000
" />
</g>
<g style="fill:#008400; fill-opacity:0.0; 
stroke:#008400; stroke-width:0; stroke-opacity:1; 
stroke-linecap:round; stroke-linejoin:round;">
</g>
<g style="fill:#840000; fill-opacity:0.0; 
stroke:#840000; stroke-width:0; stroke-opacity:1; 
stroke-linecap:round; stroke-linejoin:round;">
</g>
<g style="fill:#840000; fill-opacity:0.0; 
stroke:#840000; stroke-width:80; stroke-opacity:1; 
stroke-linecap:round; stroke-linejoin:round;">
<rect x="55700" y="32300" width="600" height="1400" rx="0" />
</g>
<g style="fill:#840000; fill-opacity:0.0; 
stroke:#840000; stroke-width:60; stroke-opacity:1; 
stroke-linecap:round; stroke-linejoin:round;">
<path d="M56000 32300
L56000 32000
" />
<path d="M56000 33700
L56000 34000
" />
</g>
<g style="fill:#008484; fill-opacity:0.0; 
stroke:#008484; stroke-width:60; stroke-opacity:1; 
stroke-linecap:round; stroke-linejoin:round;">
<path d="M56700 33060
L56540 32820
" />
<path d="M56420 33060
L56420 32560
L56610 32560
L56660 32580
L56680 32600
L56700 32650
L56700 32720
L56680 32770
L56660 32790
L56610 32820
L56420 32820
" />
<path d="M57180 33060
L56900 33060
" />
<path d="M57040 33060
L57040 32560
L56990 32630
L56940 32680
L56900 32700
" />
<path d="M56680 33660
L56400 33660
" />
<path d="M56540 33660
L56540 33160
L56490 33230
L56440 33280
L56400 33300
" />
<path d="M56900 33660
L56900 33160
" />
<path d="M57180 33660
L56970 33370
" />
<path d="M57180 33160
L56900 33440
" />
</g>
<g style="fill:#008484; fill-opacity:0.0; 
stroke:#008484; stroke-width:0; stroke-opacity:1; 
stroke-linecap:round; stroke-linejoin:round;">
</g>
<g style="fill:#840000; fill-opacity:0.0; 
stroke:#840000; stroke-width:0; stroke-opacity:1; 
stroke-linecap:round; stroke-linejoin:round;">
</g>
<g style="fill:#840000; fill-opacity:0.0; 
stroke:#840000; stroke-width:60; stroke-opacity:1; 
stroke-linecap:round; stroke-linejoin:round;">
<polyline fill="none;"
points="56000,34000
56000,34500
56500,34500
56000,35000
55500,34500
56000,34500
" /> 
</g>
<g style="fill:#008484; fill-opacity:0.0; 
stroke:#008484; stroke-width:60; stroke-opacity:1; 
stroke-linecap:round; stroke-linejoin:round;">
<path d="M55620 35280
L55570 35260
L55500 35260
L55430 35280
L55380 35330
L55360 35380
L55340 35470
L55340 35540
L55360 35640
L55380 35680
L55430 35730
L55500 35760
L55550 35760
L55620 35730
L55640 35710
L55640 35540
L55550 35540
" />
<path d="M55860 35760
L55860 35260
L56140 35760
L56140 35260
" />
<path d="M56380 35760
L56380 35260
L56500 35260
L56570 35280
L56620 35330
L56640 35380
L56660 35470
L56660 35540
L56640 35640
L56620 35680
L56570 35730
L56500 35760
L56380 35760
" />
</g>
<g style="fill:#008484; fill-opacity:0.0; 
stroke:#008484; stroke-width:0; stroke-opacity:1; 
stroke-linecap:round; stroke-linejoin:round;">
</g>
<g style="fill:#840000; fill-opacity:0.0; 
stroke:#840000; stroke-width:0; stroke-opacity:1; 
stroke-linecap:round; stroke-linejoin:round;">
</g>
<g style="fill:#840000; fill-opacity:0.0; 
stroke:#840000; stroke-width:80; stroke-opacity:1; 
stroke-linecap:round; stroke-linejoin:round;">
<polyline fill="none;"
points="56500,31000
55500,31000
" /> 
</g>
<g style="fill:#840000; fill-opacity:0.0; 
stroke:#840000; stroke-width:60; stroke-opacity:1; 
stroke-linecap:round; stroke-linejoin:round;">
<polyline fill="none;"
points="56000,31000
56000,30000
" /> 
</g>
<g style="fill:#840000; fill-opacity:0.0; 
stroke:#840000; stroke-width:80; stroke-opacity:1; 
stroke-linecap:round; stroke-linejoin:round;">
<polyline fill="none;"
points="56500,30000
55500,30000
56000,31000
56500,30000
" /> 
</g>
<g style="fill:#840000; fill-opacity:0.0; 
stroke:#840000; stroke-width:60; stroke-opacity:1; 
stroke-linecap:round; stroke-linejoin:round;">
<polyline fill="none;"
points="56300,31700
56900,32300
56900,32000
56900,32300
56600,32300
" /> 
<polyline fill="none;"
points="56300,31200
56900,31800
56900,31500
56900,31800
56600,31800
" /> 
<path d="M56000 31000
L56000 32000
" />
<path d="M55880 31360
L55880 31640
" />
<path d="M55880 31500
L55380 31500
L55450 31550
L55500 31600
L55520 31640
" />
<path d="M56000 30000
L56000 29000
" />
<path d="M55420 29640
L55400 29620
L55380 29570
L55380 29450
L55400 29410
L55420 29380
L55470 29360
L55520 29360
L55590 29380
L55880 29670
L55880 29360
" />
</g>
<g style="fill:#008484; fill-opacity:0.0; 
stroke:#008484; stroke-width:60; stroke-opacity:1; 
stroke-linecap:round; stroke-linejoin:round;">
<path d="M55260 30870
L54760 30870
L54760 30750
L54780 30680
L54830 30630
L54880 30610
L54970 30590
L55040 30590
L55140 30610
L55180 30630
L55230 30680
L55260 30750
L55260 30870
" />
<path d="M54800 30390
L54780 30370
L54760 30320
L54760 30200
L54780 30160
L54800 30130
L54850 30110
L54900 30110
L54970 30130
L55260 30420
L55260 30110
" />
<path d="M57260 30800
L57260 31040
L56760 31040
" />
<path d="M56990 30640
L56990 30470
" />
<path d="M57260 30400
L57260 30640
L56760 30640
L56760 30400
" />
<path d="M57260 30190
L56760 30190
L56760 30070
L56780 30000
L56830 29950
L56880 29930
L56970 29910
L57040 29910
L57140 29930
L57180 29950
L57230 30000
L57260 30070
L57260 30190
" />
</g>
<g style="fill:#008400; fill-opacity:0.0; 
stroke:#008400; stroke-width:60; stroke-opacity:1; 
stroke-linecap:round; stroke-linejoin:round;">
<path d="M56000 28500
L56000 29000
" />
</g>
<g style="fill:#008400; fill-opacity:0.0; 
stroke:#008400; stroke-width:0; stroke-opacity:1; 
stroke-linecap:round; stroke-linejoin:round;">
</g>
<g style="fill:#840000; fill-opacity:0.0; 
stroke:#840000; stroke-width:0; stroke-opacity:1; 
stroke-linecap:round; stroke-linejoin:round;">
</g>
<g style="fill:#840000; fill-opacity:0.0; 
stroke:#840000; stroke-width:60; stroke-opacity:1; 
stroke-linecap:round; stroke-linejoin:round;">
<rect x="35000" y="28300" width="1000" height="400" rx="0" />
<polyline fill="none;"
points="35000,28500
36000,28500
" /> 
<path d="M35000 28500
L34500 28500
" />
<path d="M36000 28500
L36500 28500
" />
</g>
<g style="fill:#008484; fill-opacity:0.0; 
stroke:#008484; stroke-width:60; stroke-opacity:1; 
stroke-linecap:round; stroke-linejoin:round;">
<path d="M35340 29090
L35170 29090
" />
<path d="M35170 29360
L35170 28860
L35410 28860
" />
<path d="M35860 29360
L35580 29360
" />
<path d="M35720 29360
L35720 28860
L35670 28930
L35620 28980
L35580 29000
" />
<path d="M29060 30260
L29060 29760
L29230 30110
L29390 29760
L29390 30260
" />
<path d="M29800 29990
L29630 29990
" />
<path d="M29630 30260
L29630 29760
L29870 29760
" />
<path d="M30060 30070
L30440 30070
" />
<path d="M30680 30260
L30680 29760
L30850 30110
L31010 29760
L31010 30260
" />
<path d="M31230 30230
L31300 30260
L31420 30260
L31460 30230
L31490 30210
L31510 30160
L31510 30110
L31490 30070
L31460 30040
L31420 30020
L31320 29990
L31270 29970
L31250 29950
L31230 29900
L31230 29850
L31250 29800
L31270 29780
L31320 29760
L31440 29760
L31510 29780
" />
<path d="M31730 30260
L31730 29760
L31900 30110
L32060 29760
L32060 30260
" />
<path d="M32470 29990
L32300 29990
" />
<path d="M32300 30260
L32300 29760
L32540 29760
" />
<path d="M32820 29760
L32870 29760
L32920 29780
L32940 29800
L32970 29850
L32990 29950
L32990 30070
L32970 30160
L32940 30210
L32920 30230
L32870 30260
L32820 30260
L32780 30230
L32750 30210
L32730 30160
L32710 30070
L32710 29950
L32730 29850
L32750 29800
L32780 29780
L32820 29760
" />
<path d="M33450 29760
L33210 29760
L33190 29990
L33210 29970
L33260 29950
L33380 29950
L33420 29970
L33450 29990
L33470 30040
L33470 30160
L33450 30210
L33420 30230
L33380 30260
L33260 30260
L33210 30230
L33190 30210
" />
<path d="M33780 29760
L33830 29760
L33880 29780
L33900 29800
L33930 29850
L33950 29950
L33950 30070
L33930 30160
L33900 30210
L33880 30230
L33830 30260
L33780 30260
L33740 30230
L33710 30210
L33690 30160
L33670 30070
L33670 29950
L33690 29850
L33710 29800
L33740 29780
L33780 29760
" />
<path d="M34170 30070
L34550 30070
" />
<path d="M34770 29800
L34790 29780
L34840 29760
L34960 29760
L35000 29780
L35030 29800
L35050 29850
L35050 29900
L35030 29970
L34740 30260
L35050 30260
" />
<path d="M35890 29760
L35650 29760
L35630 29990
L35650 29970
L35700 29950
L35820 29950
L35860 29970
L35890 29990
L35910 30040
L35910 30160
L35890 30210
L35860 30230
L35820 30260
L35700 30260
L35650 30230
L35630 30210
" />
<path d="M36220 29760
L36270 29760
L36320 29780
L36340 29800
L36370 29850
L36390 29950
L36390 30070
L36370 30160
L36340 30210
L36320 30230
L36270 30260
L36220 30260
L36180 30230
L36150 30210
L36130 30160
L36110 30070
L36110 29950
L36130 29850
L36150 29800
L36180 29780
L36220 29760
" />
<path d="M36700 29760
L36750 29760
L36800 29780
L36820 29800
L36850 29850
L36870 29950
L36870 30070
L36850 30160
L36820 30210
L36800 30230
L36750 30260
L36700 30260
L36660 30230
L36630 30210
L36610 30160
L36590 30070
L36590 29950
L36610 29850
L36630 29800
L36660 29780
L36700 29760
" />
<path d="M37090 30260
L37090 29920
" />
<path d="M37090 29970
L37110 29950
L37160 29920
L37230 29920
L37280 29950
L37300 29990
L37300 30260
" />
<path d="M37300 29990
L37330 29950
L37370 29920
L37450 29920
L37490 29950
L37520 29990
L37520 30260
" />
<path d="M37740 30110
L37970 30110
" />
<path d="M37690 30260
L37850 29760
L38020 30260
" />
</g>
<g style="fill:#008400; fill-opacity:0.0; 
stroke:#008400; stroke-width:60; stroke-opacity:1; 
stroke-linecap:round; stroke-linejoin:round;">
<path d="M38000 28500
L36500 28500
" />
<path d="M34500 27000
L34500 28500
" />
</g>
<g style="fill:#008400; fill-opacity:0.0; 
stroke:#008400; stroke-width:0; stroke-opacity:1; 
stroke-linecap:round; stroke-linejoin:round;">
</g>
<g style="fill:#840000; fill-opacity:0.0; 
stroke:#840000; stroke-width:0; stroke-opacity:1; 
stroke-linecap:round; stroke-linejoin:round;">
</g>
<g style="fill:#FFFFC2; fill-opacity:0.0; 
stroke:#FFFFC2; stroke-width:0; stroke-opacity:1; 
stroke-linecap:round; stroke-linejoin:round;">
</g>
<g style="fill:#FFFFC2; fill-opacity:0.6; 
stroke:#FFFFC2; stroke-width:0; stroke-opacity:1; 
stroke-linecap:round; stroke-linejoin:round;">
<rect x="45000" y="27500" width="4000" height="3000" rx="0" />
</g>
<g style="fill:#840000; fill-opacity:0.6; 
stroke:#840000; stroke-width:0; stroke-opacity:1; 
stroke-linecap:round; stroke-linejoin:round;">
</g>
<g style="fill:#840000; fill-opacity:0.0; 
stroke:#840000; stroke-width:60; stroke-opacity:1; 
stroke-linecap:round; stroke-linejoin:round;">
<rect x="45000" y="27500" width="4000" height="3000" rx="0" />
<path d="M45000 28500
L43000 28500
" />
</g>
<g style="fill:#008484; fill-opacity:0.0; 
stroke:#008484; stroke-width:60; stroke-opacity:1; 
stroke-linecap:round; stroke-linejoin:round;">
<path d="M45340 28280
L45470 28680
L45600 28280
" />
<path d="M45740 28680
L45740 28280
" />
</g>
<g style="fill:#840000; fill-opacity:0.0; 
stroke:#840000; stroke-width:60; stroke-opacity:1; 
stroke-linecap:round; stroke-linejoin:round;">
<path d="M49000 28500
L51000 28500
" />
</g>
<g style="fill:#008484; fill-opacity:0.0; 
stroke:#008484; stroke-width:60; stroke-opacity:1; 
stroke-linecap:round; stroke-linejoin:round;">
<path d="M47980 28280
L48110 28680
L48240 28280
" />
<path d="M48450 28280
L48530 28280
L48570 28300
L48600 28340
L48620 28410
L48620 28550
L48600 28620
L48570 28660
L48530 28680
L48450 28680
L48410 28660
L48380 28620
L48360 28550
L48360 28410
L48380 28340
L48410 28300
L48450 28280
" />
</g>
<g style="fill:#840000; fill-opacity:0.0; 
stroke:#840000; stroke-width:60; stroke-opacity:1; 
stroke-linecap:round; stroke-linejoin:round;">
<path d="M47000 30500
L47000 31500
" />
</g>
<g style="fill:#008484; fill-opacity:0.0; 
stroke:#008484; stroke-width:60; stroke-opacity:1; 
stroke-linecap:round; stroke-linejoin:round;">
<path d="M46800 29900
L46780 29930
L46780 29990
L46800 30050
L46840 30090
L46880 30100
L46950 30120
L47010 30120
L47090 30100
L47120 30090
L47160 30050
L47180 29990
L47180 29950
L47160 29900
L47140 29880
L47010 29880
L47010 29950
" />
<path d="M47180 29700
L46780 29700
L47180 29480
L46780 29480
" />
<path d="M47180 29280
L46780 29280
L46780 29190
L46800 29130
L46840 29090
L46880 29080
L46950 29060
L47010 29060
L47090 29080
L47120 29090
L47160 29130
L47180 29190
L47180 29280
" />
<path d="M48120 30720
L48120 31120
L48140 31170
L48170 31190
L48210 31220
L48310 31220
L48360 31190
L48380 31170
L48400 31120
L48400 30720
" />
<path d="M48900 31220
L48620 31220
" />
<path d="M48760 31220
L48760 30720
L48710 30790
L48660 30840
L48620 30860
" />
<path d="M44540 27260
L44300 27260
L44300 26760
" />
<path d="M44700 27260
L44700 26760
L44820 26760
L44890 26780
L44940 26830
L44960 26880
L44980 26970
L44980 27040
L44960 27140
L44940 27180
L44890 27230
L44820 27260
L44700 27260
" />
<path d="M45180 26800
L45200 26780
L45250 26760
L45370 26760
L45410 26780
L45440 26800
L45460 26850
L45460 26900
L45440 26970
L45150 27260
L45460 27260
" />
<path d="M45700 27260
L45800 27260
L45850 27230
L45870 27210
L45920 27140
L45940 27040
L45940 26850
L45920 26800
L45890 26780
L45850 26760
L45750 26760
L45700 26780
L45680 26800
L45660 26850
L45660 26970
L45680 27020
L45700 27040
L45750 27070
L45850 27070
L45890 27040
L45920 27020
L45940 26970
" />
<path d="M46420 27260
L46140 27260
" />
<path d="M46280 27260
L46280 26760
L46230 26830
L46180 26880
L46140 26900
" />
<path d="M46880 26760
L46640 26760
L46620 26990
L46640 26970
L46690 26950
L46810 26950
L46850 26970
L46880 26990
L46900 27040
L46900 27160
L46880 27210
L46850 27230
L46810 27260
L46690 27260
L46640 27230
L46620 27210
" />
<path d="M47210 26760
L47260 26760
L47310 26780
L47330 26800
L47360 26850
L47380 26950
L47380 27070
L47360 27160
L47330 27210
L47310 27230
L47260 27260
L47210 27260
L47170 27230
L47140 27210
L47120 27160
L47100 27070
L47100 26950
L47120 26850
L47140 26800
L47170 26780
L47210 26760
" />
<path d="M47600 27260
L47600 26760
L47720 26760
L47790 26780
L47840 26830
L47860 26880
L47880 26970
L47880 27040
L47860 27140
L47840 27180
L47790 27230
L47720 27260
L47600 27260
" />
<path d="M48030 26760
L48310 26760
" />
<path d="M48170 27260
L48170 26760
" />
<path d="M48720 26760
L48480 26760
L48460 26990
L48480 26970
L48530 26950
L48650 26950
L48690 26970
L48720 26990
L48740 27040
L48740 27160
L48720 27210
L48690 27230
L48650 27260
L48530 27260
L48480 27230
L48460 27210
" />
<path d="M49050 26760
L49100 26760
L49150 26780
L49170 26800
L49200 26850
L49220 26950
L49220 27070
L49200 27160
L49170 27210
L49150 27230
L49100 27260
L49050 27260
L49010 27230
L48980 27210
L48960 27160
L48940 27070
L48940 26950
L48960 26850
L48980 26800
L49010 26780
L49050 26760
" />
<path d="M49720 27260
L49560 27020
" />
<path d="M49440 27260
L49440 26760
L49630 26760
L49680 26780
L49700 26800
L49720 26850
L49720 26920
L49700 26970
L49680 26990
L49630 27020
L49440 27020
" />
</g>
<g style="fill:#008484; fill-opacity:0.0; 
stroke:#008484; stroke-width:0; stroke-opacity:1; 
stroke-linecap:round; stroke-linejoin:round;">
</g>
<g style="fill:#840000; fill-opacity:0.0; 
stroke:#840000; stroke-width:0; stroke-opacity:1; 
stroke-linecap:round; stroke-linejoin:round;">
</g>
<g style="fill:#840000; fill-opacity:0.0; 
stroke:#840000; stroke-width:60; stroke-opacity:1; 
stroke-linecap:round; stroke-linejoin:round;">
<polyline fill="none;"
points="51700,27500
52000,27000
" /> 
<polyline fill="none;"
points="52000,28000
52000,27000
" /> 
<polyline fill="none;"
points="52000,27000
52300,27500
" /> 
</g>
<g style="fill:#008484; fill-opacity:0.0; 
stroke:#008484; stroke-width:60; stroke-opacity:1; 
stroke-linecap:round; stroke-linejoin:round;">
<path d="M51360 26670
L51740 26670
" />
<path d="M51550 26860
L51550 26480
" />
<path d="M52220 26360
L51980 26360
L51960 26590
L51980 26570
L52030 26550
L52150 26550
L52190 26570
L52220 26590
L52240 26640
L52240 26760
L52220 26810
L52190 26830
L52150 26860
L52030 26860
L51980 26830
L51960 26810
" />
<path d="M52390 26360
L52550 26860
L52720 26360
" />
</g> 
</svg>
