<?xml version="1.0" ?>
<svg height="64.1mm" version="1.1" viewBox="-0.05 -64.15 36.4 64.1" width="36.4mm" xmlns="http://www.w3.org/2000/svg" xmlns:xlink="http://www.w3.org/1999/xlink">
	<g transform="scale(1,-1)">
		<path d="M -0.05,-2.54513736682e-10 L -0.05,64.0000000003 L -0.0497592363245,64.0049008568 L -0.0497592362733,64.0049008573 L -0.0490392640606,64.0097545158 L -0.0490392639672,64.0097545162 L -0.0478470168556,64.0145142336 L -0.0478470166967,64.0145142342 L -0.0461939767103,64.0191341713 L -0.0461939765097,64.0191341717 L -0.0440960632069,64.0235698367 L -0.0440960630265,64.0235698371 L -0.0415734807462,64.0277785115 L -0.0415734804186,64.0277785119 L -0.038650522878,64.031719664 L -0.0386505225977,64.0317196643 L -0.0353553392553,64.0353553389 L -0.0353553389025,64.0353553393 L -0.0317196642871,64.0386505226 L -0.0317196639598,64.0386505229 L -0.0277785119443,64.0415734804 L -0.0277785114529,64.0415734807 L -0.0235698370864,64.044096063 L -0.0235698367256,64.0440960632 L -0.019134171731,64.0461939765 L -0.0191341712797,64.0461939767 L -0.0145142341767,64.0478470167 L -0.014514233647,64.0478470169 L -0.00975451619985,64.049039264 L -0.00975451577947,64.0490392641 L -0.00490085726813,64.0497592363 L -0.00490085675672,64.0497592363 L -2.5433365004e-10,64.05 L 36.3000000003,64.05 L 36.3049008568,64.0497592363 L 36.3049008573,64.0497592363 L 36.3097545158,64.0490392641 L 36.3097545162,64.049039264 L 36.3145142336,64.0478470169 L 36.3145142342,64.0478470167 L 36.3191341713,64.0461939767 L 36.3191341717,64.0461939765 L 36.3235698367,64.0440960632 L 36.3235698371,64.044096063 L 36.3277785115,64.0415734807 L 36.3277785119,64.0415734804 L 36.331719664,64.0386505229 L 36.3317196643,64.0386505226 L 36.3353553389,64.0353553393 L 36.3353553393,64.0353553389 L 36.3386505226,64.0317196643 L 36.3386505229,64.031719664 L 36.3415734804,64.0277785119 L 36.3415734807,64.0277785115 L 36.344096063,64.0235698371 L 36.3440960632,64.0235698367 L 36.3461939765,64.0191341717 L 36.3461939767,64.0191341713 L 36.3478470167,64.0145142342 L 36.3478470169,64.0145142336 L 36.349039264,64.0097545162 L 36.3490392641,64.0097545158 L 36.3497592363,64.0049008573 L 36.3497592363,64.0049008568 L 36.35,64.0000000003 L 36.35,-2.54478284338e-10 L 36.3497592363,-0.00490085675672 L 36.3497592363,-0.00490085726813 L 36.3490392641,-0.00975451577941 L 36.349039264,-0.00975451619989 L 36.3478470169,-0.0145142336471 L 36.3478470167,-0.0145142341767 L 36.3461939767,-0.0191341712797 L 36.3461939765,-0.0191341717308 L 36.3440960632,-0.0235698367258 L 36.344096063,-0.0235698370864 L 36.3415734807,-0.0277785114529 L 36.3415734804,-0.0277785119444 L 36.3386505229,-0.0317196639598 L 36.3386505226,-0.031719664287 L 36.3353553393,-0.0353553389025 L 36.3353553389,-0.0353553392553 L 36.3317196643,-0.0386505225975 L 36.331719664,-0.038650522878 L 36.3277785119,-0.0415734804186 L 36.3277785115,-0.0415734807462 L 36.3235698371,-0.0440960630265 L 36.3235698367,-0.0440960632069 L 36.3191341717,-0.0461939765097 L 36.3191341713,-0.0461939767103 L 36.3145142342,-0.0478470166967 L 36.3145142336,-0.0478470168556 L 36.3097545162,-0.0490392639672 L 36.3097545158,-0.0490392640606 L 36.3049008573,-0.0497592362733 L 36.3049008568,-0.0497592363245 L 36.3000000003,-0.05 L -2.54513736682e-10,-0.05 L -0.00490085675667,-0.0497592363245 L -0.00490085726813,-0.0497592362733 L -0.00975451577938,-0.0490392640606 L -0.00975451620003,-0.0490392639672 L -0.014514233647,-0.0478470168556 L -0.0145142341767,-0.0478470166967 L -0.0191341712797,-0.0461939767103 L -0.019134171731,-0.0461939765097 L -0.0235698367256,-0.0440960632068 L -0.0235698370864,-0.0440960630265 L -0.0277785114529,-0.0415734807462 L -0.0277785119444,-0.0415734804186 L -0.0317196639598,-0.038650522878 L -0.031719664287,-0.0386505225975 L -0.0353553389025,-0.0353553392553 L -0.0353553392553,-0.0353553389025 L -0.0386505225975,-0.031719664287 L -0.038650522878,-0.0317196639598 L -0.0415734804186,-0.0277785119444 L -0.0415734807462,-0.0277785114529 L -0.0440960630265,-0.0235698370864 L -0.0440960632068,-0.0235698367256 L -0.0461939765097,-0.019134171731 L -0.0461939767103,-0.0191341712797 L -0.0478470166967,-0.0145142341767 L -0.0478470168556,-0.014514233647 L -0.0490392639672,-0.00975451620003 L -0.0490392640606,-0.00975451577938 L -0.0497592362733,-0.00490085726813 L -0.0497592363245,-0.00490085675667 L -0.05,-2.54513736682e-10 z M 0.05,0.05000001 L 0.0500000000482,0.0500000090198 L 0.0500000001921,0.0500000080491 L 0.0500000004306,0.0500000070972 L 0.0500000007612,0.0500000061732 L 0.0500000011808,0.050000005286 L 0.0500000016853,0.0500000044443 L 0.0500000022699,0.0500000036561 L 0.0500000029289,0.0500000029289 L 0.0500000036561,0.0500000022699 L 0.0500000044443,0.0500000016853 L 0.050000005286,0.0500000011808 L 0.0500000061732,0.0500000007612 L 0.0500000070972,0.0500000004306 L 0.0500000080491,0.0500000001921 L 0.0500000090198,0.0500000000482 L 0.05000001,0.05 L 36.24999999,0.05 L 36.249999991,0.0500000000482 L 36.249999992,0.0500000001921 L 36.2499999929,0.0500000004306 L 36.2499999938,0.0500000007612 L 36.2499999947,0.0500000011808 L 36.2499999956,0.0500000016853 L 36.2499999963,0.0500000022699 L 36.2499999971,0.0500000029289 L 36.2499999977,0.0500000036561 L 36.2499999983,0.0500000044443 L 36.2499999988,0.050000005286 L 36.2499999992,0.0500000061732 L 36.2499999996,0.0500000070972 L 36.2499999998,0.0500000080491 L 36.25,0.0500000090198 L 36.25,0.05000001 L 36.25,63.94999999 L 36.25,63.949999991 L 36.2499999998,63.949999992 L 36.2499999996,63.9499999929 L 36.2499999992,63.9499999938 L 36.2499999988,63.9499999947 L 36.2499999983,63.9499999956 L 36.2499999977,63.9499999963 L 36.2499999971,63.9499999971 L 36.2499999963,63.9499999977 L 36.2499999956,63.9499999983 L 36.2499999947,63.9499999988 L 36.2499999938,63.9499999992 L 36.2499999929,63.9499999996 L 36.249999992,63.9499999998 L 36.249999991,63.95 L 36.24999999,63.95 L 0.05000001,63.95 L 0.0500000090198,63.95 L 0.0500000080491,63.9499999998 L 0.0500000070972,63.9499999996 L 0.0500000061732,63.9499999992 L 0.050000005286,63.9499999988 L 0.0500000044443,63.9499999983 L 0.0500000036561,63.9499999977 L 0.0500000029289,63.9499999971 L 0.0500000022699,63.9499999963 L 0.0500000016853,63.9499999956 L 0.0500000011808,63.9499999947 L 0.0500000007612,63.9499999938 L 0.0500000004306,63.9499999929 L 0.0500000001921,63.949999992 L 0.0500000000482,63.949999991 L 0.05,63.94999999 L 0.05,0.05000001 z" fill="#66cc99" fill-rule="evenodd" opacity="0.6" stroke="#555555" stroke-width="0.1"/>
	</g>
	 
</svg>
