M48
;DRILL file {KiCad 4.0.5} date 02/27/17 11:36:25
;FORMAT={-:-/ absolute / metric / decimal}
FMAT,2
METRIC,TZ
T1C0.330
T2C0.800
T3C0.996
T4C1.016
T5C1.780
%
G90
G05
M71
T1
X4.4Y39.2
X7.6Y20.8
X7.6Y8.
X8.7Y48.7
X11.6Y44.
X12.5Y12.3
X13.6Y5.5
X14.2Y42.
X16.8Y41.7
X16.8Y29.1
X19.4Y29.1
X20.2Y42.1
X20.8Y25.4
X21.3Y56.3
X21.8Y51.5
X22.7Y5.9
X24.5Y54.4
X24.7Y41.5
X31.9Y24.8
T2
X14.3Y39.02
X14.3Y31.4
X16.84Y39.02
X16.84Y31.4
X19.38Y39.02
X19.38Y31.4
X21.92Y39.02
X21.92Y31.4
T4
X1.3Y49.83
X1.3Y47.29
X1.3Y44.75
X1.3Y38.58
X1.3Y36.04
X1.3Y33.5
X30.2Y37.7
X30.2Y35.16
X30.2Y32.62
X30.2Y30.08
T5
X11.55Y61.5
X11.55Y57.54
T3
X5.3Y21.601G85X5.3Y20.399
G05
X5.3Y7.851G85X5.3Y6.649
G05
X9.899Y26.055G85X8.697Y26.055
G05
X9.899Y15.945G85X8.697Y15.945
G05
X9.899Y12.305G85X8.697Y12.305
G05
X9.899Y2.195G85X8.697Y2.195
G05
T0
M30
