G04 #@! TF.FileFunction,Soldermask,Top*
%FSLAX46Y46*%
G04 Gerber Fmt 4.6, Leading zero omitted, Abs format (unit mm)*
G04 Created by KiCad (PCBNEW 4.0.5) date 02/27/17 15:44:33*
%MOMM*%
%LPD*%
G01*
G04 APERTURE LIST*
%ADD10C,0.200000*%
%ADD11C,0.100000*%
%ADD12R,2.900000X2.900000*%
%ADD13C,2.900000*%
%ADD14R,1.250000X1.500000*%
%ADD15R,1.500000X1.250000*%
%ADD16R,0.590000X0.450000*%
%ADD17R,0.900000X1.200000*%
%ADD18R,2.032000X1.727200*%
%ADD19O,2.032000X1.727200*%
%ADD20O,3.197860X1.998980*%
%ADD21O,1.998980X3.197860*%
%ADD22R,1.300000X1.500000*%
%ADD23R,1.500000X1.300000*%
%ADD24R,1.550000X1.300000*%
%ADD25R,1.600000X2.180000*%
%ADD26O,1.600000X2.300000*%
G04 APERTURE END LIST*
D10*
D11*
X0Y64000000D02*
X36300000Y64000000D01*
X0Y0D02*
X0Y64000000D01*
X36300000Y0D02*
X0Y0D01*
X36300000Y64000000D02*
X36300000Y0D01*
D12*
X11550000Y61500000D03*
D13*
X11550000Y57540000D03*
D14*
X16200000Y8050000D03*
X16200000Y5550000D03*
D15*
X31950000Y14800000D03*
X29450000Y14800000D03*
X24350000Y44750000D03*
X21850000Y44750000D03*
X24350000Y47000000D03*
X21850000Y47000000D03*
X24350000Y49250000D03*
X21850000Y49250000D03*
D16*
X16495000Y16500000D03*
X18605000Y16500000D03*
D17*
X22100000Y59000000D03*
X22100000Y61200000D03*
D18*
X30200000Y37700000D03*
D19*
X30200000Y35160000D03*
X30200000Y32620000D03*
X30200000Y30080000D03*
D20*
X9297960Y15945400D03*
D21*
X5300000Y21000000D03*
D20*
X9297960Y26054600D03*
X9297960Y2195400D03*
D21*
X5300000Y7250000D03*
D20*
X9297960Y12304600D03*
D18*
X1300000Y44750000D03*
D19*
X1300000Y47290000D03*
X1300000Y49830000D03*
D18*
X1300000Y33500000D03*
D19*
X1300000Y36040000D03*
X1300000Y38580000D03*
D22*
X18600000Y5550000D03*
X18600000Y8250000D03*
X17100000Y23550000D03*
X17100000Y20850000D03*
D23*
X23550000Y16600000D03*
X20850000Y16600000D03*
D22*
X20900000Y5550000D03*
X20900000Y8250000D03*
D23*
X29150000Y21400000D03*
X31850000Y21400000D03*
X6900000Y47250000D03*
X4200000Y47250000D03*
X6900000Y36000000D03*
X4200000Y36000000D03*
D22*
X17900000Y58750000D03*
X17900000Y61450000D03*
D24*
X32475000Y4050000D03*
X24525000Y4050000D03*
X32475000Y8550000D03*
X24525000Y8550000D03*
D25*
X2547680Y53147570D03*
X2552320Y62352430D03*
D24*
X34675000Y56150000D03*
X26725000Y56150000D03*
X34675000Y60650000D03*
X26725000Y60650000D03*
D26*
X14300000Y31400000D03*
X16840000Y31400000D03*
X19380000Y31400000D03*
X21920000Y31400000D03*
X21920000Y39020000D03*
X19380000Y39020000D03*
X16840000Y39020000D03*
X14300000Y39020000D03*
M02*
