<?xml version="1.0" standalone="no"?>
 <!DOCTYPE svg PUBLIC "-//W3C//DTD SVG 1.1//EN" 
 "http://www.w3.org/Graphics/SVG/1.1/DTD/svg11.dtd"> 
<svg xmlns="http://www.w3.org/2000/svg" version="1.1" 
    width="29.7002cm" height="21.0007cm" viewBox="0 0 116930 82680 ">
<title>SVG Picture created as LPC810.Pong2-F.Cu.svg date 2017/02/27 11:57:53 </title>
  <desc>Picture generated by PCBNEW </desc>
<g style="fill:#000000; fill-opacity:1;stroke:#000000; stroke-opacity:1;
stroke-linecap:round; stroke-linejoin:round; "
 transform="translate(0 0) scale(1 1)">
</g>
<g style="fill:#000000; fill-opacity:0.0; 
stroke:#000000; stroke-width:-0.000393701; stroke-opacity:1; 
stroke-linecap:round; stroke-linejoin:round;">
</g>
<g style="fill:#000000; fill-opacity:0.0; 
stroke:#000000; stroke-width:39.3701; stroke-opacity:1; 
stroke-linecap:round; stroke-linejoin:round;">
<path d="M42401 24212
L56692 24212
" />
<path d="M42401 49409
L42401 24212
" />
<path d="M56692 49409
L42401 49409
" />
<path d="M56692 24212
L56692 49409
" />
</g>
<g style="fill:#000000; fill-opacity:0.0; 
stroke:#000000; stroke-width:0; stroke-opacity:1; 
stroke-linecap:round; stroke-linejoin:round;">
</g>
<g style="fill:#000000; fill-opacity:1.0; 
stroke:#000000; stroke-width:0; stroke-opacity:1; 
stroke-linecap:round; stroke-linejoin:round;">
<polyline style="fill-rule:evenodd;"
points="46377,24625
47519,24625
47519,25767
46377,25767
46377,24625
" /> 
<circle cx="46948.8" cy="26755.9" r="570.866" /> 
</g>
<g style="fill:#000000; fill-opacity:1.0; 
stroke:#000000; stroke-width:78.7402; stroke-opacity:1; 
stroke-linecap:round; stroke-linejoin:round;">
</g>
<g style="fill:#000000; fill-opacity:1.0; 
stroke:#000000; stroke-width:0; stroke-opacity:1; 
stroke-linecap:round; stroke-linejoin:round;">
<polyline style="fill-rule:evenodd;"
points="48533,45944
49025,45944
49025,46535
48533,46535
48533,45944
" /> 
<polyline style="fill-rule:evenodd;"
points="48533,46929
49025,46929
49025,47519
48533,47519
48533,46929
" /> 
<polyline style="fill-rule:evenodd;"
points="55275,43336
55275,43828
54685,43828
54685,43336
55275,43336
" /> 
<polyline style="fill-rule:evenodd;"
points="54291,43336
54291,43828
53700,43828
53700,43336
54291,43336
" /> 
<polyline style="fill-rule:evenodd;"
points="52283,31545
52283,32037
51692,32037
51692,31545
52283,31545
" /> 
<polyline style="fill-rule:evenodd;"
points="51299,31545
51299,32037
50708,32037
50708,31545
51299,31545
" /> 
<polyline style="fill-rule:evenodd;"
points="52283,30659
52283,31151
51692,31151
51692,30659
52283,30659
" /> 
<polyline style="fill-rule:evenodd;"
points="51299,30659
51299,31151
50708,31151
50708,30659
51299,30659
" /> 
<polyline style="fill-rule:evenodd;"
points="52283,29773
52283,30265
51692,30265
51692,29773
52283,29773
" /> 
<polyline style="fill-rule:evenodd;"
points="51299,29773
51299,30265
50708,30265
50708,29773
51299,29773
" /> 
<polyline style="fill-rule:evenodd;"
points="48779,43001
48779,42824
49011,42824
49011,43001
48779,43001
" /> 
<polyline style="fill-rule:evenodd;"
points="49610,43001
49610,42824
49842,42824
49842,43001
49610,43001
" /> 
<polyline style="fill-rule:evenodd;"
points="51279,26417
50925,26417
50925,25944
51279,25944
51279,26417
" /> 
<polyline style="fill-rule:evenodd;"
points="51279,25551
50925,25551
50925,25078
51279,25078
51279,25551
" /> 
<polyline style="fill-rule:evenodd;"
points="53891,34906
53891,34226
54691,34226
54691,34906
53891,34906
" /> 
</g>
<g style="fill:#000000; fill-opacity:1.0; 
stroke:#000000; stroke-width:680; stroke-opacity:1; 
stroke-linecap:round; stroke-linejoin:round;">
</g>
<g style="fill:#000000; fill-opacity:0.0; 
stroke:#000000; stroke-width:680; stroke-opacity:1; 
stroke-linecap:round; stroke-linejoin:round;">
<path d="M54231 35566
L54351 35566
" />
<path d="M54231 36566
L54351 36566
" />
<path d="M54231 37566
L54351 37566
" />
</g>
<g style="fill:#000000; fill-opacity:0.0; 
stroke:#000000; stroke-width:787; stroke-opacity:1; 
stroke-linecap:round; stroke-linejoin:round;">
<path d="M46298 43131
L45826 43131
" />
<path d="M44488 40905
L44488 41377
" />
<path d="M46298 39151
L45826 39151
" />
<path d="M46298 48545
L45826 48545
" />
<path d="M44488 46319
L44488 46791
" />
<path d="M46298 44565
L45826 44565
" />
</g>
<g style="fill:#000000; fill-opacity:0.0; 
stroke:#000000; stroke-width:0; stroke-opacity:1; 
stroke-linecap:round; stroke-linejoin:round;">
</g>
<g style="fill:#000000; fill-opacity:1.0; 
stroke:#000000; stroke-width:0; stroke-opacity:1; 
stroke-linecap:round; stroke-linejoin:round;">
<polyline style="fill-rule:evenodd;"
points="43313,31451
43313,32131
42513,32131
42513,31451
43313,31451
" /> 
</g>
<g style="fill:#000000; fill-opacity:1.0; 
stroke:#000000; stroke-width:680; stroke-opacity:1; 
stroke-linecap:round; stroke-linejoin:round;">
</g>
<g style="fill:#000000; fill-opacity:0.0; 
stroke:#000000; stroke-width:680; stroke-opacity:1; 
stroke-linecap:round; stroke-linejoin:round;">
<path d="M42973 30791
L42853 30791
" />
<path d="M42973 29791
L42853 29791
" />
</g>
<g style="fill:#000000; fill-opacity:0.0; 
stroke:#000000; stroke-width:0; stroke-opacity:1; 
stroke-linecap:round; stroke-linejoin:round;">
</g>
<g style="fill:#000000; fill-opacity:1.0; 
stroke:#000000; stroke-width:0; stroke-opacity:1; 
stroke-linecap:round; stroke-linejoin:round;">
<polyline style="fill-rule:evenodd;"
points="43313,35880
43313,36560
42513,36560
42513,35880
43313,35880
" /> 
</g>
<g style="fill:#000000; fill-opacity:1.0; 
stroke:#000000; stroke-width:680; stroke-opacity:1; 
stroke-linecap:round; stroke-linejoin:round;">
</g>
<g style="fill:#000000; fill-opacity:0.0; 
stroke:#000000; stroke-width:680; stroke-opacity:1; 
stroke-linecap:round; stroke-linejoin:round;">
<path d="M42973 35220
L42853 35220
" />
<path d="M42973 34220
L42853 34220
" />
</g>
<g style="fill:#000000; fill-opacity:0.0; 
stroke:#000000; stroke-width:0; stroke-opacity:1; 
stroke-linecap:round; stroke-linejoin:round;">
</g>
<g style="fill:#000000; fill-opacity:1.0; 
stroke:#000000; stroke-width:0; stroke-opacity:1; 
stroke-linecap:round; stroke-linejoin:round;">
<polyline style="fill-rule:evenodd;"
points="49980,47519
49468,47519
49468,46929
49980,46929
49980,47519
" /> 
<polyline style="fill-rule:evenodd;"
points="49980,46456
49468,46456
49468,45866
49980,45866
49980,46456
" /> 
<polyline style="fill-rule:evenodd;"
points="48877,39842
49389,39842
49389,40433
48877,40433
48877,39842
" /> 
<polyline style="fill-rule:evenodd;"
points="48877,40905
49389,40905
49389,41496
48877,41496
48877,40905
" /> 
<polyline style="fill-rule:evenodd;"
points="51968,42618
51968,43129
51377,43129
51377,42618
51968,42618
" /> 
<polyline style="fill-rule:evenodd;"
points="50905,42618
50905,43129
50314,43129
50314,42618
50905,42618
" /> 
<polyline style="fill-rule:evenodd;"
points="50885,47519
50374,47519
50374,46929
50885,46929
50885,47519
" /> 
<polyline style="fill-rule:evenodd;"
points="50885,46456
50374,46456
50374,45866
50885,45866
50885,46456
" /> 
<polyline style="fill-rule:evenodd;"
points="53582,41240
53582,40728
54173,40728
54173,41240
53582,41240
" /> 
<polyline style="fill-rule:evenodd;"
points="54645,41240
54645,40728
55236,40728
55236,41240
54645,41240
" /> 
<polyline style="fill-rule:evenodd;"
points="45413,30551
45413,31062
44822,31062
44822,30551
45413,30551
" /> 
<polyline style="fill-rule:evenodd;"
points="44350,30551
44350,31062
43759,31062
43759,30551
44350,30551
" /> 
<polyline style="fill-rule:evenodd;"
points="45413,34980
45413,35492
44822,35492
44822,34980
45413,34980
" /> 
<polyline style="fill-rule:evenodd;"
points="44350,34980
44350,35492
43759,35492
43759,34980
44350,34980
" /> 
<polyline style="fill-rule:evenodd;"
points="49704,26574
49192,26574
49192,25984
49704,25984
49704,26574
" /> 
<polyline style="fill-rule:evenodd;"
points="49704,25511
49192,25511
49192,24921
49704,24921
49704,25511
" /> 
<polyline style="fill-rule:evenodd;"
points="55492,47559
55492,48070
54881,48070
54881,47559
55492,47559
" /> 
<polyline style="fill-rule:evenodd;"
points="52362,47559
52362,48070
51751,48070
51751,47559
52362,47559
" /> 
<polyline style="fill-rule:evenodd;"
points="55492,45787
55492,46299
54881,46299
54881,45787
55492,45787
" /> 
<polyline style="fill-rule:evenodd;"
points="52362,45787
52362,46299
51751,46299
51751,45787
52362,45787
" /> 
<polyline style="fill-rule:evenodd;"
points="43719,28914
43089,28914
43089,28056
43719,28056
43719,28914
" /> 
<polyline style="fill-rule:evenodd;"
points="43721,25290
43091,25290
43091,24432
43721,24432
43721,25290
" /> 
<polyline style="fill-rule:evenodd;"
points="56358,27047
56358,27559
55748,27559
55748,27047
56358,27047
" /> 
<polyline style="fill-rule:evenodd;"
points="53228,27047
53228,27559
52618,27559
52618,27047
53228,27047
" /> 
<polyline style="fill-rule:evenodd;"
points="56358,25275
56358,25787
55748,25787
55748,25275
56358,25275
" /> 
<polyline style="fill-rule:evenodd;"
points="53228,25275
53228,25787
52618,25787
52618,25275
53228,25275
" /> 
</g>
<g style="fill:#000000; fill-opacity:1.0; 
stroke:#000000; stroke-width:629.921; stroke-opacity:1; 
stroke-linecap:round; stroke-linejoin:round;">
</g>
<g style="fill:#000000; fill-opacity:0.0; 
stroke:#000000; stroke-width:629.921; stroke-opacity:1; 
stroke-linecap:round; stroke-linejoin:round;">
<path d="M48031 37185
L48031 36909
" />
<path d="M49031 37185
L49031 36909
" />
<path d="M50031 37185
L50031 36909
" />
<path d="M51031 37185
L51031 36909
" />
<path d="M51031 34185
L51031 33909
" />
<path d="M50031 34185
L50031 33909
" />
<path d="M49031 34185
L49031 33909
" />
<path d="M48031 34185
L48031 33909
" />
</g>
<g style="fill:#000000; fill-opacity:1.0; 
stroke:#000000; stroke-width:0; stroke-opacity:1; 
stroke-linecap:round; stroke-linejoin:round;">
<circle cx="44133.9" cy="33976.4" r="135" /> 
</g>
<g style="fill:#000000; fill-opacity:1.0; 
stroke:#000000; stroke-width:78.7402; stroke-opacity:1; 
stroke-linecap:round; stroke-linejoin:round;">
</g>
<g style="fill:#000000; fill-opacity:1.0; 
stroke:#000000; stroke-width:0; stroke-opacity:1; 
stroke-linecap:round; stroke-linejoin:round;">
<circle cx="47322.8" cy="44566.9" r="135" /> 
</g>
<g style="fill:#000000; fill-opacity:1.0; 
stroke:#000000; stroke-width:78.7402; stroke-opacity:1; 
stroke-linecap:round; stroke-linejoin:round;">
</g>
<g style="fill:#000000; fill-opacity:1.0; 
stroke:#000000; stroke-width:0; stroke-opacity:1; 
stroke-linecap:round; stroke-linejoin:round;">
<circle cx="49015.7" cy="32992.1" r="135" /> 
</g>
<g style="fill:#000000; fill-opacity:1.0; 
stroke:#000000; stroke-width:78.7402; stroke-opacity:1; 
stroke-linecap:round; stroke-linejoin:round;">
</g>
<g style="fill:#000000; fill-opacity:1.0; 
stroke:#000000; stroke-width:0; stroke-opacity:1; 
stroke-linecap:round; stroke-linejoin:round;">
<circle cx="50984.3" cy="29133.9" r="135" /> 
</g>
<g style="fill:#000000; fill-opacity:1.0; 
stroke:#000000; stroke-width:78.7402; stroke-opacity:1; 
stroke-linecap:round; stroke-linejoin:round;">
</g>
<g style="fill:#000000; fill-opacity:1.0; 
stroke:#000000; stroke-width:0; stroke-opacity:1; 
stroke-linecap:round; stroke-linejoin:round;">
<circle cx="47755.9" cy="47244.1" r="135" /> 
</g>
<g style="fill:#000000; fill-opacity:1.0; 
stroke:#000000; stroke-width:78.7402; stroke-opacity:1; 
stroke-linecap:round; stroke-linejoin:round;">
</g>
<g style="fill:#000000; fill-opacity:1.0; 
stroke:#000000; stroke-width:0; stroke-opacity:1; 
stroke-linecap:round; stroke-linejoin:round;">
<circle cx="50787.4" cy="27244.1" r="135" /> 
</g>
<g style="fill:#000000; fill-opacity:1.0; 
stroke:#000000; stroke-width:78.7402; stroke-opacity:1; 
stroke-linecap:round; stroke-linejoin:round;">
</g>
<g style="fill:#000000; fill-opacity:1.0; 
stroke:#000000; stroke-width:0; stroke-opacity:1; 
stroke-linecap:round; stroke-linejoin:round;">
<circle cx="45393.7" cy="46259.8" r="135" /> 
</g>
<g style="fill:#000000; fill-opacity:1.0; 
stroke:#000000; stroke-width:78.7402; stroke-opacity:1; 
stroke-linecap:round; stroke-linejoin:round;">
</g>
<g style="fill:#000000; fill-opacity:1.0; 
stroke:#000000; stroke-width:0; stroke-opacity:1; 
stroke-linecap:round; stroke-linejoin:round;">
<circle cx="50590.6" cy="39409.4" r="135" /> 
</g>
<g style="fill:#000000; fill-opacity:1.0; 
stroke:#000000; stroke-width:78.7402; stroke-opacity:1; 
stroke-linecap:round; stroke-linejoin:round;">
</g>
<g style="fill:#000000; fill-opacity:1.0; 
stroke:#000000; stroke-width:0; stroke-opacity:1; 
stroke-linecap:round; stroke-linejoin:round;">
<circle cx="52047.2" cy="27992.1" r="135" /> 
</g>
<g style="fill:#000000; fill-opacity:1.0; 
stroke:#000000; stroke-width:78.7402; stroke-opacity:1; 
stroke-linecap:round; stroke-linejoin:round;">
</g>
<g style="fill:#000000; fill-opacity:1.0; 
stroke:#000000; stroke-width:0; stroke-opacity:1; 
stroke-linecap:round; stroke-linejoin:round;">
<circle cx="54960.6" cy="39645.7" r="135" /> 
</g>
<g style="fill:#000000; fill-opacity:1.0; 
stroke:#000000; stroke-width:78.7402; stroke-opacity:1; 
stroke-linecap:round; stroke-linejoin:round;">
</g>
<g style="fill:#000000; fill-opacity:1.0; 
stroke:#000000; stroke-width:0; stroke-opacity:1; 
stroke-linecap:round; stroke-linejoin:round;">
<circle cx="45826.8" cy="30236.2" r="135" /> 
</g>
<g style="fill:#000000; fill-opacity:1.0; 
stroke:#000000; stroke-width:78.7402; stroke-opacity:1; 
stroke-linecap:round; stroke-linejoin:round;">
</g>
<g style="fill:#000000; fill-opacity:1.0; 
stroke:#000000; stroke-width:0; stroke-opacity:1; 
stroke-linecap:round; stroke-linejoin:round;">
<circle cx="50354.3" cy="32834.6" r="135" /> 
</g>
<g style="fill:#000000; fill-opacity:1.0; 
stroke:#000000; stroke-width:78.7402; stroke-opacity:1; 
stroke-linecap:round; stroke-linejoin:round;">
</g>
<g style="fill:#000000; fill-opacity:1.0; 
stroke:#000000; stroke-width:0; stroke-opacity:1; 
stroke-linecap:round; stroke-linejoin:round;">
<circle cx="45393.7" cy="41220.5" r="135" /> 
</g>
<g style="fill:#000000; fill-opacity:1.0; 
stroke:#000000; stroke-width:78.7402; stroke-opacity:1; 
stroke-linecap:round; stroke-linejoin:round;">
</g>
<g style="fill:#000000; fill-opacity:1.0; 
stroke:#000000; stroke-width:0; stroke-opacity:1; 
stroke-linecap:round; stroke-linejoin:round;">
<circle cx="47992.1" cy="32874" r="135" /> 
</g>
<g style="fill:#000000; fill-opacity:1.0; 
stroke:#000000; stroke-width:78.7402; stroke-opacity:1; 
stroke-linecap:round; stroke-linejoin:round;">
</g>
<g style="fill:#000000; fill-opacity:1.0; 
stroke:#000000; stroke-width:0; stroke-opacity:1; 
stroke-linecap:round; stroke-linejoin:round;">
<circle cx="49015.7" cy="37952.8" r="135" /> 
</g>
<g style="fill:#000000; fill-opacity:1.0; 
stroke:#000000; stroke-width:78.7402; stroke-opacity:1; 
stroke-linecap:round; stroke-linejoin:round;">
</g>
<g style="fill:#000000; fill-opacity:1.0; 
stroke:#000000; stroke-width:0; stroke-opacity:1; 
stroke-linecap:round; stroke-linejoin:round;">
<circle cx="50039.4" cy="37952.8" r="135" /> 
</g>
<g style="fill:#000000; fill-opacity:1.0; 
stroke:#000000; stroke-width:78.7402; stroke-opacity:1; 
stroke-linecap:round; stroke-linejoin:round;">
</g>
<g style="fill:#000000; fill-opacity:1.0; 
stroke:#000000; stroke-width:0; stroke-opacity:1; 
stroke-linecap:round; stroke-linejoin:round;">
<circle cx="51338.6" cy="47086.6" r="135" /> 
</g>
<g style="fill:#000000; fill-opacity:1.0; 
stroke:#000000; stroke-width:78.7402; stroke-opacity:1; 
stroke-linecap:round; stroke-linejoin:round;">
</g>
<g style="fill:#000000; fill-opacity:1.0; 
stroke:#000000; stroke-width:0; stroke-opacity:1; 
stroke-linecap:round; stroke-linejoin:round;">
<circle cx="46968.5" cy="32086.6" r="135" /> 
</g>
<g style="fill:#000000; fill-opacity:1.0; 
stroke:#000000; stroke-width:78.7402; stroke-opacity:1; 
stroke-linecap:round; stroke-linejoin:round;">
</g>
<g style="fill:#000000; fill-opacity:1.0; 
stroke:#000000; stroke-width:0; stroke-opacity:1; 
stroke-linecap:round; stroke-linejoin:round;">
<circle cx="52126" cy="33070.9" r="135" /> 
</g>
<g style="fill:#000000; fill-opacity:1.0; 
stroke:#000000; stroke-width:78.7402; stroke-opacity:1; 
stroke-linecap:round; stroke-linejoin:round;">
</g>
<g style="fill:#000000; fill-opacity:1.0; 
stroke:#000000; stroke-width:314.961; stroke-opacity:1; 
stroke-linecap:round; stroke-linejoin:round;">
</g>
<g style="fill:#000000; fill-opacity:0.0; 
stroke:#000000; stroke-width:314.961; stroke-opacity:1; 
stroke-linecap:round; stroke-linejoin:round;">
<path d="M43406 24861
L46613 24861
" />
</g>
<g style="fill:#000000; fill-opacity:0.0; 
stroke:#000000; stroke-width:393.701; stroke-opacity:1; 
stroke-linecap:round; stroke-linejoin:round;">
<path d="M46613 24861
L46948 25196
" />
</g>
<g style="fill:#000000; fill-opacity:0.0; 
stroke:#000000; stroke-width:314.961; stroke-opacity:1; 
stroke-linecap:round; stroke-linejoin:round;">
<path d="M42913 32755
L42913 31791
" />
<path d="M44133 33976
L42913 32755
" />
<path d="M53996 43582
L52795 43582
" />
<path d="M51811 44566
L47322 44566
" />
<path d="M52795 43582
L51811 44566
" />
<path d="M51003 31791
L50216 31791
" />
<path d="M50216 31791
L49015 32992
" />
<path d="M51003 31791
L51003 30905
" />
<path d="M51003 30905
L51003 30019
" />
<path d="M51003 30019
L50984 30000
" />
<path d="M50984 30000
L50984 29133
" />
<path d="M49724 47224
L49724 48031
" />
<path d="M51525 48346
L52057 47814
" />
<path d="M50039 48346
L51525 48346
" />
<path d="M49724 48031
L50039 48346
" />
<path d="M55187 47814
L52057 47814
" />
<path d="M52923 25531
L56053 25531
" />
<path d="M51102 26181
L52273 26181
" />
<path d="M52273 26181
L52923 25531
" />
<path d="M48779 47224
L47775 47224
" />
<path d="M47775 47224
L47755 47244
" />
<path d="M49724 47224
L48779 47224
" />
<path d="M51102 26181
L51102 26929
" />
<path d="M51102 26929
L50787 27244
" />
<path d="M48779 46240
L45413 46240
" />
<path d="M45413 46240
L45393 46259
" />
</g>
<g style="fill:#000000; fill-opacity:0.0; 
stroke:#000000; stroke-width:236.22; stroke-opacity:1; 
stroke-linecap:round; stroke-linejoin:round;">
<path d="M50629 46161
L49724 46161
" />
</g>
<g style="fill:#000000; fill-opacity:0.0; 
stroke:#000000; stroke-width:314.961; stroke-opacity:1; 
stroke-linecap:round; stroke-linejoin:round;">
<path d="M49724 46161
L48858 46161
" />
</g>
<g style="fill:#000000; fill-opacity:0.0; 
stroke:#000000; stroke-width:236.22; stroke-opacity:1; 
stroke-linecap:round; stroke-linejoin:round;">
<path d="M48858 46161
L48779 46240
" />
</g>
<g style="fill:#000000; fill-opacity:0.0; 
stroke:#000000; stroke-width:314.961; stroke-opacity:1; 
stroke-linecap:round; stroke-linejoin:round;">
<path d="M53877 40984
L52165 40984
" />
<path d="M52165 40984
L50590 39409
" />
<path d="M54980 43582
L54980 43090
" />
<path d="M53877 41988
L53877 40984
" />
<path d="M54980 43090
L53877 41988
" />
<path d="M55187 46043
L55187 43789
" />
<path d="M55187 43789
L54980 43582
" />
<path d="M52057 46043
L55187 46043
" />
<path d="M51633 28326
L51712 28326
" />
<path d="M51712 28326
L52047 27992
" />
<path d="M54940 39665
L54940 40984
" />
<path d="M54960 39645
L54940 39665
" />
<path d="M49448 27952
L51259 27952
" />
<path d="M51988 28681
L51988 30019
" />
<path d="M51259 27952
L51633 28326
" />
<path d="M51633 28326
L51988 28681
" />
<path d="M45826 28485
L45826 30236
" />
<path d="M51988 31791
L51988 32106
" />
<path d="M51259 32834
L50354 32834
" />
<path d="M51988 32106
L51259 32834
" />
<path d="M51988 30905
L51988 31791
" />
<path d="M51988 30019
L51988 30905
" />
<path d="M43404 28485
L43404 29300
" />
<path d="M43404 29300
L42913 29791
" />
<path d="M49448 26279
L49448 27952
" />
<path d="M49448 27952
L49448 28267
" />
<path d="M49231 28485
L45826 28485
" />
<path d="M45826 28485
L43404 28485
" />
<path d="M49448 28267
L49231 28485
" />
</g>
<g style="fill:#000000; fill-opacity:0.0; 
stroke:#000000; stroke-width:157.48; stroke-opacity:1; 
stroke-linecap:round; stroke-linejoin:round;">
<path d="M48895 42913
L48661 42913
" />
<path d="M48543 42795
L48543 41200
" />
<path d="M48661 42913
L48543 42795
" />
</g>
<g style="fill:#000000; fill-opacity:0.0; 
stroke:#000000; stroke-width:314.961; stroke-opacity:1; 
stroke-linecap:round; stroke-linejoin:round;">
<path d="M49133 41200
L48543 41200
" />
<path d="M48543 41200
L45413 41200
" />
<path d="M45413 41200
L45393 41220
" />
</g>
<g style="fill:#000000; fill-opacity:0.0; 
stroke:#000000; stroke-width:157.48; stroke-opacity:1; 
stroke-linecap:round; stroke-linejoin:round;">
<path d="M49726 42913
L50570 42913
" />
</g>
<g style="fill:#000000; fill-opacity:0.0; 
stroke:#000000; stroke-width:196.85; stroke-opacity:1; 
stroke-linecap:round; stroke-linejoin:round;">
<path d="M50570 42913
L50610 42874
" />
</g>
<g style="fill:#000000; fill-opacity:0.0; 
stroke:#000000; stroke-width:314.961; stroke-opacity:1; 
stroke-linecap:round; stroke-linejoin:round;">
<path d="M49448 25216
L51003 25216
" />
</g>
<g style="fill:#000000; fill-opacity:0.0; 
stroke:#000000; stroke-width:236.22; stroke-opacity:1; 
stroke-linecap:round; stroke-linejoin:round;">
<path d="M51003 25216
L51102 25314
" />
</g>
<g style="fill:#000000; fill-opacity:0.0; 
stroke:#000000; stroke-width:314.961; stroke-opacity:1; 
stroke-linecap:round; stroke-linejoin:round;">
<path d="M45118 30807
L46909 30807
" />
<path d="M47992 31889
L47992 32874
" />
<path d="M46909 30807
L47992 31889
" />
<path d="M49133 40137
L49133 38070
" />
<path d="M49133 38070
L49015 37952
" />
<path d="M42913 30791
L44039 30791
" />
</g>
<g style="fill:#000000; fill-opacity:0.0; 
stroke:#000000; stroke-width:236.22; stroke-opacity:1; 
stroke-linecap:round; stroke-linejoin:round;">
<path d="M44039 30791
L44055 30807
" />
</g>
<g style="fill:#000000; fill-opacity:0.0; 
stroke:#000000; stroke-width:314.961; stroke-opacity:1; 
stroke-linecap:round; stroke-linejoin:round;">
<path d="M42913 35220
L44039 35220
" />
</g>
<g style="fill:#000000; fill-opacity:0.0; 
stroke:#000000; stroke-width:236.22; stroke-opacity:1; 
stroke-linecap:round; stroke-linejoin:round;">
<path d="M44039 35220
L44055 35236
" />
</g>
<g style="fill:#000000; fill-opacity:0.0; 
stroke:#000000; stroke-width:314.961; stroke-opacity:1; 
stroke-linecap:round; stroke-linejoin:round;">
<path d="M51673 42874
L51673 42539
" />
<path d="M50039 40905
L50039 37952
" />
<path d="M51673 42539
L50039 40905
" />
<path d="M50629 47224
L51200 47224
" />
<path d="M51200 47224
L51338 47086
" />
<path d="M50629 47224
L50728 47224
" />
<path d="M45118 35236
L45118 33937
" />
<path d="M45118 33937
L46968 32086
" />
<path d="M52923 27303
L52923 32273
" />
<path d="M52923 32273
L52125 33070
" />
<path d="M52923 27303
L56053 27303
" />
</g>
<g style="fill:#000000; fill-opacity:1.0; 
stroke:#000000; stroke-width:100; stroke-opacity:1; 
stroke-linecap:round; stroke-linejoin:round;">
<polyline style="fill-rule:evenodd;"
points="55565,27736
55648,27793
55748,27813
56358,27813
56423,27801
56423,49139
46522,49139
46590,49120
46788,48964
46911,48745
46924,48694
46877,48595
46112,48595
46112,48602
46012,48602
46012,48595
45247,48595
45200,48694
45212,48745
45335,48964
45533,49120
45602,49139
42671,49139
42671,48395
45200,48395
45247,48495
46012,48495
46012,47901
46112,47901
46112,48495
46877,48495
46924,48395
46911,48345
46788,48125
46590,47969
46440,47927
51501,47927
51501,48120
51540,48212
51610,48282
51702,48320
51944,48320
52007,48258
52007,47864
52107,47864
52107,48258
52169,48320
52411,48320
52503,48282
52574,48212
52612,48120
52612,47927
54631,47927
54631,48120
54669,48212
54740,48282
54832,48320
55074,48320
55137,48258
55137,47864
55237,47864
55237,48258
55299,48320
55541,48320
55633,48282
55704,48212
55742,48120
55742,47927
55679,47864
55237,47864
55137,47864
54694,47864
54631,47927
52612,47927
52549,47864
52107,47864
52007,47864
51564,47864
51501,47927
46440,47927
46348,47901
46112,47901
46012,47901
45776,47901
45533,47969
45335,48125
45212,48345
45200,48395
42671,48395
42671,46301
43844,46301
43844,46808
43893,47054
44033,47263
44241,47402
44488,47451
44734,47402
44833,47336
48283,47336
48283,47569
48321,47661
48391,47731
48483,47769
48667,47769
48729,47707
48729,47274
48829,47274
48829,47707
48892,47769
49075,47769
49167,47731
49237,47661
49247,47638
49256,47661
49326,47731
49418,47769
49611,47769
49674,47707
49674,47274
49281,47274
49247,47308
49213,47274
48829,47274
48729,47274
48345,47274
48283,47336
44833,47336
44943,47263
45082,47054
45131,46808
45131,46565
45237,46636
45393,46667
45492,46647
48308,46647
48350,46713
48377,46731
48321,46787
48283,46879
48283,47111
48345,47174
48729,47174
48729,47166
48829,47166
48829,47174
49213,47174
49247,47140
49281,47174
49674,47174
49674,47166
49774,47166
49774,47174
49782,47174
49782,47274
49774,47274
49774,47707
49836,47769
50030,47769
50121,47731
50177,47676
50191,47697
50274,47754
50374,47774
50885,47774
50978,47757
51063,47702
51111,47631
51200,47631
51200,47631
51356,47600
51488,47512
51508,47492
51501,47509
51501,47702
51564,47764
52007,47764
52007,47371
52107,47371
52107,47764
52549,47764
52612,47702
52612,47509
54631,47509
54631,47702
54694,47764
55137,47764
55137,47371
55237,47371
55237,47764
55679,47764
55742,47702
55742,47509
55704,47417
55633,47347
55541,47309
55299,47309
55237,47371
55137,47371
55074,47309
54832,47309
54740,47347
54669,47417
54631,47509
52612,47509
52574,47417
52503,47347
52411,47309
52169,47309
52107,47371
52007,47371
51944,47309
51702,47309
51658,47327
51715,47242
51746,47086
51715,46930
51626,46798
51494,46710
51338,46679
51182,46710
51084,46775
51068,46751
50984,46694
50979,46693
51063,46639
51120,46555
51140,46456
51140,45866
51123,45773
51068,45688
50984,45631
50885,45611
50374,45611
50281,45628
50196,45683
50177,45710
50163,45688
50079,45631
49980,45611
49468,45611
49375,45628
49290,45683
49242,45753
49188,45753
49124,45710
49025,45689
48533,45689
48440,45707
48355,45762
48307,45832
45413,45832
45413,45832
45257,45863
45125,45952
45125,45952
45105,45971
45066,46030
44943,45846
44734,45707
44488,45658
44241,45707
44033,45846
43893,46055
43844,46301
42671,46301
42671,44714
45200,44714
45212,44765
45335,44984
45533,45140
45776,45208
46012,45208
46012,44615
46112,44615
46112,45208
46348,45208
46590,45140
46788,44984
46911,44765
46924,44714
46877,44615
46112,44615
46012,44615
45247,44615
45200,44714
42671,44714
42671,44415
45200,44415
45247,44515
46012,44515
46012,43921
46112,43921
46112,44515
46877,44515
46924,44415
46911,44365
46788,44145
46590,43989
46348,43921
46112,43921
46012,43921
45776,43921
45533,43989
45335,44145
45212,44365
45200,44415
42671,44415
42671,43281
45200,43281
45212,43331
45335,43551
45533,43707
45776,43775
46012,43775
46012,43181
46112,43181
46112,43775
46348,43775
46590,43707
46605,43695
53450,43695
53450,43878
53488,43970
53559,44040
53651,44078
53883,44078
53946,44016
53946,43632
53513,43632
53450,43695
46605,43695
46788,43551
46911,43331
46924,43281
46877,43181
46112,43181
46012,43181
45247,43181
45200,43281
42671,43281
42671,42981
45200,42981
45247,43081
46012,43081
46012,42488
46112,42488
46112,43081
46877,43081
46924,42981
46911,42931
46788,42712
46590,42556
46348,42488
46112,42488
46012,42488
45776,42488
45533,42556
45335,42712
45212,42931
45200,42981
42671,42981
42671,40888
43844,40888
43844,41394
43893,41641
44033,41849
44241,41989
44488,42038
44734,41989
44943,41849
45082,41641
45108,41510
45237,41596
45393,41627
45492,41608
48214,41608
48214,42795
48239,42921
48297,43007
48310,43027
48428,43145
48535,43217
48661,43242
48706,43242
48779,43256
49011,43256
49104,43239
49189,43184
49246,43101
49266,43001
49266,42824
49249,42732
49194,42647
49110,42589
49011,42569
48872,42569
48872,41749
48877,41750
49389,41750
49482,41733
49567,41678
49624,41595
49644,41496
49644,40969
49662,41061
49751,41193
50924,42367
50905,42363
50314,42363
50222,42380
50137,42435
50080,42518
50066,42584
49915,42584
49842,42569
49610,42569
49517,42587
49432,42642
49375,42725
49355,42824
49355,43001
49372,43094
49427,43179
49511,43236
49610,43256
49842,43256
49920,43242
50090,43242
50132,43307
50215,43364
50314,43384
50905,43384
50998,43367
51083,43312
51140,43229
51141,43223
51195,43307
51278,43364
51377,43384
51968,43384
52061,43367
52146,43312
52163,43286
53450,43286
53450,43470
53513,43532
53946,43532
53946,43149
53883,43086
53651,43086
53559,43124
53488,43195
53450,43286
52163,43286
52203,43229
52223,43129
52223,42618
52205,42525
52151,42440
52067,42383
52046,42379
52014,42330
51961,42251
51961,42251
50446,40736
50446,39842
51877,41272
51877,41272
51937,41312
52009,41360
52165,41391
52165,41391
53383,41391
53399,41417
53470,41466
53470,41988
53470,41988
53501,42144
53589,42276
54491,43177
54488,43180
54432,43124
54341,43086
54108,43086
54046,43149
54046,43532
54053,43532
54053,43632
54046,43632
54046,44016
54108,44078
54341,44078
54432,44040
54488,43985
54502,44006
54585,44063
54685,44083
54779,44083
54779,45556
54704,45604
54682,45635
52561,45635
52544,45609
52461,45552
52362,45532
51751,45532
51659,45549
51574,45604
51517,45688
51497,45787
51497,46299
51514,46391
51569,46476
51652,46534
51751,46554
52362,46554
52454,46536
52539,46481
52561,46450
54682,46450
54699,46476
54782,46534
54881,46554
55492,46554
55584,46536
55669,46481
55726,46398
55747,46299
55747,45787
55729,45694
55674,45609
55594,45554
55594,43789
55594,43789
55563,43633
55530,43584
55530,43336
55513,43243
55458,43158
55387,43110
55387,43090
55387,43090
55356,42934
55268,42802
54285,41819
54285,41465
54350,41422
54408,41339
54409,41334
54462,41417
54546,41474
54645,41495
55236,41495
55328,41477
55413,41422
55471,41339
55491,41240
55491,40728
55473,40635
55418,40550
55348,40502
55348,39744
55368,39645
55337,39489
55248,39357
55116,39269
54960,39238
54804,39269
54672,39357
54652,39377
54564,39509
54533,39665
54533,39665
54533,40503
54467,40545
54410,40629
54409,40634
54355,40550
54272,40493
54173,40473
53582,40473
53490,40490
53404,40545
53383,40576
52334,40576
50878,39121
50746,39032
50590,39001
50446,39030
50446,37952
50415,37796
50328,37666
50430,37598
50531,37447
50632,37598
50815,37720
51031,37763
51247,37720
51430,37598
51553,37415
51596,37198
51596,36895
51553,36679
51430,36496
51247,36373
51031,36330
50815,36373
50632,36496
50531,36646
50430,36496
50247,36373
50031,36330
49815,36373
49632,36496
49531,36646
49430,36496
49247,36373
49031,36330
48815,36373
48632,36496
48531,36646
48430,36496
48247,36373
48031,36330
47815,36373
47632,36496
47509,36679
47466,36895
47466,37198
47509,37415
47632,37598
47815,37720
48031,37763
48247,37720
48430,37598
48531,37447
48632,37598
48729,37663
48727,37664
48639,37796
48608,37952
48639,38108
48726,38239
48726,39642
48700,39659
48643,39743
48623,39842
48623,40433
48640,40525
48695,40610
48778,40667
48783,40668
48700,40722
48652,40793
45413,40793
45413,40793
45257,40824
45131,40908
45131,40888
45082,40642
44943,40433
44734,40293
44488,40245
44241,40293
44033,40433
43893,40642
43844,40888
42671,40888
42671,39301
45200,39301
45212,39351
45335,39571
45533,39727
45776,39795
46012,39795
46012,39201
46112,39201
46112,39795
46348,39795
46590,39727
46788,39571
46911,39351
46924,39301
46877,39201
46112,39201
46012,39201
45247,39201
45200,39301
42671,39301
42671,39001
45200,39001
45247,39101
46012,39101
46012,38508
46112,38508
46112,39101
46877,39101
46924,39001
46911,38951
46788,38732
46590,38576
46348,38508
46112,38508
46012,38508
45776,38508
45533,38576
45335,38732
45212,38951
45200,39001
42671,39001
42671,36810
42800,36810
42863,36747
42863,36270
42963,36270
42963,36747
43025,36810
43363,36810
43454,36772
43525,36702
43563,36610
43563,36332
43500,36270
42963,36270
42863,36270
42855,36270
42855,36170
42863,36170
42863,36162
42963,36162
42963,36170
43500,36170
43563,36107
43563,35830
43525,35738
43454,35668
43394,35643
43403,35637
43409,35627
43550,35627
43577,35669
43660,35726
43759,35747
44350,35747
44443,35729
44528,35674
44585,35591
44586,35586
44640,35669
44723,35726
44822,35747
45413,35747
45506,35729
45591,35674
45648,35591
45653,35566
53628,35566
53673,35792
53801,35984
53925,36066
53801,36149
53673,36341
53628,36566
53673,36792
53801,36984
53925,37066
53801,37149
53673,37341
53628,37566
53673,37792
53801,37984
53992,38112
54218,38156
54364,38156
54589,38112
54781,37984
54909,37792
54954,37566
54909,37341
54781,37149
54657,37066
54781,36984
54909,36792
54954,36566
54909,36341
54781,36149
54657,36066
54781,35984
54909,35792
54954,35566
54909,35341
54781,35149
54772,35143
54832,35118
54903,35048
54941,34956
54941,34679
54878,34616
54341,34616
54341,34624
54241,34624
54241,34616
53703,34616
53641,34679
53641,34956
53679,35048
53749,35118
53810,35143
53801,35149
53673,35341
53628,35566
45653,35566
45668,35492
45668,34980
45650,34887
45596,34802
45525,34754
45525,34105
45735,33895
47466,33895
47466,34198
47509,34415
47632,34598
47815,34720
48031,34763
48247,34720
48430,34598
48530,34449
48667,34619
48861,34726
48894,34733
48981,34685
48981,34097
48973,34097
48973,33997
48981,33997
48981,33409
49081,33409
49081,33997
49089,33997
49089,34097
49081,34097
49081,34685
49168,34733
49201,34726
49395,34619
49532,34449
49632,34598
49815,34720
50031,34763
50247,34720
50430,34598
50531,34447
50632,34598
50815,34720
51031,34763
51247,34720
51430,34598
51553,34415
51596,34198
51596,34177
53641,34177
53641,34454
53703,34516
54241,34516
54241,34039
54341,34039
54341,34516
54878,34516
54941,34454
54941,34177
54903,34085
54832,34014
54741,33976
54403,33976
54341,34039
54241,34039
54178,33976
53841,33976
53749,34014
53679,34085
53641,34177
51596,34177
51596,33895
51553,33679
51430,33496
51247,33373
51031,33330
50815,33373
50632,33496
50531,33646
50430,33496
50247,33373
50031,33330
49815,33373
49632,33496
49532,33644
49395,33474
49201,33368
49168,33361
49081,33409
48981,33409
48894,33361
48861,33368
48667,33474
48530,33644
48430,33496
48247,33373
48031,33330
47815,33373
47632,33496
47509,33679
47466,33895
45735,33895
47256,32374
47344,32242
47375,32086
47344,31930
47256,31798
47124,31710
46968,31679
46812,31710
46680,31798
44829,33648
44741,33781
44710,33937
44710,33937
44710,34755
44645,34797
44588,34881
44586,34886
44533,34802
44449,34745
44350,34725
43759,34725
43667,34742
43582,34797
43571,34812
43409,34812
43403,34803
43279,34720
43403,34637
43531,34446
43576,34220
43531,33994
43403,33803
43211,33675
42986,33630
42840,33630
42671,33664
42671,32381
42800,32381
42863,32318
42863,31841
42963,31841
42963,32318
43025,32381
43363,32381
43454,32343
43525,32272
43563,32181
43563,31903
43500,31841
42963,31841
42863,31841
42855,31841
42855,31741
42863,31741
42863,31733
42963,31733
42963,31741
43500,31741
43563,31678
43563,31401
43525,31309
43454,31239
43394,31214
43403,31208
43409,31198
43550,31198
43577,31240
43660,31297
43759,31317
44350,31317
44443,31300
44528,31245
44585,31162
44586,31157
44640,31240
44723,31297
44822,31317
45413,31317
45506,31300
45591,31245
45612,31214
46740,31214
47584,32058
47584,32874
47615,33029
47703,33162
47836,33250
47992,33281
48148,33250
48280,33162
48368,33029
48399,32874
48399,31903
50458,31903
50458,32087
50496,32179
50567,32249
50658,32287
50891,32287
50953,32224
50953,31841
50521,31841
50458,31903
48399,31903
48399,31889
48368,31733
48368,31733
48333,31680
48280,31601
48280,31601
47696,31018
50458,31018
50458,31201
50496,31293
50551,31348
50496,31403
50458,31495
50458,31678
50521,31741
50953,31741
50953,31357
50944,31348
50953,31339
50953,30955
50521,30955
50458,31018
47696,31018
47197,30518
47065,30430
46909,30399
46909,30399
46198,30399
46203,30392
46234,30236
46234,30132
50458,30132
50458,30315
50496,30407
50551,30462
50496,30517
50458,30609
50458,30793
50521,30855
50953,30855
50953,30471
50944,30462
50953,30453
50953,30069
50521,30069
50458,30132
46234,30132
46234,29723
50458,29723
50458,29907
50521,29969
50953,29969
50953,29586
50891,29523
50658,29523
50567,29561
50496,29632
50458,29723
46234,29723
46234,28892
49231,28892
49231,28892
49387,28861
49519,28773
49736,28555
49825,28423
49837,28360
51091,28360
51345,28614
51345,28614
51580,28849
51580,29548
51515,29590
51496,29617
51440,29561
51348,29523
51116,29523
51053,29586
51053,29969
51061,29969
51061,30069
51053,30069
51053,30453
51063,30462
51053,30471
51053,30855
51061,30855
51061,30955
51053,30955
51053,31339
51063,31348
51053,31357
51053,31741
51061,31741
51061,31841
51053,31841
51053,32224
51116,32287
51230,32287
51091,32427
50354,32427
50198,32458
50066,32546
49977,32678
49946,32834
49977,32990
50066,33122
50198,33211
50354,33242
51259,33242
51259,33242
51415,33211
51547,33122
51747,32922
51718,33070
51749,33226
51837,33358
51970,33447
52125,33478
52281,33447
52414,33358
53211,32561
53211,32561
53271,32471
53299,32429
53330,32273
53330,27790
53406,27741
53427,27710
55548,27710
55565,27736
" /> 
<polyline style="fill-rule:evenodd;"
points="42836,25290
42853,25383
42908,25468
42992,25525
43091,25545
43721,25545
43814,25527
43899,25473
43956,25389
43976,25290
43976,25268
46123,25268
46123,25767
46140,25860
46195,25945
46278,26002
46377,26022
46565,26022
46498,26050
46437,26174
46948,26685
47459,26174
47399,26050
47327,26022
47519,26022
47612,26005
47697,25950
47754,25866
47774,25767
47774,24625
47757,24533
47724,24482
56423,24482
56423,25031
56407,25025
56165,25025
56103,25088
56103,25481
56111,25481
56111,25581
56103,25581
56103,25974
56165,26037
56407,26037
56423,26031
56423,26805
56358,26792
55748,26792
55655,26809
55570,26864
55549,26895
53427,26895
53411,26869
53327,26812
53228,26792
52618,26792
52525,26809
52440,26864
52383,26948
52363,27047
52363,27559
52380,27651
52435,27736
52515,27791
52515,29672
52466,29595
52395,29547
52395,28681
52395,28681
52364,28525
52329,28472
52276,28392
52276,28392
52249,28366
52335,28280
52423,28148
52454,27992
52423,27836
52335,27703
52203,27615
52047,27584
51891,27615
51759,27703
51673,27789
51547,27664
51415,27576
51259,27545
51259,27545
49856,27545
49856,26774
49882,26757
49939,26673
49959,26574
49959,26293
50675,26293
50675,26467
50713,26558
50783,26629
50875,26667
50989,26667
51052,26604
51052,26231
51152,26231
51152,26604
51214,26667
51329,26667
51421,26629
51491,26558
51529,26467
51529,26293
51467,26231
51152,26231
51052,26231
50737,26231
50675,26293
49959,26293
49959,25984
49942,25891
49887,25806
49803,25749
49798,25748
49882,25694
49930,25624
50684,25624
50687,25643
50742,25728
50769,25747
50713,25803
50675,25895
50675,26068
50737,26131
51052,26131
51052,26123
51152,26123
51152,26131
51467,26131
51529,26068
51529,25895
51491,25803
51435,25747
51457,25733
51514,25650
51515,25643
52368,25643
52368,25837
52406,25929
52476,25999
52568,26037
52810,26037
52873,25974
52873,25581
52973,25581
52973,25974
53035,26037
53278,26037
53369,25999
53440,25929
53478,25837
53478,25643
55498,25643
55498,25837
55536,25929
55606,25999
55698,26037
55940,26037
56003,25974
56003,25581
55560,25581
55498,25643
53478,25643
53415,25581
52973,25581
52873,25581
52430,25581
52368,25643
51515,25643
51534,25551
51534,25225
52368,25225
52368,25418
52430,25481
52873,25481
52873,25088
52973,25088
52973,25481
53415,25481
53478,25418
53478,25225
55498,25225
55498,25418
55560,25481
56003,25481
56003,25088
55940,25025
55698,25025
55606,25063
55536,25133
55498,25225
53478,25225
53440,25133
53369,25063
53278,25025
53035,25025
52973,25088
52873,25088
52810,25025
52568,25025
52476,25063
52406,25133
52368,25225
51534,25225
51534,25078
51516,24986
51462,24901
51378,24843
51279,24823
51078,24823
51003,24809
49929,24809
49887,24743
49803,24686
49704,24666
49192,24666
49100,24683
49015,24738
48958,24822
48938,24921
48938,25511
48955,25604
49010,25689
49093,25746
49098,25747
49015,25801
48958,25885
48938,25984
48938,26574
48955,26667
49010,26752
49041,26773
49041,28077
43974,28077
43974,28056
43957,27963
43902,27878
43818,27821
43719,27801
43089,27801
42996,27818
42911,27873
42854,27956
42834,28056
42834,28914
42852,29006
42906,29092
42983,29144
42927,29201
42840,29201
42671,29235
42671,27337
46437,27337
46498,27461
46802,27579
47128,27573
47399,27461
47459,27337
46948,26826
46437,27337
42671,27337
42671,26609
46124,26609
46131,26935
46243,27206
46366,27267
46878,26755
47019,26755
47530,27267
47654,27206
47772,26902
47766,26575
47654,26305
47530,26244
47019,26755
46878,26755
46366,26244
46243,26305
46124,26609
42671,26609
42671,24482
42836,24482
42836,25290
" /> 
</g> 
</svg>
