<?xml version="1.0" encoding="UTF-8" standalone="no"?>
<svg
   xmlns:dc="http://purl.org/dc/elements/1.1/"
   xmlns:cc="http://creativecommons.org/ns#"
   xmlns:rdf="http://www.w3.org/1999/02/22-rdf-syntax-ns#"
   xmlns:svg="http://www.w3.org/2000/svg"
   xmlns="http://www.w3.org/2000/svg"
   xmlns:sodipodi="http://sodipodi.sourceforge.net/DTD/sodipodi-0.dtd"
   xmlns:inkscape="http://www.inkscape.org/namespaces/inkscape"
   height="64.1mm"
   version="1.1"
   viewBox="-0.05 -64.15 36.4 64.1"
   width="36.4mm"
   id="svg4136"
   inkscape:version="0.91 r13725"
   sodipodi:docname="LPC810.Pong2-F.Paste.svg">
  <metadata
     id="metadata4228">
    <rdf:RDF>
      <cc:Work
         rdf:about="">
        <dc:format>image/svg+xml</dc:format>
        <dc:type
           rdf:resource="http://purl.org/dc/dcmitype/StillImage" />
      </cc:Work>
    </rdf:RDF>
  </metadata>
  <defs
     id="defs4226" />
  <sodipodi:namedview
     pagecolor="#ffffff"
     bordercolor="#666666"
     borderopacity="1"
     objecttolerance="10"
     gridtolerance="10"
     guidetolerance="10"
     inkscape:pageopacity="0"
     inkscape:pageshadow="2"
     inkscape:window-width="1113"
     inkscape:window-height="626"
     id="namedview4224"
     showgrid="false"
     inkscape:zoom="16.687181"
     inkscape:cx="125.37303"
     inkscape:cy="220.97701"
     inkscape:window-x="310"
     inkscape:window-y="123"
     inkscape:window-maximized="0"
     inkscape:current-layer="svg4136" />
  <path
     d="m 16.45,-22.8 0,0 0,0 0,-1.5 0,0 0,0 1.3,0 0,0 0,0 0,1.5 0,0 0,0 -1.3,0 z"
     id="path4142"
     inkscape:connector-curvature="0"
     style="opacity:0.6;fill:#66cc99;fill-rule:evenodd;stroke:#555555;stroke-width:0.1" />
  <path
     d="m 16.45,-20.1 0,0 0,0 0,-1.5 0,0 0,0 1.3,0 0,0 0,0 0,1.5 0,0 0,0 -1.3,0 z"
     id="path4144"
     inkscape:connector-curvature="0"
     style="opacity:0.6;fill:#66cc99;fill-rule:evenodd;stroke:#555555;stroke-width:0.1" />
  <path
     d="m 31.1,-20.75 0,0 0,0 0,-1.3 0,0 0,0 1.5,0 0,0 0,0 0,1.3 0,0 0,0 -1.5,0 z"
     id="path4146"
     inkscape:connector-curvature="0"
     style="opacity:0.6;fill:#66cc99;fill-rule:evenodd;stroke:#555555;stroke-width:0.1" />
  <path
     d="m 28.4,-20.75 0,0 0,0 0,-1.3 0,0 0,0 1.5,0 0,0 0,0 0,1.3 0,0 0,0 -1.5,0 z"
     id="path4148"
     inkscape:connector-curvature="0"
     style="opacity:0.6;fill:#66cc99;fill-rule:evenodd;stroke:#555555;stroke-width:0.1" />
  <path
     d="m 31.7,-3.4 0,0 0,0 0,-1.3 0,0 0,0 1.55,0 0,0 0,0 0,1.3 0,0 0,0 -1.55,0 z"
     id="path4150"
     inkscape:connector-curvature="0"
     style="opacity:0.6;fill:#66cc99;fill-rule:evenodd;stroke:#555555;stroke-width:0.1" />
  <path
     d="m 23.75,-3.4 0,0 0,0 0,-1.3 0,0 0,0 1.55,0 0,0 0,0 0,1.3 0,0 0,0 -1.55,0 z"
     id="path4152"
     inkscape:connector-curvature="0"
     style="opacity:0.6;fill:#66cc99;fill-rule:evenodd;stroke:#555555;stroke-width:0.1" />
  <path
     d="m 15.575,-4.8 0,0 0,0 0,-1.5 0,0 0,0 1.25,0 0,0 0,0 0,1.5 0,0 0,0 -1.25,0 z"
     id="path4154"
     inkscape:connector-curvature="0"
     style="opacity:0.6;fill:#66cc99;fill-rule:evenodd;stroke:#555555;stroke-width:0.1" />
  <path
     d="m 17.95,-4.8 0,0 0,0 0,-1.5 0,0 0,0 1.3,0 0,0 0,0 0,1.5 0,0 0,0 -1.3,0 z"
     id="path4156"
     inkscape:connector-curvature="0"
     style="opacity:0.6;fill:#66cc99;fill-rule:evenodd;stroke:#555555;stroke-width:0.1" />
  <path
     d="m 20.25,-4.8 0,0 0,0 0,-1.5 0,0 0,0 1.3,0 0,0 0,0 0,1.5 0,0 0,0 -1.3,0 z"
     id="path4158"
     inkscape:connector-curvature="0"
     style="opacity:0.6;fill:#66cc99;fill-rule:evenodd;stroke:#555555;stroke-width:0.1" />
  <path
     d="m 31.2,-14.175 0,0 0,0 0,-1.25 0,0 0,0 1.5,0 0,0 0,0 0,1.25 0,0 0,0 -1.5,0 z"
     id="path4160"
     inkscape:connector-curvature="0"
     style="opacity:0.6;fill:#66cc99;fill-rule:evenodd;stroke:#555555;stroke-width:0.1" />
  <path
     d="m 16.2,-16.275 0,0 0,0 0,-0.45 0,0 0,0 0.59,0 0,0 0,0 0,0.45 0,0 0,0 -0.59,0 z"
     id="path4162"
     inkscape:connector-curvature="0"
     style="opacity:0.6;fill:#66cc99;fill-rule:evenodd;stroke:#555555;stroke-width:0.1" />
  <path
     d="m 18.31,-16.275 0,0 0,0 0,-0.45 0,0 0,0 0.59,0 0,0 0,0 0,0.45 0,0 0,0 -0.59,0 z"
     id="path4164"
     inkscape:connector-curvature="0"
     style="opacity:0.6;fill:#66cc99;fill-rule:evenodd;stroke:#555555;stroke-width:0.1" />
  <path
     d="m 20.1,-15.95 0,0 0,0 0,-1.3 0,0 0,0 1.5,0 0,0 0,0 0,1.3 0,0 0,0 -1.5,0 z"
     id="path4166"
     inkscape:connector-curvature="0"
     style="opacity:0.6;fill:#66cc99;fill-rule:evenodd;stroke:#555555;stroke-width:0.1" />
  <path
     d="m 28.7,-14.175 0,0 0,0 0,-1.25 0,0 0,0 1.5,0 0,0 0,0 0,1.25 0,0 0,0 -1.5,0 z"
     id="path4168"
     inkscape:connector-curvature="0"
     style="opacity:0.6;fill:#66cc99;fill-rule:evenodd;stroke:#555555;stroke-width:0.1" />
  <path
     d="m 15.575,-7.3 0,0 0,0 0,-1.5 0,0 0,0 1.25,0 0,0 0,0 0,1.5 0,0 0,0 -1.25,0 z"
     id="path4170"
     inkscape:connector-curvature="0"
     style="opacity:0.6;fill:#66cc99;fill-rule:evenodd;stroke:#555555;stroke-width:0.1" />
  <path
     d="m 20.25,-7.5 0,0 0,0 0,-1.5 0,0 0,0 1.3,0 0,0 0,0 0,1.5 0,0 0,0 -1.3,0 z"
     id="path4172"
     inkscape:connector-curvature="0"
     style="opacity:0.6;fill:#66cc99;fill-rule:evenodd;stroke:#555555;stroke-width:0.1" />
  <path
     d="m 17.95,-7.5 0,0 0,0 0,-1.5 0,0 0,0 1.3,0 0,0 0,0 0,1.5 0,0 0,0 -1.3,0 z"
     id="path4174"
     inkscape:connector-curvature="0"
     style="opacity:0.6;fill:#66cc99;fill-rule:evenodd;stroke:#555555;stroke-width:0.1" />
  <path
     d="m 23.75,-7.9 0,0 0,0 0,-1.3 0,0 0,0 1.55,0 0,0 0,0 0,1.3 0,0 0,0 -1.55,0 z"
     id="path4176"
     inkscape:connector-curvature="0"
     style="opacity:0.6;fill:#66cc99;fill-rule:evenodd;stroke:#555555;stroke-width:0.1" />
  <path
     d="m 31.7,-7.9 0,0 0,0 0,-1.3 0,0 0,0 1.55,0 0,0 0,0 0,1.3 0,0 0,0 -1.55,0 z"
     id="path4178"
     inkscape:connector-curvature="0"
     style="opacity:0.6;fill:#66cc99;fill-rule:evenodd;stroke:#555555;stroke-width:0.1" />
  <path
     d="m 22.8,-15.95 0,0 0,0 0,-1.3 0,0 0,0 1.5,0 0,0 0,0 0,1.3 0,0 0,0 -1.5,0 z"
     id="path4180"
     inkscape:connector-curvature="0"
     style="opacity:0.6;fill:#66cc99;fill-rule:evenodd;stroke:#555555;stroke-width:0.1" />
  <path
     d="m 6.15,-35.35 0,0 0,0 0,-1.3 0,0 0,0 1.5,0 0,0 0,0 0,1.3 0,0 0,0 -1.5,0 z"
     id="path4182"
     inkscape:connector-curvature="0"
     style="opacity:0.6;fill:#66cc99;fill-rule:evenodd;stroke:#555555;stroke-width:0.1" />
  <path
     d="m -0.05,0 0,-64 2.4076e-4,-0.0049 0,0 7.1998e-4,-0.0049 0,0 0.0011922,-0.0048 0,0 0.001653,-0.0046 0,0 0.0020979,-0.0044 0,0 0.0025226,-0.0042 0,0 0.002923,-0.0039 0,0 0.0032952,-0.0036 0,0 0.0036357,-0.0033 0,0 0.0039411,-0.0029 0,0 0.0042087,-0.0025 0,0 0.0044357,-0.0021 0,0 0.0046199,-0.0017 0,0 0.00475971,-0.0012 0,0 0.00485366,-7.2e-4 0,0 L 0,-64.05 l 36.3,0 0.0049,2.41e-4 0,0 0.0049,7.2e-4 0,0 0.0048,0.0012 0,0 0.0046,0.0017 0,0 0.0044,0.0021 0,0 0.0042,0.0025 0,0 0.0039,0.0029 0,0 0.0036,0.0033 0,0 0.0033,0.0036 0,0 0.0029,0.0039 0,0 0.0025,0.0042 0,0 0.0021,0.0044 0,0 0.0017,0.0046 0,0 0.0012,0.0048 0,0 7.2e-4,0.0049 0,0 2.8e-4,0.0049 0,64 -2.41e-4,0.00490086 0,0 -7.2e-4,0.00485366 0,0 -0.0012,0.00475971 0,0 -0.0017,0.0046199 0,0 -0.0021,0.0044357 0,0 -0.0025,0.0042087 0,0 -0.0029,0.0039411 0,0 -0.0033,0.0036357 0,0 -0.0036,0.0032952 0,0 -0.0039,0.002923 0,0 -0.0042,0.0025226 0,0 -0.0044,0.0020979 0,0 -0.0046,0.001653 0,0 -0.0048,0.0011922 0,0 -0.0049,7.1998e-4 0,0 L 36.3,0.05 0,0.05 l -0.00490086,-2.4076e-4 0,0 -0.00485366,-7.1998e-4 0,0 -0.00475971,-0.0011922 0,0 -0.0046199,-0.001653 0,0 -0.0044357,-0.0020979 0,0 -0.0042087,-0.0025226 0,0 -0.0039411,-0.002923 0,0 -0.0036357,-0.0032952 0,0 -0.0032952,-0.0036357 0,0 -0.002923,-0.0039411 0,0 -0.0025226,-0.0042087 0,0 -0.0020979,-0.0044357 0,0 -0.001653,-0.0046199 0,0 -0.0011922,-0.00475971 0,0 -7.1998e-4,-0.00485366 0,0 L -0.05,0 Z m 0.1,-0.05000001 0,0 0,0 0,0 0,0 0,0 0,10e-9 0,0 0,0 0,0 0,0 10e-9,0 0,0 0,0 0,0 0,0 0,0 36.19999999,0 0,0 0,0 0,0 0,0 0,0 0,0 0,0 0,0 0,0 0,0 0,-10e-9 0,0 0,0 0,0 0,0 0,0 0,-63.89999999 0,0 0,0 0,0 0,0 0,0 0,0 0,0 0,0 0,0 0,0 0,0 0,0 0,0 0,0 0,0 0,0 -36.19999999,0 0,0 0,0 0,0 0,0 0,0 -10e-9,0 0,0 0,0 0,0 0,0 0,0 0,0 0,0 0,0 0,0 0,0 0,63.89999999 z"
     id="path4184"
     inkscape:connector-curvature="0"
     style="opacity:0.6;fill:#66cc99;fill-rule:evenodd;stroke:#ff0000;stroke-width:0.09990667;stroke-miterlimit:4;stroke-dasharray:none;stroke-opacity:1" />
  <path
     d="m 3.45,-35.35 0,0 0,0 0,-1.3 0,0 0,0 1.5,0 0,0 0,0 0,1.3 0,0 0,0 -1.5,0 z"
     id="path4186"
     inkscape:connector-curvature="0"
     style="opacity:0.6;fill:#66cc99;fill-rule:evenodd;stroke:#555555;stroke-width:0.1" />
  <path
     d="m 23.6,-44.125 0,0 0,0 0,-1.25 0,0 0,0 1.5,0 0,0 0,0 0,1.25 0,0 0,0 -1.5,0 z"
     id="path4188"
     inkscape:connector-curvature="0"
     style="opacity:0.6;fill:#66cc99;fill-rule:evenodd;stroke:#555555;stroke-width:0.1" />
  <path
     d="m 21.1,-44.125 0,0 0,0 0,-1.25 0,0 0,0 1.5,0 0,0 0,0 0,1.25 0,0 0,0 -1.5,0 z"
     id="path4190"
     inkscape:connector-curvature="0"
     style="opacity:0.6;fill:#66cc99;fill-rule:evenodd;stroke:#555555;stroke-width:0.1" />
  <path
     d="m 23.6,-46.375 0,0 0,0 0,-1.25 0,0 0,0 1.5,0 0,0 0,0 0,1.25 0,0 0,0 -1.5,0 z"
     id="path4192"
     inkscape:connector-curvature="0"
     style="opacity:0.6;fill:#66cc99;fill-rule:evenodd;stroke:#555555;stroke-width:0.1" />
  <path
     d="m 3.45,-46.6 0,0 0,0 0,-1.3 0,0 0,0 1.5,0 0,0 0,0 0,1.3 0,0 0,0 -1.5,0 z"
     id="path4194"
     inkscape:connector-curvature="0"
     style="opacity:0.6;fill:#66cc99;fill-rule:evenodd;stroke:#555555;stroke-width:0.1" />
  <path
     d="m 21.1,-46.375 0,0 0,0 0,-1.25 0,0 0,0 1.5,0 0,0 0,0 0,1.25 0,0 0,0 -1.5,0 z"
     id="path4196"
     inkscape:connector-curvature="0"
     style="opacity:0.6;fill:#66cc99;fill-rule:evenodd;stroke:#555555;stroke-width:0.1" />
  <path
     d="m 6.15,-46.6 0,0 0,0 0,-1.3 0,0 0,0 1.5,0 0,0 0,0 0,1.3 0,0 0,0 -1.5,0 z"
     id="path4198"
     inkscape:connector-curvature="0"
     style="opacity:0.6;fill:#66cc99;fill-rule:evenodd;stroke:#555555;stroke-width:0.1" />
  <path
     d="m 1.74768,-52.05757 0,0 0,0 0,-2.18 0,0 0,0 1.6,0 0,0 0,0 0,2.18 0,0 0,0 -1.6,0 z"
     id="path4200"
     inkscape:connector-curvature="0"
     style="opacity:0.6;fill:#66cc99;fill-rule:evenodd;stroke:#555555;stroke-width:0.1" />
  <path
     d="m 33.9,-56.8 0,0 0,0 1.55,0 0,0 0,0 0,1.3 0,0 0,0 -1.55,0 0,0 0,0 0,-1.3 z"
     id="path4202"
     inkscape:connector-curvature="0"
     style="opacity:0.6;fill:#66cc99;fill-rule:evenodd;stroke:#555555;stroke-width:0.1" />
  <path
     d="m 17.25,-58 0,0 0,0 0,-1.5 0,0 0,0 1.3,0 0,0 0,0 0,1.5 0,0 0,0 -1.3,0 z"
     id="path4204"
     inkscape:connector-curvature="0"
     style="opacity:0.6;fill:#66cc99;fill-rule:evenodd;stroke:#555555;stroke-width:0.1" />
  <path
     d="m 21.65,-58.4 0,0 0,0 0,-1.2 0,0 0,0 0.9,0 0,0 0,0 0,1.2 0,0 0,0 -0.9,0 z"
     id="path4206"
     inkscape:connector-curvature="0"
     style="opacity:0.6;fill:#66cc99;fill-rule:evenodd;stroke:#555555;stroke-width:0.1" />
  <path
     d="m 25.95,-56.8 0,0 0,0 1.55,0 0,0 0,0 0,1.3 0,0 0,0 -1.55,0 0,0 0,0 0,-1.3 z"
     id="path4208"
     inkscape:connector-curvature="0"
     style="opacity:0.6;fill:#66cc99;fill-rule:evenodd;stroke:#555555;stroke-width:0.1" />
  <path
     d="m 23.6,-48.625 0,0 0,0 0,-1.25 0,0 0,0 1.5,0 0,0 0,0 0,1.25 0,0 0,0 -1.5,0 z"
     id="path4210"
     inkscape:connector-curvature="0"
     style="opacity:0.6;fill:#66cc99;fill-rule:evenodd;stroke:#555555;stroke-width:0.1" />
  <path
     d="m 21.1,-48.625 0,0 0,0 0,-1.25 0,0 0,0 1.5,0 0,0 0,0 0,1.25 0,0 0,0 -1.5,0 z"
     id="path4212"
     inkscape:connector-curvature="0"
     style="opacity:0.6;fill:#66cc99;fill-rule:evenodd;stroke:#555555;stroke-width:0.1" />
  <path
     d="m 25.95,-61.3 0,0 0,0 1.55,0 0,0 0,0 0,1.3 0,0 0,0 -1.55,0 0,0 0,0 0,-1.3 z"
     id="path4214"
     inkscape:connector-curvature="0"
     style="opacity:0.6;fill:#66cc99;fill-rule:evenodd;stroke:#555555;stroke-width:0.1" />
  <path
     d="m 33.9,-61.3 0,0 0,0 1.55,0 0,0 0,0 0,1.3 0,0 0,0 -1.55,0 0,0 0,0 0,-1.3 z"
     id="path4216"
     inkscape:connector-curvature="0"
     style="opacity:0.6;fill:#66cc99;fill-rule:evenodd;stroke:#555555;stroke-width:0.1" />
  <path
     d="m 21.65,-61.8 0,0 0,0 0.9,0 0,0 0,0 0,1.2 0,0 0,0 -0.9,0 0,0 0,0 0,-1.2 z"
     id="path4218"
     inkscape:connector-curvature="0"
     style="opacity:0.6;fill:#66cc99;fill-rule:evenodd;stroke:#555555;stroke-width:0.1" />
  <path
     d="m 17.25,-62.2 0,0 0,0 1.3,0 0,0 0,0 0,1.5 0,0 0,0 -1.3,0 0,0 0,0 0,-1.5 z"
     id="path4220"
     inkscape:connector-curvature="0"
     style="opacity:0.6;fill:#66cc99;fill-rule:evenodd;stroke:#555555;stroke-width:0.1" />
  <path
     d="m 1.75232,-63.44243 0,0 0,0 1.6,0 0,0 0,0 0,2.18 0,0 0,0 -1.6,0 0,0 0,0 0,-2.18 z"
     id="path4222"
     inkscape:connector-curvature="0"
     style="opacity:0.6;fill:#66cc99;fill-rule:evenodd;stroke:#555555;stroke-width:0.1" />
</svg>
