<?xml version="1.0" standalone="no"?>
 <!DOCTYPE svg PUBLIC "-//W3C//DTD SVG 1.1//EN" 
 "http://www.w3.org/Graphics/SVG/1.1/DTD/svg11.dtd"> 
<svg xmlns="http://www.w3.org/2000/svg" version="1.1" 
    width="29.7002cm" height="21.0007cm" viewBox="0 0 116930 82680 ">
<title>SVG Picture created as LPC810.Pong2-B.Cu.svg date 2017/02/27 11:57:53 </title>
  <desc>Picture generated by PCBNEW </desc>
<g style="fill:#000000; fill-opacity:1;stroke:#000000; stroke-opacity:1;
stroke-linecap:round; stroke-linejoin:round; "
 transform="translate(0 0) scale(1 1)">
</g>
<g style="fill:#000000; fill-opacity:0.0; 
stroke:#000000; stroke-width:-0.000393701; stroke-opacity:1; 
stroke-linecap:round; stroke-linejoin:round;">
</g>
<g style="fill:#000000; fill-opacity:0.0; 
stroke:#000000; stroke-width:39.3701; stroke-opacity:1; 
stroke-linecap:round; stroke-linejoin:round;">
<path d="M42401 24212
L56692 24212
" />
<path d="M42401 49409
L42401 24212
" />
<path d="M56692 49409
L42401 49409
" />
<path d="M56692 24212
L56692 49409
" />
</g>
<g style="fill:#000000; fill-opacity:0.0; 
stroke:#000000; stroke-width:0; stroke-opacity:1; 
stroke-linecap:round; stroke-linejoin:round;">
</g>
<g style="fill:#000000; fill-opacity:1.0; 
stroke:#000000; stroke-width:0; stroke-opacity:1; 
stroke-linecap:round; stroke-linejoin:round;">
<polyline style="fill-rule:evenodd;"
points="46377,24625
47519,24625
47519,25767
46377,25767
46377,24625
" /> 
<circle cx="46948.8" cy="26755.9" r="570.866" /> 
</g>
<g style="fill:#000000; fill-opacity:1.0; 
stroke:#000000; stroke-width:78.7402; stroke-opacity:1; 
stroke-linecap:round; stroke-linejoin:round;">
</g>
<g style="fill:#000000; fill-opacity:1.0; 
stroke:#000000; stroke-width:0; stroke-opacity:1; 
stroke-linecap:round; stroke-linejoin:round;">
<polyline style="fill-rule:evenodd;"
points="53891,34906
53891,34226
54691,34226
54691,34906
53891,34906
" /> 
</g>
<g style="fill:#000000; fill-opacity:1.0; 
stroke:#000000; stroke-width:680; stroke-opacity:1; 
stroke-linecap:round; stroke-linejoin:round;">
</g>
<g style="fill:#000000; fill-opacity:0.0; 
stroke:#000000; stroke-width:680; stroke-opacity:1; 
stroke-linecap:round; stroke-linejoin:round;">
<path d="M54231 35566
L54351 35566
" />
<path d="M54231 36566
L54351 36566
" />
<path d="M54231 37566
L54351 37566
" />
</g>
<g style="fill:#000000; fill-opacity:0.0; 
stroke:#000000; stroke-width:787; stroke-opacity:1; 
stroke-linecap:round; stroke-linejoin:round;">
<path d="M46298 43131
L45826 43131
" />
<path d="M44488 40905
L44488 41377
" />
<path d="M46298 39151
L45826 39151
" />
<path d="M46298 48545
L45826 48545
" />
<path d="M44488 46319
L44488 46791
" />
<path d="M46298 44565
L45826 44565
" />
</g>
<g style="fill:#000000; fill-opacity:0.0; 
stroke:#000000; stroke-width:0; stroke-opacity:1; 
stroke-linecap:round; stroke-linejoin:round;">
</g>
<g style="fill:#000000; fill-opacity:1.0; 
stroke:#000000; stroke-width:0; stroke-opacity:1; 
stroke-linecap:round; stroke-linejoin:round;">
<polyline style="fill-rule:evenodd;"
points="43313,31451
43313,32131
42513,32131
42513,31451
43313,31451
" /> 
</g>
<g style="fill:#000000; fill-opacity:1.0; 
stroke:#000000; stroke-width:680; stroke-opacity:1; 
stroke-linecap:round; stroke-linejoin:round;">
</g>
<g style="fill:#000000; fill-opacity:0.0; 
stroke:#000000; stroke-width:680; stroke-opacity:1; 
stroke-linecap:round; stroke-linejoin:round;">
<path d="M42973 30791
L42853 30791
" />
<path d="M42973 29791
L42853 29791
" />
</g>
<g style="fill:#000000; fill-opacity:0.0; 
stroke:#000000; stroke-width:0; stroke-opacity:1; 
stroke-linecap:round; stroke-linejoin:round;">
</g>
<g style="fill:#000000; fill-opacity:1.0; 
stroke:#000000; stroke-width:0; stroke-opacity:1; 
stroke-linecap:round; stroke-linejoin:round;">
<polyline style="fill-rule:evenodd;"
points="43313,35880
43313,36560
42513,36560
42513,35880
43313,35880
" /> 
</g>
<g style="fill:#000000; fill-opacity:1.0; 
stroke:#000000; stroke-width:680; stroke-opacity:1; 
stroke-linecap:round; stroke-linejoin:round;">
</g>
<g style="fill:#000000; fill-opacity:0.0; 
stroke:#000000; stroke-width:680; stroke-opacity:1; 
stroke-linecap:round; stroke-linejoin:round;">
<path d="M42973 35220
L42853 35220
" />
<path d="M42973 34220
L42853 34220
" />
</g>
<g style="fill:#000000; fill-opacity:0.0; 
stroke:#000000; stroke-width:629.921; stroke-opacity:1; 
stroke-linecap:round; stroke-linejoin:round;">
<path d="M48031 37185
L48031 36909
" />
<path d="M49031 37185
L49031 36909
" />
<path d="M50031 37185
L50031 36909
" />
<path d="M51031 37185
L51031 36909
" />
<path d="M51031 34185
L51031 33909
" />
<path d="M50031 34185
L50031 33909
" />
<path d="M49031 34185
L49031 33909
" />
<path d="M48031 34185
L48031 33909
" />
</g>
<g style="fill:#000000; fill-opacity:1.0; 
stroke:#000000; stroke-width:0; stroke-opacity:1; 
stroke-linecap:round; stroke-linejoin:round;">
<circle cx="44133.9" cy="33976.4" r="135" /> 
</g>
<g style="fill:#000000; fill-opacity:1.0; 
stroke:#000000; stroke-width:78.7402; stroke-opacity:1; 
stroke-linecap:round; stroke-linejoin:round;">
</g>
<g style="fill:#000000; fill-opacity:1.0; 
stroke:#000000; stroke-width:0; stroke-opacity:1; 
stroke-linecap:round; stroke-linejoin:round;">
<circle cx="47322.8" cy="44566.9" r="135" /> 
</g>
<g style="fill:#000000; fill-opacity:1.0; 
stroke:#000000; stroke-width:78.7402; stroke-opacity:1; 
stroke-linecap:round; stroke-linejoin:round;">
</g>
<g style="fill:#000000; fill-opacity:1.0; 
stroke:#000000; stroke-width:0; stroke-opacity:1; 
stroke-linecap:round; stroke-linejoin:round;">
<circle cx="49015.7" cy="32992.1" r="135" /> 
</g>
<g style="fill:#000000; fill-opacity:1.0; 
stroke:#000000; stroke-width:78.7402; stroke-opacity:1; 
stroke-linecap:round; stroke-linejoin:round;">
</g>
<g style="fill:#000000; fill-opacity:1.0; 
stroke:#000000; stroke-width:0; stroke-opacity:1; 
stroke-linecap:round; stroke-linejoin:round;">
<circle cx="50984.3" cy="29133.9" r="135" /> 
</g>
<g style="fill:#000000; fill-opacity:1.0; 
stroke:#000000; stroke-width:78.7402; stroke-opacity:1; 
stroke-linecap:round; stroke-linejoin:round;">
</g>
<g style="fill:#000000; fill-opacity:1.0; 
stroke:#000000; stroke-width:0; stroke-opacity:1; 
stroke-linecap:round; stroke-linejoin:round;">
<circle cx="47755.9" cy="47244.1" r="135" /> 
</g>
<g style="fill:#000000; fill-opacity:1.0; 
stroke:#000000; stroke-width:78.7402; stroke-opacity:1; 
stroke-linecap:round; stroke-linejoin:round;">
</g>
<g style="fill:#000000; fill-opacity:1.0; 
stroke:#000000; stroke-width:0; stroke-opacity:1; 
stroke-linecap:round; stroke-linejoin:round;">
<circle cx="50787.4" cy="27244.1" r="135" /> 
</g>
<g style="fill:#000000; fill-opacity:1.0; 
stroke:#000000; stroke-width:78.7402; stroke-opacity:1; 
stroke-linecap:round; stroke-linejoin:round;">
</g>
<g style="fill:#000000; fill-opacity:1.0; 
stroke:#000000; stroke-width:0; stroke-opacity:1; 
stroke-linecap:round; stroke-linejoin:round;">
<circle cx="45393.7" cy="46259.8" r="135" /> 
</g>
<g style="fill:#000000; fill-opacity:1.0; 
stroke:#000000; stroke-width:78.7402; stroke-opacity:1; 
stroke-linecap:round; stroke-linejoin:round;">
</g>
<g style="fill:#000000; fill-opacity:1.0; 
stroke:#000000; stroke-width:0; stroke-opacity:1; 
stroke-linecap:round; stroke-linejoin:round;">
<circle cx="50590.6" cy="39409.4" r="135" /> 
</g>
<g style="fill:#000000; fill-opacity:1.0; 
stroke:#000000; stroke-width:78.7402; stroke-opacity:1; 
stroke-linecap:round; stroke-linejoin:round;">
</g>
<g style="fill:#000000; fill-opacity:1.0; 
stroke:#000000; stroke-width:0; stroke-opacity:1; 
stroke-linecap:round; stroke-linejoin:round;">
<circle cx="52047.2" cy="27992.1" r="135" /> 
</g>
<g style="fill:#000000; fill-opacity:1.0; 
stroke:#000000; stroke-width:78.7402; stroke-opacity:1; 
stroke-linecap:round; stroke-linejoin:round;">
</g>
<g style="fill:#000000; fill-opacity:1.0; 
stroke:#000000; stroke-width:0; stroke-opacity:1; 
stroke-linecap:round; stroke-linejoin:round;">
<circle cx="54960.6" cy="39645.7" r="135" /> 
</g>
<g style="fill:#000000; fill-opacity:1.0; 
stroke:#000000; stroke-width:78.7402; stroke-opacity:1; 
stroke-linecap:round; stroke-linejoin:round;">
</g>
<g style="fill:#000000; fill-opacity:1.0; 
stroke:#000000; stroke-width:0; stroke-opacity:1; 
stroke-linecap:round; stroke-linejoin:round;">
<circle cx="45826.8" cy="30236.2" r="135" /> 
</g>
<g style="fill:#000000; fill-opacity:1.0; 
stroke:#000000; stroke-width:78.7402; stroke-opacity:1; 
stroke-linecap:round; stroke-linejoin:round;">
</g>
<g style="fill:#000000; fill-opacity:1.0; 
stroke:#000000; stroke-width:0; stroke-opacity:1; 
stroke-linecap:round; stroke-linejoin:round;">
<circle cx="50354.3" cy="32834.6" r="135" /> 
</g>
<g style="fill:#000000; fill-opacity:1.0; 
stroke:#000000; stroke-width:78.7402; stroke-opacity:1; 
stroke-linecap:round; stroke-linejoin:round;">
</g>
<g style="fill:#000000; fill-opacity:1.0; 
stroke:#000000; stroke-width:0; stroke-opacity:1; 
stroke-linecap:round; stroke-linejoin:round;">
<circle cx="45393.7" cy="41220.5" r="135" /> 
</g>
<g style="fill:#000000; fill-opacity:1.0; 
stroke:#000000; stroke-width:78.7402; stroke-opacity:1; 
stroke-linecap:round; stroke-linejoin:round;">
</g>
<g style="fill:#000000; fill-opacity:1.0; 
stroke:#000000; stroke-width:0; stroke-opacity:1; 
stroke-linecap:round; stroke-linejoin:round;">
<circle cx="47992.1" cy="32874" r="135" /> 
</g>
<g style="fill:#000000; fill-opacity:1.0; 
stroke:#000000; stroke-width:78.7402; stroke-opacity:1; 
stroke-linecap:round; stroke-linejoin:round;">
</g>
<g style="fill:#000000; fill-opacity:1.0; 
stroke:#000000; stroke-width:0; stroke-opacity:1; 
stroke-linecap:round; stroke-linejoin:round;">
<circle cx="49015.7" cy="37952.8" r="135" /> 
</g>
<g style="fill:#000000; fill-opacity:1.0; 
stroke:#000000; stroke-width:78.7402; stroke-opacity:1; 
stroke-linecap:round; stroke-linejoin:round;">
</g>
<g style="fill:#000000; fill-opacity:1.0; 
stroke:#000000; stroke-width:0; stroke-opacity:1; 
stroke-linecap:round; stroke-linejoin:round;">
<circle cx="50039.4" cy="37952.8" r="135" /> 
</g>
<g style="fill:#000000; fill-opacity:1.0; 
stroke:#000000; stroke-width:78.7402; stroke-opacity:1; 
stroke-linecap:round; stroke-linejoin:round;">
</g>
<g style="fill:#000000; fill-opacity:1.0; 
stroke:#000000; stroke-width:0; stroke-opacity:1; 
stroke-linecap:round; stroke-linejoin:round;">
<circle cx="51338.6" cy="47086.6" r="135" /> 
</g>
<g style="fill:#000000; fill-opacity:1.0; 
stroke:#000000; stroke-width:78.7402; stroke-opacity:1; 
stroke-linecap:round; stroke-linejoin:round;">
</g>
<g style="fill:#000000; fill-opacity:1.0; 
stroke:#000000; stroke-width:0; stroke-opacity:1; 
stroke-linecap:round; stroke-linejoin:round;">
<circle cx="46968.5" cy="32086.6" r="135" /> 
</g>
<g style="fill:#000000; fill-opacity:1.0; 
stroke:#000000; stroke-width:78.7402; stroke-opacity:1; 
stroke-linecap:round; stroke-linejoin:round;">
</g>
<g style="fill:#000000; fill-opacity:1.0; 
stroke:#000000; stroke-width:0; stroke-opacity:1; 
stroke-linecap:round; stroke-linejoin:round;">
<circle cx="52126" cy="33070.9" r="135" /> 
</g>
<g style="fill:#000000; fill-opacity:1.0; 
stroke:#000000; stroke-width:78.7402; stroke-opacity:1; 
stroke-linecap:round; stroke-linejoin:round;">
</g>
<g style="fill:#000000; fill-opacity:1.0; 
stroke:#000000; stroke-width:314.961; stroke-opacity:1; 
stroke-linecap:round; stroke-linejoin:round;">
</g>
<g style="fill:#000000; fill-opacity:0.0; 
stroke:#000000; stroke-width:314.961; stroke-opacity:1; 
stroke-linecap:round; stroke-linejoin:round;">
<path d="M50984 29133
L50984 29842
" />
<path d="M54291 33149
L54291 34566
" />
<path d="M50984 29842
L54291 33149
" />
<path d="M42913 36220
L43818 36220
" />
<path d="M44133 35905
L44133 33976
" />
<path d="M43818 36220
L44133 35905
" />
<path d="M50787 27244
L50787 27283
" />
<path d="M47321 44565
L46062 44565
" />
<path d="M47322 44566
L47321 44565
" />
<path d="M49031 33007
L49031 34047
" />
<path d="M49015 32992
L49031 33007
" />
<path d="M50984 29133
L50787 28937
" />
<path d="M50787 28937
L50787 27244
" />
<path d="M46062 39151
L43639 39151
" />
<path d="M42913 38425
L42913 36220
" />
<path d="M43639 39151
L42913 38425
" />
<path d="M46948 26755
L44700 26755
" />
<path d="M43996 31791
L42913 31791
" />
<path d="M44291 31496
L43996 31791
" />
<path d="M44291 27165
L44291 31496
" />
<path d="M44700 26755
L44291 27165
" />
<path d="M47755 47244
L47716 47204
" />
<path d="M47716 47204
L46062 47204
" />
<path d="M46062 43131
L46062 39151
" />
<path d="M46062 44565
L46062 43131
" />
<path d="M46062 48545
L46062 47204
" />
<path d="M46062 47204
L46062 44565
" />
<path d="M50787 27244
L50299 26755
" />
<path d="M50299 26755
L46948 26755
" />
<path d="M45393 46259
L45098 46555
" />
<path d="M45098 46555
L44488 46555
" />
<path d="M48031 38267
L48031 37047
" />
<path d="M48700 38937
L48031 38267
" />
<path d="M50118 38937
L48700 38937
" />
<path d="M50590 39409
L50118 38937
" />
<path d="M54960 30905
L54960 39645
" />
<path d="M52047 27992
L54960 30905
" />
<path d="M54291 37566
L54291 38976
" />
<path d="M54291 38976
L54960 39645
" />
<path d="M45078 32055
L42913 34220
" />
<path d="M45078 30984
L45078 32055
" />
<path d="M45826 30236
L45078 30984
" />
<path d="M50031 33157
L50031 34047
" />
<path d="M50354 32834
L50031 33157
" />
<path d="M45314 41141
L44488 41141
" />
<path d="M45393 41220
L45314 41141
" />
<path d="M48031 34047
L48031 35039
" />
<path d="M53960 35236
L54291 35566
" />
<path d="M48228 35236
L53960 35236
" />
<path d="M48031 35039
L48228 35236
" />
<path d="M48031 32913
L48031 34047
" />
<path d="M47992 32874
L48031 32913
" />
<path d="M49031 37047
L49031 36598
" />
<path d="M49031 36598
L49685 35944
" />
<path d="M53141 36566
L54291 36566
" />
<path d="M52519 35944
L53141 36566
" />
<path d="M49685 35944
L52519 35944
" />
<path d="M49031 37937
L49031 37047
" />
<path d="M49015 37952
L49031 37937
" />
<path d="M50031 37944
L50031 37047
" />
<path d="M50039 37952
L50031 37944
" />
<path d="M51031 46779
L51031 37047
" />
<path d="M51338 47086
L51031 46779
" />
<path d="M51023 31968
L52125 33070
" />
<path d="M47086 31968
L51023 31968
" />
<path d="M46968 32086
L47086 31968
" />
<path d="M52125 33070
L51149 34047
" />
<path d="M51149 34047
L51031 34047
" />
</g>
<g style="fill:#000000; fill-opacity:1.0; 
stroke:#000000; stroke-width:100; stroke-opacity:1; 
stroke-linecap:round; stroke-linejoin:round;">
<polyline style="fill-rule:evenodd;"
points="46143,24526
46123,24625
46123,25767
46140,25860
46195,25945
46278,26002
46377,26022
46565,26022
46498,26050
46437,26174
46948,26685
47459,26174
47399,26050
47327,26022
47519,26022
47612,26005
47697,25950
47754,25866
47774,25767
47774,24625
47757,24533
47724,24482
56423,24482
56423,49139
46522,49139
46590,49120
46788,48964
46911,48745
46924,48694
46877,48595
46112,48595
46112,48602
46012,48602
46012,48595
45247,48595
45200,48694
45212,48745
45335,48964
45533,49120
45602,49139
42671,49139
42671,48395
45200,48395
45247,48495
46012,48495
46012,47901
46112,47901
46112,48495
46877,48495
46924,48395
46911,48345
46788,48125
46590,47969
46348,47901
46112,47901
46012,47901
45776,47901
45533,47969
45335,48125
45212,48345
45200,48395
42671,48395
42671,46301
43844,46301
43844,46808
43893,47054
44033,47263
44241,47402
44488,47451
44734,47402
44943,47263
45082,47054
45101,46962
45254,46931
45386,46843
45681,46547
45770,46415
45801,46259
45770,46103
45681,45971
45549,45883
45393,45852
45237,45883
45105,45971
45058,46019
44943,45846
44734,45707
44488,45658
44241,45707
44033,45846
43893,46055
43844,46301
42671,46301
42671,44714
45200,44714
45212,44765
45335,44984
45533,45140
45776,45208
46012,45208
46012,44615
46112,44615
46112,45208
46348,45208
46590,45140
46788,44984
46911,44765
46924,44714
46877,44615
46112,44615
46012,44615
45247,44615
45200,44714
42671,44714
42671,44415
45200,44415
45247,44515
46012,44515
46012,43921
46112,43921
46112,44515
46877,44515
46924,44415
46911,44365
46788,44145
46590,43989
46348,43921
46112,43921
46012,43921
45776,43921
45533,43989
45335,44145
45212,44365
45200,44415
42671,44415
42671,43281
45200,43281
45212,43331
45335,43551
45533,43707
45776,43775
46012,43775
46012,43181
46112,43181
46112,43775
46348,43775
46590,43707
46788,43551
46911,43331
46924,43281
46877,43181
46112,43181
46012,43181
45247,43181
45200,43281
42671,43281
42671,42981
45200,42981
45247,43081
46012,43081
46012,42488
46112,42488
46112,43081
46877,43081
46924,42981
46911,42931
46788,42712
46590,42556
46348,42488
46112,42488
46012,42488
45776,42488
45533,42556
45335,42712
45212,42931
45200,42981
42671,42981
42671,40888
43844,40888
43844,41394
43893,41641
44033,41849
44241,41989
44488,42038
44734,41989
44943,41849
45082,41641
45101,41549
45166,41549
45237,41596
45393,41627
45549,41596
45681,41508
45770,41376
45801,41220
45770,41064
45681,40932
45603,40853
45470,40765
45314,40734
45314,40734
45101,40734
45082,40642
44943,40433
44734,40293
44488,40245
44241,40293
44033,40433
43893,40642
43844,40888
42671,40888
42671,39301
45200,39301
45212,39351
45335,39571
45533,39727
45776,39795
46012,39795
46012,39201
46112,39201
46112,39795
46348,39795
46590,39727
46788,39571
46911,39351
46924,39301
46877,39201
46112,39201
46012,39201
45247,39201
45200,39301
42671,39301
42671,39001
45200,39001
45247,39101
46012,39101
46012,38508
46112,38508
46112,39101
46877,39101
46924,39001
46911,38951
46788,38732
46590,38576
46348,38508
46112,38508
46012,38508
45776,38508
45533,38576
45335,38732
45212,38951
45200,39001
42671,39001
42671,36810
42800,36810
42863,36747
42863,36270
42963,36270
42963,36747
43025,36810
43363,36810
43454,36772
43525,36702
43563,36610
43563,36332
43500,36270
42963,36270
42863,36270
42855,36270
42855,36170
42863,36170
42863,36162
42963,36162
42963,36170
43500,36170
43563,36107
43563,35830
43525,35738
43454,35668
43394,35643
43403,35637
43531,35446
43576,35220
43531,34994
43403,34803
43279,34720
43403,34637
43531,34446
43576,34220
43561,34148
43814,33895
47466,33895
47466,34198
47509,34415
47624,34586
47624,35039
47624,35039
47655,35195
47743,35327
47940,35524
47940,35524
48003,35566
48072,35612
48228,35643
48228,35643
49416,35643
49396,35656
49396,35656
48743,36310
48655,36442
48646,36486
48632,36496
48531,36646
48430,36496
48247,36373
48031,36330
47815,36373
47632,36496
47509,36679
47466,36895
47466,37198
47509,37415
47624,37586
47624,38267
47624,38267
47655,38423
47743,38555
48412,39225
48412,39225
48526,39301
48544,39313
48700,39344
48700,39344
49949,39344
50302,39697
50434,39785
50590,39816
50624,39810
50624,46779
50624,46779
50655,46935
50743,47067
51050,47374
51182,47463
51338,47494
51494,47463
51626,47374
51715,47242
51746,47086
51715,46930
51626,46798
51438,46610
51438,37586
51553,37415
51596,37198
51596,36895
51553,36679
51430,36496
51247,36373
51140,36352
52350,36352
52853,36855
52853,36855
52907,36891
52985,36943
53141,36974
53794,36974
53801,36984
53925,37066
53801,37149
53673,37341
53628,37566
53673,37792
53801,37984
53883,38039
53883,38976
53883,38976
53914,39132
54003,39264
54672,39933
54672,39933
54804,40022
54960,40053
55116,40022
55248,39933
55337,39801
55338,39794
55368,39645
55368,39645
55368,30905
55337,30749
55337,30749
55301,30696
55248,30617
55248,30617
52335,27703
52203,27615
52047,27584
51891,27615
51759,27703
51670,27836
51639,27992
51670,28148
51759,28280
54553,31074
54553,33976
54403,33976
54341,34039
54341,34516
54349,34516
54349,34616
54341,34616
54341,34624
54241,34624
54241,34616
53703,34616
53641,34679
53641,34828
48438,34828
48438,34586
48530,34449
48667,34619
48861,34726
48894,34733
48981,34685
48981,34097
48973,34097
48973,33997
48981,33997
48981,33409
48894,33361
48861,33368
48667,33474
48530,33644
48438,33508
48438,32913
48415,32797
48407,32757
48360,32685
48319,32625
48319,32625
48280,32585
48148,32497
47992,32466
47836,32497
47703,32585
47615,32718
47584,32874
47615,33029
47624,33042
47624,33508
47509,33679
47466,33895
43814,33895
45366,32343
45366,32343
45455,32211
45461,32181
45479,32086
46561,32086
46592,32242
46680,32374
46812,32463
46968,32494
47124,32463
47254,32375
50854,32375
51549,33070
51246,33373
51031,33330
50815,33373
50632,33496
50531,33646
50438,33508
50438,33326
50642,33122
50730,32990
50761,32834
50730,32678
50642,32546
50510,32458
50354,32427
50198,32458
50066,32546
49743,32869
49655,33001
49624,33157
49624,33157
49624,33508
49532,33644
49395,33474
49201,33368
49168,33361
49081,33409
49081,33997
49089,33997
49089,34097
49081,34097
49081,34685
49168,34733
49201,34726
49395,34619
49532,34449
49632,34598
49815,34720
50031,34763
50247,34720
50430,34598
50531,34447
50632,34598
50815,34720
51031,34763
51247,34720
51430,34598
51553,34415
51596,34198
51596,34177
53641,34177
53641,34454
53703,34516
54241,34516
54241,34039
54178,33976
53841,33976
53749,34014
53679,34085
53641,34177
51596,34177
51596,34176
52414,33358
52414,33358
52502,33226
52533,33070
52525,33029
52502,32914
52414,32782
51311,31680
51179,31592
51023,31561
51023,31561
47086,31561
47086,31561
46930,31592
46798,31680
46798,31680
46680,31798
46592,31930
46561,32086
45479,32086
45486,32055
45486,32055
45486,31153
46114,30524
46203,30392
46234,30236
46203,30080
46114,29948
45982,29859
45826,29828
45670,29859
45538,29948
44790,30696
44702,30828
44671,30984
44671,30984
44671,31886
42927,33630
42840,33630
42671,33664
42671,32381
42800,32381
42863,32318
42863,31841
42963,31841
42963,32318
43025,32381
43363,32381
43454,32343
43525,32272
43563,32181
43563,31903
43500,31841
42963,31841
42863,31841
42855,31841
42855,31741
42863,31741
42863,31733
42963,31733
42963,31741
43500,31741
43563,31678
43563,31401
43525,31309
43454,31239
43394,31214
43403,31208
43531,31017
43576,30791
43531,30565
43403,30374
43279,30291
43403,30208
43531,30017
43576,29791
43531,29565
43403,29374
43211,29246
42986,29201
42840,29201
42671,29235
42671,27337
46437,27337
46498,27461
46802,27579
47128,27573
47399,27461
47459,27337
46948,26826
46437,27337
42671,27337
42671,26609
46124,26609
46131,26935
46243,27206
46366,27267
46878,26755
47019,26755
47530,27267
47654,27206
47772,26902
47766,26575
47654,26305
47530,26244
47019,26755
46878,26755
46366,26244
46243,26305
46124,26609
42671,26609
42671,24482
46173,24482
46143,24526
" /> 
</g> 
</svg>
