G04 #@! TF.FileFunction,Copper,L1,Top,Signal*
%FSLAX46Y46*%
G04 Gerber Fmt 4.6, Leading zero omitted, Abs format (unit mm)*
G04 Created by KiCad (PCBNEW 4.0.5) date 02/27/17 15:44:33*
%MOMM*%
%LPD*%
G01*
G04 APERTURE LIST*
%ADD10C,0.200000*%
%ADD11C,0.100000*%
%ADD12R,2.900000X2.900000*%
%ADD13C,2.900000*%
%ADD14R,1.250000X1.500000*%
%ADD15R,1.500000X1.250000*%
%ADD16R,0.590000X0.450000*%
%ADD17R,0.900000X1.200000*%
%ADD18R,2.032000X1.727200*%
%ADD19O,2.032000X1.727200*%
%ADD20O,3.197860X1.998980*%
%ADD21O,1.998980X3.197860*%
%ADD22R,1.300000X1.500000*%
%ADD23R,1.500000X1.300000*%
%ADD24R,1.550000X1.300000*%
%ADD25R,1.600000X2.180000*%
%ADD26O,1.600000X2.300000*%
%ADD27C,0.685800*%
%ADD28C,0.800000*%
%ADD29C,1.000000*%
%ADD30C,0.600000*%
%ADD31C,0.400000*%
%ADD32C,0.500000*%
%ADD33C,0.254000*%
G04 APERTURE END LIST*
D10*
D11*
X0Y64000000D02*
X36300000Y64000000D01*
X0Y0D02*
X0Y64000000D01*
X36300000Y0D02*
X0Y0D01*
X36300000Y64000000D02*
X36300000Y0D01*
D12*
X11550000Y61500000D03*
D13*
X11550000Y57540000D03*
D14*
X16200000Y8050000D03*
X16200000Y5550000D03*
D15*
X31950000Y14800000D03*
X29450000Y14800000D03*
X24350000Y44750000D03*
X21850000Y44750000D03*
X24350000Y47000000D03*
X21850000Y47000000D03*
X24350000Y49250000D03*
X21850000Y49250000D03*
D16*
X16495000Y16500000D03*
X18605000Y16500000D03*
D17*
X22100000Y59000000D03*
X22100000Y61200000D03*
D18*
X30200000Y37700000D03*
D19*
X30200000Y35160000D03*
X30200000Y32620000D03*
X30200000Y30080000D03*
D20*
X9297960Y15945400D03*
D21*
X5300000Y21000000D03*
D20*
X9297960Y26054600D03*
X9297960Y2195400D03*
D21*
X5300000Y7250000D03*
D20*
X9297960Y12304600D03*
D18*
X1300000Y44750000D03*
D19*
X1300000Y47290000D03*
X1300000Y49830000D03*
D18*
X1300000Y33500000D03*
D19*
X1300000Y36040000D03*
X1300000Y38580000D03*
D22*
X18600000Y5550000D03*
X18600000Y8250000D03*
X17100000Y23550000D03*
X17100000Y20850000D03*
D23*
X23550000Y16600000D03*
X20850000Y16600000D03*
D22*
X20900000Y5550000D03*
X20900000Y8250000D03*
D23*
X29150000Y21400000D03*
X31850000Y21400000D03*
X6900000Y47250000D03*
X4200000Y47250000D03*
X6900000Y36000000D03*
X4200000Y36000000D03*
D22*
X17900000Y58750000D03*
X17900000Y61450000D03*
D24*
X32475000Y4050000D03*
X24525000Y4050000D03*
X32475000Y8550000D03*
X24525000Y8550000D03*
D25*
X2547680Y53147570D03*
X2552320Y62352430D03*
D24*
X34675000Y56150000D03*
X26725000Y56150000D03*
X34675000Y60650000D03*
X26725000Y60650000D03*
D26*
X14300000Y31400000D03*
X16840000Y31400000D03*
X19380000Y31400000D03*
X21920000Y31400000D03*
X21920000Y39020000D03*
X19380000Y39020000D03*
X16840000Y39020000D03*
X14300000Y39020000D03*
D27*
X4400000Y39200000D03*
X12500000Y12300000D03*
X16800000Y41700000D03*
X21800000Y51500000D03*
X13600000Y5500000D03*
X21300000Y56300000D03*
X7600000Y8000000D03*
X20800000Y25400000D03*
X24500000Y54400000D03*
X31900000Y24800000D03*
X8700000Y48700000D03*
X20200000Y42100000D03*
X7600000Y20800000D03*
X14200000Y42000000D03*
X16800000Y29100000D03*
X19400000Y29100000D03*
X22700000Y5900000D03*
X11600000Y44000000D03*
X24700000Y41500000D03*
D28*
X2552320Y62352430D02*
X10697570Y62352430D01*
D29*
X10697570Y62352430D02*
X11550000Y61500000D01*
D28*
X1300000Y42300000D02*
X1300000Y44750000D01*
X4400000Y39200000D02*
X1300000Y42300000D01*
X29450000Y14800000D02*
X26400000Y14800000D01*
X23900000Y12300000D02*
X12500000Y12300000D01*
X26400000Y14800000D02*
X23900000Y12300000D01*
X21850000Y44750000D02*
X19850000Y44750000D01*
X19850000Y44750000D02*
X16800000Y41700000D01*
X21850000Y44750000D02*
X21850000Y47000000D01*
X21850000Y47000000D02*
X21850000Y49250000D01*
X21850000Y49250000D02*
X21800000Y49300000D01*
X21800000Y49300000D02*
X21800000Y51500000D01*
X18600000Y5550000D02*
X18600000Y3500000D01*
X23175000Y2700000D02*
X24525000Y4050000D01*
X19400000Y2700000D02*
X23175000Y2700000D01*
X18600000Y3500000D02*
X19400000Y2700000D01*
X32475000Y4050000D02*
X24525000Y4050000D01*
X26725000Y60650000D02*
X34675000Y60650000D01*
X22100000Y59000000D02*
X25075000Y59000000D01*
X25075000Y59000000D02*
X26725000Y60650000D01*
X16200000Y5550000D02*
X13650000Y5550000D01*
X13650000Y5550000D02*
X13600000Y5500000D01*
X18600000Y5550000D02*
X16200000Y5550000D01*
X22100000Y59000000D02*
X22100000Y57100000D01*
X22100000Y57100000D02*
X21300000Y56300000D01*
X16200000Y8050000D02*
X7650000Y8050000D01*
X7650000Y8050000D02*
X7600000Y8000000D01*
D30*
X20900000Y8250000D02*
X18600000Y8250000D01*
D28*
X18600000Y8250000D02*
X16400000Y8250000D01*
D30*
X16400000Y8250000D02*
X16200000Y8050000D01*
D28*
X29150000Y21400000D02*
X24800000Y21400000D01*
X24800000Y21400000D02*
X20800000Y25400000D01*
X31950000Y14800000D02*
X31950000Y16050000D01*
X29150000Y18850000D02*
X29150000Y21400000D01*
X31950000Y16050000D02*
X29150000Y18850000D01*
X32475000Y8550000D02*
X32475000Y14275000D01*
X32475000Y14275000D02*
X31950000Y14800000D01*
X24525000Y8550000D02*
X32475000Y8550000D01*
X23450000Y53550000D02*
X23650000Y53550000D01*
X23650000Y53550000D02*
X24500000Y54400000D01*
X31850000Y24750000D02*
X31850000Y21400000D01*
X31900000Y24800000D02*
X31850000Y24750000D01*
X17900000Y54500000D02*
X22500000Y54500000D01*
X24350000Y52650000D02*
X24350000Y49250000D01*
X22500000Y54500000D02*
X23450000Y53550000D01*
X23450000Y53550000D02*
X24350000Y52650000D01*
X8700000Y53147570D02*
X8700000Y48700000D01*
X24350000Y44750000D02*
X24350000Y43950000D01*
X22500000Y42100000D02*
X20200000Y42100000D01*
X24350000Y43950000D02*
X22500000Y42100000D01*
X24350000Y47000000D02*
X24350000Y44750000D01*
X24350000Y49250000D02*
X24350000Y47000000D01*
X2547680Y53147570D02*
X2547680Y51077680D01*
X2547680Y51077680D02*
X1300000Y49830000D01*
X17900000Y58750000D02*
X17900000Y54500000D01*
X17900000Y54500000D02*
X17900000Y53700000D01*
X17347570Y53147570D02*
X8700000Y53147570D01*
X8700000Y53147570D02*
X2547680Y53147570D01*
X17900000Y53700000D02*
X17347570Y53147570D01*
D31*
X16495000Y16500000D02*
X15900000Y16500000D01*
X15600000Y16800000D02*
X15600000Y20850000D01*
X15900000Y16500000D02*
X15600000Y16800000D01*
D28*
X17100000Y20850000D02*
X15600000Y20850000D01*
X15600000Y20850000D02*
X7650000Y20850000D01*
X7650000Y20850000D02*
X7600000Y20800000D01*
D31*
X18605000Y16500000D02*
X20750000Y16500000D01*
D32*
X20750000Y16500000D02*
X20850000Y16600000D01*
D28*
X17900000Y61450000D02*
X21850000Y61450000D01*
D30*
X21850000Y61450000D02*
X22100000Y61200000D01*
D28*
X6900000Y47250000D02*
X11450000Y47250000D01*
X14200000Y44500000D02*
X14200000Y42000000D01*
X11450000Y47250000D02*
X14200000Y44500000D01*
X17100000Y23550000D02*
X17100000Y28800000D01*
X17100000Y28800000D02*
X16800000Y29100000D01*
X1300000Y47290000D02*
X4160000Y47290000D01*
D30*
X4160000Y47290000D02*
X4200000Y47250000D01*
D28*
X1300000Y36040000D02*
X4160000Y36040000D01*
D30*
X4160000Y36040000D02*
X4200000Y36000000D01*
D28*
X23550000Y16600000D02*
X23550000Y17450000D01*
X19400000Y21600000D02*
X19400000Y29100000D01*
X23550000Y17450000D02*
X19400000Y21600000D01*
X20900000Y5550000D02*
X22350000Y5550000D01*
X22350000Y5550000D02*
X22700000Y5900000D01*
X20900000Y5550000D02*
X21150000Y5550000D01*
X6900000Y36000000D02*
X6900000Y39300000D01*
X6900000Y39300000D02*
X11600000Y44000000D01*
X26725000Y56150000D02*
X26725000Y43525000D01*
X26725000Y43525000D02*
X24700000Y41500000D01*
X26725000Y56150000D02*
X34675000Y56150000D01*
D33*
G36*
X33435910Y55048559D02*
X33648110Y54903569D01*
X33900000Y54852560D01*
X35450000Y54852560D01*
X35615000Y54883607D01*
X35615000Y685000D01*
X10466072Y685000D01*
X10640225Y733929D01*
X11142962Y1129444D01*
X11456073Y1687241D01*
X11487019Y1815046D01*
X11367665Y2068400D01*
X9424960Y2068400D01*
X9424960Y2048400D01*
X9170960Y2048400D01*
X9170960Y2068400D01*
X7228255Y2068400D01*
X7108901Y1815046D01*
X7139847Y1687241D01*
X7452958Y1129444D01*
X7955695Y733929D01*
X8129848Y685000D01*
X685000Y685000D01*
X685000Y2575754D01*
X7108901Y2575754D01*
X7228255Y2322400D01*
X9170960Y2322400D01*
X9170960Y3829890D01*
X9424960Y3829890D01*
X9424960Y2322400D01*
X11367665Y2322400D01*
X11487019Y2575754D01*
X11456073Y2703559D01*
X11142962Y3261356D01*
X10640225Y3656871D01*
X10258032Y3764250D01*
X23115000Y3764250D01*
X23115000Y3273690D01*
X23211673Y3040301D01*
X23390302Y2861673D01*
X23623691Y2765000D01*
X24239250Y2765000D01*
X24398000Y2923750D01*
X24398000Y3923000D01*
X24652000Y3923000D01*
X24652000Y2923750D01*
X24810750Y2765000D01*
X25426309Y2765000D01*
X25659698Y2861673D01*
X25838327Y3040301D01*
X25935000Y3273690D01*
X25935000Y3764250D01*
X31065000Y3764250D01*
X31065000Y3273690D01*
X31161673Y3040301D01*
X31340302Y2861673D01*
X31573691Y2765000D01*
X32189250Y2765000D01*
X32348000Y2923750D01*
X32348000Y3923000D01*
X32602000Y3923000D01*
X32602000Y2923750D01*
X32760750Y2765000D01*
X33376309Y2765000D01*
X33609698Y2861673D01*
X33788327Y3040301D01*
X33885000Y3273690D01*
X33885000Y3764250D01*
X33726250Y3923000D01*
X32602000Y3923000D01*
X32348000Y3923000D01*
X31223750Y3923000D01*
X31065000Y3764250D01*
X25935000Y3764250D01*
X25776250Y3923000D01*
X24652000Y3923000D01*
X24398000Y3923000D01*
X23273750Y3923000D01*
X23115000Y3764250D01*
X10258032Y3764250D01*
X10024400Y3829890D01*
X9424960Y3829890D01*
X9170960Y3829890D01*
X8571520Y3829890D01*
X7955695Y3656871D01*
X7452958Y3261356D01*
X7139847Y2703559D01*
X7108901Y2575754D01*
X685000Y2575754D01*
X685000Y7893205D01*
X3665510Y7893205D01*
X3665510Y6606795D01*
X3789928Y5981303D01*
X4144241Y5451036D01*
X4674508Y5096723D01*
X5300000Y4972305D01*
X5925492Y5096723D01*
X6176213Y5264250D01*
X14940000Y5264250D01*
X14940000Y4673691D01*
X15036673Y4440302D01*
X15215301Y4261673D01*
X15448690Y4165000D01*
X15914250Y4165000D01*
X16073000Y4323750D01*
X16073000Y5423000D01*
X16327000Y5423000D01*
X16327000Y4323750D01*
X16485750Y4165000D01*
X16951310Y4165000D01*
X17184699Y4261673D01*
X17363327Y4440302D01*
X17387500Y4498661D01*
X17411673Y4440302D01*
X17590301Y4261673D01*
X17823690Y4165000D01*
X18314250Y4165000D01*
X18473000Y4323750D01*
X18473000Y5423000D01*
X17473750Y5423000D01*
X17387500Y5336750D01*
X17301250Y5423000D01*
X16327000Y5423000D01*
X16073000Y5423000D01*
X15098750Y5423000D01*
X14940000Y5264250D01*
X6176213Y5264250D01*
X6455759Y5451036D01*
X6810072Y5981303D01*
X6934490Y6606795D01*
X6934490Y7223813D01*
X7203923Y7043785D01*
X7600000Y6964999D01*
X7851368Y7015000D01*
X15003808Y7015000D01*
X15110910Y6848559D01*
X15179006Y6802031D01*
X15036673Y6659698D01*
X14940000Y6426309D01*
X14940000Y5835750D01*
X15098750Y5677000D01*
X16073000Y5677000D01*
X16073000Y5697000D01*
X16327000Y5697000D01*
X16327000Y5677000D01*
X17301250Y5677000D01*
X17387500Y5763250D01*
X17473750Y5677000D01*
X18473000Y5677000D01*
X18473000Y5697000D01*
X18727000Y5697000D01*
X18727000Y5677000D01*
X18747000Y5677000D01*
X18747000Y5423000D01*
X18727000Y5423000D01*
X18727000Y4323750D01*
X18885750Y4165000D01*
X19376310Y4165000D01*
X19609699Y4261673D01*
X19750936Y4402911D01*
X19785910Y4348559D01*
X19998110Y4203569D01*
X20250000Y4152560D01*
X21550000Y4152560D01*
X21785317Y4196838D01*
X22001441Y4335910D01*
X22123808Y4515000D01*
X22349995Y4515000D01*
X22350000Y4514999D01*
X22746077Y4593785D01*
X23081856Y4818144D01*
X23132662Y4868950D01*
X23115000Y4826310D01*
X23115000Y4335750D01*
X23273750Y4177000D01*
X24398000Y4177000D01*
X24398000Y5176250D01*
X24652000Y5176250D01*
X24652000Y4177000D01*
X25776250Y4177000D01*
X25935000Y4335750D01*
X25935000Y4826310D01*
X31065000Y4826310D01*
X31065000Y4335750D01*
X31223750Y4177000D01*
X32348000Y4177000D01*
X32348000Y5176250D01*
X32602000Y5176250D01*
X32602000Y4177000D01*
X33726250Y4177000D01*
X33885000Y4335750D01*
X33885000Y4826310D01*
X33788327Y5059699D01*
X33609698Y5238327D01*
X33376309Y5335000D01*
X32760750Y5335000D01*
X32602000Y5176250D01*
X32348000Y5176250D01*
X32189250Y5335000D01*
X31573691Y5335000D01*
X31340302Y5238327D01*
X31161673Y5059699D01*
X31065000Y4826310D01*
X25935000Y4826310D01*
X25838327Y5059699D01*
X25659698Y5238327D01*
X25426309Y5335000D01*
X24810750Y5335000D01*
X24652000Y5176250D01*
X24398000Y5176250D01*
X24239250Y5335000D01*
X23623691Y5335000D01*
X23512597Y5288983D01*
X23656215Y5503923D01*
X23735001Y5900000D01*
X23656215Y6296078D01*
X23431856Y6631856D01*
X23096078Y6856215D01*
X22700000Y6935001D01*
X22303923Y6856215D01*
X22054089Y6689281D01*
X22014090Y6751441D01*
X21801890Y6896431D01*
X21788803Y6899081D01*
X22001441Y7035910D01*
X22146431Y7248110D01*
X22197440Y7500000D01*
X22197440Y9000000D01*
X22153162Y9235317D01*
X22014090Y9451441D01*
X21801890Y9596431D01*
X21550000Y9647440D01*
X20250000Y9647440D01*
X20014683Y9603162D01*
X19798559Y9464090D01*
X19750866Y9394289D01*
X19714090Y9451441D01*
X19501890Y9596431D01*
X19250000Y9647440D01*
X17950000Y9647440D01*
X17714683Y9603162D01*
X17498559Y9464090D01*
X17376192Y9285000D01*
X17239975Y9285000D01*
X17076890Y9396431D01*
X16825000Y9447440D01*
X15575000Y9447440D01*
X15339683Y9403162D01*
X15123559Y9264090D01*
X15001192Y9085000D01*
X7650005Y9085000D01*
X7650000Y9085001D01*
X7253923Y9006215D01*
X6918144Y8781856D01*
X6918142Y8781853D01*
X6868144Y8731856D01*
X6767894Y8581821D01*
X6455759Y9048964D01*
X5925492Y9403277D01*
X5300000Y9527695D01*
X4674508Y9403277D01*
X4144241Y9048964D01*
X3789928Y8518697D01*
X3665510Y7893205D01*
X685000Y7893205D01*
X685000Y11924246D01*
X7108901Y11924246D01*
X7139847Y11796441D01*
X7452958Y11238644D01*
X7955695Y10843129D01*
X8571520Y10670110D01*
X9170960Y10670110D01*
X9170960Y12177600D01*
X9424960Y12177600D01*
X9424960Y10670110D01*
X10024400Y10670110D01*
X10640225Y10843129D01*
X11142962Y11238644D01*
X11456073Y11796441D01*
X11487019Y11924246D01*
X11367665Y12177600D01*
X9424960Y12177600D01*
X9170960Y12177600D01*
X7228255Y12177600D01*
X7108901Y11924246D01*
X685000Y11924246D01*
X685000Y12684954D01*
X7108901Y12684954D01*
X7228255Y12431600D01*
X9170960Y12431600D01*
X9170960Y13939090D01*
X9424960Y13939090D01*
X9424960Y12431600D01*
X11367665Y12431600D01*
X11487019Y12684954D01*
X11456073Y12812759D01*
X11142962Y13370556D01*
X10640225Y13766071D01*
X10024400Y13939090D01*
X9424960Y13939090D01*
X9170960Y13939090D01*
X8571520Y13939090D01*
X7955695Y13766071D01*
X7452958Y13370556D01*
X7139847Y12812759D01*
X7108901Y12684954D01*
X685000Y12684954D01*
X685000Y15565046D01*
X7108901Y15565046D01*
X7139847Y15437241D01*
X7452958Y14879444D01*
X7955695Y14483929D01*
X8571520Y14310910D01*
X9170960Y14310910D01*
X9170960Y15818400D01*
X9424960Y15818400D01*
X9424960Y14310910D01*
X10024400Y14310910D01*
X10640225Y14483929D01*
X10678765Y14514250D01*
X28065000Y14514250D01*
X28065000Y14048690D01*
X28161673Y13815301D01*
X28340302Y13636673D01*
X28573691Y13540000D01*
X29164250Y13540000D01*
X29323000Y13698750D01*
X29323000Y14673000D01*
X28223750Y14673000D01*
X28065000Y14514250D01*
X10678765Y14514250D01*
X11142962Y14879444D01*
X11456073Y15437241D01*
X11487019Y15565046D01*
X11367665Y15818400D01*
X9424960Y15818400D01*
X9170960Y15818400D01*
X7228255Y15818400D01*
X7108901Y15565046D01*
X685000Y15565046D01*
X685000Y16325754D01*
X7108901Y16325754D01*
X7228255Y16072400D01*
X9170960Y16072400D01*
X9170960Y17579890D01*
X9424960Y17579890D01*
X9424960Y16072400D01*
X11367665Y16072400D01*
X11487019Y16325754D01*
X11456073Y16453559D01*
X11142962Y17011356D01*
X10640225Y17406871D01*
X10024400Y17579890D01*
X9424960Y17579890D01*
X9170960Y17579890D01*
X8571520Y17579890D01*
X7955695Y17406871D01*
X7452958Y17011356D01*
X7139847Y16453559D01*
X7108901Y16325754D01*
X685000Y16325754D01*
X685000Y21643205D01*
X3665510Y21643205D01*
X3665510Y20356795D01*
X3789928Y19731303D01*
X4144241Y19201036D01*
X4674508Y18846723D01*
X5300000Y18722305D01*
X5925492Y18846723D01*
X6455759Y19201036D01*
X6810072Y19731303D01*
X6876026Y20062877D01*
X7203923Y19843785D01*
X7600000Y19764999D01*
X7851368Y19815000D01*
X14765000Y19815000D01*
X14765000Y16800000D01*
X14828561Y16480459D01*
X14974982Y16261325D01*
X15009566Y16209566D01*
X15309566Y15909566D01*
X15580459Y15728561D01*
X15900000Y15665000D01*
X16015116Y15665000D01*
X16200000Y15627560D01*
X16790000Y15627560D01*
X17025317Y15671838D01*
X17241441Y15810910D01*
X17386431Y16023110D01*
X17437440Y16275000D01*
X17437440Y16725000D01*
X17393162Y16960317D01*
X17254090Y17176441D01*
X17041890Y17321431D01*
X16790000Y17372440D01*
X16435000Y17372440D01*
X16435000Y19455598D01*
X16450000Y19452560D01*
X17750000Y19452560D01*
X17985317Y19496838D01*
X18201441Y19635910D01*
X18346431Y19848110D01*
X18397440Y20100000D01*
X18397440Y21436911D01*
X18443785Y21203923D01*
X18668144Y20868144D01*
X21648713Y17887575D01*
X21600000Y17897440D01*
X20100000Y17897440D01*
X19864683Y17853162D01*
X19648559Y17714090D01*
X19503569Y17501890D01*
X19469773Y17335000D01*
X19084884Y17335000D01*
X18900000Y17372440D01*
X18310000Y17372440D01*
X18074683Y17328162D01*
X17858559Y17189090D01*
X17713569Y16976890D01*
X17662560Y16725000D01*
X17662560Y16275000D01*
X17706838Y16039683D01*
X17845910Y15823559D01*
X18058110Y15678569D01*
X18310000Y15627560D01*
X18900000Y15627560D01*
X19098976Y15665000D01*
X19528808Y15665000D01*
X19635910Y15498559D01*
X19848110Y15353569D01*
X20100000Y15302560D01*
X21600000Y15302560D01*
X21835317Y15346838D01*
X22051441Y15485910D01*
X22196431Y15698110D01*
X22199081Y15711197D01*
X22335910Y15498559D01*
X22548110Y15353569D01*
X22800000Y15302560D01*
X24300000Y15302560D01*
X24535317Y15346838D01*
X24751441Y15485910D01*
X24796126Y15551310D01*
X28065000Y15551310D01*
X28065000Y15085750D01*
X28223750Y14927000D01*
X29323000Y14927000D01*
X29323000Y15901250D01*
X29164250Y16060000D01*
X28573691Y16060000D01*
X28340302Y15963327D01*
X28161673Y15784699D01*
X28065000Y15551310D01*
X24796126Y15551310D01*
X24896431Y15698110D01*
X24947440Y15950000D01*
X24947440Y17250000D01*
X24903162Y17485317D01*
X24764090Y17701441D01*
X24551890Y17846431D01*
X24498795Y17857183D01*
X24416349Y17980571D01*
X24281856Y18181856D01*
X24281853Y18181858D01*
X20435000Y22028712D01*
X20435000Y24301288D01*
X24068142Y20668147D01*
X24068144Y20668144D01*
X24222511Y20565000D01*
X24403922Y20443785D01*
X24800000Y20364999D01*
X24800005Y20365000D01*
X27893156Y20365000D01*
X27935910Y20298559D01*
X28115000Y20176192D01*
X28115000Y18850005D01*
X28114999Y18850000D01*
X28193785Y18453923D01*
X28418144Y18118144D01*
X30707415Y15828873D01*
X30702031Y15820994D01*
X30559698Y15963327D01*
X30326309Y16060000D01*
X29735750Y16060000D01*
X29577000Y15901250D01*
X29577000Y14927000D01*
X29597000Y14927000D01*
X29597000Y14673000D01*
X29577000Y14673000D01*
X29577000Y13698750D01*
X29735750Y13540000D01*
X30326309Y13540000D01*
X30559698Y13636673D01*
X30700936Y13777910D01*
X30735910Y13723559D01*
X30948110Y13578569D01*
X31200000Y13527560D01*
X31440000Y13527560D01*
X31440000Y9787279D01*
X31248559Y9664090D01*
X31194519Y9585000D01*
X25806844Y9585000D01*
X25764090Y9651441D01*
X25551890Y9796431D01*
X25300000Y9847440D01*
X23750000Y9847440D01*
X23514683Y9803162D01*
X23298559Y9664090D01*
X23153569Y9451890D01*
X23102560Y9200000D01*
X23102560Y7900000D01*
X23146838Y7664683D01*
X23285910Y7448559D01*
X23498110Y7303569D01*
X23750000Y7252560D01*
X25300000Y7252560D01*
X25535317Y7296838D01*
X25751441Y7435910D01*
X25805481Y7515000D01*
X31193156Y7515000D01*
X31235910Y7448559D01*
X31448110Y7303569D01*
X31700000Y7252560D01*
X33250000Y7252560D01*
X33485317Y7296838D01*
X33701441Y7435910D01*
X33846431Y7648110D01*
X33897440Y7900000D01*
X33897440Y9200000D01*
X33853162Y9435317D01*
X33714090Y9651441D01*
X33510000Y9790890D01*
X33510000Y14274995D01*
X33510001Y14275000D01*
X33431215Y14671077D01*
X33347440Y14796455D01*
X33347440Y15425000D01*
X33303162Y15660317D01*
X33164090Y15876441D01*
X32985000Y15998808D01*
X32985000Y16049995D01*
X32985001Y16050000D01*
X32906215Y16446077D01*
X32681856Y16781856D01*
X30185000Y19278712D01*
X30185000Y20178808D01*
X30351441Y20285910D01*
X30496431Y20498110D01*
X30499081Y20511197D01*
X30635910Y20298559D01*
X30848110Y20153569D01*
X31100000Y20102560D01*
X32600000Y20102560D01*
X32835317Y20146838D01*
X33051441Y20285910D01*
X33196431Y20498110D01*
X33247440Y20750000D01*
X33247440Y22050000D01*
X33203162Y22285317D01*
X33064090Y22501441D01*
X32885000Y22623808D01*
X32885000Y24548632D01*
X32935001Y24800000D01*
X32856215Y25196078D01*
X32631856Y25531856D01*
X32296078Y25756215D01*
X31900000Y25835001D01*
X31503923Y25756215D01*
X31168145Y25531856D01*
X31118144Y25481856D01*
X30893785Y25146077D01*
X30814999Y24750000D01*
X30815000Y24749995D01*
X30815000Y22621192D01*
X30648559Y22514090D01*
X30503569Y22301890D01*
X30500919Y22288803D01*
X30364090Y22501441D01*
X30151890Y22646431D01*
X29900000Y22697440D01*
X28400000Y22697440D01*
X28164683Y22653162D01*
X27948559Y22514090D01*
X27894519Y22435000D01*
X25228711Y22435000D01*
X21531856Y26131856D01*
X21196077Y26356215D01*
X20800000Y26435001D01*
X20435000Y26362397D01*
X20435000Y29100000D01*
X20356215Y29496077D01*
X20135159Y29826913D01*
X20394698Y30000332D01*
X20650000Y30382418D01*
X20905302Y30000332D01*
X21370849Y29689263D01*
X21920000Y29580030D01*
X22469151Y29689263D01*
X22934698Y30000332D01*
X23245767Y30465879D01*
X23355000Y31015030D01*
X23355000Y31784970D01*
X23245767Y32334121D01*
X22934698Y32799668D01*
X22469151Y33110737D01*
X21920000Y33219970D01*
X21370849Y33110737D01*
X20905302Y32799668D01*
X20650000Y32417582D01*
X20394698Y32799668D01*
X19929151Y33110737D01*
X19380000Y33219970D01*
X18830849Y33110737D01*
X18365302Y32799668D01*
X18110000Y32417582D01*
X17854698Y32799668D01*
X17389151Y33110737D01*
X16840000Y33219970D01*
X16290849Y33110737D01*
X15825302Y32799668D01*
X15570000Y32417582D01*
X15314698Y32799668D01*
X14849151Y33110737D01*
X14300000Y33219970D01*
X13750849Y33110737D01*
X13285302Y32799668D01*
X12974233Y32334121D01*
X12865000Y31784970D01*
X12865000Y31015030D01*
X12974233Y30465879D01*
X13285302Y30000332D01*
X13750849Y29689263D01*
X14300000Y29580030D01*
X14849151Y29689263D01*
X15314698Y30000332D01*
X15570000Y30382418D01*
X15825302Y30000332D01*
X16072794Y29834963D01*
X16068144Y29831856D01*
X15843785Y29496077D01*
X15764999Y29100000D01*
X15843785Y28703923D01*
X16065000Y28372849D01*
X16065000Y24806844D01*
X15998559Y24764090D01*
X15853569Y24551890D01*
X15802560Y24300000D01*
X15802560Y22800000D01*
X15846838Y22564683D01*
X15985910Y22348559D01*
X16198110Y22203569D01*
X16211197Y22200919D01*
X15998559Y22064090D01*
X15876192Y21885000D01*
X7650005Y21885000D01*
X7650000Y21885001D01*
X7253923Y21806215D01*
X6934490Y21592778D01*
X6934490Y21643205D01*
X6810072Y22268697D01*
X6455759Y22798964D01*
X5925492Y23153277D01*
X5300000Y23277695D01*
X4674508Y23153277D01*
X4144241Y22798964D01*
X3789928Y22268697D01*
X3665510Y21643205D01*
X685000Y21643205D01*
X685000Y25674246D01*
X7108901Y25674246D01*
X7139847Y25546441D01*
X7452958Y24988644D01*
X7955695Y24593129D01*
X8571520Y24420110D01*
X9170960Y24420110D01*
X9170960Y25927600D01*
X9424960Y25927600D01*
X9424960Y24420110D01*
X10024400Y24420110D01*
X10640225Y24593129D01*
X11142962Y24988644D01*
X11456073Y25546441D01*
X11487019Y25674246D01*
X11367665Y25927600D01*
X9424960Y25927600D01*
X9170960Y25927600D01*
X7228255Y25927600D01*
X7108901Y25674246D01*
X685000Y25674246D01*
X685000Y26434954D01*
X7108901Y26434954D01*
X7228255Y26181600D01*
X9170960Y26181600D01*
X9170960Y27689090D01*
X9424960Y27689090D01*
X9424960Y26181600D01*
X11367665Y26181600D01*
X11487019Y26434954D01*
X11456073Y26562759D01*
X11142962Y27120556D01*
X10640225Y27516071D01*
X10024400Y27689090D01*
X9424960Y27689090D01*
X9170960Y27689090D01*
X8571520Y27689090D01*
X7955695Y27516071D01*
X7452958Y27120556D01*
X7139847Y26562759D01*
X7108901Y26434954D01*
X685000Y26434954D01*
X685000Y32001400D01*
X1014250Y32001400D01*
X1173000Y32160150D01*
X1173000Y33373000D01*
X1427000Y33373000D01*
X1427000Y32160150D01*
X1585750Y32001400D01*
X2442309Y32001400D01*
X2675698Y32098073D01*
X2854327Y32276701D01*
X2951000Y32510090D01*
X2951000Y33214250D01*
X2792250Y33373000D01*
X1427000Y33373000D01*
X1173000Y33373000D01*
X1153000Y33373000D01*
X1153000Y33627000D01*
X1173000Y33627000D01*
X1173000Y33647000D01*
X1427000Y33647000D01*
X1427000Y33627000D01*
X2792250Y33627000D01*
X2951000Y33785750D01*
X2951000Y34489910D01*
X2854327Y34723299D01*
X2675698Y34901927D01*
X2522220Y34965500D01*
X2544415Y34980330D01*
X2560899Y35005000D01*
X2917417Y35005000D01*
X2985910Y34898559D01*
X3198110Y34753569D01*
X3450000Y34702560D01*
X4950000Y34702560D01*
X5185317Y34746838D01*
X5401441Y34885910D01*
X5546431Y35098110D01*
X5549081Y35111197D01*
X5685910Y34898559D01*
X5898110Y34753569D01*
X6150000Y34702560D01*
X7650000Y34702560D01*
X7885317Y34746838D01*
X8101441Y34885910D01*
X8246431Y35098110D01*
X8258964Y35160000D01*
X28516655Y35160000D01*
X28630729Y34586511D01*
X28955585Y34100330D01*
X29270366Y33890000D01*
X28955585Y33679670D01*
X28630729Y33193489D01*
X28516655Y32620000D01*
X28630729Y32046511D01*
X28955585Y31560330D01*
X29270366Y31350000D01*
X28955585Y31139670D01*
X28630729Y30653489D01*
X28516655Y30080000D01*
X28630729Y29506511D01*
X28955585Y29020330D01*
X29441766Y28695474D01*
X30015255Y28581400D01*
X30384745Y28581400D01*
X30958234Y28695474D01*
X31444415Y29020330D01*
X31769271Y29506511D01*
X31883345Y30080000D01*
X31769271Y30653489D01*
X31444415Y31139670D01*
X31129634Y31350000D01*
X31444415Y31560330D01*
X31769271Y32046511D01*
X31883345Y32620000D01*
X31769271Y33193489D01*
X31444415Y33679670D01*
X31129634Y33890000D01*
X31444415Y34100330D01*
X31769271Y34586511D01*
X31883345Y35160000D01*
X31769271Y35733489D01*
X31444415Y36219670D01*
X31422220Y36234500D01*
X31575698Y36298073D01*
X31754327Y36476701D01*
X31851000Y36710090D01*
X31851000Y37414250D01*
X31692250Y37573000D01*
X30327000Y37573000D01*
X30327000Y37553000D01*
X30073000Y37553000D01*
X30073000Y37573000D01*
X28707750Y37573000D01*
X28549000Y37414250D01*
X28549000Y36710090D01*
X28645673Y36476701D01*
X28824302Y36298073D01*
X28977780Y36234500D01*
X28955585Y36219670D01*
X28630729Y35733489D01*
X28516655Y35160000D01*
X8258964Y35160000D01*
X8297440Y35350000D01*
X8297440Y36650000D01*
X8253162Y36885317D01*
X8114090Y37101441D01*
X7935000Y37223808D01*
X7935000Y38871288D01*
X8468681Y39404970D01*
X12865000Y39404970D01*
X12865000Y38635030D01*
X12974233Y38085879D01*
X13285302Y37620332D01*
X13750849Y37309263D01*
X14300000Y37200030D01*
X14849151Y37309263D01*
X15314698Y37620332D01*
X15567149Y37998151D01*
X15915104Y37565500D01*
X16408181Y37295633D01*
X16490961Y37278096D01*
X16713000Y37400085D01*
X16713000Y38893000D01*
X16693000Y38893000D01*
X16693000Y39147000D01*
X16713000Y39147000D01*
X16713000Y40639915D01*
X16967000Y40639915D01*
X16967000Y39147000D01*
X16987000Y39147000D01*
X16987000Y38893000D01*
X16967000Y38893000D01*
X16967000Y37400085D01*
X17189039Y37278096D01*
X17271819Y37295633D01*
X17764896Y37565500D01*
X18112851Y37998151D01*
X18365302Y37620332D01*
X18830849Y37309263D01*
X19380000Y37200030D01*
X19929151Y37309263D01*
X20394698Y37620332D01*
X20650000Y38002418D01*
X20905302Y37620332D01*
X21370849Y37309263D01*
X21920000Y37200030D01*
X22469151Y37309263D01*
X22934698Y37620332D01*
X23245767Y38085879D01*
X23355000Y38635030D01*
X23355000Y38689910D01*
X28549000Y38689910D01*
X28549000Y37985750D01*
X28707750Y37827000D01*
X30073000Y37827000D01*
X30073000Y39039850D01*
X30327000Y39039850D01*
X30327000Y37827000D01*
X31692250Y37827000D01*
X31851000Y37985750D01*
X31851000Y38689910D01*
X31754327Y38923299D01*
X31575698Y39101927D01*
X31342309Y39198600D01*
X30485750Y39198600D01*
X30327000Y39039850D01*
X30073000Y39039850D01*
X29914250Y39198600D01*
X29057691Y39198600D01*
X28824302Y39101927D01*
X28645673Y38923299D01*
X28549000Y38689910D01*
X23355000Y38689910D01*
X23355000Y39404970D01*
X23245767Y39954121D01*
X22934698Y40419668D01*
X22469151Y40730737D01*
X21920000Y40839970D01*
X21370849Y40730737D01*
X20905302Y40419668D01*
X20650000Y40037582D01*
X20394698Y40419668D01*
X19929151Y40730737D01*
X19380000Y40839970D01*
X18830849Y40730737D01*
X18365302Y40419668D01*
X18112851Y40041849D01*
X17764896Y40474500D01*
X17271819Y40744367D01*
X17189039Y40761904D01*
X16967000Y40639915D01*
X16713000Y40639915D01*
X16490961Y40761904D01*
X16408181Y40744367D01*
X15915104Y40474500D01*
X15567149Y40041849D01*
X15314698Y40419668D01*
X14849151Y40730737D01*
X14300000Y40839970D01*
X13750849Y40730737D01*
X13285302Y40419668D01*
X12974233Y39954121D01*
X12865000Y39404970D01*
X8468681Y39404970D01*
X12331856Y43268145D01*
X12556215Y43603923D01*
X12635001Y44000000D01*
X12556215Y44396078D01*
X12331856Y44731856D01*
X11996078Y44956215D01*
X11600000Y45035001D01*
X11203923Y44956215D01*
X10868145Y44731856D01*
X6168144Y40031856D01*
X5943785Y39696077D01*
X5864999Y39300000D01*
X5865000Y39299995D01*
X5865000Y37221192D01*
X5698559Y37114090D01*
X5553569Y36901890D01*
X5550919Y36888803D01*
X5414090Y37101441D01*
X5201890Y37246431D01*
X4950000Y37297440D01*
X3450000Y37297440D01*
X3214683Y37253162D01*
X2998559Y37114090D01*
X2971850Y37075000D01*
X2560899Y37075000D01*
X2544415Y37099670D01*
X2229634Y37310000D01*
X2544415Y37520330D01*
X2869271Y38006511D01*
X2983345Y38580000D01*
X2869271Y39153489D01*
X2544415Y39639670D01*
X2058234Y39964526D01*
X1484745Y40078600D01*
X1115255Y40078600D01*
X685000Y39993017D01*
X685000Y43251400D01*
X1014250Y43251400D01*
X1173000Y43410150D01*
X1173000Y44623000D01*
X1427000Y44623000D01*
X1427000Y43410150D01*
X1585750Y43251400D01*
X2442309Y43251400D01*
X2675698Y43348073D01*
X2854327Y43526701D01*
X2951000Y43760090D01*
X2951000Y44464250D01*
X2792250Y44623000D01*
X1427000Y44623000D01*
X1173000Y44623000D01*
X1153000Y44623000D01*
X1153000Y44877000D01*
X1173000Y44877000D01*
X1173000Y44897000D01*
X1427000Y44897000D01*
X1427000Y44877000D01*
X2792250Y44877000D01*
X2951000Y45035750D01*
X2951000Y45739910D01*
X2854327Y45973299D01*
X2675698Y46151927D01*
X2522220Y46215500D01*
X2544415Y46230330D01*
X2560899Y46255000D01*
X2917417Y46255000D01*
X2985910Y46148559D01*
X3198110Y46003569D01*
X3450000Y45952560D01*
X4950000Y45952560D01*
X5185317Y45996838D01*
X5401441Y46135910D01*
X5546431Y46348110D01*
X5549081Y46361197D01*
X5685910Y46148559D01*
X5898110Y46003569D01*
X6150000Y45952560D01*
X7650000Y45952560D01*
X7885317Y45996838D01*
X8101441Y46135910D01*
X8155481Y46215000D01*
X11021288Y46215000D01*
X13165000Y44071289D01*
X13165000Y42000000D01*
X13243785Y41603923D01*
X13468144Y41268144D01*
X13803923Y41043785D01*
X14200000Y40965000D01*
X14596077Y41043785D01*
X14931856Y41268144D01*
X15156215Y41603923D01*
X15235000Y42000000D01*
X15235000Y44464250D01*
X20465000Y44464250D01*
X20465000Y43998690D01*
X20561673Y43765301D01*
X20740302Y43586673D01*
X20973691Y43490000D01*
X21564250Y43490000D01*
X21723000Y43648750D01*
X21723000Y44623000D01*
X20623750Y44623000D01*
X20465000Y44464250D01*
X15235000Y44464250D01*
X15235000Y44500000D01*
X15156215Y44896077D01*
X15156215Y44896078D01*
X15066349Y45030571D01*
X14931856Y45231856D01*
X14931853Y45231858D01*
X13449462Y46714250D01*
X20465000Y46714250D01*
X20465000Y46248690D01*
X20561673Y46015301D01*
X20701975Y45875000D01*
X20561673Y45734699D01*
X20465000Y45501310D01*
X20465000Y45035750D01*
X20623750Y44877000D01*
X21723000Y44877000D01*
X21723000Y45851250D01*
X21699250Y45875000D01*
X21723000Y45898750D01*
X21723000Y46873000D01*
X20623750Y46873000D01*
X20465000Y46714250D01*
X13449462Y46714250D01*
X12181856Y47981856D01*
X11846077Y48206215D01*
X11450000Y48285001D01*
X11449995Y48285000D01*
X9643571Y48285000D01*
X9656215Y48303923D01*
X9735000Y48700000D01*
X9735000Y48964250D01*
X20465000Y48964250D01*
X20465000Y48498690D01*
X20561673Y48265301D01*
X20701975Y48125000D01*
X20561673Y47984699D01*
X20465000Y47751310D01*
X20465000Y47285750D01*
X20623750Y47127000D01*
X21723000Y47127000D01*
X21723000Y48101250D01*
X21699250Y48125000D01*
X21723000Y48148750D01*
X21723000Y49123000D01*
X20623750Y49123000D01*
X20465000Y48964250D01*
X9735000Y48964250D01*
X9735000Y50001310D01*
X20465000Y50001310D01*
X20465000Y49535750D01*
X20623750Y49377000D01*
X21723000Y49377000D01*
X21723000Y50351250D01*
X21564250Y50510000D01*
X20973691Y50510000D01*
X20740302Y50413327D01*
X20561673Y50234699D01*
X20465000Y50001310D01*
X9735000Y50001310D01*
X9735000Y52112570D01*
X17347565Y52112570D01*
X17347570Y52112569D01*
X17743647Y52191355D01*
X18079426Y52415714D01*
X18631856Y52968144D01*
X18856215Y53303923D01*
X18888256Y53465000D01*
X22071288Y53465000D01*
X22718142Y52818147D01*
X22718144Y52818144D01*
X23315000Y52221289D01*
X23315000Y50446192D01*
X23148559Y50339090D01*
X23102031Y50270994D01*
X22959698Y50413327D01*
X22726309Y50510000D01*
X22135750Y50510000D01*
X21977000Y50351250D01*
X21977000Y49377000D01*
X21997000Y49377000D01*
X21997000Y49123000D01*
X21977000Y49123000D01*
X21977000Y48148750D01*
X22000750Y48125000D01*
X21977000Y48101250D01*
X21977000Y47127000D01*
X21997000Y47127000D01*
X21997000Y46873000D01*
X21977000Y46873000D01*
X21977000Y45898750D01*
X22000750Y45875000D01*
X21977000Y45851250D01*
X21977000Y44877000D01*
X21997000Y44877000D01*
X21997000Y44623000D01*
X21977000Y44623000D01*
X21977000Y43648750D01*
X22135750Y43490000D01*
X22426288Y43490000D01*
X22071288Y43135000D01*
X20200000Y43135000D01*
X19803923Y43056215D01*
X19468144Y42831856D01*
X19243785Y42496077D01*
X19165000Y42100000D01*
X19243785Y41703923D01*
X19468144Y41368144D01*
X19803923Y41143785D01*
X20200000Y41065000D01*
X22499995Y41065000D01*
X22500000Y41064999D01*
X22896077Y41143785D01*
X23231856Y41368144D01*
X23739811Y41876099D01*
X23664999Y41500000D01*
X23743785Y41103923D01*
X23968144Y40768144D01*
X24303923Y40543785D01*
X24700000Y40464999D01*
X25096077Y40543785D01*
X25431856Y40768144D01*
X27456853Y42793142D01*
X27456856Y42793144D01*
X27609952Y43022270D01*
X27681215Y43128922D01*
X27760000Y43525000D01*
X27760000Y54912721D01*
X27951441Y55035910D01*
X28005481Y55115000D01*
X33393156Y55115000D01*
X33435910Y55048559D01*
X33435910Y55048559D01*
G37*
X33435910Y55048559D02*
X33648110Y54903569D01*
X33900000Y54852560D01*
X35450000Y54852560D01*
X35615000Y54883607D01*
X35615000Y685000D01*
X10466072Y685000D01*
X10640225Y733929D01*
X11142962Y1129444D01*
X11456073Y1687241D01*
X11487019Y1815046D01*
X11367665Y2068400D01*
X9424960Y2068400D01*
X9424960Y2048400D01*
X9170960Y2048400D01*
X9170960Y2068400D01*
X7228255Y2068400D01*
X7108901Y1815046D01*
X7139847Y1687241D01*
X7452958Y1129444D01*
X7955695Y733929D01*
X8129848Y685000D01*
X685000Y685000D01*
X685000Y2575754D01*
X7108901Y2575754D01*
X7228255Y2322400D01*
X9170960Y2322400D01*
X9170960Y3829890D01*
X9424960Y3829890D01*
X9424960Y2322400D01*
X11367665Y2322400D01*
X11487019Y2575754D01*
X11456073Y2703559D01*
X11142962Y3261356D01*
X10640225Y3656871D01*
X10258032Y3764250D01*
X23115000Y3764250D01*
X23115000Y3273690D01*
X23211673Y3040301D01*
X23390302Y2861673D01*
X23623691Y2765000D01*
X24239250Y2765000D01*
X24398000Y2923750D01*
X24398000Y3923000D01*
X24652000Y3923000D01*
X24652000Y2923750D01*
X24810750Y2765000D01*
X25426309Y2765000D01*
X25659698Y2861673D01*
X25838327Y3040301D01*
X25935000Y3273690D01*
X25935000Y3764250D01*
X31065000Y3764250D01*
X31065000Y3273690D01*
X31161673Y3040301D01*
X31340302Y2861673D01*
X31573691Y2765000D01*
X32189250Y2765000D01*
X32348000Y2923750D01*
X32348000Y3923000D01*
X32602000Y3923000D01*
X32602000Y2923750D01*
X32760750Y2765000D01*
X33376309Y2765000D01*
X33609698Y2861673D01*
X33788327Y3040301D01*
X33885000Y3273690D01*
X33885000Y3764250D01*
X33726250Y3923000D01*
X32602000Y3923000D01*
X32348000Y3923000D01*
X31223750Y3923000D01*
X31065000Y3764250D01*
X25935000Y3764250D01*
X25776250Y3923000D01*
X24652000Y3923000D01*
X24398000Y3923000D01*
X23273750Y3923000D01*
X23115000Y3764250D01*
X10258032Y3764250D01*
X10024400Y3829890D01*
X9424960Y3829890D01*
X9170960Y3829890D01*
X8571520Y3829890D01*
X7955695Y3656871D01*
X7452958Y3261356D01*
X7139847Y2703559D01*
X7108901Y2575754D01*
X685000Y2575754D01*
X685000Y7893205D01*
X3665510Y7893205D01*
X3665510Y6606795D01*
X3789928Y5981303D01*
X4144241Y5451036D01*
X4674508Y5096723D01*
X5300000Y4972305D01*
X5925492Y5096723D01*
X6176213Y5264250D01*
X14940000Y5264250D01*
X14940000Y4673691D01*
X15036673Y4440302D01*
X15215301Y4261673D01*
X15448690Y4165000D01*
X15914250Y4165000D01*
X16073000Y4323750D01*
X16073000Y5423000D01*
X16327000Y5423000D01*
X16327000Y4323750D01*
X16485750Y4165000D01*
X16951310Y4165000D01*
X17184699Y4261673D01*
X17363327Y4440302D01*
X17387500Y4498661D01*
X17411673Y4440302D01*
X17590301Y4261673D01*
X17823690Y4165000D01*
X18314250Y4165000D01*
X18473000Y4323750D01*
X18473000Y5423000D01*
X17473750Y5423000D01*
X17387500Y5336750D01*
X17301250Y5423000D01*
X16327000Y5423000D01*
X16073000Y5423000D01*
X15098750Y5423000D01*
X14940000Y5264250D01*
X6176213Y5264250D01*
X6455759Y5451036D01*
X6810072Y5981303D01*
X6934490Y6606795D01*
X6934490Y7223813D01*
X7203923Y7043785D01*
X7600000Y6964999D01*
X7851368Y7015000D01*
X15003808Y7015000D01*
X15110910Y6848559D01*
X15179006Y6802031D01*
X15036673Y6659698D01*
X14940000Y6426309D01*
X14940000Y5835750D01*
X15098750Y5677000D01*
X16073000Y5677000D01*
X16073000Y5697000D01*
X16327000Y5697000D01*
X16327000Y5677000D01*
X17301250Y5677000D01*
X17387500Y5763250D01*
X17473750Y5677000D01*
X18473000Y5677000D01*
X18473000Y5697000D01*
X18727000Y5697000D01*
X18727000Y5677000D01*
X18747000Y5677000D01*
X18747000Y5423000D01*
X18727000Y5423000D01*
X18727000Y4323750D01*
X18885750Y4165000D01*
X19376310Y4165000D01*
X19609699Y4261673D01*
X19750936Y4402911D01*
X19785910Y4348559D01*
X19998110Y4203569D01*
X20250000Y4152560D01*
X21550000Y4152560D01*
X21785317Y4196838D01*
X22001441Y4335910D01*
X22123808Y4515000D01*
X22349995Y4515000D01*
X22350000Y4514999D01*
X22746077Y4593785D01*
X23081856Y4818144D01*
X23132662Y4868950D01*
X23115000Y4826310D01*
X23115000Y4335750D01*
X23273750Y4177000D01*
X24398000Y4177000D01*
X24398000Y5176250D01*
X24652000Y5176250D01*
X24652000Y4177000D01*
X25776250Y4177000D01*
X25935000Y4335750D01*
X25935000Y4826310D01*
X31065000Y4826310D01*
X31065000Y4335750D01*
X31223750Y4177000D01*
X32348000Y4177000D01*
X32348000Y5176250D01*
X32602000Y5176250D01*
X32602000Y4177000D01*
X33726250Y4177000D01*
X33885000Y4335750D01*
X33885000Y4826310D01*
X33788327Y5059699D01*
X33609698Y5238327D01*
X33376309Y5335000D01*
X32760750Y5335000D01*
X32602000Y5176250D01*
X32348000Y5176250D01*
X32189250Y5335000D01*
X31573691Y5335000D01*
X31340302Y5238327D01*
X31161673Y5059699D01*
X31065000Y4826310D01*
X25935000Y4826310D01*
X25838327Y5059699D01*
X25659698Y5238327D01*
X25426309Y5335000D01*
X24810750Y5335000D01*
X24652000Y5176250D01*
X24398000Y5176250D01*
X24239250Y5335000D01*
X23623691Y5335000D01*
X23512597Y5288983D01*
X23656215Y5503923D01*
X23735001Y5900000D01*
X23656215Y6296078D01*
X23431856Y6631856D01*
X23096078Y6856215D01*
X22700000Y6935001D01*
X22303923Y6856215D01*
X22054089Y6689281D01*
X22014090Y6751441D01*
X21801890Y6896431D01*
X21788803Y6899081D01*
X22001441Y7035910D01*
X22146431Y7248110D01*
X22197440Y7500000D01*
X22197440Y9000000D01*
X22153162Y9235317D01*
X22014090Y9451441D01*
X21801890Y9596431D01*
X21550000Y9647440D01*
X20250000Y9647440D01*
X20014683Y9603162D01*
X19798559Y9464090D01*
X19750866Y9394289D01*
X19714090Y9451441D01*
X19501890Y9596431D01*
X19250000Y9647440D01*
X17950000Y9647440D01*
X17714683Y9603162D01*
X17498559Y9464090D01*
X17376192Y9285000D01*
X17239975Y9285000D01*
X17076890Y9396431D01*
X16825000Y9447440D01*
X15575000Y9447440D01*
X15339683Y9403162D01*
X15123559Y9264090D01*
X15001192Y9085000D01*
X7650005Y9085000D01*
X7650000Y9085001D01*
X7253923Y9006215D01*
X6918144Y8781856D01*
X6918142Y8781853D01*
X6868144Y8731856D01*
X6767894Y8581821D01*
X6455759Y9048964D01*
X5925492Y9403277D01*
X5300000Y9527695D01*
X4674508Y9403277D01*
X4144241Y9048964D01*
X3789928Y8518697D01*
X3665510Y7893205D01*
X685000Y7893205D01*
X685000Y11924246D01*
X7108901Y11924246D01*
X7139847Y11796441D01*
X7452958Y11238644D01*
X7955695Y10843129D01*
X8571520Y10670110D01*
X9170960Y10670110D01*
X9170960Y12177600D01*
X9424960Y12177600D01*
X9424960Y10670110D01*
X10024400Y10670110D01*
X10640225Y10843129D01*
X11142962Y11238644D01*
X11456073Y11796441D01*
X11487019Y11924246D01*
X11367665Y12177600D01*
X9424960Y12177600D01*
X9170960Y12177600D01*
X7228255Y12177600D01*
X7108901Y11924246D01*
X685000Y11924246D01*
X685000Y12684954D01*
X7108901Y12684954D01*
X7228255Y12431600D01*
X9170960Y12431600D01*
X9170960Y13939090D01*
X9424960Y13939090D01*
X9424960Y12431600D01*
X11367665Y12431600D01*
X11487019Y12684954D01*
X11456073Y12812759D01*
X11142962Y13370556D01*
X10640225Y13766071D01*
X10024400Y13939090D01*
X9424960Y13939090D01*
X9170960Y13939090D01*
X8571520Y13939090D01*
X7955695Y13766071D01*
X7452958Y13370556D01*
X7139847Y12812759D01*
X7108901Y12684954D01*
X685000Y12684954D01*
X685000Y15565046D01*
X7108901Y15565046D01*
X7139847Y15437241D01*
X7452958Y14879444D01*
X7955695Y14483929D01*
X8571520Y14310910D01*
X9170960Y14310910D01*
X9170960Y15818400D01*
X9424960Y15818400D01*
X9424960Y14310910D01*
X10024400Y14310910D01*
X10640225Y14483929D01*
X10678765Y14514250D01*
X28065000Y14514250D01*
X28065000Y14048690D01*
X28161673Y13815301D01*
X28340302Y13636673D01*
X28573691Y13540000D01*
X29164250Y13540000D01*
X29323000Y13698750D01*
X29323000Y14673000D01*
X28223750Y14673000D01*
X28065000Y14514250D01*
X10678765Y14514250D01*
X11142962Y14879444D01*
X11456073Y15437241D01*
X11487019Y15565046D01*
X11367665Y15818400D01*
X9424960Y15818400D01*
X9170960Y15818400D01*
X7228255Y15818400D01*
X7108901Y15565046D01*
X685000Y15565046D01*
X685000Y16325754D01*
X7108901Y16325754D01*
X7228255Y16072400D01*
X9170960Y16072400D01*
X9170960Y17579890D01*
X9424960Y17579890D01*
X9424960Y16072400D01*
X11367665Y16072400D01*
X11487019Y16325754D01*
X11456073Y16453559D01*
X11142962Y17011356D01*
X10640225Y17406871D01*
X10024400Y17579890D01*
X9424960Y17579890D01*
X9170960Y17579890D01*
X8571520Y17579890D01*
X7955695Y17406871D01*
X7452958Y17011356D01*
X7139847Y16453559D01*
X7108901Y16325754D01*
X685000Y16325754D01*
X685000Y21643205D01*
X3665510Y21643205D01*
X3665510Y20356795D01*
X3789928Y19731303D01*
X4144241Y19201036D01*
X4674508Y18846723D01*
X5300000Y18722305D01*
X5925492Y18846723D01*
X6455759Y19201036D01*
X6810072Y19731303D01*
X6876026Y20062877D01*
X7203923Y19843785D01*
X7600000Y19764999D01*
X7851368Y19815000D01*
X14765000Y19815000D01*
X14765000Y16800000D01*
X14828561Y16480459D01*
X14974982Y16261325D01*
X15009566Y16209566D01*
X15309566Y15909566D01*
X15580459Y15728561D01*
X15900000Y15665000D01*
X16015116Y15665000D01*
X16200000Y15627560D01*
X16790000Y15627560D01*
X17025317Y15671838D01*
X17241441Y15810910D01*
X17386431Y16023110D01*
X17437440Y16275000D01*
X17437440Y16725000D01*
X17393162Y16960317D01*
X17254090Y17176441D01*
X17041890Y17321431D01*
X16790000Y17372440D01*
X16435000Y17372440D01*
X16435000Y19455598D01*
X16450000Y19452560D01*
X17750000Y19452560D01*
X17985317Y19496838D01*
X18201441Y19635910D01*
X18346431Y19848110D01*
X18397440Y20100000D01*
X18397440Y21436911D01*
X18443785Y21203923D01*
X18668144Y20868144D01*
X21648713Y17887575D01*
X21600000Y17897440D01*
X20100000Y17897440D01*
X19864683Y17853162D01*
X19648559Y17714090D01*
X19503569Y17501890D01*
X19469773Y17335000D01*
X19084884Y17335000D01*
X18900000Y17372440D01*
X18310000Y17372440D01*
X18074683Y17328162D01*
X17858559Y17189090D01*
X17713569Y16976890D01*
X17662560Y16725000D01*
X17662560Y16275000D01*
X17706838Y16039683D01*
X17845910Y15823559D01*
X18058110Y15678569D01*
X18310000Y15627560D01*
X18900000Y15627560D01*
X19098976Y15665000D01*
X19528808Y15665000D01*
X19635910Y15498559D01*
X19848110Y15353569D01*
X20100000Y15302560D01*
X21600000Y15302560D01*
X21835317Y15346838D01*
X22051441Y15485910D01*
X22196431Y15698110D01*
X22199081Y15711197D01*
X22335910Y15498559D01*
X22548110Y15353569D01*
X22800000Y15302560D01*
X24300000Y15302560D01*
X24535317Y15346838D01*
X24751441Y15485910D01*
X24796126Y15551310D01*
X28065000Y15551310D01*
X28065000Y15085750D01*
X28223750Y14927000D01*
X29323000Y14927000D01*
X29323000Y15901250D01*
X29164250Y16060000D01*
X28573691Y16060000D01*
X28340302Y15963327D01*
X28161673Y15784699D01*
X28065000Y15551310D01*
X24796126Y15551310D01*
X24896431Y15698110D01*
X24947440Y15950000D01*
X24947440Y17250000D01*
X24903162Y17485317D01*
X24764090Y17701441D01*
X24551890Y17846431D01*
X24498795Y17857183D01*
X24416349Y17980571D01*
X24281856Y18181856D01*
X24281853Y18181858D01*
X20435000Y22028712D01*
X20435000Y24301288D01*
X24068142Y20668147D01*
X24068144Y20668144D01*
X24222511Y20565000D01*
X24403922Y20443785D01*
X24800000Y20364999D01*
X24800005Y20365000D01*
X27893156Y20365000D01*
X27935910Y20298559D01*
X28115000Y20176192D01*
X28115000Y18850005D01*
X28114999Y18850000D01*
X28193785Y18453923D01*
X28418144Y18118144D01*
X30707415Y15828873D01*
X30702031Y15820994D01*
X30559698Y15963327D01*
X30326309Y16060000D01*
X29735750Y16060000D01*
X29577000Y15901250D01*
X29577000Y14927000D01*
X29597000Y14927000D01*
X29597000Y14673000D01*
X29577000Y14673000D01*
X29577000Y13698750D01*
X29735750Y13540000D01*
X30326309Y13540000D01*
X30559698Y13636673D01*
X30700936Y13777910D01*
X30735910Y13723559D01*
X30948110Y13578569D01*
X31200000Y13527560D01*
X31440000Y13527560D01*
X31440000Y9787279D01*
X31248559Y9664090D01*
X31194519Y9585000D01*
X25806844Y9585000D01*
X25764090Y9651441D01*
X25551890Y9796431D01*
X25300000Y9847440D01*
X23750000Y9847440D01*
X23514683Y9803162D01*
X23298559Y9664090D01*
X23153569Y9451890D01*
X23102560Y9200000D01*
X23102560Y7900000D01*
X23146838Y7664683D01*
X23285910Y7448559D01*
X23498110Y7303569D01*
X23750000Y7252560D01*
X25300000Y7252560D01*
X25535317Y7296838D01*
X25751441Y7435910D01*
X25805481Y7515000D01*
X31193156Y7515000D01*
X31235910Y7448559D01*
X31448110Y7303569D01*
X31700000Y7252560D01*
X33250000Y7252560D01*
X33485317Y7296838D01*
X33701441Y7435910D01*
X33846431Y7648110D01*
X33897440Y7900000D01*
X33897440Y9200000D01*
X33853162Y9435317D01*
X33714090Y9651441D01*
X33510000Y9790890D01*
X33510000Y14274995D01*
X33510001Y14275000D01*
X33431215Y14671077D01*
X33347440Y14796455D01*
X33347440Y15425000D01*
X33303162Y15660317D01*
X33164090Y15876441D01*
X32985000Y15998808D01*
X32985000Y16049995D01*
X32985001Y16050000D01*
X32906215Y16446077D01*
X32681856Y16781856D01*
X30185000Y19278712D01*
X30185000Y20178808D01*
X30351441Y20285910D01*
X30496431Y20498110D01*
X30499081Y20511197D01*
X30635910Y20298559D01*
X30848110Y20153569D01*
X31100000Y20102560D01*
X32600000Y20102560D01*
X32835317Y20146838D01*
X33051441Y20285910D01*
X33196431Y20498110D01*
X33247440Y20750000D01*
X33247440Y22050000D01*
X33203162Y22285317D01*
X33064090Y22501441D01*
X32885000Y22623808D01*
X32885000Y24548632D01*
X32935001Y24800000D01*
X32856215Y25196078D01*
X32631856Y25531856D01*
X32296078Y25756215D01*
X31900000Y25835001D01*
X31503923Y25756215D01*
X31168145Y25531856D01*
X31118144Y25481856D01*
X30893785Y25146077D01*
X30814999Y24750000D01*
X30815000Y24749995D01*
X30815000Y22621192D01*
X30648559Y22514090D01*
X30503569Y22301890D01*
X30500919Y22288803D01*
X30364090Y22501441D01*
X30151890Y22646431D01*
X29900000Y22697440D01*
X28400000Y22697440D01*
X28164683Y22653162D01*
X27948559Y22514090D01*
X27894519Y22435000D01*
X25228711Y22435000D01*
X21531856Y26131856D01*
X21196077Y26356215D01*
X20800000Y26435001D01*
X20435000Y26362397D01*
X20435000Y29100000D01*
X20356215Y29496077D01*
X20135159Y29826913D01*
X20394698Y30000332D01*
X20650000Y30382418D01*
X20905302Y30000332D01*
X21370849Y29689263D01*
X21920000Y29580030D01*
X22469151Y29689263D01*
X22934698Y30000332D01*
X23245767Y30465879D01*
X23355000Y31015030D01*
X23355000Y31784970D01*
X23245767Y32334121D01*
X22934698Y32799668D01*
X22469151Y33110737D01*
X21920000Y33219970D01*
X21370849Y33110737D01*
X20905302Y32799668D01*
X20650000Y32417582D01*
X20394698Y32799668D01*
X19929151Y33110737D01*
X19380000Y33219970D01*
X18830849Y33110737D01*
X18365302Y32799668D01*
X18110000Y32417582D01*
X17854698Y32799668D01*
X17389151Y33110737D01*
X16840000Y33219970D01*
X16290849Y33110737D01*
X15825302Y32799668D01*
X15570000Y32417582D01*
X15314698Y32799668D01*
X14849151Y33110737D01*
X14300000Y33219970D01*
X13750849Y33110737D01*
X13285302Y32799668D01*
X12974233Y32334121D01*
X12865000Y31784970D01*
X12865000Y31015030D01*
X12974233Y30465879D01*
X13285302Y30000332D01*
X13750849Y29689263D01*
X14300000Y29580030D01*
X14849151Y29689263D01*
X15314698Y30000332D01*
X15570000Y30382418D01*
X15825302Y30000332D01*
X16072794Y29834963D01*
X16068144Y29831856D01*
X15843785Y29496077D01*
X15764999Y29100000D01*
X15843785Y28703923D01*
X16065000Y28372849D01*
X16065000Y24806844D01*
X15998559Y24764090D01*
X15853569Y24551890D01*
X15802560Y24300000D01*
X15802560Y22800000D01*
X15846838Y22564683D01*
X15985910Y22348559D01*
X16198110Y22203569D01*
X16211197Y22200919D01*
X15998559Y22064090D01*
X15876192Y21885000D01*
X7650005Y21885000D01*
X7650000Y21885001D01*
X7253923Y21806215D01*
X6934490Y21592778D01*
X6934490Y21643205D01*
X6810072Y22268697D01*
X6455759Y22798964D01*
X5925492Y23153277D01*
X5300000Y23277695D01*
X4674508Y23153277D01*
X4144241Y22798964D01*
X3789928Y22268697D01*
X3665510Y21643205D01*
X685000Y21643205D01*
X685000Y25674246D01*
X7108901Y25674246D01*
X7139847Y25546441D01*
X7452958Y24988644D01*
X7955695Y24593129D01*
X8571520Y24420110D01*
X9170960Y24420110D01*
X9170960Y25927600D01*
X9424960Y25927600D01*
X9424960Y24420110D01*
X10024400Y24420110D01*
X10640225Y24593129D01*
X11142962Y24988644D01*
X11456073Y25546441D01*
X11487019Y25674246D01*
X11367665Y25927600D01*
X9424960Y25927600D01*
X9170960Y25927600D01*
X7228255Y25927600D01*
X7108901Y25674246D01*
X685000Y25674246D01*
X685000Y26434954D01*
X7108901Y26434954D01*
X7228255Y26181600D01*
X9170960Y26181600D01*
X9170960Y27689090D01*
X9424960Y27689090D01*
X9424960Y26181600D01*
X11367665Y26181600D01*
X11487019Y26434954D01*
X11456073Y26562759D01*
X11142962Y27120556D01*
X10640225Y27516071D01*
X10024400Y27689090D01*
X9424960Y27689090D01*
X9170960Y27689090D01*
X8571520Y27689090D01*
X7955695Y27516071D01*
X7452958Y27120556D01*
X7139847Y26562759D01*
X7108901Y26434954D01*
X685000Y26434954D01*
X685000Y32001400D01*
X1014250Y32001400D01*
X1173000Y32160150D01*
X1173000Y33373000D01*
X1427000Y33373000D01*
X1427000Y32160150D01*
X1585750Y32001400D01*
X2442309Y32001400D01*
X2675698Y32098073D01*
X2854327Y32276701D01*
X2951000Y32510090D01*
X2951000Y33214250D01*
X2792250Y33373000D01*
X1427000Y33373000D01*
X1173000Y33373000D01*
X1153000Y33373000D01*
X1153000Y33627000D01*
X1173000Y33627000D01*
X1173000Y33647000D01*
X1427000Y33647000D01*
X1427000Y33627000D01*
X2792250Y33627000D01*
X2951000Y33785750D01*
X2951000Y34489910D01*
X2854327Y34723299D01*
X2675698Y34901927D01*
X2522220Y34965500D01*
X2544415Y34980330D01*
X2560899Y35005000D01*
X2917417Y35005000D01*
X2985910Y34898559D01*
X3198110Y34753569D01*
X3450000Y34702560D01*
X4950000Y34702560D01*
X5185317Y34746838D01*
X5401441Y34885910D01*
X5546431Y35098110D01*
X5549081Y35111197D01*
X5685910Y34898559D01*
X5898110Y34753569D01*
X6150000Y34702560D01*
X7650000Y34702560D01*
X7885317Y34746838D01*
X8101441Y34885910D01*
X8246431Y35098110D01*
X8258964Y35160000D01*
X28516655Y35160000D01*
X28630729Y34586511D01*
X28955585Y34100330D01*
X29270366Y33890000D01*
X28955585Y33679670D01*
X28630729Y33193489D01*
X28516655Y32620000D01*
X28630729Y32046511D01*
X28955585Y31560330D01*
X29270366Y31350000D01*
X28955585Y31139670D01*
X28630729Y30653489D01*
X28516655Y30080000D01*
X28630729Y29506511D01*
X28955585Y29020330D01*
X29441766Y28695474D01*
X30015255Y28581400D01*
X30384745Y28581400D01*
X30958234Y28695474D01*
X31444415Y29020330D01*
X31769271Y29506511D01*
X31883345Y30080000D01*
X31769271Y30653489D01*
X31444415Y31139670D01*
X31129634Y31350000D01*
X31444415Y31560330D01*
X31769271Y32046511D01*
X31883345Y32620000D01*
X31769271Y33193489D01*
X31444415Y33679670D01*
X31129634Y33890000D01*
X31444415Y34100330D01*
X31769271Y34586511D01*
X31883345Y35160000D01*
X31769271Y35733489D01*
X31444415Y36219670D01*
X31422220Y36234500D01*
X31575698Y36298073D01*
X31754327Y36476701D01*
X31851000Y36710090D01*
X31851000Y37414250D01*
X31692250Y37573000D01*
X30327000Y37573000D01*
X30327000Y37553000D01*
X30073000Y37553000D01*
X30073000Y37573000D01*
X28707750Y37573000D01*
X28549000Y37414250D01*
X28549000Y36710090D01*
X28645673Y36476701D01*
X28824302Y36298073D01*
X28977780Y36234500D01*
X28955585Y36219670D01*
X28630729Y35733489D01*
X28516655Y35160000D01*
X8258964Y35160000D01*
X8297440Y35350000D01*
X8297440Y36650000D01*
X8253162Y36885317D01*
X8114090Y37101441D01*
X7935000Y37223808D01*
X7935000Y38871288D01*
X8468681Y39404970D01*
X12865000Y39404970D01*
X12865000Y38635030D01*
X12974233Y38085879D01*
X13285302Y37620332D01*
X13750849Y37309263D01*
X14300000Y37200030D01*
X14849151Y37309263D01*
X15314698Y37620332D01*
X15567149Y37998151D01*
X15915104Y37565500D01*
X16408181Y37295633D01*
X16490961Y37278096D01*
X16713000Y37400085D01*
X16713000Y38893000D01*
X16693000Y38893000D01*
X16693000Y39147000D01*
X16713000Y39147000D01*
X16713000Y40639915D01*
X16967000Y40639915D01*
X16967000Y39147000D01*
X16987000Y39147000D01*
X16987000Y38893000D01*
X16967000Y38893000D01*
X16967000Y37400085D01*
X17189039Y37278096D01*
X17271819Y37295633D01*
X17764896Y37565500D01*
X18112851Y37998151D01*
X18365302Y37620332D01*
X18830849Y37309263D01*
X19380000Y37200030D01*
X19929151Y37309263D01*
X20394698Y37620332D01*
X20650000Y38002418D01*
X20905302Y37620332D01*
X21370849Y37309263D01*
X21920000Y37200030D01*
X22469151Y37309263D01*
X22934698Y37620332D01*
X23245767Y38085879D01*
X23355000Y38635030D01*
X23355000Y38689910D01*
X28549000Y38689910D01*
X28549000Y37985750D01*
X28707750Y37827000D01*
X30073000Y37827000D01*
X30073000Y39039850D01*
X30327000Y39039850D01*
X30327000Y37827000D01*
X31692250Y37827000D01*
X31851000Y37985750D01*
X31851000Y38689910D01*
X31754327Y38923299D01*
X31575698Y39101927D01*
X31342309Y39198600D01*
X30485750Y39198600D01*
X30327000Y39039850D01*
X30073000Y39039850D01*
X29914250Y39198600D01*
X29057691Y39198600D01*
X28824302Y39101927D01*
X28645673Y38923299D01*
X28549000Y38689910D01*
X23355000Y38689910D01*
X23355000Y39404970D01*
X23245767Y39954121D01*
X22934698Y40419668D01*
X22469151Y40730737D01*
X21920000Y40839970D01*
X21370849Y40730737D01*
X20905302Y40419668D01*
X20650000Y40037582D01*
X20394698Y40419668D01*
X19929151Y40730737D01*
X19380000Y40839970D01*
X18830849Y40730737D01*
X18365302Y40419668D01*
X18112851Y40041849D01*
X17764896Y40474500D01*
X17271819Y40744367D01*
X17189039Y40761904D01*
X16967000Y40639915D01*
X16713000Y40639915D01*
X16490961Y40761904D01*
X16408181Y40744367D01*
X15915104Y40474500D01*
X15567149Y40041849D01*
X15314698Y40419668D01*
X14849151Y40730737D01*
X14300000Y40839970D01*
X13750849Y40730737D01*
X13285302Y40419668D01*
X12974233Y39954121D01*
X12865000Y39404970D01*
X8468681Y39404970D01*
X12331856Y43268145D01*
X12556215Y43603923D01*
X12635001Y44000000D01*
X12556215Y44396078D01*
X12331856Y44731856D01*
X11996078Y44956215D01*
X11600000Y45035001D01*
X11203923Y44956215D01*
X10868145Y44731856D01*
X6168144Y40031856D01*
X5943785Y39696077D01*
X5864999Y39300000D01*
X5865000Y39299995D01*
X5865000Y37221192D01*
X5698559Y37114090D01*
X5553569Y36901890D01*
X5550919Y36888803D01*
X5414090Y37101441D01*
X5201890Y37246431D01*
X4950000Y37297440D01*
X3450000Y37297440D01*
X3214683Y37253162D01*
X2998559Y37114090D01*
X2971850Y37075000D01*
X2560899Y37075000D01*
X2544415Y37099670D01*
X2229634Y37310000D01*
X2544415Y37520330D01*
X2869271Y38006511D01*
X2983345Y38580000D01*
X2869271Y39153489D01*
X2544415Y39639670D01*
X2058234Y39964526D01*
X1484745Y40078600D01*
X1115255Y40078600D01*
X685000Y39993017D01*
X685000Y43251400D01*
X1014250Y43251400D01*
X1173000Y43410150D01*
X1173000Y44623000D01*
X1427000Y44623000D01*
X1427000Y43410150D01*
X1585750Y43251400D01*
X2442309Y43251400D01*
X2675698Y43348073D01*
X2854327Y43526701D01*
X2951000Y43760090D01*
X2951000Y44464250D01*
X2792250Y44623000D01*
X1427000Y44623000D01*
X1173000Y44623000D01*
X1153000Y44623000D01*
X1153000Y44877000D01*
X1173000Y44877000D01*
X1173000Y44897000D01*
X1427000Y44897000D01*
X1427000Y44877000D01*
X2792250Y44877000D01*
X2951000Y45035750D01*
X2951000Y45739910D01*
X2854327Y45973299D01*
X2675698Y46151927D01*
X2522220Y46215500D01*
X2544415Y46230330D01*
X2560899Y46255000D01*
X2917417Y46255000D01*
X2985910Y46148559D01*
X3198110Y46003569D01*
X3450000Y45952560D01*
X4950000Y45952560D01*
X5185317Y45996838D01*
X5401441Y46135910D01*
X5546431Y46348110D01*
X5549081Y46361197D01*
X5685910Y46148559D01*
X5898110Y46003569D01*
X6150000Y45952560D01*
X7650000Y45952560D01*
X7885317Y45996838D01*
X8101441Y46135910D01*
X8155481Y46215000D01*
X11021288Y46215000D01*
X13165000Y44071289D01*
X13165000Y42000000D01*
X13243785Y41603923D01*
X13468144Y41268144D01*
X13803923Y41043785D01*
X14200000Y40965000D01*
X14596077Y41043785D01*
X14931856Y41268144D01*
X15156215Y41603923D01*
X15235000Y42000000D01*
X15235000Y44464250D01*
X20465000Y44464250D01*
X20465000Y43998690D01*
X20561673Y43765301D01*
X20740302Y43586673D01*
X20973691Y43490000D01*
X21564250Y43490000D01*
X21723000Y43648750D01*
X21723000Y44623000D01*
X20623750Y44623000D01*
X20465000Y44464250D01*
X15235000Y44464250D01*
X15235000Y44500000D01*
X15156215Y44896077D01*
X15156215Y44896078D01*
X15066349Y45030571D01*
X14931856Y45231856D01*
X14931853Y45231858D01*
X13449462Y46714250D01*
X20465000Y46714250D01*
X20465000Y46248690D01*
X20561673Y46015301D01*
X20701975Y45875000D01*
X20561673Y45734699D01*
X20465000Y45501310D01*
X20465000Y45035750D01*
X20623750Y44877000D01*
X21723000Y44877000D01*
X21723000Y45851250D01*
X21699250Y45875000D01*
X21723000Y45898750D01*
X21723000Y46873000D01*
X20623750Y46873000D01*
X20465000Y46714250D01*
X13449462Y46714250D01*
X12181856Y47981856D01*
X11846077Y48206215D01*
X11450000Y48285001D01*
X11449995Y48285000D01*
X9643571Y48285000D01*
X9656215Y48303923D01*
X9735000Y48700000D01*
X9735000Y48964250D01*
X20465000Y48964250D01*
X20465000Y48498690D01*
X20561673Y48265301D01*
X20701975Y48125000D01*
X20561673Y47984699D01*
X20465000Y47751310D01*
X20465000Y47285750D01*
X20623750Y47127000D01*
X21723000Y47127000D01*
X21723000Y48101250D01*
X21699250Y48125000D01*
X21723000Y48148750D01*
X21723000Y49123000D01*
X20623750Y49123000D01*
X20465000Y48964250D01*
X9735000Y48964250D01*
X9735000Y50001310D01*
X20465000Y50001310D01*
X20465000Y49535750D01*
X20623750Y49377000D01*
X21723000Y49377000D01*
X21723000Y50351250D01*
X21564250Y50510000D01*
X20973691Y50510000D01*
X20740302Y50413327D01*
X20561673Y50234699D01*
X20465000Y50001310D01*
X9735000Y50001310D01*
X9735000Y52112570D01*
X17347565Y52112570D01*
X17347570Y52112569D01*
X17743647Y52191355D01*
X18079426Y52415714D01*
X18631856Y52968144D01*
X18856215Y53303923D01*
X18888256Y53465000D01*
X22071288Y53465000D01*
X22718142Y52818147D01*
X22718144Y52818144D01*
X23315000Y52221289D01*
X23315000Y50446192D01*
X23148559Y50339090D01*
X23102031Y50270994D01*
X22959698Y50413327D01*
X22726309Y50510000D01*
X22135750Y50510000D01*
X21977000Y50351250D01*
X21977000Y49377000D01*
X21997000Y49377000D01*
X21997000Y49123000D01*
X21977000Y49123000D01*
X21977000Y48148750D01*
X22000750Y48125000D01*
X21977000Y48101250D01*
X21977000Y47127000D01*
X21997000Y47127000D01*
X21997000Y46873000D01*
X21977000Y46873000D01*
X21977000Y45898750D01*
X22000750Y45875000D01*
X21977000Y45851250D01*
X21977000Y44877000D01*
X21997000Y44877000D01*
X21997000Y44623000D01*
X21977000Y44623000D01*
X21977000Y43648750D01*
X22135750Y43490000D01*
X22426288Y43490000D01*
X22071288Y43135000D01*
X20200000Y43135000D01*
X19803923Y43056215D01*
X19468144Y42831856D01*
X19243785Y42496077D01*
X19165000Y42100000D01*
X19243785Y41703923D01*
X19468144Y41368144D01*
X19803923Y41143785D01*
X20200000Y41065000D01*
X22499995Y41065000D01*
X22500000Y41064999D01*
X22896077Y41143785D01*
X23231856Y41368144D01*
X23739811Y41876099D01*
X23664999Y41500000D01*
X23743785Y41103923D01*
X23968144Y40768144D01*
X24303923Y40543785D01*
X24700000Y40464999D01*
X25096077Y40543785D01*
X25431856Y40768144D01*
X27456853Y42793142D01*
X27456856Y42793144D01*
X27609952Y43022270D01*
X27681215Y43128922D01*
X27760000Y43525000D01*
X27760000Y54912721D01*
X27951441Y55035910D01*
X28005481Y55115000D01*
X33393156Y55115000D01*
X33435910Y55048559D01*
G36*
X1104880Y61262430D02*
X1149158Y61027113D01*
X1288230Y60810989D01*
X1500430Y60665999D01*
X1752320Y60614990D01*
X3352320Y60614990D01*
X3587637Y60659268D01*
X3803761Y60798340D01*
X3948751Y61010540D01*
X3999760Y61262430D01*
X3999760Y61317430D01*
X9452560Y61317430D01*
X9452560Y60050000D01*
X9496838Y59814683D01*
X9635910Y59598559D01*
X9848110Y59453569D01*
X10100000Y59402560D01*
X10577172Y59402560D01*
X10405435Y59331424D01*
X10251756Y59017849D01*
X11550000Y57719605D01*
X12848244Y59017849D01*
X12694565Y59331424D01*
X12512346Y59402560D01*
X13000000Y59402560D01*
X13235317Y59446838D01*
X13451441Y59585910D01*
X13596431Y59798110D01*
X13647440Y60050000D01*
X13647440Y62950000D01*
X13603162Y63185317D01*
X13519713Y63315000D01*
X35615000Y63315000D01*
X35615000Y61918974D01*
X35576309Y61935000D01*
X34960750Y61935000D01*
X34802000Y61776250D01*
X34802000Y60777000D01*
X34822000Y60777000D01*
X34822000Y60523000D01*
X34802000Y60523000D01*
X34802000Y59523750D01*
X34960750Y59365000D01*
X35576309Y59365000D01*
X35615000Y59381026D01*
X35615000Y57414027D01*
X35450000Y57447440D01*
X33900000Y57447440D01*
X33664683Y57403162D01*
X33448559Y57264090D01*
X33394519Y57185000D01*
X28006844Y57185000D01*
X27964090Y57251441D01*
X27751890Y57396431D01*
X27500000Y57447440D01*
X25950000Y57447440D01*
X25714683Y57403162D01*
X25498559Y57264090D01*
X25353569Y57051890D01*
X25302560Y56800000D01*
X25302560Y55500000D01*
X25346838Y55264683D01*
X25485910Y55048559D01*
X25690000Y54909110D01*
X25690000Y50130771D01*
X25564090Y50326441D01*
X25385000Y50448808D01*
X25385000Y52649995D01*
X25385001Y52650000D01*
X25306215Y53046078D01*
X25216349Y53180571D01*
X25081856Y53381856D01*
X25081853Y53381858D01*
X25013711Y53450000D01*
X25231856Y53668145D01*
X25456215Y54003923D01*
X25535001Y54400000D01*
X25456215Y54796078D01*
X25231856Y55131856D01*
X24896078Y55356215D01*
X24500000Y55435001D01*
X24103923Y55356215D01*
X23768145Y55131856D01*
X23550000Y54913711D01*
X23231856Y55231856D01*
X22896077Y55456215D01*
X22500000Y55535001D01*
X22499995Y55535000D01*
X18935000Y55535000D01*
X18935000Y57493156D01*
X19001441Y57535910D01*
X19146431Y57748110D01*
X19197440Y58000000D01*
X19197440Y58714250D01*
X21015000Y58714250D01*
X21015000Y58273691D01*
X21111673Y58040302D01*
X21290301Y57861673D01*
X21523690Y57765000D01*
X21814250Y57765000D01*
X21973000Y57923750D01*
X21973000Y58873000D01*
X22227000Y58873000D01*
X22227000Y57923750D01*
X22385750Y57765000D01*
X22676310Y57765000D01*
X22909699Y57861673D01*
X23088327Y58040302D01*
X23185000Y58273691D01*
X23185000Y58714250D01*
X23026250Y58873000D01*
X22227000Y58873000D01*
X21973000Y58873000D01*
X21173750Y58873000D01*
X21015000Y58714250D01*
X19197440Y58714250D01*
X19197440Y59500000D01*
X19153162Y59735317D01*
X19014090Y59951441D01*
X18801890Y60096431D01*
X18788803Y60099081D01*
X19001441Y60235910D01*
X19123808Y60415000D01*
X21037370Y60415000D01*
X21046838Y60364683D01*
X21185910Y60148559D01*
X21254006Y60102031D01*
X21111673Y59959698D01*
X21015000Y59726309D01*
X21015000Y59285750D01*
X21173750Y59127000D01*
X21973000Y59127000D01*
X21973000Y59147000D01*
X22227000Y59147000D01*
X22227000Y59127000D01*
X23026250Y59127000D01*
X23185000Y59285750D01*
X23185000Y59726309D01*
X23088327Y59959698D01*
X22947090Y60100936D01*
X23001441Y60135910D01*
X23146431Y60348110D01*
X23149699Y60364250D01*
X25315000Y60364250D01*
X25315000Y59873690D01*
X25411673Y59640301D01*
X25590302Y59461673D01*
X25823691Y59365000D01*
X26439250Y59365000D01*
X26598000Y59523750D01*
X26598000Y60523000D01*
X26852000Y60523000D01*
X26852000Y59523750D01*
X27010750Y59365000D01*
X27626309Y59365000D01*
X27859698Y59461673D01*
X28038327Y59640301D01*
X28135000Y59873690D01*
X28135000Y60364250D01*
X33265000Y60364250D01*
X33265000Y59873690D01*
X33361673Y59640301D01*
X33540302Y59461673D01*
X33773691Y59365000D01*
X34389250Y59365000D01*
X34548000Y59523750D01*
X34548000Y60523000D01*
X33423750Y60523000D01*
X33265000Y60364250D01*
X28135000Y60364250D01*
X27976250Y60523000D01*
X26852000Y60523000D01*
X26598000Y60523000D01*
X25473750Y60523000D01*
X25315000Y60364250D01*
X23149699Y60364250D01*
X23197440Y60600000D01*
X23197440Y61426310D01*
X25315000Y61426310D01*
X25315000Y60935750D01*
X25473750Y60777000D01*
X26598000Y60777000D01*
X26598000Y61776250D01*
X26852000Y61776250D01*
X26852000Y60777000D01*
X27976250Y60777000D01*
X28135000Y60935750D01*
X28135000Y61426310D01*
X33265000Y61426310D01*
X33265000Y60935750D01*
X33423750Y60777000D01*
X34548000Y60777000D01*
X34548000Y61776250D01*
X34389250Y61935000D01*
X33773691Y61935000D01*
X33540302Y61838327D01*
X33361673Y61659699D01*
X33265000Y61426310D01*
X28135000Y61426310D01*
X28038327Y61659699D01*
X27859698Y61838327D01*
X27626309Y61935000D01*
X27010750Y61935000D01*
X26852000Y61776250D01*
X26598000Y61776250D01*
X26439250Y61935000D01*
X25823691Y61935000D01*
X25590302Y61838327D01*
X25411673Y61659699D01*
X25315000Y61426310D01*
X23197440Y61426310D01*
X23197440Y61800000D01*
X23153162Y62035317D01*
X23014090Y62251441D01*
X22801890Y62396431D01*
X22550000Y62447440D01*
X22038826Y62447440D01*
X21850000Y62485000D01*
X19121192Y62485000D01*
X19014090Y62651441D01*
X18801890Y62796431D01*
X18550000Y62847440D01*
X17250000Y62847440D01*
X17014683Y62803162D01*
X16798559Y62664090D01*
X16653569Y62451890D01*
X16602560Y62200000D01*
X16602560Y60700000D01*
X16646838Y60464683D01*
X16785910Y60248559D01*
X16998110Y60103569D01*
X17011197Y60100919D01*
X16798559Y59964090D01*
X16653569Y59751890D01*
X16602560Y59500000D01*
X16602560Y58000000D01*
X16646838Y57764683D01*
X16785910Y57548559D01*
X16865000Y57494519D01*
X16865000Y54182570D01*
X3995120Y54182570D01*
X3995120Y54237570D01*
X3950842Y54472887D01*
X3811770Y54689011D01*
X3599570Y54834001D01*
X3347680Y54885010D01*
X1747680Y54885010D01*
X1512363Y54840732D01*
X1296239Y54701660D01*
X1151249Y54489460D01*
X1100240Y54237570D01*
X1100240Y52057570D01*
X1144518Y51822253D01*
X1283590Y51606129D01*
X1478940Y51472652D01*
X1334888Y51328600D01*
X1115255Y51328600D01*
X685000Y51243017D01*
X685000Y56062151D01*
X10251756Y56062151D01*
X10405435Y55748576D01*
X11178108Y55446934D01*
X12007398Y55463942D01*
X12694565Y55748576D01*
X12848244Y56062151D01*
X11550000Y57360395D01*
X10251756Y56062151D01*
X685000Y56062151D01*
X685000Y57911892D01*
X9456934Y57911892D01*
X9473942Y57082602D01*
X9758576Y56395435D01*
X10072151Y56241756D01*
X11370395Y57540000D01*
X11729605Y57540000D01*
X13027849Y56241756D01*
X13341424Y56395435D01*
X13643066Y57168108D01*
X13626058Y57997398D01*
X13341424Y58684565D01*
X13027849Y58838244D01*
X11729605Y57540000D01*
X11370395Y57540000D01*
X10072151Y58838244D01*
X9758576Y58684565D01*
X9456934Y57911892D01*
X685000Y57911892D01*
X685000Y63315000D01*
X1104880Y63315000D01*
X1104880Y61262430D01*
X1104880Y61262430D01*
G37*
X1104880Y61262430D02*
X1149158Y61027113D01*
X1288230Y60810989D01*
X1500430Y60665999D01*
X1752320Y60614990D01*
X3352320Y60614990D01*
X3587637Y60659268D01*
X3803761Y60798340D01*
X3948751Y61010540D01*
X3999760Y61262430D01*
X3999760Y61317430D01*
X9452560Y61317430D01*
X9452560Y60050000D01*
X9496838Y59814683D01*
X9635910Y59598559D01*
X9848110Y59453569D01*
X10100000Y59402560D01*
X10577172Y59402560D01*
X10405435Y59331424D01*
X10251756Y59017849D01*
X11550000Y57719605D01*
X12848244Y59017849D01*
X12694565Y59331424D01*
X12512346Y59402560D01*
X13000000Y59402560D01*
X13235317Y59446838D01*
X13451441Y59585910D01*
X13596431Y59798110D01*
X13647440Y60050000D01*
X13647440Y62950000D01*
X13603162Y63185317D01*
X13519713Y63315000D01*
X35615000Y63315000D01*
X35615000Y61918974D01*
X35576309Y61935000D01*
X34960750Y61935000D01*
X34802000Y61776250D01*
X34802000Y60777000D01*
X34822000Y60777000D01*
X34822000Y60523000D01*
X34802000Y60523000D01*
X34802000Y59523750D01*
X34960750Y59365000D01*
X35576309Y59365000D01*
X35615000Y59381026D01*
X35615000Y57414027D01*
X35450000Y57447440D01*
X33900000Y57447440D01*
X33664683Y57403162D01*
X33448559Y57264090D01*
X33394519Y57185000D01*
X28006844Y57185000D01*
X27964090Y57251441D01*
X27751890Y57396431D01*
X27500000Y57447440D01*
X25950000Y57447440D01*
X25714683Y57403162D01*
X25498559Y57264090D01*
X25353569Y57051890D01*
X25302560Y56800000D01*
X25302560Y55500000D01*
X25346838Y55264683D01*
X25485910Y55048559D01*
X25690000Y54909110D01*
X25690000Y50130771D01*
X25564090Y50326441D01*
X25385000Y50448808D01*
X25385000Y52649995D01*
X25385001Y52650000D01*
X25306215Y53046078D01*
X25216349Y53180571D01*
X25081856Y53381856D01*
X25081853Y53381858D01*
X25013711Y53450000D01*
X25231856Y53668145D01*
X25456215Y54003923D01*
X25535001Y54400000D01*
X25456215Y54796078D01*
X25231856Y55131856D01*
X24896078Y55356215D01*
X24500000Y55435001D01*
X24103923Y55356215D01*
X23768145Y55131856D01*
X23550000Y54913711D01*
X23231856Y55231856D01*
X22896077Y55456215D01*
X22500000Y55535001D01*
X22499995Y55535000D01*
X18935000Y55535000D01*
X18935000Y57493156D01*
X19001441Y57535910D01*
X19146431Y57748110D01*
X19197440Y58000000D01*
X19197440Y58714250D01*
X21015000Y58714250D01*
X21015000Y58273691D01*
X21111673Y58040302D01*
X21290301Y57861673D01*
X21523690Y57765000D01*
X21814250Y57765000D01*
X21973000Y57923750D01*
X21973000Y58873000D01*
X22227000Y58873000D01*
X22227000Y57923750D01*
X22385750Y57765000D01*
X22676310Y57765000D01*
X22909699Y57861673D01*
X23088327Y58040302D01*
X23185000Y58273691D01*
X23185000Y58714250D01*
X23026250Y58873000D01*
X22227000Y58873000D01*
X21973000Y58873000D01*
X21173750Y58873000D01*
X21015000Y58714250D01*
X19197440Y58714250D01*
X19197440Y59500000D01*
X19153162Y59735317D01*
X19014090Y59951441D01*
X18801890Y60096431D01*
X18788803Y60099081D01*
X19001441Y60235910D01*
X19123808Y60415000D01*
X21037370Y60415000D01*
X21046838Y60364683D01*
X21185910Y60148559D01*
X21254006Y60102031D01*
X21111673Y59959698D01*
X21015000Y59726309D01*
X21015000Y59285750D01*
X21173750Y59127000D01*
X21973000Y59127000D01*
X21973000Y59147000D01*
X22227000Y59147000D01*
X22227000Y59127000D01*
X23026250Y59127000D01*
X23185000Y59285750D01*
X23185000Y59726309D01*
X23088327Y59959698D01*
X22947090Y60100936D01*
X23001441Y60135910D01*
X23146431Y60348110D01*
X23149699Y60364250D01*
X25315000Y60364250D01*
X25315000Y59873690D01*
X25411673Y59640301D01*
X25590302Y59461673D01*
X25823691Y59365000D01*
X26439250Y59365000D01*
X26598000Y59523750D01*
X26598000Y60523000D01*
X26852000Y60523000D01*
X26852000Y59523750D01*
X27010750Y59365000D01*
X27626309Y59365000D01*
X27859698Y59461673D01*
X28038327Y59640301D01*
X28135000Y59873690D01*
X28135000Y60364250D01*
X33265000Y60364250D01*
X33265000Y59873690D01*
X33361673Y59640301D01*
X33540302Y59461673D01*
X33773691Y59365000D01*
X34389250Y59365000D01*
X34548000Y59523750D01*
X34548000Y60523000D01*
X33423750Y60523000D01*
X33265000Y60364250D01*
X28135000Y60364250D01*
X27976250Y60523000D01*
X26852000Y60523000D01*
X26598000Y60523000D01*
X25473750Y60523000D01*
X25315000Y60364250D01*
X23149699Y60364250D01*
X23197440Y60600000D01*
X23197440Y61426310D01*
X25315000Y61426310D01*
X25315000Y60935750D01*
X25473750Y60777000D01*
X26598000Y60777000D01*
X26598000Y61776250D01*
X26852000Y61776250D01*
X26852000Y60777000D01*
X27976250Y60777000D01*
X28135000Y60935750D01*
X28135000Y61426310D01*
X33265000Y61426310D01*
X33265000Y60935750D01*
X33423750Y60777000D01*
X34548000Y60777000D01*
X34548000Y61776250D01*
X34389250Y61935000D01*
X33773691Y61935000D01*
X33540302Y61838327D01*
X33361673Y61659699D01*
X33265000Y61426310D01*
X28135000Y61426310D01*
X28038327Y61659699D01*
X27859698Y61838327D01*
X27626309Y61935000D01*
X27010750Y61935000D01*
X26852000Y61776250D01*
X26598000Y61776250D01*
X26439250Y61935000D01*
X25823691Y61935000D01*
X25590302Y61838327D01*
X25411673Y61659699D01*
X25315000Y61426310D01*
X23197440Y61426310D01*
X23197440Y61800000D01*
X23153162Y62035317D01*
X23014090Y62251441D01*
X22801890Y62396431D01*
X22550000Y62447440D01*
X22038826Y62447440D01*
X21850000Y62485000D01*
X19121192Y62485000D01*
X19014090Y62651441D01*
X18801890Y62796431D01*
X18550000Y62847440D01*
X17250000Y62847440D01*
X17014683Y62803162D01*
X16798559Y62664090D01*
X16653569Y62451890D01*
X16602560Y62200000D01*
X16602560Y60700000D01*
X16646838Y60464683D01*
X16785910Y60248559D01*
X16998110Y60103569D01*
X17011197Y60100919D01*
X16798559Y59964090D01*
X16653569Y59751890D01*
X16602560Y59500000D01*
X16602560Y58000000D01*
X16646838Y57764683D01*
X16785910Y57548559D01*
X16865000Y57494519D01*
X16865000Y54182570D01*
X3995120Y54182570D01*
X3995120Y54237570D01*
X3950842Y54472887D01*
X3811770Y54689011D01*
X3599570Y54834001D01*
X3347680Y54885010D01*
X1747680Y54885010D01*
X1512363Y54840732D01*
X1296239Y54701660D01*
X1151249Y54489460D01*
X1100240Y54237570D01*
X1100240Y52057570D01*
X1144518Y51822253D01*
X1283590Y51606129D01*
X1478940Y51472652D01*
X1334888Y51328600D01*
X1115255Y51328600D01*
X685000Y51243017D01*
X685000Y56062151D01*
X10251756Y56062151D01*
X10405435Y55748576D01*
X11178108Y55446934D01*
X12007398Y55463942D01*
X12694565Y55748576D01*
X12848244Y56062151D01*
X11550000Y57360395D01*
X10251756Y56062151D01*
X685000Y56062151D01*
X685000Y57911892D01*
X9456934Y57911892D01*
X9473942Y57082602D01*
X9758576Y56395435D01*
X10072151Y56241756D01*
X11370395Y57540000D01*
X11729605Y57540000D01*
X13027849Y56241756D01*
X13341424Y56395435D01*
X13643066Y57168108D01*
X13626058Y57997398D01*
X13341424Y58684565D01*
X13027849Y58838244D01*
X11729605Y57540000D01*
X11370395Y57540000D01*
X10072151Y58838244D01*
X9758576Y58684565D01*
X9456934Y57911892D01*
X685000Y57911892D01*
X685000Y63315000D01*
X1104880Y63315000D01*
X1104880Y61262430D01*
M02*
