<?xml version="1.0" standalone="no"?>
 <!DOCTYPE svg PUBLIC "-//W3C//DTD SVG 1.1//EN" 
 "http://www.w3.org/Graphics/SVG/1.1/DTD/svg11.dtd"> 
<svg xmlns="http://www.w3.org/2000/svg" version="1.1" 
    width="29.7002cm" height="21.0007cm" viewBox="0 0 116930 82680 ">
<title>SVG Picture created as Port-Swd-Debug.svg date 2017/04/19 11:33:04 </title>
  <desc>Picture generated by Eeschema-SVG </desc>
<g style="fill:#000000; fill-opacity:1;stroke:#000000; stroke-opacity:1;
stroke-linecap:round; stroke-linejoin:round; "
 transform="translate(0 0) scale(1 1)">
</g>
<g style="fill:#000000; fill-opacity:0.0; 
stroke:#000000; stroke-width:-10; stroke-opacity:1; 
stroke-linecap:round; stroke-linejoin:round;">
</g>
<g style="fill:#840000; fill-opacity:0.0; 
stroke:#840000; stroke-width:-10; stroke-opacity:1; 
stroke-linecap:round; stroke-linejoin:round;">
</g>
<g style="fill:#840000; fill-opacity:0.0; 
stroke:#840000; stroke-width:100; stroke-opacity:1; 
stroke-linecap:round; stroke-linejoin:round;">
</g>
<g style="fill:#840000; fill-opacity:0.0; 
stroke:#840000; stroke-width:60; stroke-opacity:1; 
stroke-linecap:round; stroke-linejoin:round;">
<rect x="69690" y="65360" width="42520" height="12600" rx="0" />
</g>
<g style="fill:#840000; fill-opacity:0.0; 
stroke:#840000; stroke-width:100; stroke-opacity:1; 
stroke-linecap:round; stroke-linejoin:round;">
</g>
<g style="fill:#840000; fill-opacity:0.0; 
stroke:#840000; stroke-width:60; stroke-opacity:1; 
stroke-linecap:round; stroke-linejoin:round;">
<rect x="3940" y="3940" width="109050" height="74800" rx="0" />
</g>
<g style="fill:#840000; fill-opacity:0.0; 
stroke:#840000; stroke-width:100; stroke-opacity:1; 
stroke-linecap:round; stroke-linejoin:round;">
</g>
<g style="fill:#840000; fill-opacity:0.0; 
stroke:#840000; stroke-width:60; stroke-opacity:1; 
stroke-linecap:round; stroke-linejoin:round;">
<rect x="4720" y="4720" width="107490" height="73240" rx="0" />
</g>
<g style="fill:#840000; fill-opacity:0.0; 
stroke:#840000; stroke-width:100; stroke-opacity:1; 
stroke-linecap:round; stroke-linejoin:round;">
</g>
<g style="fill:#840000; fill-opacity:0.0; 
stroke:#840000; stroke-width:60; stroke-opacity:1; 
stroke-linecap:round; stroke-linejoin:round;">
<path d="M23620 4720
L23620 3940
" />
</g>
<g style="fill:#840000; fill-opacity:0.0; 
stroke:#840000; stroke-width:100; stroke-opacity:1; 
stroke-linecap:round; stroke-linejoin:round;">
</g>
<g style="fill:#840000; fill-opacity:0.0; 
stroke:#840000; stroke-width:60; stroke-opacity:1; 
stroke-linecap:round; stroke-linejoin:round;">
<path d="M43310 4720
L43310 3940
" />
</g>
<g style="fill:#840000; fill-opacity:0.0; 
stroke:#840000; stroke-width:100; stroke-opacity:1; 
stroke-linecap:round; stroke-linejoin:round;">
</g>
<g style="fill:#840000; fill-opacity:0.0; 
stroke:#840000; stroke-width:60; stroke-opacity:1; 
stroke-linecap:round; stroke-linejoin:round;">
<path d="M62990 4720
L62990 3940
" />
</g>
<g style="fill:#840000; fill-opacity:0.0; 
stroke:#840000; stroke-width:100; stroke-opacity:1; 
stroke-linecap:round; stroke-linejoin:round;">
</g>
<g style="fill:#840000; fill-opacity:0.0; 
stroke:#840000; stroke-width:60; stroke-opacity:1; 
stroke-linecap:round; stroke-linejoin:round;">
<path d="M82680 4720
L82680 3940
" />
</g>
<g style="fill:#840000; fill-opacity:0.0; 
stroke:#840000; stroke-width:100; stroke-opacity:1; 
stroke-linecap:round; stroke-linejoin:round;">
</g>
<g style="fill:#840000; fill-opacity:0.0; 
stroke:#840000; stroke-width:60; stroke-opacity:1; 
stroke-linecap:round; stroke-linejoin:round;">
<path d="M102360 4720
L102360 3940
" />
</g>
<g style="fill:#840000; fill-opacity:0.0; 
stroke:#840000; stroke-width:100; stroke-opacity:1; 
stroke-linecap:round; stroke-linejoin:round;">
</g>
<g style="fill:#840000; fill-opacity:0.0; 
stroke:#840000; stroke-width:60; stroke-opacity:1; 
stroke-linecap:round; stroke-linejoin:round;">
<path d="M14170 4560
L13880 4560
" />
<path d="M14020 4560
L14020 4050
L13970 4120
L13930 4170
L13880 4190
" />
</g>
<g style="fill:#840000; fill-opacity:0.0; 
stroke:#840000; stroke-width:100; stroke-opacity:1; 
stroke-linecap:round; stroke-linejoin:round;">
</g>
<g style="fill:#840000; fill-opacity:0.0; 
stroke:#840000; stroke-width:60; stroke-opacity:1; 
stroke-linecap:round; stroke-linejoin:round;">
<path d="M33560 4090
L33580 4070
L33630 4050
L33750 4050
L33800 4070
L33820 4090
L33850 4140
L33850 4190
L33820 4260
L33530 4560
L33850 4560
" />
</g>
<g style="fill:#840000; fill-opacity:0.0; 
stroke:#840000; stroke-width:100; stroke-opacity:1; 
stroke-linecap:round; stroke-linejoin:round;">
</g>
<g style="fill:#840000; fill-opacity:0.0; 
stroke:#840000; stroke-width:60; stroke-opacity:1; 
stroke-linecap:round; stroke-linejoin:round;">
<path d="M53220 4050
L53540 4050
L53370 4240
L53440 4240
L53490 4260
L53510 4290
L53540 4340
L53540 4460
L53510 4510
L53490 4530
L53440 4560
L53300 4560
L53250 4530
L53220 4510
" />
</g>
<g style="fill:#840000; fill-opacity:0.0; 
stroke:#840000; stroke-width:100; stroke-opacity:1; 
stroke-linecap:round; stroke-linejoin:round;">
</g>
<g style="fill:#840000; fill-opacity:0.0; 
stroke:#840000; stroke-width:60; stroke-opacity:1; 
stroke-linecap:round; stroke-linejoin:round;">
<path d="M73170 4220
L73170 4560
" />
<path d="M73050 4020
L72930 4390
L73240 4390
" />
</g>
<g style="fill:#840000; fill-opacity:0.0; 
stroke:#840000; stroke-width:100; stroke-opacity:1; 
stroke-linecap:round; stroke-linejoin:round;">
</g>
<g style="fill:#840000; fill-opacity:0.0; 
stroke:#840000; stroke-width:60; stroke-opacity:1; 
stroke-linecap:round; stroke-linejoin:round;">
<path d="M92880 4050
L92640 4050
L92620 4290
L92640 4260
L92690 4240
L92810 4240
L92860 4260
L92880 4290
L92910 4340
L92910 4460
L92880 4510
L92860 4530
L92810 4560
L92690 4560
L92640 4530
L92620 4510
" />
</g>
<g style="fill:#840000; fill-opacity:0.0; 
stroke:#840000; stroke-width:100; stroke-opacity:1; 
stroke-linecap:round; stroke-linejoin:round;">
</g>
<g style="fill:#840000; fill-opacity:0.0; 
stroke:#840000; stroke-width:60; stroke-opacity:1; 
stroke-linecap:round; stroke-linejoin:round;">
<path d="M112540 4050
L112440 4050
L112390 4070
L112370 4090
L112320 4170
L112300 4260
L112300 4460
L112320 4510
L112350 4530
L112390 4560
L112490 4560
L112540 4530
L112560 4510
L112590 4460
L112590 4340
L112560 4290
L112540 4260
L112490 4240
L112390 4240
L112350 4260
L112320 4290
L112300 4340
" />
</g>
<g style="fill:#840000; fill-opacity:0.0; 
stroke:#840000; stroke-width:100; stroke-opacity:1; 
stroke-linecap:round; stroke-linejoin:round;">
</g>
<g style="fill:#840000; fill-opacity:0.0; 
stroke:#840000; stroke-width:60; stroke-opacity:1; 
stroke-linecap:round; stroke-linejoin:round;">
<path d="M23620 77960
L23620 78740
" />
</g>
<g style="fill:#840000; fill-opacity:0.0; 
stroke:#840000; stroke-width:100; stroke-opacity:1; 
stroke-linecap:round; stroke-linejoin:round;">
</g>
<g style="fill:#840000; fill-opacity:0.0; 
stroke:#840000; stroke-width:60; stroke-opacity:1; 
stroke-linecap:round; stroke-linejoin:round;">
<path d="M43310 77960
L43310 78740
" />
</g>
<g style="fill:#840000; fill-opacity:0.0; 
stroke:#840000; stroke-width:100; stroke-opacity:1; 
stroke-linecap:round; stroke-linejoin:round;">
</g>
<g style="fill:#840000; fill-opacity:0.0; 
stroke:#840000; stroke-width:60; stroke-opacity:1; 
stroke-linecap:round; stroke-linejoin:round;">
<path d="M62990 77960
L62990 78740
" />
</g>
<g style="fill:#840000; fill-opacity:0.0; 
stroke:#840000; stroke-width:100; stroke-opacity:1; 
stroke-linecap:round; stroke-linejoin:round;">
</g>
<g style="fill:#840000; fill-opacity:0.0; 
stroke:#840000; stroke-width:60; stroke-opacity:1; 
stroke-linecap:round; stroke-linejoin:round;">
<path d="M82680 77960
L82680 78740
" />
</g>
<g style="fill:#840000; fill-opacity:0.0; 
stroke:#840000; stroke-width:100; stroke-opacity:1; 
stroke-linecap:round; stroke-linejoin:round;">
</g>
<g style="fill:#840000; fill-opacity:0.0; 
stroke:#840000; stroke-width:60; stroke-opacity:1; 
stroke-linecap:round; stroke-linejoin:round;">
<path d="M102360 77960
L102360 78740
" />
</g>
<g style="fill:#840000; fill-opacity:0.0; 
stroke:#840000; stroke-width:100; stroke-opacity:1; 
stroke-linecap:round; stroke-linejoin:round;">
</g>
<g style="fill:#840000; fill-opacity:0.0; 
stroke:#840000; stroke-width:60; stroke-opacity:1; 
stroke-linecap:round; stroke-linejoin:round;">
<path d="M14170 78580
L13880 78580
" />
<path d="M14020 78580
L14020 78070
L13970 78140
L13930 78190
L13880 78210
" />
</g>
<g style="fill:#840000; fill-opacity:0.0; 
stroke:#840000; stroke-width:100; stroke-opacity:1; 
stroke-linecap:round; stroke-linejoin:round;">
</g>
<g style="fill:#840000; fill-opacity:0.0; 
stroke:#840000; stroke-width:60; stroke-opacity:1; 
stroke-linecap:round; stroke-linejoin:round;">
<path d="M33560 78110
L33580 78090
L33630 78070
L33750 78070
L33800 78090
L33820 78110
L33850 78160
L33850 78210
L33820 78280
L33530 78580
L33850 78580
" />
</g>
<g style="fill:#840000; fill-opacity:0.0; 
stroke:#840000; stroke-width:100; stroke-opacity:1; 
stroke-linecap:round; stroke-linejoin:round;">
</g>
<g style="fill:#840000; fill-opacity:0.0; 
stroke:#840000; stroke-width:60; stroke-opacity:1; 
stroke-linecap:round; stroke-linejoin:round;">
<path d="M53220 78070
L53540 78070
L53370 78260
L53440 78260
L53490 78280
L53510 78310
L53540 78360
L53540 78480
L53510 78530
L53490 78550
L53440 78580
L53300 78580
L53250 78550
L53220 78530
" />
</g>
<g style="fill:#840000; fill-opacity:0.0; 
stroke:#840000; stroke-width:100; stroke-opacity:1; 
stroke-linecap:round; stroke-linejoin:round;">
</g>
<g style="fill:#840000; fill-opacity:0.0; 
stroke:#840000; stroke-width:60; stroke-opacity:1; 
stroke-linecap:round; stroke-linejoin:round;">
<path d="M73170 78240
L73170 78580
" />
<path d="M73050 78040
L72930 78410
L73240 78410
" />
</g>
<g style="fill:#840000; fill-opacity:0.0; 
stroke:#840000; stroke-width:100; stroke-opacity:1; 
stroke-linecap:round; stroke-linejoin:round;">
</g>
<g style="fill:#840000; fill-opacity:0.0; 
stroke:#840000; stroke-width:60; stroke-opacity:1; 
stroke-linecap:round; stroke-linejoin:round;">
<path d="M92880 78070
L92640 78070
L92620 78310
L92640 78280
L92690 78260
L92810 78260
L92860 78280
L92880 78310
L92910 78360
L92910 78480
L92880 78530
L92860 78550
L92810 78580
L92690 78580
L92640 78550
L92620 78530
" />
</g>
<g style="fill:#840000; fill-opacity:0.0; 
stroke:#840000; stroke-width:100; stroke-opacity:1; 
stroke-linecap:round; stroke-linejoin:round;">
</g>
<g style="fill:#840000; fill-opacity:0.0; 
stroke:#840000; stroke-width:60; stroke-opacity:1; 
stroke-linecap:round; stroke-linejoin:round;">
<path d="M112540 78070
L112440 78070
L112390 78090
L112370 78110
L112320 78190
L112300 78280
L112300 78480
L112320 78530
L112350 78550
L112390 78580
L112490 78580
L112540 78550
L112560 78530
L112590 78480
L112590 78360
L112560 78310
L112540 78280
L112490 78260
L112390 78260
L112350 78280
L112320 78310
L112300 78360
" />
</g>
<g style="fill:#840000; fill-opacity:0.0; 
stroke:#840000; stroke-width:100; stroke-opacity:1; 
stroke-linecap:round; stroke-linejoin:round;">
</g>
<g style="fill:#840000; fill-opacity:0.0; 
stroke:#840000; stroke-width:60; stroke-opacity:1; 
stroke-linecap:round; stroke-linejoin:round;">
<path d="M3940 23620
L4720 23620
" />
</g>
<g style="fill:#840000; fill-opacity:0.0; 
stroke:#840000; stroke-width:100; stroke-opacity:1; 
stroke-linecap:round; stroke-linejoin:round;">
</g>
<g style="fill:#840000; fill-opacity:0.0; 
stroke:#840000; stroke-width:60; stroke-opacity:1; 
stroke-linecap:round; stroke-linejoin:round;">
<path d="M3940 43310
L4720 43310
" />
</g>
<g style="fill:#840000; fill-opacity:0.0; 
stroke:#840000; stroke-width:100; stroke-opacity:1; 
stroke-linecap:round; stroke-linejoin:round;">
</g>
<g style="fill:#840000; fill-opacity:0.0; 
stroke:#840000; stroke-width:60; stroke-opacity:1; 
stroke-linecap:round; stroke-linejoin:round;">
<path d="M3940 62990
L4720 62990
" />
</g>
<g style="fill:#840000; fill-opacity:0.0; 
stroke:#840000; stroke-width:100; stroke-opacity:1; 
stroke-linecap:round; stroke-linejoin:round;">
</g>
<g style="fill:#840000; fill-opacity:0.0; 
stroke:#840000; stroke-width:60; stroke-opacity:1; 
stroke-linecap:round; stroke-linejoin:round;">
<path d="M4210 13860
L4450 13860
" />
<path d="M4160 14010
L4330 13500
L4500 14010
" />
</g>
<g style="fill:#840000; fill-opacity:0.0; 
stroke:#840000; stroke-width:100; stroke-opacity:1; 
stroke-linecap:round; stroke-linejoin:round;">
</g>
<g style="fill:#840000; fill-opacity:0.0; 
stroke:#840000; stroke-width:60; stroke-opacity:1; 
stroke-linecap:round; stroke-linejoin:round;">
<path d="M4370 33420
L4440 33440
L4470 33470
L4490 33520
L4490 33590
L4470 33640
L4440 33660
L4400 33690
L4200 33690
L4200 33180
L4370 33180
L4420 33200
L4440 33220
L4470 33270
L4470 33320
L4440 33370
L4420 33390
L4370 33420
L4200 33420
" />
</g>
<g style="fill:#840000; fill-opacity:0.0; 
stroke:#840000; stroke-width:100; stroke-opacity:1; 
stroke-linecap:round; stroke-linejoin:round;">
</g>
<g style="fill:#840000; fill-opacity:0.0; 
stroke:#840000; stroke-width:60; stroke-opacity:1; 
stroke-linecap:round; stroke-linejoin:round;">
<path d="M4490 53330
L4470 53350
L4400 53380
L4350 53380
L4270 53350
L4230 53300
L4200 53250
L4180 53160
L4180 53080
L4200 52990
L4230 52940
L4270 52890
L4350 52870
L4400 52870
L4470 52890
L4490 52910
" />
</g>
<g style="fill:#840000; fill-opacity:0.0; 
stroke:#840000; stroke-width:100; stroke-opacity:1; 
stroke-linecap:round; stroke-linejoin:round;">
</g>
<g style="fill:#840000; fill-opacity:0.0; 
stroke:#840000; stroke-width:60; stroke-opacity:1; 
stroke-linecap:round; stroke-linejoin:round;">
<path d="M4200 73060
L4200 72550
L4320 72550
L4400 72570
L4440 72620
L4470 72670
L4490 72760
L4490 72840
L4470 72930
L4440 72980
L4400 73030
L4320 73060
L4200 73060
" />
</g>
<g style="fill:#840000; fill-opacity:0.0; 
stroke:#840000; stroke-width:100; stroke-opacity:1; 
stroke-linecap:round; stroke-linejoin:round;">
</g>
<g style="fill:#840000; fill-opacity:0.0; 
stroke:#840000; stroke-width:60; stroke-opacity:1; 
stroke-linecap:round; stroke-linejoin:round;">
<path d="M112990 23620
L112210 23620
" />
</g>
<g style="fill:#840000; fill-opacity:0.0; 
stroke:#840000; stroke-width:100; stroke-opacity:1; 
stroke-linecap:round; stroke-linejoin:round;">
</g>
<g style="fill:#840000; fill-opacity:0.0; 
stroke:#840000; stroke-width:60; stroke-opacity:1; 
stroke-linecap:round; stroke-linejoin:round;">
<path d="M112990 43310
L112210 43310
" />
</g>
<g style="fill:#840000; fill-opacity:0.0; 
stroke:#840000; stroke-width:100; stroke-opacity:1; 
stroke-linecap:round; stroke-linejoin:round;">
</g>
<g style="fill:#840000; fill-opacity:0.0; 
stroke:#840000; stroke-width:60; stroke-opacity:1; 
stroke-linecap:round; stroke-linejoin:round;">
<path d="M112990 62990
L112210 62990
" />
</g>
<g style="fill:#840000; fill-opacity:0.0; 
stroke:#840000; stroke-width:100; stroke-opacity:1; 
stroke-linecap:round; stroke-linejoin:round;">
</g>
<g style="fill:#840000; fill-opacity:0.0; 
stroke:#840000; stroke-width:60; stroke-opacity:1; 
stroke-linecap:round; stroke-linejoin:round;">
<path d="M112480 13860
L112720 13860
" />
<path d="M112430 14010
L112600 13500
L112770 14010
" />
</g>
<g style="fill:#840000; fill-opacity:0.0; 
stroke:#840000; stroke-width:100; stroke-opacity:1; 
stroke-linecap:round; stroke-linejoin:round;">
</g>
<g style="fill:#840000; fill-opacity:0.0; 
stroke:#840000; stroke-width:60; stroke-opacity:1; 
stroke-linecap:round; stroke-linejoin:round;">
<path d="M112640 33420
L112710 33440
L112740 33470
L112760 33520
L112760 33590
L112740 33640
L112710 33660
L112670 33690
L112470 33690
L112470 33180
L112640 33180
L112690 33200
L112710 33220
L112740 33270
L112740 33320
L112710 33370
L112690 33390
L112640 33420
L112470 33420
" />
</g>
<g style="fill:#840000; fill-opacity:0.0; 
stroke:#840000; stroke-width:100; stroke-opacity:1; 
stroke-linecap:round; stroke-linejoin:round;">
</g>
<g style="fill:#840000; fill-opacity:0.0; 
stroke:#840000; stroke-width:60; stroke-opacity:1; 
stroke-linecap:round; stroke-linejoin:round;">
<path d="M112760 53330
L112740 53350
L112670 53380
L112620 53380
L112540 53350
L112500 53300
L112470 53250
L112450 53160
L112450 53080
L112470 52990
L112500 52940
L112540 52890
L112620 52870
L112670 52870
L112740 52890
L112760 52910
" />
</g>
<g style="fill:#840000; fill-opacity:0.0; 
stroke:#840000; stroke-width:100; stroke-opacity:1; 
stroke-linecap:round; stroke-linejoin:round;">
</g>
<g style="fill:#840000; fill-opacity:0.0; 
stroke:#840000; stroke-width:60; stroke-opacity:1; 
stroke-linecap:round; stroke-linejoin:round;">
<path d="M112470 73060
L112470 72550
L112590 72550
L112670 72570
L112710 72620
L112740 72670
L112760 72760
L112760 72840
L112740 72930
L112710 72980
L112670 73030
L112590 73060
L112470 73060
" />
</g>
<g style="fill:#840000; fill-opacity:0.0; 
stroke:#840000; stroke-width:100; stroke-opacity:1; 
stroke-linecap:round; stroke-linejoin:round;">
</g>
<g style="fill:#840000; fill-opacity:0.0; 
stroke:#840000; stroke-width:60; stroke-opacity:1; 
stroke-linecap:round; stroke-linejoin:round;">
<path d="M78880 76290
L78880 75700
L79020 75700
L79110 75730
L79160 75790
L79190 75840
L79220 75950
L79220 76040
L79190 76150
L79160 76210
L79110 76260
L79020 76290
L78880 76290
" />
<path d="M79720 76290
L79720 75980
L79700 75930
L79640 75900
L79530 75900
L79470 75930
" />
<path d="M79720 76260
L79670 76290
L79530 76290
L79470 76260
L79440 76210
L79440 76150
L79470 76100
L79530 76070
L79670 76070
L79720 76040
" />
<path d="M79920 75900
L80140 75900
" />
<path d="M80000 75700
L80000 76210
L80030 76260
L80080 76290
L80140 76290
" />
<path d="M80570 76260
L80510 76290
L80400 76290
L80340 76260
L80310 76210
L80310 75980
L80340 75930
L80400 75900
L80510 75900
L80570 75930
L80590 75980
L80590 76040
L80310 76100
" />
<path d="M80850 76240
L80880 76260
L80850 76290
L80820 76260
L80850 76240
L80850 76290
" />
<path d="M80850 75930
L80880 75950
L80850 75980
L80820 75950
L80850 75930
L80850 75980
" />
</g>
<g style="fill:#840000; fill-opacity:0.0; 
stroke:#840000; stroke-width:100; stroke-opacity:1; 
stroke-linecap:round; stroke-linejoin:round;">
</g>
<g style="fill:#840000; fill-opacity:0.0; 
stroke:#840000; stroke-width:60; stroke-opacity:1; 
stroke-linecap:round; stroke-linejoin:round;">
<path d="M69690 76580
L112210 76580
" />
</g>
<g style="fill:#840000; fill-opacity:0.0; 
stroke:#840000; stroke-width:100; stroke-opacity:1; 
stroke-linecap:round; stroke-linejoin:round;">
</g>
<g style="fill:#840000; fill-opacity:0.0; 
stroke:#840000; stroke-width:60; stroke-opacity:1; 
stroke-linecap:round; stroke-linejoin:round;">
<path d="M70220 77390
L70220 76800
" />
<path d="M70560 77390
L70300 77050
" />
<path d="M70560 76800
L70220 77140
" />
<path d="M70810 77390
L70810 77000
" />
<path d="M70810 76800
L70780 76830
L70810 76860
L70840 76830
L70810 76800
L70810 76860
" />
<path d="M71430 77340
L71400 77360
L71320 77390
L71260 77390
L71170 77360
L71120 77310
L71090 77250
L71060 77140
L71060 77050
L71090 76940
L71120 76890
L71170 76830
L71260 76800
L71320 76800
L71400 76830
L71430 76860
" />
<path d="M71930 77390
L71930 77080
L71910 77030
L71850 77000
L71740 77000
L71680 77030
" />
<path d="M71930 77360
L71880 77390
L71740 77390
L71680 77360
L71650 77310
L71650 77250
L71680 77200
L71740 77170
L71880 77170
L71930 77140
" />
<path d="M72460 77390
L72460 76800
" />
<path d="M72460 77360
L72410 77390
L72290 77390
L72240 77360
L72210 77340
L72180 77280
L72180 77110
L72210 77050
L72240 77030
L72290 77000
L72410 77000
L72460 77030
" />
<path d="M73190 77080
L73390 77080
" />
<path d="M73470 77390
L73190 77390
L73190 76800
L73470 76800
" />
<path d="M73720 77340
L73750 77360
L73720 77390
L73690 77360
L73720 77340
L73720 77390
" />
<path d="M74000 77390
L74000 76800
L74140 76800
L74230 76830
L74280 76890
L74310 76940
L74340 77050
L74340 77140
L74310 77250
L74280 77310
L74230 77360
L74140 77390
L74000 77390
" />
<path d="M74590 77340
L74620 77360
L74590 77390
L74560 77360
L74590 77340
L74590 77390
" />
<path d="M74840 77220
L75120 77220
" />
<path d="M74790 77390
L74980 76800
L75180 77390
" />
<path d="M75380 77340
L75410 77360
L75380 77390
L75350 77360
L75380 77340
L75380 77390
" />
<path d="M76560 77390
L76560 76800
" />
<path d="M76620 77170
L76790 77390
" />
<path d="M76790 77000
L76560 77220
" />
<path d="M77040 77390
L77040 77000
" />
<path d="M77040 76800
L77010 76830
L77040 76860
L77070 76830
L77040 76800
L77040 76860
" />
<path d="M77570 77360
L77520 77390
L77400 77390
L77350 77360
L77320 77340
L77290 77280
L77290 77110
L77320 77050
L77350 77030
L77400 77000
L77520 77000
L77570 77030
" />
<path d="M78080 77390
L78080 77080
L78060 77030
L78000 77000
L77890 77000
L77830 77030
" />
<path d="M78080 77360
L78030 77390
L77890 77390
L77830 77360
L77800 77310
L77800 77250
L77830 77200
L77890 77170
L78030 77170
L78080 77140
" />
<path d="M78610 77390
L78610 76800
" />
<path d="M78610 77360
L78560 77390
L78440 77390
L78390 77360
L78360 77340
L78330 77280
L78330 77110
L78360 77050
L78390 77030
L78440 77000
L78560 77000
L78610 77030
" />
<path d="M79590 77000
L79590 77390
" />
<path d="M79450 76770
L79310 77200
L79680 77200
" />
<path d="M79900 77340
L79930 77360
L79900 77390
L79870 77360
L79900 77340
L79900 77390
" />
<path d="M80290 76800
L80350 76800
L80410 76830
L80430 76860
L80460 76910
L80490 77030
L80490 77170
L80460 77280
L80430 77340
L80410 77360
L80350 77390
L80290 77390
L80240 77360
L80210 77340
L80180 77280
L80150 77170
L80150 77030
L80180 76910
L80210 76860
L80240 76830
L80290 76800
" />
<path d="M80740 77340
L80770 77360
L80740 77390
L80710 77360
L80740 77340
L80740 77390
" />
<path d="M81270 76800
L81160 76800
L81100 76830
L81080 76860
L81020 76940
L80990 77050
L80990 77280
L81020 77340
L81050 77360
L81100 77390
L81220 77390
L81270 77360
L81300 77340
L81330 77280
L81330 77140
L81300 77080
L81270 77050
L81220 77030
L81100 77030
L81050 77050
L81020 77080
L80990 77140
" />
</g>
<g style="fill:#840000; fill-opacity:0.0; 
stroke:#840000; stroke-width:100; stroke-opacity:1; 
stroke-linecap:round; stroke-linejoin:round;">
</g>
<g style="fill:#840000; fill-opacity:0.0; 
stroke:#840000; stroke-width:60; stroke-opacity:1; 
stroke-linecap:round; stroke-linejoin:round;">
<path d="M69690 75400
L112210 75400
" />
</g>
<g style="fill:#840000; fill-opacity:0.0; 
stroke:#840000; stroke-width:100; stroke-opacity:1; 
stroke-linecap:round; stroke-linejoin:round;">
</g>
<g style="fill:#840000; fill-opacity:0.0; 
stroke:#840000; stroke-width:120; stroke-opacity:1; 
stroke-linecap:round; stroke-linejoin:round;">
<path d="M104020 76290
L103820 76010
" />
<path d="M103680 76290
L103680 75700
L103910 75700
L103960 75730
L103990 75760
L104020 75810
L104020 75900
L103990 75950
L103960 75980
L103910 76010
L103680 76010
" />
<path d="M104500 76260
L104440 76290
L104330 76290
L104270 76260
L104240 76210
L104240 75980
L104270 75930
L104330 75900
L104440 75900
L104500 75930
L104520 75980
L104520 76040
L104240 76100
" />
<path d="M104720 75900
L104860 76290
L105010 75900
" />
<path d="M105230 76240
L105260 76260
L105230 76290
L105200 76260
L105230 76240
L105230 76290
" />
<path d="M105230 75930
L105260 75950
L105230 75980
L105200 75950
L105230 75930
L105230 75980
" />
</g>
<g style="fill:#840000; fill-opacity:0.0; 
stroke:#840000; stroke-width:100; stroke-opacity:1; 
stroke-linecap:round; stroke-linejoin:round;">
</g>
<g style="fill:#840000; fill-opacity:0.0; 
stroke:#840000; stroke-width:60; stroke-opacity:1; 
stroke-linecap:round; stroke-linejoin:round;">
<path d="M70190 76260
L70280 76290
L70420 76290
L70470 76260
L70500 76240
L70530 76180
L70530 76120
L70500 76070
L70470 76040
L70420 76010
L70300 75980
L70250 75950
L70220 75930
L70190 75870
L70190 75810
L70220 75760
L70250 75730
L70300 75700
L70450 75700
L70530 75730
" />
<path d="M70780 76290
L70780 75900
" />
<path d="M70780 75700
L70750 75730
L70780 75760
L70810 75730
L70780 75700
L70780 75760
" />
<path d="M71000 75900
L71310 75900
L71000 76290
L71310 76290
" />
<path d="M71770 76260
L71710 76290
L71600 76290
L71540 76260
L71510 76210
L71510 75980
L71540 75930
L71600 75900
L71710 75900
L71770 75930
L71790 75980
L71790 76040
L71510 76100
" />
<path d="M72050 76240
L72080 76260
L72050 76290
L72020 76260
L72050 76240
L72050 76290
" />
<path d="M72050 75930
L72080 75950
L72050 75980
L72020 75950
L72050 75930
L72050 75980
" />
<path d="M72750 76120
L73030 76120
" />
<path d="M72700 76290
L72890 75700
L73090 76290
" />
<path d="M73540 75900
L73540 76290
" />
<path d="M73400 75670
L73260 76100
L73630 76100
" />
</g>
<g style="fill:#840000; fill-opacity:0.0; 
stroke:#840000; stroke-width:100; stroke-opacity:1; 
stroke-linecap:round; stroke-linejoin:round;">
</g>
<g style="fill:#840000; fill-opacity:0.0; 
stroke:#840000; stroke-width:60; stroke-opacity:1; 
stroke-linecap:round; stroke-linejoin:round;">
<path d="M103680 77390
L103680 76800
" />
<path d="M104210 77390
L104210 76800
" />
<path d="M104210 77360
L104160 77390
L104040 77390
L103990 77360
L103960 77340
L103930 77280
L103930 77110
L103960 77050
L103990 77030
L104040 77000
L104160 77000
L104210 77030
" />
<path d="M104490 77340
L104520 77360
L104490 77390
L104460 77360
L104490 77340
L104490 77390
" />
<path d="M104490 77030
L104520 77050
L104490 77080
L104460 77050
L104490 77030
L104490 77080
" />
<path d="M105530 77390
L105190 77390
" />
<path d="M105360 77390
L105360 76800
L105300 76890
L105250 76940
L105190 76970
" />
<path d="M106200 76770
L105700 77530
" />
<path d="M106710 77390
L106370 77390
" />
<path d="M106540 77390
L106540 76800
L106480 76890
L106430 76940
L106370 76970
" />
</g>
<g style="fill:#840000; fill-opacity:0.0; 
stroke:#840000; stroke-width:100; stroke-opacity:1; 
stroke-linecap:round; stroke-linejoin:round;">
</g>
<g style="fill:#840000; fill-opacity:0.0; 
stroke:#840000; stroke-width:60; stroke-opacity:1; 
stroke-linecap:round; stroke-linejoin:round;">
<path d="M69690 73820
L112210 73820
" />
</g>
<g style="fill:#840000; fill-opacity:0.0; 
stroke:#840000; stroke-width:100; stroke-opacity:1; 
stroke-linecap:round; stroke-linejoin:round;">
</g>
<g style="fill:#840000; fill-opacity:0.0; 
stroke:#840000; stroke-width:160; stroke-opacity:1; 
stroke-linecap:round; stroke-linejoin:round;">
<path d="M70260 74090
L70710 74090
" />
<path d="M70390 74880
L70480 74090
" />
<path d="M70880 74880
L70940 74360
" />
<path d="M70970 74090
L70930 74130
L70960 74170
L71010 74130
L70970 74090
L70960 74170
" />
<path d="M71210 74360
L71510 74360
" />
<path d="M71350 74090
L71270 74770
L71300 74840
L71370 74880
L71450 74880
" />
<path d="M71820 74880
L71750 74840
L71720 74770
L71800 74090
" />
<path d="M72420 74840
L72340 74880
L72190 74880
L72120 74840
L72090 74770
L72130 74470
L72180 74390
L72250 74360
L72400 74360
L72480 74390
L72510 74470
L72500 74540
L72110 74620
" />
<path d="M72800 74810
L72840 74840
L72800 74880
L72760 74840
L72800 74810
L72800 74880
" />
<path d="M72860 74390
L72890 74430
L72850 74470
L72810 74430
L72860 74390
L72850 74470
" />
</g>
<g style="fill:#840000; fill-opacity:0.0; 
stroke:#840000; stroke-width:100; stroke-opacity:1; 
stroke-linecap:round; stroke-linejoin:round;">
</g>
<g style="fill:#840000; fill-opacity:0.0; 
stroke:#840000; stroke-width:60; stroke-opacity:1; 
stroke-linecap:round; stroke-linejoin:round;">
<path d="M70420 73060
L70220 73060
" />
<path d="M70220 73370
L70220 72780
L70500 72780
" />
<path d="M70730 73370
L70730 72980
" />
<path d="M70730 72780
L70700 72810
L70730 72840
L70760 72810
L70730 72780
L70730 72840
" />
<path d="M71090 73370
L71040 73340
L71010 73290
L71010 72780
" />
<path d="M71550 73340
L71490 73370
L71380 73370
L71320 73340
L71290 73290
L71290 73060
L71320 73010
L71380 72980
L71490 72980
L71550 73010
L71570 73060
L71570 73120
L71290 73180
" />
<path d="M71830 73320
L71860 73340
L71830 73370
L71800 73340
L71830 73320
L71830 73370
" />
<path d="M71830 73010
L71860 73030
L71830 73060
L71800 73030
L71830 73010
L71830 73060
" />
<path d="M72560 73370
L72560 72780
L72790 72780
L72840 72810
L72870 72840
L72900 72890
L72900 72980
L72870 73030
L72840 73060
L72790 73090
L72560 73090
" />
<path d="M73230 73370
L73180 73340
L73150 73320
L73120 73260
L73120 73090
L73150 73030
L73180 73010
L73230 72980
L73320 72980
L73380 73010
L73400 73030
L73430 73090
L73430 73260
L73400 73320
L73380 73340
L73320 73370
L73230 73370
" />
<path d="M73680 73370
L73680 72980
" />
<path d="M73680 73090
L73710 73030
L73740 73010
L73790 72980
L73850 72980
" />
<path d="M73970 72980
L74190 72980
" />
<path d="M74050 72780
L74050 73290
L74080 73340
L74130 73370
L74190 73370
" />
<path d="M74390 73150
L74840 73150
" />
<path d="M75090 73340
L75180 73370
L75320 73370
L75370 73340
L75400 73320
L75430 73260
L75430 73200
L75400 73150
L75370 73120
L75320 73090
L75200 73060
L75150 73030
L75120 73010
L75090 72950
L75090 72890
L75120 72840
L75150 72810
L75200 72780
L75350 72780
L75430 72810
" />
<path d="M75620 72980
L75740 73370
L75850 73090
L75960 73370
L76070 72980
" />
<path d="M76550 73370
L76550 72780
" />
<path d="M76550 73340
L76500 73370
L76380 73370
L76330 73340
L76300 73320
L76270 73260
L76270 73090
L76300 73030
L76330 73010
L76380 72980
L76500 72980
L76550 73010
" />
<path d="M76830 73150
L77280 73150
" />
<path d="M77560 73370
L77560 72780
L77700 72780
L77790 72810
L77840 72870
L77870 72920
L77900 73030
L77900 73120
L77870 73230
L77840 73290
L77790 73340
L77700 73370
L77560 73370
" />
<path d="M78380 73340
L78320 73370
L78210 73370
L78150 73340
L78120 73290
L78120 73060
L78150 73010
L78210 72980
L78320 72980
L78380 73010
L78400 73060
L78400 73120
L78120 73180
" />
<path d="M78660 73370
L78660 72780
" />
<path d="M78660 73010
L78720 72980
L78830 72980
L78890 73010
L78910 73030
L78940 73090
L78940 73260
L78910 73320
L78890 73340
L78830 73370
L78720 73370
L78660 73340
" />
<path d="M79440 72980
L79440 73370
" />
<path d="M79190 72980
L79190 73290
L79220 73340
L79270 73370
L79360 73370
L79420 73340
L79440 73320
" />
<path d="M79970 72980
L79970 73460
L79950 73510
L79920 73540
L79860 73570
L79780 73570
L79720 73540
" />
<path d="M79970 73340
L79920 73370
L79800 73370
L79750 73340
L79720 73320
L79690 73260
L79690 73090
L79720 73030
L79750 73010
L79800 72980
L79920 72980
L79970 73010
" />
<path d="M80250 73320
L80280 73340
L80250 73370
L80220 73340
L80250 73320
L80250 73370
" />
<path d="M80500 73340
L80560 73370
L80670 73370
L80730 73340
L80760 73290
L80760 73260
L80730 73200
L80670 73180
L80590 73180
L80530 73150
L80500 73090
L80500 73060
L80530 73010
L80590 72980
L80670 72980
L80730 73010
" />
<path d="M81260 73340
L81210 73370
L81090 73370
L81040 73340
L81010 73320
L80980 73260
L80980 73090
L81010 73030
L81040 73010
L81090 72980
L81210 72980
L81260 73010
" />
<path d="M81520 73370
L81520 72780
" />
<path d="M81770 73370
L81770 73060
L81750 73010
L81690 72980
L81600 72980
L81550 73010
L81520 73030
" />
</g>
<g style="fill:#840000; fill-opacity:0.0; 
stroke:#840000; stroke-width:100; stroke-opacity:1; 
stroke-linecap:round; stroke-linejoin:round;">
</g>
<g style="fill:#840000; fill-opacity:0.0; 
stroke:#840000; stroke-width:60; stroke-opacity:1; 
stroke-linecap:round; stroke-linejoin:round;">
<path d="M69690 71460
L112210 71460
" />
</g>
<g style="fill:#840000; fill-opacity:0.0; 
stroke:#840000; stroke-width:100; stroke-opacity:1; 
stroke-linecap:round; stroke-linejoin:round;">
</g>
<g style="fill:#840000; fill-opacity:0.0; 
stroke:#840000; stroke-width:60; stroke-opacity:1; 
stroke-linecap:round; stroke-linejoin:round;">
<path d="M70190 72280
L70280 72310
L70420 72310
L70470 72280
L70500 72260
L70530 72200
L70530 72140
L70500 72090
L70470 72060
L70420 72030
L70300 72000
L70250 71970
L70220 71950
L70190 71890
L70190 71830
L70220 71780
L70250 71750
L70300 71720
L70450 71720
L70530 71750
" />
<path d="M70780 72310
L70780 71720
" />
<path d="M71030 72310
L71030 72000
L71010 71950
L70950 71920
L70860 71920
L70810 71950
L70780 71970
" />
<path d="M71540 72280
L71480 72310
L71370 72310
L71310 72280
L71280 72230
L71280 72000
L71310 71950
L71370 71920
L71480 71920
L71540 71950
L71560 72000
L71560 72060
L71280 72120
" />
<path d="M72050 72280
L71990 72310
L71880 72310
L71820 72280
L71790 72230
L71790 72000
L71820 71950
L71880 71920
L71990 71920
L72050 71950
L72070 72000
L72070 72060
L71790 72120
" />
<path d="M72250 71920
L72470 71920
" />
<path d="M72330 71720
L72330 72230
L72360 72280
L72410 72310
L72470 72310
" />
<path d="M72670 72260
L72700 72280
L72670 72310
L72640 72280
L72670 72260
L72670 72310
" />
<path d="M72670 71950
L72700 71970
L72670 72000
L72640 71970
L72670 71950
L72670 72000
" />
<path d="M73820 71690
L73320 72450
" />
</g>
<g style="fill:#840000; fill-opacity:0.0; 
stroke:#840000; stroke-width:100; stroke-opacity:1; 
stroke-linecap:round; stroke-linejoin:round;">
</g>
<g style="fill:#840000; fill-opacity:0.0; 
stroke:#840000; stroke-width:60; stroke-opacity:1; 
stroke-linecap:round; stroke-linejoin:round;">
<path d="M77560 75400
L77560 76580
" />
</g>
<g style="fill:#840000; fill-opacity:0.0; 
stroke:#840000; stroke-width:100; stroke-opacity:1; 
stroke-linecap:round; stroke-linejoin:round;">
</g>
<g style="fill:#840000; fill-opacity:0.0; 
stroke:#840000; stroke-width:60; stroke-opacity:1; 
stroke-linecap:round; stroke-linejoin:round;">
<path d="M102760 75400
L102760 77960
" />
</g>
<g style="fill:#840000; fill-opacity:0.0; 
stroke:#840000; stroke-width:0; stroke-opacity:1; 
stroke-linecap:round; stroke-linejoin:round;">
</g>
<g style="fill:#840000; fill-opacity:0.0; 
stroke:#840000; stroke-width:60; stroke-opacity:1; 
stroke-linecap:round; stroke-linejoin:round;">
<polyline fill="none;"
points="45000,39000
45000,39500
45500,39500
45000,40000
44500,39500
45000,39500
" /> 
</g>
<g style="fill:#008484; fill-opacity:0.0; 
stroke:#008484; stroke-width:60; stroke-opacity:1; 
stroke-linecap:round; stroke-linejoin:round;">
<path d="M44620 40280
L44570 40260
L44500 40260
L44430 40280
L44380 40330
L44360 40380
L44340 40470
L44340 40540
L44360 40640
L44380 40680
L44430 40730
L44500 40760
L44550 40760
L44620 40730
L44640 40710
L44640 40540
L44550 40540
" />
<path d="M44860 40760
L44860 40260
L45140 40760
L45140 40260
" />
<path d="M45380 40760
L45380 40260
L45500 40260
L45570 40280
L45620 40330
L45640 40380
L45660 40470
L45660 40540
L45640 40640
L45620 40680
L45570 40730
L45500 40760
L45380 40760
" />
</g>
<g style="fill:#008484; fill-opacity:0.0; 
stroke:#008484; stroke-width:0; stroke-opacity:1; 
stroke-linecap:round; stroke-linejoin:round;">
</g>
<g style="fill:#840000; fill-opacity:0.0; 
stroke:#840000; stroke-width:0; stroke-opacity:1; 
stroke-linecap:round; stroke-linejoin:round;">
</g>
<g style="fill:#840000; fill-opacity:0.0; 
stroke:#840000; stroke-width:60; stroke-opacity:1; 
stroke-linecap:round; stroke-linejoin:round;">
<polyline fill="none;"
points="44700,33500
45000,33000
" /> 
<polyline fill="none;"
points="45000,34000
45000,33000
" /> 
<polyline fill="none;"
points="45000,33000
45300,33500
" /> 
</g>
<g style="fill:#008484; fill-opacity:0.0; 
stroke:#008484; stroke-width:60; stroke-opacity:1; 
stroke-linecap:round; stroke-linejoin:round;">
<path d="M44000 32670
L44380 32670
" />
<path d="M44190 32860
L44190 32480
" />
<path d="M44570 32360
L44880 32360
L44710 32550
L44790 32550
L44830 32570
L44860 32590
L44880 32640
L44880 32760
L44860 32810
L44830 32830
L44790 32860
L44640 32860
L44600 32830
L44570 32810
" />
<path d="M45100 32810
L45120 32830
L45100 32860
L45080 32830
L45100 32810
L45100 32860
" />
<path d="M45290 32360
L45600 32360
L45430 32550
L45510 32550
L45550 32570
L45580 32590
L45600 32640
L45600 32760
L45580 32810
L45550 32830
L45510 32860
L45360 32860
L45320 32830
L45290 32810
" />
<path d="M45750 32360
L45910 32860
L46080 32360
" />
</g>
<g style="fill:#008400; fill-opacity:0.0; 
stroke:#008400; stroke-width:60; stroke-opacity:1; 
stroke-linecap:round; stroke-linejoin:round;">
<path d="M45000 35500
L45000 36500
" />
<path d="M45000 36500
L45000 38500
" />
<path d="M45000 38500
L45000 39000
" />
</g>
<g style="fill:#008400; fill-opacity:0.0; 
stroke:#008400; stroke-width:0; stroke-opacity:1; 
stroke-linecap:round; stroke-linejoin:round;">
</g>
<g style="fill:#008400; fill-opacity:1.0; 
stroke:#008400; stroke-width:100; stroke-opacity:1; 
stroke-linecap:round; stroke-linejoin:round;">
<circle cx="45000" cy="38500" r="200" /> 
</g>
<g style="fill:#008400; fill-opacity:1.0; 
stroke:#008400; stroke-width:0; stroke-opacity:1; 
stroke-linecap:round; stroke-linejoin:round;">
</g>
<g style="fill:#008400; fill-opacity:1.0; 
stroke:#008400; stroke-width:100; stroke-opacity:1; 
stroke-linecap:round; stroke-linejoin:round;">
<circle cx="45000" cy="36500" r="200" /> 
</g>
<g style="fill:#008400; fill-opacity:1.0; 
stroke:#008400; stroke-width:0; stroke-opacity:1; 
stroke-linecap:round; stroke-linejoin:round;">
</g>
<g style="fill:#840000; fill-opacity:1.0; 
stroke:#840000; stroke-width:0; stroke-opacity:1; 
stroke-linecap:round; stroke-linejoin:round;">
</g>
<g style="fill:#840000; fill-opacity:0.0; 
stroke:#840000; stroke-width:80; stroke-opacity:1; 
stroke-linecap:round; stroke-linejoin:round;">
<rect x="57200" y="32300" width="600" height="1400" rx="0" />
</g>
<g style="fill:#840000; fill-opacity:0.0; 
stroke:#840000; stroke-width:60; stroke-opacity:1; 
stroke-linecap:round; stroke-linejoin:round;">
<path d="M57500 32300
L57500 32000
" />
<path d="M57500 33700
L57500 34000
" />
</g>
<g style="fill:#008484; fill-opacity:0.0; 
stroke:#008484; stroke-width:60; stroke-opacity:1; 
stroke-linecap:round; stroke-linejoin:round;">
<path d="M58760 33600
L58520 33760
" />
<path d="M58760 33880
L58260 33880
L58260 33690
L58280 33640
L58300 33620
L58350 33600
L58420 33600
L58470 33620
L58490 33640
L58520 33690
L58520 33880
" />
<path d="M58760 33120
L58760 33400
" />
<path d="M58760 33260
L58260 33260
L58330 33310
L58380 33360
L58400 33400
" />
<path d="M58760 32120
L58760 32400
" />
<path d="M58760 32260
L58260 32260
L58330 32310
L58380 32360
L58400 32400
" />
<path d="M58260 31810
L58260 31760
L58280 31710
L58300 31690
L58350 31660
L58450 31640
L58570 31640
L58660 31660
L58710 31690
L58730 31710
L58760 31760
L58760 31810
L58730 31850
L58710 31880
L58660 31900
L58570 31920
L58450 31920
L58350 31900
L58300 31880
L58280 31850
L58260 31810
" />
<path d="M58260 31330
L58260 31280
L58280 31230
L58300 31210
L58350 31180
L58450 31160
L58570 31160
L58660 31180
L58710 31210
L58730 31230
L58760 31280
L58760 31330
L58730 31370
L58710 31400
L58660 31420
L58570 31440
L58450 31440
L58350 31420
L58300 31400
L58280 31370
L58260 31330
" />
<path d="M58760 30940
L58260 30940
" />
<path d="M58760 30660
L58470 30870
" />
<path d="M58260 30660
L58540 30940
" />
</g>
<g style="fill:#008484; fill-opacity:0.0; 
stroke:#008484; stroke-width:0; stroke-opacity:1; 
stroke-linecap:round; stroke-linejoin:round;">
</g>
<g style="fill:#840000; fill-opacity:0.0; 
stroke:#840000; stroke-width:0; stroke-opacity:1; 
stroke-linecap:round; stroke-linejoin:round;">
</g>
<g style="fill:#840000; fill-opacity:0.0; 
stroke:#840000; stroke-width:60; stroke-opacity:1; 
stroke-linecap:round; stroke-linejoin:round;">
<polyline fill="none;"
points="57200,29500
57500,29000
" /> 
<polyline fill="none;"
points="57500,30000
57500,29000
" /> 
<polyline fill="none;"
points="57500,29000
57800,29500
" /> 
</g>
<g style="fill:#008484; fill-opacity:0.0; 
stroke:#008484; stroke-width:60; stroke-opacity:1; 
stroke-linecap:round; stroke-linejoin:round;">
<path d="M56500 28670
L56880 28670
" />
<path d="M56690 28860
L56690 28480
" />
<path d="M57070 28360
L57380 28360
L57210 28550
L57290 28550
L57330 28570
L57360 28590
L57380 28640
L57380 28760
L57360 28810
L57330 28830
L57290 28860
L57140 28860
L57100 28830
L57070 28810
" />
<path d="M57600 28810
L57620 28830
L57600 28860
L57580 28830
L57600 28810
L57600 28860
" />
<path d="M57790 28360
L58100 28360
L57930 28550
L58010 28550
L58050 28570
L58080 28590
L58100 28640
L58100 28760
L58080 28810
L58050 28830
L58010 28860
L57860 28860
L57820 28830
L57790 28810
" />
<path d="M58250 28360
L58410 28860
L58580 28360
" />
</g>
<g style="fill:#008400; fill-opacity:0.0; 
stroke:#008400; stroke-width:60; stroke-opacity:1; 
stroke-linecap:round; stroke-linejoin:round;">
<path d="M57500 30000
L57500 30500
" />
<path d="M57500 30500
L57500 32000
" />
<path d="M56500 34500
L57500 34500
" />
<path d="M57500 34500
L68000 34500
" />
<path d="M56500 35500
L59500 35500
" />
<path d="M59500 35500
L68000 35500
" />
<path d="M57500 34500
L57500 34000
" />
</g>
<g style="fill:#008400; fill-opacity:0.0; 
stroke:#008400; stroke-width:0; stroke-opacity:1; 
stroke-linecap:round; stroke-linejoin:round;">
</g>
<g style="fill:#008400; fill-opacity:1.0; 
stroke:#008400; stroke-width:100; stroke-opacity:1; 
stroke-linecap:round; stroke-linejoin:round;">
<circle cx="57500" cy="34500" r="200" /> 
</g>
<g style="fill:#008400; fill-opacity:1.0; 
stroke:#008400; stroke-width:60; stroke-opacity:1; 
stroke-linecap:round; stroke-linejoin:round;">
</g>
<g style="fill:#008400; fill-opacity:0.0; 
stroke:#008400; stroke-width:60; stroke-opacity:1; 
stroke-linecap:round; stroke-linejoin:round;">
<path d="M56500 38500
L63500 38500
" />
<path d="M63500 38500
L68000 38500
" />
<path d="M56500 36500
L68000 36500
" />
</g>
<g style="fill:#0000C2; fill-opacity:0.0; 
stroke:#0000C2; stroke-width:60; stroke-opacity:1; 
stroke-linecap:round; stroke-linejoin:round;">
<path d="M47610 29440
L47700 29470
L47840 29470
L47900 29440
L47930 29410
L47960 29360
L47960 29300
L47930 29240
L47900 29210
L47840 29190
L47730 29160
L47670 29130
L47640 29100
L47610 29040
L47610 28990
L47640 28930
L47670 28900
L47730 28870
L47870 28870
L47960 28900
" />
<path d="M48160 28870
L48300 29470
L48410 29040
L48530 29470
L48670 28870
" />
<path d="M48900 29470
L48900 28870
L49050 28870
L49130 28900
L49190 28960
L49220 29010
L49250 29130
L49250 29210
L49220 29330
L49190 29390
L49130 29440
L49050 29470
L48900 29470
" />
<path d="M49960 29470
L49960 28870
L50110 28870
L50190 28900
L50250 28960
L50280 29010
L50310 29130
L50310 29210
L50280 29330
L50250 29390
L50190 29440
L50110 29470
L49960 29470
" />
<path d="M50790 29440
L50730 29470
L50620 29470
L50560 29440
L50530 29390
L50530 29160
L50560 29100
L50620 29070
L50730 29070
L50790 29100
L50820 29160
L50820 29210
L50530 29270
" />
<path d="M51070 29470
L51070 28870
" />
<path d="M51070 29100
L51130 29070
L51240 29070
L51300 29100
L51330 29130
L51360 29190
L51360 29360
L51330 29410
L51300 29440
L51240 29470
L51130 29470
L51070 29440
" />
<path d="M51870 29070
L51870 29470
" />
<path d="M51610 29070
L51610 29390
L51640 29440
L51700 29470
L51780 29470
L51840 29440
L51870 29410
" />
<path d="M52410 29070
L52410 29560
L52380 29610
L52350 29640
L52300 29670
L52210 29670
L52150 29640
" />
<path d="M52410 29440
L52350 29470
L52240 29470
L52180 29440
L52150 29410
L52120 29360
L52120 29190
L52150 29130
L52180 29100
L52240 29070
L52350 29070
L52410 29100
" />
<path d="M53150 29470
L53150 28870
L53380 28870
L53440 28900
L53470 28930
L53500 28990
L53500 29070
L53470 29130
L53440 29160
L53380 29190
L53150 29190
" />
<path d="M53840 29470
L53780 29440
L53750 29410
L53720 29360
L53720 29190
L53750 29130
L53780 29100
L53840 29070
L53920 29070
L53980 29100
L54010 29130
L54040 29190
L54040 29360
L54010 29410
L53980 29440
L53920 29470
L53840 29470
" />
<path d="M54290 29470
L54290 29070
" />
<path d="M54290 29190
L54320 29130
L54350 29100
L54410 29070
L54460 29070
" />
<path d="M54580 29070
L54810 29070
" />
<path d="M54660 28870
L54660 29390
L54690 29440
L54750 29470
L54810 29470
" />
</g>
<g style="fill:#0000C2; fill-opacity:0.0; 
stroke:#0000C2; stroke-width:0; stroke-opacity:1; 
stroke-linecap:round; stroke-linejoin:round;">
</g>
<g style="fill:#840000; fill-opacity:0.0; 
stroke:#840000; stroke-width:0; stroke-opacity:1; 
stroke-linecap:round; stroke-linejoin:round;">
</g>
<g style="fill:#FFFFC2; fill-opacity:0.0; 
stroke:#FFFFC2; stroke-width:0; stroke-opacity:1; 
stroke-linecap:round; stroke-linejoin:round;">
</g>
<g style="fill:#FFFFC2; fill-opacity:0.6; 
stroke:#FFFFC2; stroke-width:0; stroke-opacity:1; 
stroke-linecap:round; stroke-linejoin:round;">
<rect x="46500" y="34000" width="9000" height="5000" rx="0" />
</g>
<g style="fill:#840000; fill-opacity:0.6; 
stroke:#840000; stroke-width:0; stroke-opacity:1; 
stroke-linecap:round; stroke-linejoin:round;">
</g>
<g style="fill:#840000; fill-opacity:0.0; 
stroke:#840000; stroke-width:60; stroke-opacity:1; 
stroke-linecap:round; stroke-linejoin:round;">
<rect x="46500" y="34000" width="9000" height="5000" rx="0" />
<path d="M46500 34500
L45500 34500
" />
</g>
<g style="fill:#008484; fill-opacity:0.0; 
stroke:#008484; stroke-width:60; stroke-opacity:1; 
stroke-linecap:round; stroke-linejoin:round;">
<path d="M46850 34230
L47010 34730
L47180 34230
" />
<path d="M47630 34680
L47610 34700
L47540 34730
L47490 34730
L47420 34700
L47370 34650
L47350 34610
L47330 34510
L47330 34440
L47350 34350
L47370 34300
L47420 34250
L47490 34230
L47540 34230
L47610 34250
L47630 34270
" />
<path d="M48130 34680
L48110 34700
L48040 34730
L47990 34730
L47920 34700
L47870 34650
L47850 34610
L47830 34510
L47830 34440
L47850 34350
L47870 34300
L47920 34250
L47990 34230
L48040 34230
L48110 34250
L48130 34270
" />
</g>
<g style="fill:#840000; fill-opacity:0.0; 
stroke:#840000; stroke-width:60; stroke-opacity:1; 
stroke-linecap:round; stroke-linejoin:round;">
<path d="M46140 34380
L45860 34380
" />
<path d="M46000 34380
L46000 33880
L45950 33950
L45900 34000
L45860 34020
" />
<path d="M55500 34500
L56500 34500
" />
</g>
<g style="fill:#008484; fill-opacity:0.0; 
stroke:#008484; stroke-width:60; stroke-opacity:1; 
stroke-linecap:round; stroke-linejoin:round;">
<path d="M51040 34700
L51110 34730
L51230 34730
L51270 34700
L51300 34680
L51320 34630
L51320 34580
L51300 34540
L51270 34510
L51230 34490
L51130 34460
L51080 34440
L51060 34420
L51040 34370
L51040 34320
L51060 34270
L51080 34250
L51130 34230
L51250 34230
L51320 34250
" />
<path d="M51490 34230
L51610 34730
L51710 34370
L51800 34730
L51920 34230
" />
<path d="M52110 34730
L52110 34230
L52230 34230
L52300 34250
L52350 34300
L52370 34350
L52390 34440
L52390 34510
L52370 34610
L52350 34650
L52300 34700
L52230 34730
L52110 34730
" />
<path d="M52610 34730
L52610 34230
" />
<path d="M52940 34230
L53040 34230
L53090 34250
L53130 34300
L53160 34390
L53160 34560
L53130 34650
L53090 34700
L53040 34730
L52940 34730
L52900 34700
L52850 34650
L52830 34560
L52830 34390
L52850 34300
L52900 34250
L52940 34230
" />
<path d="M53730 34200
L53300 34850
" />
<path d="M53820 34230
L54100 34230
" />
<path d="M53960 34730
L53960 34230
" />
<path d="M54270 34730
L54270 34230
L54440 34580
L54600 34230
L54600 34730
" />
<path d="M54820 34700
L54890 34730
L55010 34730
L55050 34700
L55080 34680
L55100 34630
L55100 34580
L55080 34540
L55050 34510
L55010 34490
L54910 34460
L54860 34440
L54840 34420
L54820 34370
L54820 34320
L54840 34270
L54860 34250
L54910 34230
L55030 34230
L55100 34250
" />
</g>
<g style="fill:#840000; fill-opacity:0.0; 
stroke:#840000; stroke-width:60; stroke-opacity:1; 
stroke-linecap:round; stroke-linejoin:round;">
<path d="M55860 33920
L55880 33900
L55930 33880
L56050 33880
L56090 33900
L56120 33920
L56140 33970
L56140 34020
L56120 34090
L55830 34380
L56140 34380
" />
<path d="M46500 35500
L45500 35500
" />
</g>
<g style="fill:#008484; fill-opacity:0.0; 
stroke:#008484; stroke-width:60; stroke-opacity:1; 
stroke-linecap:round; stroke-linejoin:round;">
<path d="M47180 35250
L47130 35230
L47060 35230
L46990 35250
L46940 35300
L46920 35350
L46900 35440
L46900 35510
L46920 35610
L46940 35650
L46990 35700
L47060 35730
L47110 35730
L47180 35700
L47200 35680
L47200 35510
L47110 35510
" />
<path d="M47420 35730
L47420 35230
L47700 35730
L47700 35230
" />
<path d="M47940 35730
L47940 35230
L48060 35230
L48130 35250
L48180 35300
L48200 35350
L48220 35440
L48220 35510
L48200 35610
L48180 35650
L48130 35700
L48060 35730
L47940 35730
" />
</g>
<g style="fill:#840000; fill-opacity:0.0; 
stroke:#840000; stroke-width:60; stroke-opacity:1; 
stroke-linecap:round; stroke-linejoin:round;">
<path d="M45830 34880
L46140 34880
L45970 35070
L46050 35070
L46090 35090
L46120 35110
L46140 35160
L46140 35280
L46120 35330
L46090 35350
L46050 35380
L45900 35380
L45860 35350
L45830 35330
" />
<path d="M55500 35500
L56500 35500
" />
</g>
<g style="fill:#008484; fill-opacity:0.0; 
stroke:#008484; stroke-width:60; stroke-opacity:1; 
stroke-linecap:round; stroke-linejoin:round;">
<path d="M50450 35700
L50520 35730
L50640 35730
L50680 35700
L50710 35680
L50730 35630
L50730 35580
L50710 35540
L50680 35510
L50640 35490
L50540 35460
L50490 35440
L50470 35420
L50450 35370
L50450 35320
L50470 35270
L50490 35250
L50540 35230
L50660 35230
L50730 35250
" />
<path d="M50900 35230
L51020 35730
L51120 35370
L51210 35730
L51330 35230
" />
<path d="M51520 35730
L51520 35230
L51640 35230
L51710 35250
L51760 35300
L51780 35350
L51800 35440
L51800 35510
L51780 35610
L51760 35650
L51710 35700
L51640 35730
L51520 35730
" />
<path d="M52300 35680
L52280 35700
L52210 35730
L52160 35730
L52090 35700
L52040 35650
L52020 35610
L52000 35510
L52000 35440
L52020 35350
L52040 35300
L52090 35250
L52160 35230
L52210 35230
L52280 35250
L52300 35270
" />
<path d="M52760 35730
L52520 35730
L52520 35230
" />
<path d="M52920 35730
L52920 35230
" />
<path d="M53200 35730
L52990 35440
" />
<path d="M53200 35230
L52920 35510
" />
<path d="M53780 35200
L53350 35850
" />
<path d="M53870 35230
L54150 35230
" />
<path d="M54010 35730
L54010 35230
" />
<path d="M54600 35680
L54580 35700
L54510 35730
L54460 35730
L54390 35700
L54340 35650
L54320 35610
L54300 35510
L54300 35440
L54320 35350
L54340 35300
L54390 35250
L54460 35230
L54510 35230
L54580 35250
L54600 35270
" />
<path d="M54820 35730
L54820 35230
" />
<path d="M55100 35730
L54890 35440
" />
<path d="M55100 35230
L54820 35510
" />
</g>
<g style="fill:#840000; fill-opacity:0.0; 
stroke:#840000; stroke-width:60; stroke-opacity:1; 
stroke-linecap:round; stroke-linejoin:round;">
<path d="M56090 35040
L56090 35380
" />
<path d="M55970 34850
L55860 35210
L56160 35210
" />
<path d="M46500 36500
L45500 36500
" />
</g>
<g style="fill:#008484; fill-opacity:0.0; 
stroke:#008484; stroke-width:60; stroke-opacity:1; 
stroke-linecap:round; stroke-linejoin:round;">
<path d="M47180 36250
L47130 36230
L47060 36230
L46990 36250
L46940 36300
L46920 36350
L46900 36440
L46900 36510
L46920 36610
L46940 36650
L46990 36700
L47060 36730
L47110 36730
L47180 36700
L47200 36680
L47200 36510
L47110 36510
" />
<path d="M47420 36730
L47420 36230
L47700 36730
L47700 36230
" />
<path d="M47940 36730
L47940 36230
L48060 36230
L48130 36250
L48180 36300
L48200 36350
L48220 36440
L48220 36510
L48200 36610
L48180 36650
L48130 36700
L48060 36730
L47940 36730
" />
</g>
<g style="fill:#840000; fill-opacity:0.0; 
stroke:#840000; stroke-width:60; stroke-opacity:1; 
stroke-linecap:round; stroke-linejoin:round;">
<path d="M46120 35880
L45880 35880
L45860 36110
L45880 36090
L45930 36070
L46050 36070
L46090 36090
L46120 36110
L46140 36160
L46140 36280
L46120 36330
L46090 36350
L46050 36380
L45930 36380
L45880 36350
L45860 36330
" />
<path d="M55500 36500
L56500 36500
" />
</g>
<g style="fill:#008484; fill-opacity:0.0; 
stroke:#008484; stroke-width:60; stroke-opacity:1; 
stroke-linecap:round; stroke-linejoin:round;">
<path d="M51810 36700
L51880 36730
L52000 36730
L52040 36700
L52070 36680
L52090 36630
L52090 36580
L52070 36540
L52040 36510
L52000 36490
L51900 36460
L51850 36440
L51830 36420
L51810 36370
L51810 36320
L51830 36270
L51850 36250
L51900 36230
L52020 36230
L52090 36250
" />
<path d="M52260 36230
L52380 36730
L52480 36370
L52570 36730
L52690 36230
" />
<path d="M52970 36230
L53070 36230
L53120 36250
L53160 36300
L53190 36390
L53190 36560
L53160 36650
L53120 36700
L53070 36730
L52970 36730
L52930 36700
L52880 36650
L52860 36560
L52860 36390
L52880 36300
L52930 36250
L52970 36230
" />
<path d="M53760 36200
L53330 36850
" />
<path d="M53850 36230
L54130 36230
" />
<path d="M53990 36730
L53990 36230
" />
<path d="M54300 36730
L54300 36230
L54420 36230
L54490 36250
L54540 36300
L54560 36350
L54580 36440
L54580 36510
L54560 36610
L54540 36650
L54490 36700
L54420 36730
L54300 36730
" />
<path d="M54890 36230
L54990 36230
L55040 36250
L55080 36300
L55110 36390
L55110 36560
L55080 36650
L55040 36700
L54990 36730
L54890 36730
L54850 36700
L54800 36650
L54780 36560
L54780 36390
L54800 36300
L54850 36250
L54890 36230
" />
</g>
<g style="fill:#840000; fill-opacity:0.0; 
stroke:#840000; stroke-width:60; stroke-opacity:1; 
stroke-linecap:round; stroke-linejoin:round;">
<path d="M56090 35880
L56000 35880
L55950 35900
L55930 35920
L55880 36000
L55860 36090
L55860 36280
L55880 36330
L55900 36350
L55950 36380
L56050 36380
L56090 36350
L56120 36330
L56140 36280
L56140 36160
L56120 36110
L56090 36090
L56050 36070
L55950 36070
L55900 36090
L55880 36110
L55860 36160
" />
<path d="M46500 37500
L45500 37500
" />
</g>
<g style="fill:#008484; fill-opacity:0.0; 
stroke:#008484; stroke-width:60; stroke-opacity:1; 
stroke-linecap:round; stroke-linejoin:round;">
<path d="M46920 37730
L46920 37230
" />
<path d="M47200 37730
L46990 37440
" />
<path d="M47200 37230
L46920 37510
" />
<path d="M47420 37460
L47590 37460
" />
<path d="M47660 37730
L47420 37730
L47420 37230
L47660 37230
" />
<path d="M47960 37490
L47960 37730
" />
<path d="M47800 37230
L47960 37490
L48130 37230
" />
</g>
<g style="fill:#840000; fill-opacity:0.0; 
stroke:#840000; stroke-width:60; stroke-opacity:1; 
stroke-linecap:round; stroke-linejoin:round;">
<path d="M45830 36880
L46160 36880
L45950 37380
" />
<path d="M55500 37500
L56500 37500
" />
</g>
<g style="fill:#008484; fill-opacity:0.0; 
stroke:#008484; stroke-width:60; stroke-opacity:1; 
stroke-linecap:round; stroke-linejoin:round;">
<path d="M52660 37730
L52660 37230
L52940 37730
L52940 37230
" />
<path d="M53460 37680
L53440 37700
L53370 37730
L53320 37730
L53250 37700
L53200 37650
L53180 37610
L53160 37510
L53160 37440
L53180 37350
L53200 37300
L53250 37250
L53320 37230
L53370 37230
L53440 37250
L53460 37270
" />
<path d="M54040 37200
L53610 37850
" />
<path d="M54130 37230
L54410 37230
" />
<path d="M54270 37730
L54270 37230
" />
<path d="M54580 37730
L54580 37230
L54700 37230
L54770 37250
L54820 37300
L54840 37350
L54860 37440
L54860 37510
L54840 37610
L54820 37650
L54770 37700
L54700 37730
L54580 37730
" />
<path d="M55080 37730
L55080 37230
" />
</g>
<g style="fill:#840000; fill-opacity:0.0; 
stroke:#840000; stroke-width:60; stroke-opacity:1; 
stroke-linecap:round; stroke-linejoin:round;">
<path d="M55950 37090
L55900 37070
L55880 37040
L55860 37000
L55860 36970
L55880 36920
L55900 36900
L55950 36880
L56050 36880
L56090 36900
L56120 36920
L56140 36970
L56140 37000
L56120 37040
L56090 37070
L56050 37090
L55950 37090
L55900 37110
L55880 37140
L55860 37190
L55860 37280
L55880 37330
L55900 37350
L55950 37380
L56050 37380
L56090 37350
L56120 37330
L56140 37280
L56140 37190
L56120 37140
L56090 37110
L56050 37090
" />
<path d="M46500 38500
L45500 38500
" />
</g>
<g style="fill:#008484; fill-opacity:0.0; 
stroke:#008484; stroke-width:60; stroke-opacity:1; 
stroke-linecap:round; stroke-linejoin:round;">
<path d="M47180 38250
L47130 38230
L47060 38230
L46990 38250
L46940 38300
L46920 38350
L46900 38440
L46900 38510
L46920 38610
L46940 38650
L46990 38700
L47060 38730
L47110 38730
L47180 38700
L47200 38680
L47200 38510
L47110 38510
" />
<path d="M47420 38730
L47420 38230
L47700 38730
L47700 38230
" />
<path d="M47940 38730
L47940 38230
L48060 38230
L48130 38250
L48180 38300
L48200 38350
L48220 38440
L48220 38510
L48200 38610
L48180 38650
L48130 38700
L48060 38730
L47940 38730
" />
<path d="M48800 38200
L48370 38850
" />
<path d="M48960 38730
L48960 38230
L49080 38230
L49150 38250
L49200 38300
L49220 38350
L49240 38440
L49240 38510
L49220 38610
L49200 38650
L49150 38700
L49080 38730
L48960 38730
" />
<path d="M49460 38460
L49630 38460
" />
<path d="M49700 38730
L49460 38730
L49460 38230
L49700 38230
" />
<path d="M49840 38230
L50120 38230
" />
<path d="M49980 38730
L49980 38230
" />
<path d="M50290 38460
L50460 38460
" />
<path d="M50530 38730
L50290 38730
L50290 38230
L50530 38230
" />
<path d="M51020 38680
L51000 38700
L50930 38730
L50880 38730
L50810 38700
L50760 38650
L50740 38610
L50720 38510
L50720 38440
L50740 38350
L50760 38300
L50810 38250
L50880 38230
L50930 38230
L51000 38250
L51020 38270
" />
<path d="M51170 38230
L51450 38230
" />
<path d="M51310 38730
L51310 38230
" />
</g>
<g style="fill:#840000; fill-opacity:0.0; 
stroke:#840000; stroke-width:60; stroke-opacity:1; 
stroke-linecap:round; stroke-linejoin:round;">
<path d="M45900 38380
L46000 38380
L46050 38350
L46070 38330
L46120 38260
L46140 38160
L46140 37970
L46120 37920
L46090 37900
L46050 37880
L45950 37880
L45900 37900
L45880 37920
L45860 37970
L45860 38090
L45880 38140
L45900 38160
L45950 38190
L46050 38190
L46090 38160
L46120 38140
L46140 38090
" />
<path d="M55500 38500
L56500 38500
" />
</g>
<g style="fill:#008484; fill-opacity:0.0; 
stroke:#008484; stroke-width:60; stroke-opacity:1; 
stroke-linecap:round; stroke-linejoin:round;">
<path d="M52610 38390
L52610 38730
" />
<path d="M52610 38440
L52630 38420
L52680 38390
L52750 38390
L52800 38420
L52820 38460
L52820 38730
" />
<path d="M53340 38730
L53180 38490
" />
<path d="M53060 38730
L53060 38230
L53250 38230
L53300 38250
L53320 38270
L53340 38320
L53340 38390
L53320 38440
L53300 38460
L53250 38490
L53060 38490
" />
<path d="M53560 38460
L53730 38460
" />
<path d="M53800 38730
L53560 38730
L53560 38230
L53800 38230
" />
<path d="M53990 38700
L54060 38730
L54180 38730
L54220 38700
L54250 38680
L54270 38630
L54270 38580
L54250 38540
L54220 38510
L54180 38490
L54080 38460
L54030 38440
L54010 38420
L53990 38370
L53990 38320
L54010 38270
L54030 38250
L54080 38230
L54200 38230
L54270 38250
" />
<path d="M54490 38460
L54660 38460
" />
<path d="M54730 38730
L54490 38730
L54490 38230
L54730 38230
" />
<path d="M54870 38230
L55150 38230
" />
<path d="M55010 38730
L55010 38230
" />
<path d="M52490 38140
L55200 38140
" />
</g>
<g style="fill:#840000; fill-opacity:0.0; 
stroke:#840000; stroke-width:60; stroke-opacity:1; 
stroke-linecap:round; stroke-linejoin:round;">
<path d="M55900 38380
L55620 38380
" />
<path d="M55760 38380
L55760 37880
L55710 37950
L55660 38000
L55620 38020
" />
<path d="M56210 37880
L56260 37880
L56310 37900
L56330 37920
L56360 37970
L56380 38070
L56380 38190
L56360 38280
L56330 38330
L56310 38350
L56260 38380
L56210 38380
L56170 38350
L56140 38330
L56120 38280
L56100 38190
L56100 38070
L56120 37970
L56140 37920
L56170 37900
L56210 37880
" />
</g>
<g style="fill:#008484; fill-opacity:0.0; 
stroke:#008484; stroke-width:60; stroke-opacity:1; 
stroke-linecap:round; stroke-linejoin:round;">
<path d="M50630 33760
L50630 33260
L50820 33260
L50870 33280
L50890 33300
L50910 33350
L50910 33420
L50890 33470
L50870 33490
L50820 33520
L50630 33520
" />
<path d="M51390 33760
L51110 33760
" />
<path d="M51250 33760
L51250 33260
L51200 33330
L51150 33380
L51110 33400
" />
<path d="M46930 39730
L47000 39760
L47120 39760
L47160 39730
L47190 39710
L47210 39660
L47210 39610
L47190 39570
L47160 39540
L47120 39520
L47020 39490
L46970 39470
L46950 39450
L46930 39400
L46930 39350
L46950 39300
L46970 39280
L47020 39260
L47140 39260
L47210 39280
" />
<path d="M47380 39260
L47500 39760
L47600 39400
L47690 39760
L47810 39260
" />
<path d="M48000 39760
L48000 39260
L48120 39260
L48190 39280
L48240 39330
L48260 39380
L48280 39470
L48280 39540
L48260 39640
L48240 39680
L48190 39730
L48120 39760
L48000 39760
" />
<path d="M48380 39800
L48760 39800
" />
<path d="M48880 39760
L48880 39260
L49000 39260
L49070 39280
L49120 39330
L49140 39380
L49160 39470
L49160 39540
L49140 39640
L49120 39680
L49070 39730
L49000 39760
L48880 39760
" />
<path d="M49570 39730
L49520 39760
L49430 39760
L49380 39730
L49360 39680
L49360 39490
L49380 39450
L49430 39420
L49520 39420
L49570 39450
L49590 39490
L49590 39540
L49360 39590
" />
<path d="M49810 39760
L49810 39260
" />
<path d="M49810 39450
L49860 39420
L49950 39420
L50000 39450
L50020 39470
L50050 39520
L50050 39660
L50020 39710
L50000 39730
L49950 39760
L49860 39760
L49810 39730
" />
<path d="M50470 39420
L50470 39760
" />
<path d="M50260 39420
L50260 39680
L50280 39730
L50330 39760
L50400 39760
L50450 39730
L50470 39710
" />
<path d="M50920 39420
L50920 39830
L50900 39880
L50880 39900
L50830 39920
L50760 39920
L50710 39900
" />
<path d="M50920 39730
L50880 39760
L50780 39760
L50730 39730
L50710 39710
L50690 39660
L50690 39520
L50710 39470
L50730 39450
L50780 39420
L50880 39420
L50920 39450
" />
<path d="M51040 39800
L51420 39800
" />
<path d="M51820 39710
L51800 39730
L51730 39760
L51680 39760
L51610 39730
L51560 39680
L51540 39640
L51520 39540
L51520 39470
L51540 39380
L51560 39330
L51610 39280
L51680 39260
L51730 39260
L51800 39280
L51820 39300
" />
<path d="M52110 39760
L52060 39730
L52040 39710
L52020 39660
L52020 39520
L52040 39470
L52060 39450
L52110 39420
L52180 39420
L52230 39450
L52250 39470
L52280 39520
L52280 39660
L52250 39710
L52230 39730
L52180 39760
L52110 39760
" />
<path d="M52490 39420
L52490 39760
" />
<path d="M52490 39470
L52510 39450
L52560 39420
L52630 39420
L52680 39450
L52700 39490
L52700 39760
" />
<path d="M52940 39420
L52940 39760
" />
<path d="M52940 39470
L52960 39450
L53010 39420
L53080 39420
L53130 39450
L53150 39490
L53150 39760
" />
<path d="M53580 39730
L53530 39760
L53440 39760
L53390 39730
L53370 39680
L53370 39490
L53390 39450
L53440 39420
L53530 39420
L53580 39450
L53600 39490
L53600 39540
L53370 39590
" />
<path d="M54030 39730
L53990 39760
L53890 39760
L53840 39730
L53820 39710
L53800 39660
L53800 39520
L53820 39470
L53840 39450
L53890 39420
L53990 39420
L54030 39450
" />
<path d="M54180 39420
L54370 39420
" />
<path d="M54250 39260
L54250 39680
L54270 39730
L54320 39760
L54370 39760
" />
<path d="M54610 39760
L54560 39730
L54540 39710
L54520 39660
L54520 39520
L54540 39470
L54560 39450
L54610 39420
L54680 39420
L54730 39450
L54750 39470
L54780 39520
L54780 39660
L54750 39710
L54730 39730
L54680 39760
L54610 39760
" />
<path d="M54990 39760
L54990 39420
" />
<path d="M54990 39520
L55010 39470
L55040 39450
L55080 39420
L55130 39420
" />
</g>
<g style="fill:#008400; fill-opacity:0.0; 
stroke:#008400; stroke-width:60; stroke-opacity:1; 
stroke-linecap:round; stroke-linejoin:round;">
<path d="M45500 35500
L45000 35500
" />
<path d="M45500 38500
L45000 38500
" />
<path d="M45500 36500
L45000 36500
" />
<path d="M45500 34500
L45000 34500
" />
<path d="M45000 34500
L45000 34000
" />
<path d="M57500 30500
L59500 30500
" />
<path d="M59500 30500
L61500 30500
" />
<path d="M61500 30500
L63500 30500
" />
</g>
<g style="fill:#008400; fill-opacity:0.0; 
stroke:#008400; stroke-width:0; stroke-opacity:1; 
stroke-linecap:round; stroke-linejoin:round;">
</g>
<g style="fill:#008400; fill-opacity:1.0; 
stroke:#008400; stroke-width:100; stroke-opacity:1; 
stroke-linecap:round; stroke-linejoin:round;">
<circle cx="57500" cy="30500" r="200" /> 
</g>
<g style="fill:#008400; fill-opacity:1.0; 
stroke:#008400; stroke-width:60; stroke-opacity:1; 
stroke-linecap:round; stroke-linejoin:round;">
</g>
<g style="fill:#848400; fill-opacity:0.0; 
stroke:#848400; stroke-width:60; stroke-opacity:1; 
stroke-linecap:round; stroke-linejoin:round;">
<path d="M68870 34740
L68960 34770
L69100 34770
L69160 34740
L69190 34710
L69220 34660
L69220 34600
L69190 34540
L69160 34510
L69100 34490
L68990 34460
L68930 34430
L68900 34400
L68870 34340
L68870 34290
L68900 34230
L68930 34200
L68990 34170
L69130 34170
L69220 34200
" />
<path d="M69420 34170
L69560 34770
L69670 34340
L69790 34770
L69930 34170
" />
<path d="M70160 34770
L70160 34170
L70310 34170
L70390 34200
L70450 34260
L70480 34310
L70510 34430
L70510 34510
L70480 34630
L70450 34690
L70390 34740
L70310 34770
L70160 34770
" />
<path d="M70620 34830
L71080 34830
" />
<path d="M71220 34770
L71220 34170
" />
<path d="M71630 34170
L71740 34170
L71800 34200
L71860 34260
L71880 34370
L71880 34570
L71860 34690
L71800 34740
L71740 34770
L71630 34770
L71570 34740
L71510 34690
L71480 34570
L71480 34370
L71510 34260
L71570 34200
L71630 34170
" />
</g>
<g style="fill:#848400; fill-opacity:0.0; 
stroke:#848400; stroke-width:100; stroke-opacity:1; 
stroke-linecap:round; stroke-linejoin:round;">
<polyline fill="none;"
points="68000,34500
68300,34800
68600,34800
68600,34200
68300,34200
68000,34500
" /> 
</g>
<g style="fill:#848400; fill-opacity:0.0; 
stroke:#848400; stroke-width:60; stroke-opacity:1; 
stroke-linecap:round; stroke-linejoin:round;">
<path d="M68870 35740
L68960 35770
L69100 35770
L69160 35740
L69190 35710
L69220 35660
L69220 35600
L69190 35540
L69160 35510
L69100 35490
L68990 35460
L68930 35430
L68900 35400
L68870 35340
L68870 35290
L68900 35230
L68930 35200
L68990 35170
L69130 35170
L69220 35200
" />
<path d="M69420 35170
L69560 35770
L69670 35340
L69790 35770
L69930 35170
" />
<path d="M70160 35770
L70160 35170
L70310 35170
L70390 35200
L70450 35260
L70480 35310
L70510 35430
L70510 35510
L70480 35630
L70450 35690
L70390 35740
L70310 35770
L70160 35770
" />
<path d="M70620 35830
L71080 35830
" />
<path d="M71570 35710
L71540 35740
L71450 35770
L71390 35770
L71310 35740
L71250 35690
L71220 35630
L71190 35510
L71190 35430
L71220 35310
L71250 35260
L71310 35200
L71390 35170
L71450 35170
L71540 35200
L71570 35230
" />
<path d="M72110 35770
L71820 35770
L71820 35170
" />
<path d="M72310 35770
L72310 35170
" />
<path d="M72660 35770
L72400 35430
" />
<path d="M72660 35170
L72310 35510
" />
</g>
<g style="fill:#848400; fill-opacity:0.0; 
stroke:#848400; stroke-width:100; stroke-opacity:1; 
stroke-linecap:round; stroke-linejoin:round;">
<polyline fill="none;"
points="68000,35500
68300,35800
68600,35800
68600,35200
68300,35200
68000,35500
" /> 
</g>
<g style="fill:#848400; fill-opacity:0.0; 
stroke:#848400; stroke-width:60; stroke-opacity:1; 
stroke-linecap:round; stroke-linejoin:round;">
<path d="M68870 36740
L68960 36770
L69100 36770
L69160 36740
L69190 36710
L69220 36660
L69220 36600
L69190 36540
L69160 36510
L69100 36490
L68990 36460
L68930 36430
L68900 36400
L68870 36340
L68870 36290
L68900 36230
L68930 36200
L68990 36170
L69130 36170
L69220 36200
" />
<path d="M69420 36170
L69560 36770
L69670 36340
L69790 36770
L69930 36170
" />
<path d="M70160 36770
L70160 36170
L70310 36170
L70390 36200
L70450 36260
L70480 36310
L70510 36430
L70510 36510
L70480 36630
L70450 36690
L70390 36740
L70310 36770
L70160 36770
" />
<path d="M70620 36830
L71080 36830
" />
<path d="M71340 36170
L71450 36170
L71510 36200
L71570 36260
L71590 36370
L71590 36570
L71570 36690
L71510 36740
L71450 36770
L71340 36770
L71280 36740
L71220 36690
L71190 36570
L71190 36370
L71220 36260
L71280 36200
L71340 36170
" />
</g>
<g style="fill:#848400; fill-opacity:0.0; 
stroke:#848400; stroke-width:100; stroke-opacity:1; 
stroke-linecap:round; stroke-linejoin:round;">
<polyline fill="none;"
points="68000,36500
68300,36800
68600,36800
68600,36200
68300,36200
68000,36500
" /> 
</g>
<g style="fill:#848400; fill-opacity:0.0; 
stroke:#848400; stroke-width:60; stroke-opacity:1; 
stroke-linecap:round; stroke-linejoin:round;">
<path d="M68870 38740
L68960 38770
L69100 38770
L69160 38740
L69190 38710
L69220 38660
L69220 38600
L69190 38540
L69160 38510
L69100 38490
L68990 38460
L68930 38430
L68900 38400
L68870 38340
L68870 38290
L68900 38230
L68930 38200
L68990 38170
L69130 38170
L69220 38200
" />
<path d="M69420 38170
L69560 38770
L69670 38340
L69790 38770
L69930 38170
" />
<path d="M70160 38770
L70160 38170
L70310 38170
L70390 38200
L70450 38260
L70480 38310
L70510 38430
L70510 38510
L70480 38630
L70450 38690
L70390 38740
L70310 38770
L70160 38770
" />
<path d="M70620 38830
L71080 38830
" />
<path d="M71570 38770
L71370 38490
" />
<path d="M71220 38770
L71220 38170
L71450 38170
L71510 38200
L71540 38230
L71570 38290
L71570 38370
L71540 38430
L71510 38460
L71450 38490
L71220 38490
" />
<path d="M71820 38460
L72020 38460
" />
<path d="M72110 38770
L71820 38770
L71820 38170
L72110 38170
" />
<path d="M72330 38740
L72420 38770
L72560 38770
L72620 38740
L72650 38710
L72680 38660
L72680 38600
L72650 38540
L72620 38510
L72560 38490
L72450 38460
L72390 38430
L72360 38400
L72330 38340
L72330 38290
L72360 38230
L72390 38200
L72450 38170
L72590 38170
L72680 38200
" />
<path d="M72930 38460
L73130 38460
" />
<path d="M73220 38770
L72930 38770
L72930 38170
L73220 38170
" />
<path d="M73390 38170
L73730 38170
" />
<path d="M73560 38770
L73560 38170
" />
</g>
<g style="fill:#848400; fill-opacity:0.0; 
stroke:#848400; stroke-width:100; stroke-opacity:1; 
stroke-linecap:round; stroke-linejoin:round;">
<polyline fill="none;"
points="68000,38500
68300,38800
68600,38800
68600,38200
68300,38200
68000,38500
" /> 
</g>
<g style="fill:#848400; fill-opacity:0.0; 
stroke:#848400; stroke-width:60; stroke-opacity:1; 
stroke-linecap:round; stroke-linejoin:round;">
</g>
<g style="fill:#000084; fill-opacity:0.0; 
stroke:#000084; stroke-width:60; stroke-opacity:1; 
stroke-linecap:round; stroke-linejoin:round;">
<path d="M45260 37260
L45740 37740
" />
<path d="M45740 37260
L45260 37740
" />
</g>
<g style="fill:#000084; fill-opacity:0.0; 
stroke:#000084; stroke-width:0; stroke-opacity:1; 
stroke-linecap:round; stroke-linejoin:round;">
</g>
<g style="fill:#840000; fill-opacity:0.0; 
stroke:#840000; stroke-width:0; stroke-opacity:1; 
stroke-linecap:round; stroke-linejoin:round;">
</g>
<g style="fill:#840000; fill-opacity:0.0; 
stroke:#840000; stroke-width:80; stroke-opacity:1; 
stroke-linecap:round; stroke-linejoin:round;">
<rect x="59200" y="32300" width="600" height="1400" rx="0" />
</g>
<g style="fill:#840000; fill-opacity:0.0; 
stroke:#840000; stroke-width:60; stroke-opacity:1; 
stroke-linecap:round; stroke-linejoin:round;">
<path d="M59500 32300
L59500 32000
" />
<path d="M59500 33700
L59500 34000
" />
</g>
<g style="fill:#008484; fill-opacity:0.0; 
stroke:#008484; stroke-width:60; stroke-opacity:1; 
stroke-linecap:round; stroke-linejoin:round;">
<path d="M60760 33590
L60520 33750
" />
<path d="M60760 33870
L60260 33870
L60260 33680
L60280 33630
L60300 33610
L60350 33590
L60420 33590
L60470 33610
L60490 33630
L60520 33680
L60520 33870
" />
<path d="M60710 33300
L60730 33280
L60760 33300
L60730 33320
L60710 33300
L60760 33300
" />
<path d="M60280 33390
L60260 33350
L60260 33230
L60280 33180
L60330 33160
L60380 33160
L60420 33180
L60450 33200
L60470 33250
L60490 33280
L60540 33300
L60570 33300
" />
<path d="M60760 32120
L60760 32400
" />
<path d="M60760 32260
L60260 32260
L60330 32310
L60380 32360
L60400 32400
" />
<path d="M60260 31810
L60260 31760
L60280 31710
L60300 31690
L60350 31660
L60450 31640
L60570 31640
L60660 31660
L60710 31690
L60730 31710
L60760 31760
L60760 31810
L60730 31850
L60710 31880
L60660 31900
L60570 31920
L60450 31920
L60350 31900
L60300 31880
L60280 31850
L60260 31810
" />
<path d="M60260 31330
L60260 31280
L60280 31230
L60300 31210
L60350 31180
L60450 31160
L60570 31160
L60660 31180
L60710 31210
L60730 31230
L60760 31280
L60760 31330
L60730 31370
L60710 31400
L60660 31420
L60570 31440
L60450 31440
L60350 31420
L60300 31400
L60280 31370
L60260 31330
" />
<path d="M60760 30940
L60260 30940
" />
<path d="M60760 30660
L60470 30870
" />
<path d="M60260 30660
L60540 30940
" />
</g>
<g style="fill:#008484; fill-opacity:0.0; 
stroke:#008484; stroke-width:0; stroke-opacity:1; 
stroke-linecap:round; stroke-linejoin:round;">
</g>
<g style="fill:#840000; fill-opacity:0.0; 
stroke:#840000; stroke-width:0; stroke-opacity:1; 
stroke-linecap:round; stroke-linejoin:round;">
</g>
<g style="fill:#840000; fill-opacity:0.0; 
stroke:#840000; stroke-width:80; stroke-opacity:1; 
stroke-linecap:round; stroke-linejoin:round;">
<rect x="61200" y="32300" width="600" height="1400" rx="0" />
</g>
<g style="fill:#840000; fill-opacity:0.0; 
stroke:#840000; stroke-width:60; stroke-opacity:1; 
stroke-linecap:round; stroke-linejoin:round;">
<path d="M61500 32300
L61500 32000
" />
<path d="M61500 33700
L61500 34000
" />
</g>
<g style="fill:#008484; fill-opacity:0.0; 
stroke:#008484; stroke-width:60; stroke-opacity:1; 
stroke-linecap:round; stroke-linejoin:round;">
<path d="M62760 33590
L62520 33750
" />
<path d="M62760 33870
L62260 33870
L62260 33680
L62280 33630
L62300 33610
L62350 33590
L62420 33590
L62470 33610
L62490 33630
L62520 33680
L62520 33870
" />
<path d="M62710 33300
L62730 33280
L62760 33300
L62730 33320
L62710 33300
L62760 33300
" />
<path d="M62280 33390
L62260 33350
L62260 33230
L62280 33180
L62330 33160
L62380 33160
L62420 33180
L62450 33200
L62470 33250
L62490 33280
L62540 33300
L62570 33300
" />
<path d="M62760 32120
L62760 32400
" />
<path d="M62760 32260
L62260 32260
L62330 32310
L62380 32360
L62400 32400
" />
<path d="M62260 31810
L62260 31760
L62280 31710
L62300 31690
L62350 31660
L62450 31640
L62570 31640
L62660 31660
L62710 31690
L62730 31710
L62760 31760
L62760 31810
L62730 31850
L62710 31880
L62660 31900
L62570 31920
L62450 31920
L62350 31900
L62300 31880
L62280 31850
L62260 31810
" />
<path d="M62260 31330
L62260 31280
L62280 31230
L62300 31210
L62350 31180
L62450 31160
L62570 31160
L62660 31180
L62710 31210
L62730 31230
L62760 31280
L62760 31330
L62730 31370
L62710 31400
L62660 31420
L62570 31440
L62450 31440
L62350 31420
L62300 31400
L62280 31370
L62260 31330
" />
<path d="M62760 30940
L62260 30940
" />
<path d="M62760 30660
L62470 30870
" />
<path d="M62260 30660
L62540 30940
" />
</g>
<g style="fill:#008484; fill-opacity:0.0; 
stroke:#008484; stroke-width:0; stroke-opacity:1; 
stroke-linecap:round; stroke-linejoin:round;">
</g>
<g style="fill:#840000; fill-opacity:0.0; 
stroke:#840000; stroke-width:0; stroke-opacity:1; 
stroke-linecap:round; stroke-linejoin:round;">
</g>
<g style="fill:#840000; fill-opacity:0.0; 
stroke:#840000; stroke-width:80; stroke-opacity:1; 
stroke-linecap:round; stroke-linejoin:round;">
<rect x="63200" y="32300" width="600" height="1400" rx="0" />
</g>
<g style="fill:#840000; fill-opacity:0.0; 
stroke:#840000; stroke-width:60; stroke-opacity:1; 
stroke-linecap:round; stroke-linejoin:round;">
<path d="M63500 32300
L63500 32000
" />
<path d="M63500 33700
L63500 34000
" />
</g>
<g style="fill:#008484; fill-opacity:0.0; 
stroke:#008484; stroke-width:60; stroke-opacity:1; 
stroke-linecap:round; stroke-linejoin:round;">
<path d="M64760 33590
L64520 33750
" />
<path d="M64760 33870
L64260 33870
L64260 33680
L64280 33630
L64300 33610
L64350 33590
L64420 33590
L64470 33610
L64490 33630
L64520 33680
L64520 33870
" />
<path d="M64710 33300
L64730 33280
L64760 33300
L64730 33320
L64710 33300
L64760 33300
" />
<path d="M64280 33390
L64260 33350
L64260 33230
L64280 33180
L64330 33160
L64380 33160
L64420 33180
L64450 33200
L64470 33250
L64490 33280
L64540 33300
L64570 33300
" />
<path d="M64760 32120
L64760 32400
" />
<path d="M64760 32260
L64260 32260
L64330 32310
L64380 32360
L64400 32400
" />
<path d="M64260 31810
L64260 31760
L64280 31710
L64300 31690
L64350 31660
L64450 31640
L64570 31640
L64660 31660
L64710 31690
L64730 31710
L64760 31760
L64760 31810
L64730 31850
L64710 31880
L64660 31900
L64570 31920
L64450 31920
L64350 31900
L64300 31880
L64280 31850
L64260 31810
" />
<path d="M64260 31330
L64260 31280
L64280 31230
L64300 31210
L64350 31180
L64450 31160
L64570 31160
L64660 31180
L64710 31210
L64730 31230
L64760 31280
L64760 31330
L64730 31370
L64710 31400
L64660 31420
L64570 31440
L64450 31440
L64350 31420
L64300 31400
L64280 31370
L64260 31330
" />
<path d="M64760 30940
L64260 30940
" />
<path d="M64760 30660
L64470 30870
" />
<path d="M64260 30660
L64540 30940
" />
</g>
<g style="fill:#008400; fill-opacity:0.0; 
stroke:#008400; stroke-width:60; stroke-opacity:1; 
stroke-linecap:round; stroke-linejoin:round;">
<path d="M59500 30500
L59500 32000
" />
<path d="M61500 30500
L61500 32000
" />
</g>
<g style="fill:#008400; fill-opacity:0.0; 
stroke:#008400; stroke-width:0; stroke-opacity:1; 
stroke-linecap:round; stroke-linejoin:round;">
</g>
<g style="fill:#008400; fill-opacity:1.0; 
stroke:#008400; stroke-width:100; stroke-opacity:1; 
stroke-linecap:round; stroke-linejoin:round;">
<circle cx="59500" cy="30500" r="200" /> 
</g>
<g style="fill:#008400; fill-opacity:1.0; 
stroke:#008400; stroke-width:60; stroke-opacity:1; 
stroke-linecap:round; stroke-linejoin:round;">
</g>
<g style="fill:#008400; fill-opacity:0.0; 
stroke:#008400; stroke-width:60; stroke-opacity:1; 
stroke-linecap:round; stroke-linejoin:round;">
<path d="M63500 30500
L63500 32000
" />
</g>
<g style="fill:#008400; fill-opacity:0.0; 
stroke:#008400; stroke-width:0; stroke-opacity:1; 
stroke-linecap:round; stroke-linejoin:round;">
</g>
<g style="fill:#008400; fill-opacity:1.0; 
stroke:#008400; stroke-width:100; stroke-opacity:1; 
stroke-linecap:round; stroke-linejoin:round;">
<circle cx="61500" cy="30500" r="200" /> 
</g>
<g style="fill:#008400; fill-opacity:1.0; 
stroke:#008400; stroke-width:60; stroke-opacity:1; 
stroke-linecap:round; stroke-linejoin:round;">
</g>
<g style="fill:#008400; fill-opacity:0.0; 
stroke:#008400; stroke-width:60; stroke-opacity:1; 
stroke-linecap:round; stroke-linejoin:round;">
<path d="M59500 34000
L59500 35500
" />
</g>
<g style="fill:#008400; fill-opacity:0.0; 
stroke:#008400; stroke-width:0; stroke-opacity:1; 
stroke-linecap:round; stroke-linejoin:round;">
</g>
<g style="fill:#008400; fill-opacity:1.0; 
stroke:#008400; stroke-width:100; stroke-opacity:1; 
stroke-linecap:round; stroke-linejoin:round;">
<circle cx="59500" cy="35500" r="200" /> 
</g>
<g style="fill:#008400; fill-opacity:1.0; 
stroke:#008400; stroke-width:60; stroke-opacity:1; 
stroke-linecap:round; stroke-linejoin:round;">
</g>
<g style="fill:#008400; fill-opacity:0.0; 
stroke:#008400; stroke-width:60; stroke-opacity:1; 
stroke-linecap:round; stroke-linejoin:round;">
<path d="M61500 34000
L61500 37500
" />
<path d="M63500 34000
L63500 38500
" />
</g>
<g style="fill:#008400; fill-opacity:0.0; 
stroke:#008400; stroke-width:0; stroke-opacity:1; 
stroke-linecap:round; stroke-linejoin:round;">
</g>
<g style="fill:#008400; fill-opacity:1.0; 
stroke:#008400; stroke-width:100; stroke-opacity:1; 
stroke-linecap:round; stroke-linejoin:round;">
<circle cx="63500" cy="38500" r="200" /> 
</g>
<g style="fill:#008400; fill-opacity:1.0; 
stroke:#008400; stroke-width:60; stroke-opacity:1; 
stroke-linecap:round; stroke-linejoin:round;">
</g>
<g style="fill:#848400; fill-opacity:0.0; 
stroke:#848400; stroke-width:60; stroke-opacity:1; 
stroke-linecap:round; stroke-linejoin:round;">
<path d="M68870 37740
L68960 37770
L69100 37770
L69160 37740
L69190 37710
L69220 37660
L69220 37600
L69190 37540
L69160 37510
L69100 37490
L68990 37460
L68930 37430
L68900 37400
L68870 37340
L68870 37290
L68900 37230
L68930 37200
L68990 37170
L69130 37170
L69220 37200
" />
<path d="M69420 37170
L69560 37770
L69670 37340
L69790 37770
L69930 37170
" />
<path d="M70160 37770
L70160 37170
L70310 37170
L70390 37200
L70450 37260
L70480 37310
L70510 37430
L70510 37510
L70480 37630
L70450 37690
L70390 37740
L70310 37770
L70160 37770
" />
<path d="M70620 37830
L71080 37830
" />
<path d="M71140 37170
L71480 37170
" />
<path d="M71310 37770
L71310 37170
" />
<path d="M71680 37770
L71680 37170
L71830 37170
L71910 37200
L71970 37260
L72000 37310
L72030 37430
L72030 37510
L72000 37630
L71970 37690
L71910 37740
L71830 37770
L71680 37770
" />
<path d="M72280 37770
L72280 37170
" />
</g>
<g style="fill:#848400; fill-opacity:0.0; 
stroke:#848400; stroke-width:100; stroke-opacity:1; 
stroke-linecap:round; stroke-linejoin:round;">
<polyline fill="none;"
points="68000,37500
68300,37800
68600,37800
68600,37200
68300,37200
68000,37500
" /> 
</g>
<g style="fill:#848400; fill-opacity:0.0; 
stroke:#848400; stroke-width:60; stroke-opacity:1; 
stroke-linecap:round; stroke-linejoin:round;">
</g>
<g style="fill:#008400; fill-opacity:0.0; 
stroke:#008400; stroke-width:60; stroke-opacity:1; 
stroke-linecap:round; stroke-linejoin:round;">
<path d="M56500 37500
L61500 37500
" />
<path d="M61500 37500
L68000 37500
" />
</g>
<g style="fill:#008400; fill-opacity:0.0; 
stroke:#008400; stroke-width:0; stroke-opacity:1; 
stroke-linecap:round; stroke-linejoin:round;">
</g>
<g style="fill:#008400; fill-opacity:1.0; 
stroke:#008400; stroke-width:100; stroke-opacity:1; 
stroke-linecap:round; stroke-linejoin:round;">
<circle cx="61500" cy="37500" r="200" /> 
</g> 
</svg>
