<?xml version="1.0" standalone="no"?>
 <!DOCTYPE svg PUBLIC "-//W3C//DTD SVG 1.1//EN" 
 "http://www.w3.org/Graphics/SVG/1.1/DTD/svg11.dtd"> 
<svg xmlns="http://www.w3.org/2000/svg" version="1.1" 
    width="29.7002cm" height="21.0007cm" viewBox="0 0 116930 82680 ">
<title>SVG Picture created as Regulator-5V-3V-Regulator-5V-3V.svg date 2017/04/19 11:32:18 </title>
  <desc>Picture generated by Eeschema-SVG </desc>
<g style="fill:#000000; fill-opacity:1;stroke:#000000; stroke-opacity:1;
stroke-linecap:round; stroke-linejoin:round; "
 transform="translate(0 0) scale(1 1)">
</g>
<g style="fill:#000000; fill-opacity:0.0; 
stroke:#000000; stroke-width:-10; stroke-opacity:1; 
stroke-linecap:round; stroke-linejoin:round;">
</g>
<g style="fill:#840000; fill-opacity:0.0; 
stroke:#840000; stroke-width:-10; stroke-opacity:1; 
stroke-linecap:round; stroke-linejoin:round;">
</g>
<g style="fill:#840000; fill-opacity:0.0; 
stroke:#840000; stroke-width:100; stroke-opacity:1; 
stroke-linecap:round; stroke-linejoin:round;">
</g>
<g style="fill:#840000; fill-opacity:0.0; 
stroke:#840000; stroke-width:60; stroke-opacity:1; 
stroke-linecap:round; stroke-linejoin:round;">
<rect x="69690" y="65360" width="42520" height="12600" rx="0" />
</g>
<g style="fill:#840000; fill-opacity:0.0; 
stroke:#840000; stroke-width:100; stroke-opacity:1; 
stroke-linecap:round; stroke-linejoin:round;">
</g>
<g style="fill:#840000; fill-opacity:0.0; 
stroke:#840000; stroke-width:60; stroke-opacity:1; 
stroke-linecap:round; stroke-linejoin:round;">
<rect x="3940" y="3940" width="109050" height="74800" rx="0" />
</g>
<g style="fill:#840000; fill-opacity:0.0; 
stroke:#840000; stroke-width:100; stroke-opacity:1; 
stroke-linecap:round; stroke-linejoin:round;">
</g>
<g style="fill:#840000; fill-opacity:0.0; 
stroke:#840000; stroke-width:60; stroke-opacity:1; 
stroke-linecap:round; stroke-linejoin:round;">
<rect x="4720" y="4720" width="107490" height="73240" rx="0" />
</g>
<g style="fill:#840000; fill-opacity:0.0; 
stroke:#840000; stroke-width:100; stroke-opacity:1; 
stroke-linecap:round; stroke-linejoin:round;">
</g>
<g style="fill:#840000; fill-opacity:0.0; 
stroke:#840000; stroke-width:60; stroke-opacity:1; 
stroke-linecap:round; stroke-linejoin:round;">
<path d="M23620 4720
L23620 3940
" />
</g>
<g style="fill:#840000; fill-opacity:0.0; 
stroke:#840000; stroke-width:100; stroke-opacity:1; 
stroke-linecap:round; stroke-linejoin:round;">
</g>
<g style="fill:#840000; fill-opacity:0.0; 
stroke:#840000; stroke-width:60; stroke-opacity:1; 
stroke-linecap:round; stroke-linejoin:round;">
<path d="M43310 4720
L43310 3940
" />
</g>
<g style="fill:#840000; fill-opacity:0.0; 
stroke:#840000; stroke-width:100; stroke-opacity:1; 
stroke-linecap:round; stroke-linejoin:round;">
</g>
<g style="fill:#840000; fill-opacity:0.0; 
stroke:#840000; stroke-width:60; stroke-opacity:1; 
stroke-linecap:round; stroke-linejoin:round;">
<path d="M62990 4720
L62990 3940
" />
</g>
<g style="fill:#840000; fill-opacity:0.0; 
stroke:#840000; stroke-width:100; stroke-opacity:1; 
stroke-linecap:round; stroke-linejoin:round;">
</g>
<g style="fill:#840000; fill-opacity:0.0; 
stroke:#840000; stroke-width:60; stroke-opacity:1; 
stroke-linecap:round; stroke-linejoin:round;">
<path d="M82680 4720
L82680 3940
" />
</g>
<g style="fill:#840000; fill-opacity:0.0; 
stroke:#840000; stroke-width:100; stroke-opacity:1; 
stroke-linecap:round; stroke-linejoin:round;">
</g>
<g style="fill:#840000; fill-opacity:0.0; 
stroke:#840000; stroke-width:60; stroke-opacity:1; 
stroke-linecap:round; stroke-linejoin:round;">
<path d="M102360 4720
L102360 3940
" />
</g>
<g style="fill:#840000; fill-opacity:0.0; 
stroke:#840000; stroke-width:100; stroke-opacity:1; 
stroke-linecap:round; stroke-linejoin:round;">
</g>
<g style="fill:#840000; fill-opacity:0.0; 
stroke:#840000; stroke-width:60; stroke-opacity:1; 
stroke-linecap:round; stroke-linejoin:round;">
<path d="M14170 4560
L13880 4560
" />
<path d="M14020 4560
L14020 4050
L13970 4120
L13930 4170
L13880 4190
" />
</g>
<g style="fill:#840000; fill-opacity:0.0; 
stroke:#840000; stroke-width:100; stroke-opacity:1; 
stroke-linecap:round; stroke-linejoin:round;">
</g>
<g style="fill:#840000; fill-opacity:0.0; 
stroke:#840000; stroke-width:60; stroke-opacity:1; 
stroke-linecap:round; stroke-linejoin:round;">
<path d="M33560 4090
L33580 4070
L33630 4050
L33750 4050
L33800 4070
L33820 4090
L33850 4140
L33850 4190
L33820 4260
L33530 4560
L33850 4560
" />
</g>
<g style="fill:#840000; fill-opacity:0.0; 
stroke:#840000; stroke-width:100; stroke-opacity:1; 
stroke-linecap:round; stroke-linejoin:round;">
</g>
<g style="fill:#840000; fill-opacity:0.0; 
stroke:#840000; stroke-width:60; stroke-opacity:1; 
stroke-linecap:round; stroke-linejoin:round;">
<path d="M53220 4050
L53540 4050
L53370 4240
L53440 4240
L53490 4260
L53510 4290
L53540 4340
L53540 4460
L53510 4510
L53490 4530
L53440 4560
L53300 4560
L53250 4530
L53220 4510
" />
</g>
<g style="fill:#840000; fill-opacity:0.0; 
stroke:#840000; stroke-width:100; stroke-opacity:1; 
stroke-linecap:round; stroke-linejoin:round;">
</g>
<g style="fill:#840000; fill-opacity:0.0; 
stroke:#840000; stroke-width:60; stroke-opacity:1; 
stroke-linecap:round; stroke-linejoin:round;">
<path d="M73170 4220
L73170 4560
" />
<path d="M73050 4020
L72930 4390
L73240 4390
" />
</g>
<g style="fill:#840000; fill-opacity:0.0; 
stroke:#840000; stroke-width:100; stroke-opacity:1; 
stroke-linecap:round; stroke-linejoin:round;">
</g>
<g style="fill:#840000; fill-opacity:0.0; 
stroke:#840000; stroke-width:60; stroke-opacity:1; 
stroke-linecap:round; stroke-linejoin:round;">
<path d="M92880 4050
L92640 4050
L92620 4290
L92640 4260
L92690 4240
L92810 4240
L92860 4260
L92880 4290
L92910 4340
L92910 4460
L92880 4510
L92860 4530
L92810 4560
L92690 4560
L92640 4530
L92620 4510
" />
</g>
<g style="fill:#840000; fill-opacity:0.0; 
stroke:#840000; stroke-width:100; stroke-opacity:1; 
stroke-linecap:round; stroke-linejoin:round;">
</g>
<g style="fill:#840000; fill-opacity:0.0; 
stroke:#840000; stroke-width:60; stroke-opacity:1; 
stroke-linecap:round; stroke-linejoin:round;">
<path d="M112540 4050
L112440 4050
L112390 4070
L112370 4090
L112320 4170
L112300 4260
L112300 4460
L112320 4510
L112350 4530
L112390 4560
L112490 4560
L112540 4530
L112560 4510
L112590 4460
L112590 4340
L112560 4290
L112540 4260
L112490 4240
L112390 4240
L112350 4260
L112320 4290
L112300 4340
" />
</g>
<g style="fill:#840000; fill-opacity:0.0; 
stroke:#840000; stroke-width:100; stroke-opacity:1; 
stroke-linecap:round; stroke-linejoin:round;">
</g>
<g style="fill:#840000; fill-opacity:0.0; 
stroke:#840000; stroke-width:60; stroke-opacity:1; 
stroke-linecap:round; stroke-linejoin:round;">
<path d="M23620 77960
L23620 78740
" />
</g>
<g style="fill:#840000; fill-opacity:0.0; 
stroke:#840000; stroke-width:100; stroke-opacity:1; 
stroke-linecap:round; stroke-linejoin:round;">
</g>
<g style="fill:#840000; fill-opacity:0.0; 
stroke:#840000; stroke-width:60; stroke-opacity:1; 
stroke-linecap:round; stroke-linejoin:round;">
<path d="M43310 77960
L43310 78740
" />
</g>
<g style="fill:#840000; fill-opacity:0.0; 
stroke:#840000; stroke-width:100; stroke-opacity:1; 
stroke-linecap:round; stroke-linejoin:round;">
</g>
<g style="fill:#840000; fill-opacity:0.0; 
stroke:#840000; stroke-width:60; stroke-opacity:1; 
stroke-linecap:round; stroke-linejoin:round;">
<path d="M62990 77960
L62990 78740
" />
</g>
<g style="fill:#840000; fill-opacity:0.0; 
stroke:#840000; stroke-width:100; stroke-opacity:1; 
stroke-linecap:round; stroke-linejoin:round;">
</g>
<g style="fill:#840000; fill-opacity:0.0; 
stroke:#840000; stroke-width:60; stroke-opacity:1; 
stroke-linecap:round; stroke-linejoin:round;">
<path d="M82680 77960
L82680 78740
" />
</g>
<g style="fill:#840000; fill-opacity:0.0; 
stroke:#840000; stroke-width:100; stroke-opacity:1; 
stroke-linecap:round; stroke-linejoin:round;">
</g>
<g style="fill:#840000; fill-opacity:0.0; 
stroke:#840000; stroke-width:60; stroke-opacity:1; 
stroke-linecap:round; stroke-linejoin:round;">
<path d="M102360 77960
L102360 78740
" />
</g>
<g style="fill:#840000; fill-opacity:0.0; 
stroke:#840000; stroke-width:100; stroke-opacity:1; 
stroke-linecap:round; stroke-linejoin:round;">
</g>
<g style="fill:#840000; fill-opacity:0.0; 
stroke:#840000; stroke-width:60; stroke-opacity:1; 
stroke-linecap:round; stroke-linejoin:round;">
<path d="M14170 78580
L13880 78580
" />
<path d="M14020 78580
L14020 78070
L13970 78140
L13930 78190
L13880 78210
" />
</g>
<g style="fill:#840000; fill-opacity:0.0; 
stroke:#840000; stroke-width:100; stroke-opacity:1; 
stroke-linecap:round; stroke-linejoin:round;">
</g>
<g style="fill:#840000; fill-opacity:0.0; 
stroke:#840000; stroke-width:60; stroke-opacity:1; 
stroke-linecap:round; stroke-linejoin:round;">
<path d="M33560 78110
L33580 78090
L33630 78070
L33750 78070
L33800 78090
L33820 78110
L33850 78160
L33850 78210
L33820 78280
L33530 78580
L33850 78580
" />
</g>
<g style="fill:#840000; fill-opacity:0.0; 
stroke:#840000; stroke-width:100; stroke-opacity:1; 
stroke-linecap:round; stroke-linejoin:round;">
</g>
<g style="fill:#840000; fill-opacity:0.0; 
stroke:#840000; stroke-width:60; stroke-opacity:1; 
stroke-linecap:round; stroke-linejoin:round;">
<path d="M53220 78070
L53540 78070
L53370 78260
L53440 78260
L53490 78280
L53510 78310
L53540 78360
L53540 78480
L53510 78530
L53490 78550
L53440 78580
L53300 78580
L53250 78550
L53220 78530
" />
</g>
<g style="fill:#840000; fill-opacity:0.0; 
stroke:#840000; stroke-width:100; stroke-opacity:1; 
stroke-linecap:round; stroke-linejoin:round;">
</g>
<g style="fill:#840000; fill-opacity:0.0; 
stroke:#840000; stroke-width:60; stroke-opacity:1; 
stroke-linecap:round; stroke-linejoin:round;">
<path d="M73170 78240
L73170 78580
" />
<path d="M73050 78040
L72930 78410
L73240 78410
" />
</g>
<g style="fill:#840000; fill-opacity:0.0; 
stroke:#840000; stroke-width:100; stroke-opacity:1; 
stroke-linecap:round; stroke-linejoin:round;">
</g>
<g style="fill:#840000; fill-opacity:0.0; 
stroke:#840000; stroke-width:60; stroke-opacity:1; 
stroke-linecap:round; stroke-linejoin:round;">
<path d="M92880 78070
L92640 78070
L92620 78310
L92640 78280
L92690 78260
L92810 78260
L92860 78280
L92880 78310
L92910 78360
L92910 78480
L92880 78530
L92860 78550
L92810 78580
L92690 78580
L92640 78550
L92620 78530
" />
</g>
<g style="fill:#840000; fill-opacity:0.0; 
stroke:#840000; stroke-width:100; stroke-opacity:1; 
stroke-linecap:round; stroke-linejoin:round;">
</g>
<g style="fill:#840000; fill-opacity:0.0; 
stroke:#840000; stroke-width:60; stroke-opacity:1; 
stroke-linecap:round; stroke-linejoin:round;">
<path d="M112540 78070
L112440 78070
L112390 78090
L112370 78110
L112320 78190
L112300 78280
L112300 78480
L112320 78530
L112350 78550
L112390 78580
L112490 78580
L112540 78550
L112560 78530
L112590 78480
L112590 78360
L112560 78310
L112540 78280
L112490 78260
L112390 78260
L112350 78280
L112320 78310
L112300 78360
" />
</g>
<g style="fill:#840000; fill-opacity:0.0; 
stroke:#840000; stroke-width:100; stroke-opacity:1; 
stroke-linecap:round; stroke-linejoin:round;">
</g>
<g style="fill:#840000; fill-opacity:0.0; 
stroke:#840000; stroke-width:60; stroke-opacity:1; 
stroke-linecap:round; stroke-linejoin:round;">
<path d="M3940 23620
L4720 23620
" />
</g>
<g style="fill:#840000; fill-opacity:0.0; 
stroke:#840000; stroke-width:100; stroke-opacity:1; 
stroke-linecap:round; stroke-linejoin:round;">
</g>
<g style="fill:#840000; fill-opacity:0.0; 
stroke:#840000; stroke-width:60; stroke-opacity:1; 
stroke-linecap:round; stroke-linejoin:round;">
<path d="M3940 43310
L4720 43310
" />
</g>
<g style="fill:#840000; fill-opacity:0.0; 
stroke:#840000; stroke-width:100; stroke-opacity:1; 
stroke-linecap:round; stroke-linejoin:round;">
</g>
<g style="fill:#840000; fill-opacity:0.0; 
stroke:#840000; stroke-width:60; stroke-opacity:1; 
stroke-linecap:round; stroke-linejoin:round;">
<path d="M3940 62990
L4720 62990
" />
</g>
<g style="fill:#840000; fill-opacity:0.0; 
stroke:#840000; stroke-width:100; stroke-opacity:1; 
stroke-linecap:round; stroke-linejoin:round;">
</g>
<g style="fill:#840000; fill-opacity:0.0; 
stroke:#840000; stroke-width:60; stroke-opacity:1; 
stroke-linecap:round; stroke-linejoin:round;">
<path d="M4210 13860
L4450 13860
" />
<path d="M4160 14010
L4330 13500
L4500 14010
" />
</g>
<g style="fill:#840000; fill-opacity:0.0; 
stroke:#840000; stroke-width:100; stroke-opacity:1; 
stroke-linecap:round; stroke-linejoin:round;">
</g>
<g style="fill:#840000; fill-opacity:0.0; 
stroke:#840000; stroke-width:60; stroke-opacity:1; 
stroke-linecap:round; stroke-linejoin:round;">
<path d="M4370 33420
L4440 33440
L4470 33470
L4490 33520
L4490 33590
L4470 33640
L4440 33660
L4400 33690
L4200 33690
L4200 33180
L4370 33180
L4420 33200
L4440 33220
L4470 33270
L4470 33320
L4440 33370
L4420 33390
L4370 33420
L4200 33420
" />
</g>
<g style="fill:#840000; fill-opacity:0.0; 
stroke:#840000; stroke-width:100; stroke-opacity:1; 
stroke-linecap:round; stroke-linejoin:round;">
</g>
<g style="fill:#840000; fill-opacity:0.0; 
stroke:#840000; stroke-width:60; stroke-opacity:1; 
stroke-linecap:round; stroke-linejoin:round;">
<path d="M4490 53330
L4470 53350
L4400 53380
L4350 53380
L4270 53350
L4230 53300
L4200 53250
L4180 53160
L4180 53080
L4200 52990
L4230 52940
L4270 52890
L4350 52870
L4400 52870
L4470 52890
L4490 52910
" />
</g>
<g style="fill:#840000; fill-opacity:0.0; 
stroke:#840000; stroke-width:100; stroke-opacity:1; 
stroke-linecap:round; stroke-linejoin:round;">
</g>
<g style="fill:#840000; fill-opacity:0.0; 
stroke:#840000; stroke-width:60; stroke-opacity:1; 
stroke-linecap:round; stroke-linejoin:round;">
<path d="M4200 73060
L4200 72550
L4320 72550
L4400 72570
L4440 72620
L4470 72670
L4490 72760
L4490 72840
L4470 72930
L4440 72980
L4400 73030
L4320 73060
L4200 73060
" />
</g>
<g style="fill:#840000; fill-opacity:0.0; 
stroke:#840000; stroke-width:100; stroke-opacity:1; 
stroke-linecap:round; stroke-linejoin:round;">
</g>
<g style="fill:#840000; fill-opacity:0.0; 
stroke:#840000; stroke-width:60; stroke-opacity:1; 
stroke-linecap:round; stroke-linejoin:round;">
<path d="M112990 23620
L112210 23620
" />
</g>
<g style="fill:#840000; fill-opacity:0.0; 
stroke:#840000; stroke-width:100; stroke-opacity:1; 
stroke-linecap:round; stroke-linejoin:round;">
</g>
<g style="fill:#840000; fill-opacity:0.0; 
stroke:#840000; stroke-width:60; stroke-opacity:1; 
stroke-linecap:round; stroke-linejoin:round;">
<path d="M112990 43310
L112210 43310
" />
</g>
<g style="fill:#840000; fill-opacity:0.0; 
stroke:#840000; stroke-width:100; stroke-opacity:1; 
stroke-linecap:round; stroke-linejoin:round;">
</g>
<g style="fill:#840000; fill-opacity:0.0; 
stroke:#840000; stroke-width:60; stroke-opacity:1; 
stroke-linecap:round; stroke-linejoin:round;">
<path d="M112990 62990
L112210 62990
" />
</g>
<g style="fill:#840000; fill-opacity:0.0; 
stroke:#840000; stroke-width:100; stroke-opacity:1; 
stroke-linecap:round; stroke-linejoin:round;">
</g>
<g style="fill:#840000; fill-opacity:0.0; 
stroke:#840000; stroke-width:60; stroke-opacity:1; 
stroke-linecap:round; stroke-linejoin:round;">
<path d="M112480 13860
L112720 13860
" />
<path d="M112430 14010
L112600 13500
L112770 14010
" />
</g>
<g style="fill:#840000; fill-opacity:0.0; 
stroke:#840000; stroke-width:100; stroke-opacity:1; 
stroke-linecap:round; stroke-linejoin:round;">
</g>
<g style="fill:#840000; fill-opacity:0.0; 
stroke:#840000; stroke-width:60; stroke-opacity:1; 
stroke-linecap:round; stroke-linejoin:round;">
<path d="M112640 33420
L112710 33440
L112740 33470
L112760 33520
L112760 33590
L112740 33640
L112710 33660
L112670 33690
L112470 33690
L112470 33180
L112640 33180
L112690 33200
L112710 33220
L112740 33270
L112740 33320
L112710 33370
L112690 33390
L112640 33420
L112470 33420
" />
</g>
<g style="fill:#840000; fill-opacity:0.0; 
stroke:#840000; stroke-width:100; stroke-opacity:1; 
stroke-linecap:round; stroke-linejoin:round;">
</g>
<g style="fill:#840000; fill-opacity:0.0; 
stroke:#840000; stroke-width:60; stroke-opacity:1; 
stroke-linecap:round; stroke-linejoin:round;">
<path d="M112760 53330
L112740 53350
L112670 53380
L112620 53380
L112540 53350
L112500 53300
L112470 53250
L112450 53160
L112450 53080
L112470 52990
L112500 52940
L112540 52890
L112620 52870
L112670 52870
L112740 52890
L112760 52910
" />
</g>
<g style="fill:#840000; fill-opacity:0.0; 
stroke:#840000; stroke-width:100; stroke-opacity:1; 
stroke-linecap:round; stroke-linejoin:round;">
</g>
<g style="fill:#840000; fill-opacity:0.0; 
stroke:#840000; stroke-width:60; stroke-opacity:1; 
stroke-linecap:round; stroke-linejoin:round;">
<path d="M112470 73060
L112470 72550
L112590 72550
L112670 72570
L112710 72620
L112740 72670
L112760 72760
L112760 72840
L112740 72930
L112710 72980
L112670 73030
L112590 73060
L112470 73060
" />
</g>
<g style="fill:#840000; fill-opacity:0.0; 
stroke:#840000; stroke-width:100; stroke-opacity:1; 
stroke-linecap:round; stroke-linejoin:round;">
</g>
<g style="fill:#840000; fill-opacity:0.0; 
stroke:#840000; stroke-width:60; stroke-opacity:1; 
stroke-linecap:round; stroke-linejoin:round;">
<path d="M78880 76290
L78880 75700
L79020 75700
L79110 75730
L79160 75790
L79190 75840
L79220 75950
L79220 76040
L79190 76150
L79160 76210
L79110 76260
L79020 76290
L78880 76290
" />
<path d="M79720 76290
L79720 75980
L79700 75930
L79640 75900
L79530 75900
L79470 75930
" />
<path d="M79720 76260
L79670 76290
L79530 76290
L79470 76260
L79440 76210
L79440 76150
L79470 76100
L79530 76070
L79670 76070
L79720 76040
" />
<path d="M79920 75900
L80140 75900
" />
<path d="M80000 75700
L80000 76210
L80030 76260
L80080 76290
L80140 76290
" />
<path d="M80570 76260
L80510 76290
L80400 76290
L80340 76260
L80310 76210
L80310 75980
L80340 75930
L80400 75900
L80510 75900
L80570 75930
L80590 75980
L80590 76040
L80310 76100
" />
<path d="M80850 76240
L80880 76260
L80850 76290
L80820 76260
L80850 76240
L80850 76290
" />
<path d="M80850 75930
L80880 75950
L80850 75980
L80820 75950
L80850 75930
L80850 75980
" />
</g>
<g style="fill:#840000; fill-opacity:0.0; 
stroke:#840000; stroke-width:100; stroke-opacity:1; 
stroke-linecap:round; stroke-linejoin:round;">
</g>
<g style="fill:#840000; fill-opacity:0.0; 
stroke:#840000; stroke-width:60; stroke-opacity:1; 
stroke-linecap:round; stroke-linejoin:round;">
<path d="M69690 76580
L112210 76580
" />
</g>
<g style="fill:#840000; fill-opacity:0.0; 
stroke:#840000; stroke-width:100; stroke-opacity:1; 
stroke-linecap:round; stroke-linejoin:round;">
</g>
<g style="fill:#840000; fill-opacity:0.0; 
stroke:#840000; stroke-width:60; stroke-opacity:1; 
stroke-linecap:round; stroke-linejoin:round;">
<path d="M70220 77390
L70220 76800
" />
<path d="M70560 77390
L70300 77050
" />
<path d="M70560 76800
L70220 77140
" />
<path d="M70810 77390
L70810 77000
" />
<path d="M70810 76800
L70780 76830
L70810 76860
L70840 76830
L70810 76800
L70810 76860
" />
<path d="M71430 77340
L71400 77360
L71320 77390
L71260 77390
L71170 77360
L71120 77310
L71090 77250
L71060 77140
L71060 77050
L71090 76940
L71120 76890
L71170 76830
L71260 76800
L71320 76800
L71400 76830
L71430 76860
" />
<path d="M71930 77390
L71930 77080
L71910 77030
L71850 77000
L71740 77000
L71680 77030
" />
<path d="M71930 77360
L71880 77390
L71740 77390
L71680 77360
L71650 77310
L71650 77250
L71680 77200
L71740 77170
L71880 77170
L71930 77140
" />
<path d="M72460 77390
L72460 76800
" />
<path d="M72460 77360
L72410 77390
L72290 77390
L72240 77360
L72210 77340
L72180 77280
L72180 77110
L72210 77050
L72240 77030
L72290 77000
L72410 77000
L72460 77030
" />
<path d="M73190 77080
L73390 77080
" />
<path d="M73470 77390
L73190 77390
L73190 76800
L73470 76800
" />
<path d="M73720 77340
L73750 77360
L73720 77390
L73690 77360
L73720 77340
L73720 77390
" />
<path d="M74000 77390
L74000 76800
L74140 76800
L74230 76830
L74280 76890
L74310 76940
L74340 77050
L74340 77140
L74310 77250
L74280 77310
L74230 77360
L74140 77390
L74000 77390
" />
<path d="M74590 77340
L74620 77360
L74590 77390
L74560 77360
L74590 77340
L74590 77390
" />
<path d="M74840 77220
L75120 77220
" />
<path d="M74790 77390
L74980 76800
L75180 77390
" />
<path d="M75380 77340
L75410 77360
L75380 77390
L75350 77360
L75380 77340
L75380 77390
" />
<path d="M76560 77390
L76560 76800
" />
<path d="M76620 77170
L76790 77390
" />
<path d="M76790 77000
L76560 77220
" />
<path d="M77040 77390
L77040 77000
" />
<path d="M77040 76800
L77010 76830
L77040 76860
L77070 76830
L77040 76800
L77040 76860
" />
<path d="M77570 77360
L77520 77390
L77400 77390
L77350 77360
L77320 77340
L77290 77280
L77290 77110
L77320 77050
L77350 77030
L77400 77000
L77520 77000
L77570 77030
" />
<path d="M78080 77390
L78080 77080
L78060 77030
L78000 77000
L77890 77000
L77830 77030
" />
<path d="M78080 77360
L78030 77390
L77890 77390
L77830 77360
L77800 77310
L77800 77250
L77830 77200
L77890 77170
L78030 77170
L78080 77140
" />
<path d="M78610 77390
L78610 76800
" />
<path d="M78610 77360
L78560 77390
L78440 77390
L78390 77360
L78360 77340
L78330 77280
L78330 77110
L78360 77050
L78390 77030
L78440 77000
L78560 77000
L78610 77030
" />
<path d="M79590 77000
L79590 77390
" />
<path d="M79450 76770
L79310 77200
L79680 77200
" />
<path d="M79900 77340
L79930 77360
L79900 77390
L79870 77360
L79900 77340
L79900 77390
" />
<path d="M80290 76800
L80350 76800
L80410 76830
L80430 76860
L80460 76910
L80490 77030
L80490 77170
L80460 77280
L80430 77340
L80410 77360
L80350 77390
L80290 77390
L80240 77360
L80210 77340
L80180 77280
L80150 77170
L80150 77030
L80180 76910
L80210 76860
L80240 76830
L80290 76800
" />
<path d="M80740 77340
L80770 77360
L80740 77390
L80710 77360
L80740 77340
L80740 77390
" />
<path d="M81270 76800
L81160 76800
L81100 76830
L81080 76860
L81020 76940
L80990 77050
L80990 77280
L81020 77340
L81050 77360
L81100 77390
L81220 77390
L81270 77360
L81300 77340
L81330 77280
L81330 77140
L81300 77080
L81270 77050
L81220 77030
L81100 77030
L81050 77050
L81020 77080
L80990 77140
" />
</g>
<g style="fill:#840000; fill-opacity:0.0; 
stroke:#840000; stroke-width:100; stroke-opacity:1; 
stroke-linecap:round; stroke-linejoin:round;">
</g>
<g style="fill:#840000; fill-opacity:0.0; 
stroke:#840000; stroke-width:60; stroke-opacity:1; 
stroke-linecap:round; stroke-linejoin:round;">
<path d="M69690 75400
L112210 75400
" />
</g>
<g style="fill:#840000; fill-opacity:0.0; 
stroke:#840000; stroke-width:100; stroke-opacity:1; 
stroke-linecap:round; stroke-linejoin:round;">
</g>
<g style="fill:#840000; fill-opacity:0.0; 
stroke:#840000; stroke-width:120; stroke-opacity:1; 
stroke-linecap:round; stroke-linejoin:round;">
<path d="M104020 76290
L103820 76010
" />
<path d="M103680 76290
L103680 75700
L103910 75700
L103960 75730
L103990 75760
L104020 75810
L104020 75900
L103990 75950
L103960 75980
L103910 76010
L103680 76010
" />
<path d="M104500 76260
L104440 76290
L104330 76290
L104270 76260
L104240 76210
L104240 75980
L104270 75930
L104330 75900
L104440 75900
L104500 75930
L104520 75980
L104520 76040
L104240 76100
" />
<path d="M104720 75900
L104860 76290
L105010 75900
" />
<path d="M105230 76240
L105260 76260
L105230 76290
L105200 76260
L105230 76240
L105230 76290
" />
<path d="M105230 75930
L105260 75950
L105230 75980
L105200 75950
L105230 75930
L105230 75980
" />
</g>
<g style="fill:#840000; fill-opacity:0.0; 
stroke:#840000; stroke-width:100; stroke-opacity:1; 
stroke-linecap:round; stroke-linejoin:round;">
</g>
<g style="fill:#840000; fill-opacity:0.0; 
stroke:#840000; stroke-width:60; stroke-opacity:1; 
stroke-linecap:round; stroke-linejoin:round;">
<path d="M70190 76260
L70280 76290
L70420 76290
L70470 76260
L70500 76240
L70530 76180
L70530 76120
L70500 76070
L70470 76040
L70420 76010
L70300 75980
L70250 75950
L70220 75930
L70190 75870
L70190 75810
L70220 75760
L70250 75730
L70300 75700
L70450 75700
L70530 75730
" />
<path d="M70780 76290
L70780 75900
" />
<path d="M70780 75700
L70750 75730
L70780 75760
L70810 75730
L70780 75700
L70780 75760
" />
<path d="M71000 75900
L71310 75900
L71000 76290
L71310 76290
" />
<path d="M71770 76260
L71710 76290
L71600 76290
L71540 76260
L71510 76210
L71510 75980
L71540 75930
L71600 75900
L71710 75900
L71770 75930
L71790 75980
L71790 76040
L71510 76100
" />
<path d="M72050 76240
L72080 76260
L72050 76290
L72020 76260
L72050 76240
L72050 76290
" />
<path d="M72050 75930
L72080 75950
L72050 75980
L72020 75950
L72050 75930
L72050 75980
" />
<path d="M72750 76120
L73030 76120
" />
<path d="M72700 76290
L72890 75700
L73090 76290
" />
<path d="M73540 75900
L73540 76290
" />
<path d="M73400 75670
L73260 76100
L73630 76100
" />
</g>
<g style="fill:#840000; fill-opacity:0.0; 
stroke:#840000; stroke-width:100; stroke-opacity:1; 
stroke-linecap:round; stroke-linejoin:round;">
</g>
<g style="fill:#840000; fill-opacity:0.0; 
stroke:#840000; stroke-width:60; stroke-opacity:1; 
stroke-linecap:round; stroke-linejoin:round;">
<path d="M103680 77390
L103680 76800
" />
<path d="M104210 77390
L104210 76800
" />
<path d="M104210 77360
L104160 77390
L104040 77390
L103990 77360
L103960 77340
L103930 77280
L103930 77110
L103960 77050
L103990 77030
L104040 77000
L104160 77000
L104210 77030
" />
<path d="M104490 77340
L104520 77360
L104490 77390
L104460 77360
L104490 77340
L104490 77390
" />
<path d="M104490 77030
L104520 77050
L104490 77080
L104460 77050
L104490 77030
L104490 77080
" />
<path d="M105190 76860
L105220 76830
L105280 76800
L105420 76800
L105470 76830
L105500 76860
L105530 76910
L105530 76970
L105500 77050
L105160 77390
L105530 77390
" />
<path d="M106200 76770
L105700 77530
" />
<path d="M106650 77000
L106650 77390
" />
<path d="M106510 76770
L106370 77200
L106740 77200
" />
</g>
<g style="fill:#840000; fill-opacity:0.0; 
stroke:#840000; stroke-width:100; stroke-opacity:1; 
stroke-linecap:round; stroke-linejoin:round;">
</g>
<g style="fill:#840000; fill-opacity:0.0; 
stroke:#840000; stroke-width:60; stroke-opacity:1; 
stroke-linecap:round; stroke-linejoin:round;">
<path d="M69690 73820
L112210 73820
" />
</g>
<g style="fill:#840000; fill-opacity:0.0; 
stroke:#840000; stroke-width:100; stroke-opacity:1; 
stroke-linecap:round; stroke-linejoin:round;">
</g>
<g style="fill:#840000; fill-opacity:0.0; 
stroke:#840000; stroke-width:160; stroke-opacity:1; 
stroke-linecap:round; stroke-linejoin:round;">
<path d="M70260 74090
L70710 74090
" />
<path d="M70390 74880
L70480 74090
" />
<path d="M70880 74880
L70940 74360
" />
<path d="M70970 74090
L70930 74130
L70960 74170
L71010 74130
L70970 74090
L70960 74170
" />
<path d="M71210 74360
L71510 74360
" />
<path d="M71350 74090
L71270 74770
L71300 74840
L71370 74880
L71450 74880
" />
<path d="M71820 74880
L71750 74840
L71720 74770
L71800 74090
" />
<path d="M72420 74840
L72340 74880
L72190 74880
L72120 74840
L72090 74770
L72130 74470
L72180 74390
L72250 74360
L72400 74360
L72480 74390
L72510 74470
L72500 74540
L72110 74620
" />
<path d="M72800 74810
L72840 74840
L72800 74880
L72760 74840
L72800 74810
L72800 74880
" />
<path d="M72860 74390
L72890 74430
L72850 74470
L72810 74430
L72860 74390
L72850 74470
" />
</g>
<g style="fill:#840000; fill-opacity:0.0; 
stroke:#840000; stroke-width:100; stroke-opacity:1; 
stroke-linecap:round; stroke-linejoin:round;">
</g>
<g style="fill:#840000; fill-opacity:0.0; 
stroke:#840000; stroke-width:60; stroke-opacity:1; 
stroke-linecap:round; stroke-linejoin:round;">
<path d="M70420 73060
L70220 73060
" />
<path d="M70220 73370
L70220 72780
L70500 72780
" />
<path d="M70730 73370
L70730 72980
" />
<path d="M70730 72780
L70700 72810
L70730 72840
L70760 72810
L70730 72780
L70730 72840
" />
<path d="M71090 73370
L71040 73340
L71010 73290
L71010 72780
" />
<path d="M71550 73340
L71490 73370
L71380 73370
L71320 73340
L71290 73290
L71290 73060
L71320 73010
L71380 72980
L71490 72980
L71550 73010
L71570 73060
L71570 73120
L71290 73180
" />
<path d="M71830 73320
L71860 73340
L71830 73370
L71800 73340
L71830 73320
L71830 73370
" />
<path d="M71830 73010
L71860 73030
L71830 73060
L71800 73030
L71830 73010
L71830 73060
" />
<path d="M72900 73370
L72700 73090
" />
<path d="M72560 73370
L72560 72780
L72790 72780
L72840 72810
L72870 72840
L72900 72890
L72900 72980
L72870 73030
L72840 73060
L72790 73090
L72560 73090
" />
<path d="M73380 73340
L73320 73370
L73210 73370
L73150 73340
L73120 73290
L73120 73060
L73150 73010
L73210 72980
L73320 72980
L73380 73010
L73400 73060
L73400 73120
L73120 73180
" />
<path d="M73910 72980
L73910 73460
L73890 73510
L73860 73540
L73800 73570
L73720 73570
L73660 73540
" />
<path d="M73910 73340
L73860 73370
L73740 73370
L73690 73340
L73660 73320
L73630 73260
L73630 73090
L73660 73030
L73690 73010
L73740 72980
L73860 72980
L73910 73010
" />
<path d="M74440 72980
L74440 73370
" />
<path d="M74190 72980
L74190 73290
L74220 73340
L74270 73370
L74360 73370
L74420 73340
L74440 73320
" />
<path d="M74800 73370
L74750 73340
L74720 73290
L74720 72780
" />
<path d="M75280 73370
L75280 73060
L75260 73010
L75200 72980
L75090 72980
L75030 73010
" />
<path d="M75280 73340
L75230 73370
L75090 73370
L75030 73340
L75000 73290
L75000 73230
L75030 73180
L75090 73150
L75230 73150
L75280 73120
" />
<path d="M75480 72980
L75700 72980
" />
<path d="M75560 72780
L75560 73290
L75590 73340
L75640 73370
L75700 73370
" />
<path d="M75980 73370
L75930 73340
L75900 73320
L75870 73260
L75870 73090
L75900 73030
L75930 73010
L75980 72980
L76070 72980
L76130 73010
L76150 73030
L76180 73090
L76180 73260
L76150 73320
L76130 73340
L76070 73370
L75980 73370
" />
<path d="M76430 73370
L76430 72980
" />
<path d="M76430 73090
L76460 73030
L76490 73010
L76540 72980
L76600 72980
" />
<path d="M76800 73150
L77250 73150
" />
<path d="M77810 72780
L77530 72780
L77500 73060
L77530 73030
L77590 73010
L77730 73010
L77780 73030
L77810 73060
L77840 73120
L77840 73260
L77810 73320
L77780 73340
L77730 73370
L77590 73370
L77530 73340
L77500 73320
" />
<path d="M78010 72780
L78200 73370
L78400 72780
" />
<path d="M78600 73150
L79050 73150
" />
<path d="M79270 72780
L79640 72780
L79440 73010
L79530 73010
L79580 73030
L79610 73060
L79640 73120
L79640 73260
L79610 73320
L79580 73340
L79530 73370
L79360 73370
L79300 73340
L79270 73320
" />
<path d="M79810 72780
L80000 73370
L80200 72780
" />
<path d="M80400 73320
L80430 73340
L80400 73370
L80370 73340
L80400 73320
L80400 73370
" />
<path d="M80650 73340
L80710 73370
L80820 73370
L80880 73340
L80910 73290
L80910 73260
L80880 73200
L80820 73180
L80740 73180
L80680 73150
L80650 73090
L80650 73060
L80680 73010
L80740 72980
L80820 72980
L80880 73010
" />
<path d="M81410 73340
L81360 73370
L81240 73370
L81190 73340
L81160 73320
L81130 73260
L81130 73090
L81160 73030
L81190 73010
L81240 72980
L81360 72980
L81410 73010
" />
<path d="M81670 73370
L81670 72780
" />
<path d="M81920 73370
L81920 73060
L81900 73010
L81840 72980
L81750 72980
L81700 73010
L81670 73030
" />
</g>
<g style="fill:#840000; fill-opacity:0.0; 
stroke:#840000; stroke-width:100; stroke-opacity:1; 
stroke-linecap:round; stroke-linejoin:round;">
</g>
<g style="fill:#840000; fill-opacity:0.0; 
stroke:#840000; stroke-width:60; stroke-opacity:1; 
stroke-linecap:round; stroke-linejoin:round;">
<path d="M69690 71460
L112210 71460
" />
</g>
<g style="fill:#840000; fill-opacity:0.0; 
stroke:#840000; stroke-width:100; stroke-opacity:1; 
stroke-linecap:round; stroke-linejoin:round;">
</g>
<g style="fill:#840000; fill-opacity:0.0; 
stroke:#840000; stroke-width:60; stroke-opacity:1; 
stroke-linecap:round; stroke-linejoin:round;">
<path d="M70190 72280
L70280 72310
L70420 72310
L70470 72280
L70500 72260
L70530 72200
L70530 72140
L70500 72090
L70470 72060
L70420 72030
L70300 72000
L70250 71970
L70220 71950
L70190 71890
L70190 71830
L70220 71780
L70250 71750
L70300 71720
L70450 71720
L70530 71750
" />
<path d="M70780 72310
L70780 71720
" />
<path d="M71030 72310
L71030 72000
L71010 71950
L70950 71920
L70860 71920
L70810 71950
L70780 71970
" />
<path d="M71540 72280
L71480 72310
L71370 72310
L71310 72280
L71280 72230
L71280 72000
L71310 71950
L71370 71920
L71480 71920
L71540 71950
L71560 72000
L71560 72060
L71280 72120
" />
<path d="M72050 72280
L71990 72310
L71880 72310
L71820 72280
L71790 72230
L71790 72000
L71820 71950
L71880 71920
L71990 71920
L72050 71950
L72070 72000
L72070 72060
L71790 72120
" />
<path d="M72250 71920
L72470 71920
" />
<path d="M72330 71720
L72330 72230
L72360 72280
L72410 72310
L72470 72310
" />
<path d="M72670 72260
L72700 72280
L72670 72310
L72640 72280
L72670 72260
L72670 72310
" />
<path d="M72670 71950
L72700 71970
L72670 72000
L72640 71970
L72670 71950
L72670 72000
" />
<path d="M73820 71690
L73320 72450
" />
<path d="M74360 72310
L74160 72030
" />
<path d="M74020 72310
L74020 71720
L74250 71720
L74300 71750
L74330 71780
L74360 71830
L74360 71920
L74330 71970
L74300 72000
L74250 72030
L74020 72030
" />
<path d="M74840 72280
L74780 72310
L74670 72310
L74610 72280
L74580 72230
L74580 72000
L74610 71950
L74670 71920
L74780 71920
L74840 71950
L74860 72000
L74860 72060
L74580 72120
" />
<path d="M75370 71920
L75370 72400
L75350 72450
L75320 72480
L75260 72510
L75180 72510
L75120 72480
" />
<path d="M75370 72280
L75320 72310
L75200 72310
L75150 72280
L75120 72260
L75090 72200
L75090 72030
L75120 71970
L75150 71950
L75200 71920
L75320 71920
L75370 71950
" />
<path d="M75900 71920
L75900 72310
" />
<path d="M75650 71920
L75650 72230
L75680 72280
L75730 72310
L75820 72310
L75880 72280
L75900 72260
" />
<path d="M76260 72310
L76210 72280
L76180 72230
L76180 71720
" />
<path d="M76740 72310
L76740 72000
L76720 71950
L76660 71920
L76550 71920
L76490 71950
" />
<path d="M76740 72280
L76690 72310
L76550 72310
L76490 72280
L76460 72230
L76460 72170
L76490 72120
L76550 72090
L76690 72090
L76740 72060
" />
<path d="M76940 71920
L77160 71920
" />
<path d="M77020 71720
L77020 72230
L77050 72280
L77100 72310
L77160 72310
" />
<path d="M77440 72310
L77390 72280
L77360 72260
L77330 72200
L77330 72030
L77360 71970
L77390 71950
L77440 71920
L77530 71920
L77590 71950
L77610 71970
L77640 72030
L77640 72200
L77610 72260
L77590 72280
L77530 72310
L77440 72310
" />
<path d="M77890 72310
L77890 71920
" />
<path d="M77890 72030
L77920 71970
L77950 71950
L78000 71920
L78060 71920
" />
<path d="M78260 72090
L78710 72090
" />
<path d="M79270 71720
L78990 71720
L78960 72000
L78990 71970
L79050 71950
L79190 71950
L79240 71970
L79270 72000
L79300 72060
L79300 72200
L79270 72260
L79240 72280
L79190 72310
L79050 72310
L78990 72280
L78960 72260
" />
<path d="M79470 71720
L79660 72310
L79860 71720
" />
<path d="M80060 72090
L80510 72090
" />
<path d="M80730 71720
L81100 71720
L80900 71950
L80990 71950
L81040 71970
L81070 72000
L81100 72060
L81100 72200
L81070 72260
L81040 72280
L80990 72310
L80820 72310
L80760 72280
L80730 72260
" />
<path d="M81270 71720
L81460 72310
L81660 71720
" />
<path d="M82280 71690
L81780 72450
" />
</g>
<g style="fill:#840000; fill-opacity:0.0; 
stroke:#840000; stroke-width:100; stroke-opacity:1; 
stroke-linecap:round; stroke-linejoin:round;">
</g>
<g style="fill:#840000; fill-opacity:0.0; 
stroke:#840000; stroke-width:60; stroke-opacity:1; 
stroke-linecap:round; stroke-linejoin:round;">
<path d="M77560 75400
L77560 76580
" />
</g>
<g style="fill:#840000; fill-opacity:0.0; 
stroke:#840000; stroke-width:100; stroke-opacity:1; 
stroke-linecap:round; stroke-linejoin:round;">
</g>
<g style="fill:#840000; fill-opacity:0.0; 
stroke:#840000; stroke-width:60; stroke-opacity:1; 
stroke-linecap:round; stroke-linejoin:round;">
<path d="M102760 75400
L102760 77960
" />
</g>
<g style="fill:#840000; fill-opacity:0.0; 
stroke:#840000; stroke-width:0; stroke-opacity:1; 
stroke-linecap:round; stroke-linejoin:round;">
</g>
<g style="fill:#840000; fill-opacity:0.0; 
stroke:#840000; stroke-width:60; stroke-opacity:1; 
stroke-linecap:round; stroke-linejoin:round;">
<polyline fill="none;"
points="47300,37100
47300,37900
" /> 
<polyline fill="none;"
points="47300,37500
46700,37500
" /> 
<polyline fill="none;"
points="47300,37100
47200,37100
47200,37200
" /> 
<polyline fill="none;"
points="47300,37900
47400,37900
47400,37800
" /> 
<polyline fill="none;"
points="46700,37100
47300,37500
46700,37900
46700,37100
" /> 
<path d="M47300 37500
L48000 37500
" />
<path d="M46700 37500
L46000 37500
" />
</g>
<g style="fill:#008484; fill-opacity:0.0; 
stroke:#008484; stroke-width:60; stroke-opacity:1; 
stroke-linecap:round; stroke-linejoin:round;">
<path d="M46640 38490
L46640 37990
L46760 37990
L46830 38010
L46880 38060
L46900 38110
L46920 38200
L46920 38270
L46900 38370
L46880 38410
L46830 38460
L46760 38490
L46640 38490
" />
<path d="M47400 38490
L47120 38490
" />
<path d="M47260 38490
L47260 37990
L47210 38060
L47160 38110
L47120 38130
" />
<path d="M45780 36660
L45850 36690
L45970 36690
L46010 36660
L46040 36640
L46060 36590
L46060 36540
L46040 36500
L46010 36470
L45970 36450
L45870 36420
L45820 36400
L45800 36380
L45780 36330
L45780 36280
L45800 36230
L45820 36210
L45870 36190
L45990 36190
L46060 36210
" />
<path d="M46260 36660
L46330 36690
L46450 36690
L46490 36660
L46520 36640
L46540 36590
L46540 36540
L46520 36500
L46490 36470
L46450 36450
L46350 36420
L46300 36400
L46280 36380
L46260 36330
L46260 36280
L46280 36230
L46300 36210
L46350 36190
L46470 36190
L46540 36210
" />
<path d="M47020 36690
L46740 36690
" />
<path d="M46880 36690
L46880 36190
L46830 36260
L46780 36310
L46740 36330
" />
<path d="M47240 36690
L47240 36190
L47430 36190
L47480 36210
L47500 36230
L47520 36280
L47520 36350
L47500 36400
L47480 36420
L47430 36450
L47240 36450
" />
<path d="M47690 36190
L48000 36190
L47830 36380
L47910 36380
L47950 36400
L47980 36420
L48000 36470
L48000 36590
L47980 36640
L47950 36660
L47910 36690
L47760 36690
L47720 36660
L47690 36640
" />
<path d="M48460 36690
L48220 36690
L48220 36190
" />
</g>
<g style="fill:#008484; fill-opacity:0.0; 
stroke:#008484; stroke-width:0; stroke-opacity:1; 
stroke-linecap:round; stroke-linejoin:round;">
</g>
<g style="fill:#840000; fill-opacity:0.0; 
stroke:#840000; stroke-width:0; stroke-opacity:1; 
stroke-linecap:round; stroke-linejoin:round;">
</g>
<g style="fill:#840000; fill-opacity:0.0; 
stroke:#840000; stroke-width:60; stroke-opacity:1; 
stroke-linecap:round; stroke-linejoin:round;">
<polyline fill="none;"
points="55000,41000
55000,41500
55500,41500
55000,42000
54500,41500
55000,41500
" /> 
</g>
<g style="fill:#008484; fill-opacity:0.0; 
stroke:#008484; stroke-width:60; stroke-opacity:1; 
stroke-linecap:round; stroke-linejoin:round;">
<path d="M54620 42280
L54570 42260
L54500 42260
L54430 42280
L54380 42330
L54360 42380
L54340 42470
L54340 42540
L54360 42640
L54380 42680
L54430 42730
L54500 42760
L54550 42760
L54620 42730
L54640 42710
L54640 42540
L54550 42540
" />
<path d="M54860 42760
L54860 42260
L55140 42760
L55140 42260
" />
<path d="M55380 42760
L55380 42260
L55500 42260
L55570 42280
L55620 42330
L55640 42380
L55660 42470
L55660 42540
L55640 42640
L55620 42680
L55570 42730
L55500 42760
L55380 42760
" />
</g>
<g style="fill:#008484; fill-opacity:0.0; 
stroke:#008484; stroke-width:0; stroke-opacity:1; 
stroke-linecap:round; stroke-linejoin:round;">
</g>
<g style="fill:#840000; fill-opacity:0.0; 
stroke:#840000; stroke-width:0; stroke-opacity:1; 
stroke-linecap:round; stroke-linejoin:round;">
</g>
<g style="fill:#840000; fill-opacity:0.0; 
stroke:#840000; stroke-width:60; stroke-opacity:1; 
stroke-linecap:round; stroke-linejoin:round;">
<polyline fill="none;"
points="49700,36500
50000,36000
" /> 
<polyline fill="none;"
points="50000,37000
50000,36000
" /> 
<polyline fill="none;"
points="50000,36000
50300,36500
" /> 
</g>
<g style="fill:#008484; fill-opacity:0.0; 
stroke:#008484; stroke-width:60; stroke-opacity:1; 
stroke-linecap:round; stroke-linejoin:round;">
<path d="M49360 35670
L49740 35670
" />
<path d="M49550 35860
L49550 35480
" />
<path d="M50220 35360
L49980 35360
L49960 35590
L49980 35570
L50030 35550
L50150 35550
L50190 35570
L50220 35590
L50240 35640
L50240 35760
L50220 35810
L50190 35830
L50150 35860
L50030 35860
L49980 35830
L49960 35810
" />
<path d="M50390 35360
L50550 35860
L50720 35360
" />
</g>
<g style="fill:#008484; fill-opacity:0.0; 
stroke:#008484; stroke-width:0; stroke-opacity:1; 
stroke-linecap:round; stroke-linejoin:round;">
</g>
<g style="fill:#840000; fill-opacity:0.0; 
stroke:#840000; stroke-width:0; stroke-opacity:1; 
stroke-linecap:round; stroke-linejoin:round;">
</g>
<g style="fill:#840000; fill-opacity:0.0; 
stroke:#840000; stroke-width:60; stroke-opacity:1; 
stroke-linecap:round; stroke-linejoin:round;">
<polyline fill="none;"
points="58700,36500
59000,36000
" /> 
<polyline fill="none;"
points="59000,37000
59000,36000
" /> 
<polyline fill="none;"
points="59000,36000
59300,36500
" /> 
</g>
<g style="fill:#008484; fill-opacity:0.0; 
stroke:#008484; stroke-width:60; stroke-opacity:1; 
stroke-linecap:round; stroke-linejoin:round;">
<path d="M58000 35670
L58380 35670
" />
<path d="M58190 35860
L58190 35480
" />
<path d="M58570 35360
L58880 35360
L58710 35550
L58790 35550
L58830 35570
L58860 35590
L58880 35640
L58880 35760
L58860 35810
L58830 35830
L58790 35860
L58640 35860
L58600 35830
L58570 35810
" />
<path d="M59100 35810
L59120 35830
L59100 35860
L59080 35830
L59100 35810
L59100 35860
" />
<path d="M59290 35360
L59600 35360
L59430 35550
L59510 35550
L59550 35570
L59580 35590
L59600 35640
L59600 35760
L59580 35810
L59550 35830
L59510 35860
L59360 35860
L59320 35830
L59290 35810
" />
<path d="M59750 35360
L59910 35860
L60080 35360
" />
</g>
<g style="fill:#008484; fill-opacity:0.0; 
stroke:#008484; stroke-width:0; stroke-opacity:1; 
stroke-linecap:round; stroke-linejoin:round;">
</g>
<g style="fill:#840000; fill-opacity:0.0; 
stroke:#840000; stroke-width:0; stroke-opacity:1; 
stroke-linecap:round; stroke-linejoin:round;">
</g>
<g style="fill:#840000; fill-opacity:0.0; 
stroke:#840000; stroke-width:60; stroke-opacity:1; 
stroke-linecap:round; stroke-linejoin:round;">
<rect x="44000" y="37300" width="1000" height="400" rx="0" />
<polyline fill="none;"
points="44000,37500
45000,37500
" /> 
<path d="M44000 37500
L43500 37500
" />
<path d="M45000 37500
L45500 37500
" />
</g>
<g style="fill:#008484; fill-opacity:0.0; 
stroke:#008484; stroke-width:60; stroke-opacity:1; 
stroke-linecap:round; stroke-linejoin:round;">
<path d="M44390 36890
L44220 36890
" />
<path d="M44220 37160
L44220 36660
L44460 36660
" />
<path d="M44910 37160
L44630 37160
" />
<path d="M44770 37160
L44770 36660
L44720 36730
L44670 36780
L44630 36800
" />
<path d="M38120 39260
L38120 38760
L38290 39110
L38450 38760
L38450 39260
" />
<path d="M38860 38990
L38690 38990
" />
<path d="M38690 39260
L38690 38760
L38930 38760
" />
<path d="M39120 39070
L39500 39070
" />
<path d="M39740 39260
L39740 38760
L39910 39110
L40070 38760
L40070 39260
" />
<path d="M40290 39230
L40360 39260
L40480 39260
L40520 39230
L40550 39210
L40570 39160
L40570 39110
L40550 39070
L40520 39040
L40480 39020
L40380 38990
L40330 38970
L40310 38950
L40290 38900
L40290 38850
L40310 38800
L40330 38780
L40380 38760
L40500 38760
L40570 38780
" />
<path d="M40790 39260
L40790 38760
L40960 39110
L41120 38760
L41120 39260
" />
<path d="M41530 38990
L41360 38990
" />
<path d="M41360 39260
L41360 38760
L41600 38760
" />
<path d="M41880 38760
L41930 38760
L41980 38780
L42000 38800
L42030 38850
L42050 38950
L42050 39070
L42030 39160
L42000 39210
L41980 39230
L41930 39260
L41880 39260
L41840 39230
L41810 39210
L41790 39160
L41770 39070
L41770 38950
L41790 38850
L41810 38800
L41840 38780
L41880 38760
" />
<path d="M42510 38760
L42270 38760
L42250 38990
L42270 38970
L42320 38950
L42440 38950
L42480 38970
L42510 38990
L42530 39040
L42530 39160
L42510 39210
L42480 39230
L42440 39260
L42320 39260
L42270 39230
L42250 39210
" />
<path d="M42840 38760
L42890 38760
L42940 38780
L42960 38800
L42990 38850
L43010 38950
L43010 39070
L42990 39160
L42960 39210
L42940 39230
L42890 39260
L42840 39260
L42800 39230
L42770 39210
L42750 39160
L42730 39070
L42730 38950
L42750 38850
L42770 38800
L42800 38780
L42840 38760
" />
<path d="M43230 39070
L43610 39070
" />
<path d="M43830 38800
L43850 38780
L43900 38760
L44020 38760
L44060 38780
L44090 38800
L44110 38850
L44110 38900
L44090 38970
L43800 39260
L44110 39260
" />
<path d="M44950 38760
L44710 38760
L44690 38990
L44710 38970
L44760 38950
L44880 38950
L44920 38970
L44950 38990
L44970 39040
L44970 39160
L44950 39210
L44920 39230
L44880 39260
L44760 39260
L44710 39230
L44690 39210
" />
<path d="M45280 38760
L45330 38760
L45380 38780
L45400 38800
L45430 38850
L45450 38950
L45450 39070
L45430 39160
L45400 39210
L45380 39230
L45330 39260
L45280 39260
L45240 39230
L45210 39210
L45190 39160
L45170 39070
L45170 38950
L45190 38850
L45210 38800
L45240 38780
L45280 38760
" />
<path d="M45760 38760
L45810 38760
L45860 38780
L45880 38800
L45910 38850
L45930 38950
L45930 39070
L45910 39160
L45880 39210
L45860 39230
L45810 39260
L45760 39260
L45720 39230
L45690 39210
L45670 39160
L45650 39070
L45650 38950
L45670 38850
L45690 38800
L45720 38780
L45760 38760
" />
<path d="M46150 39260
L46150 38920
" />
<path d="M46150 38970
L46170 38950
L46220 38920
L46290 38920
L46340 38950
L46360 38990
L46360 39260
" />
<path d="M46360 38990
L46390 38950
L46430 38920
L46510 38920
L46550 38950
L46580 38990
L46580 39260
" />
<path d="M46800 39110
L47030 39110
" />
<path d="M46750 39260
L46910 38760
L47080 39260
" />
</g>
<g style="fill:#0000C2; fill-opacity:0.0; 
stroke:#0000C2; stroke-width:60; stroke-opacity:1; 
stroke-linecap:round; stroke-linejoin:round;">
<path d="M47930 33370
L47640 33370
L47610 33660
L47640 33630
L47700 33600
L47840 33600
L47900 33630
L47930 33660
L47960 33710
L47960 33860
L47930 33910
L47900 33940
L47840 33970
L47700 33970
L47640 33940
L47610 33910
" />
<path d="M48130 33370
L48330 33970
L48530 33370
" />
<path d="M49100 33570
L49330 33570
" />
<path d="M49180 33370
L49180 33890
L49210 33940
L49270 33970
L49330 33970
" />
<path d="M49610 33970
L49550 33940
L49520 33910
L49490 33860
L49490 33690
L49520 33630
L49550 33600
L49610 33570
L49690 33570
L49750 33600
L49780 33630
L49810 33690
L49810 33860
L49780 33910
L49750 33940
L49690 33970
L49610 33970
" />
<path d="M50470 33370
L50840 33370
L50640 33600
L50720 33600
L50780 33630
L50810 33660
L50840 33710
L50840 33860
L50810 33910
L50780 33940
L50720 33970
L50550 33970
L50490 33940
L50470 33910
" />
<path d="M51090 33910
L51120 33940
L51090 33970
L51060 33940
L51090 33910
L51090 33970
" />
<path d="M51330 33370
L51700 33370
L51500 33600
L51580 33600
L51640 33630
L51670 33660
L51700 33710
L51700 33860
L51670 33910
L51640 33940
L51580 33970
L51410 33970
L51350 33940
L51330 33910
" />
<path d="M51870 33370
L52070 33970
L52270 33370
" />
<path d="M53270 33910
L53240 33940
L53150 33970
L53090 33970
L53010 33940
L52950 33890
L52920 33830
L52890 33710
L52890 33630
L52920 33510
L52950 33460
L53010 33400
L53090 33370
L53150 33370
L53240 33400
L53270 33430
" />
<path d="M53610 33970
L53550 33940
L53520 33910
L53490 33860
L53490 33690
L53520 33630
L53550 33600
L53610 33570
L53690 33570
L53750 33600
L53780 33630
L53810 33690
L53810 33860
L53780 33910
L53750 33940
L53690 33970
L53610 33970
" />
<path d="M54060 33570
L54060 33970
" />
<path d="M54060 33630
L54090 33600
L54150 33570
L54230 33570
L54290 33600
L54320 33660
L54320 33970
" />
<path d="M54550 33570
L54690 33970
L54830 33570
" />
<path d="M55290 33940
L55230 33970
L55120 33970
L55060 33940
L55030 33890
L55030 33660
L55060 33600
L55120 33570
L55230 33570
L55290 33600
L55320 33660
L55320 33710
L55030 33770
" />
<path d="M55570 33970
L55570 33570
" />
<path d="M55570 33690
L55600 33630
L55630 33600
L55690 33570
L55740 33570
" />
<path d="M55910 33940
L55970 33970
L56090 33970
L56140 33940
L56170 33890
L56170 33860
L56140 33800
L56090 33770
L56000 33770
L55940 33740
L55910 33690
L55910 33660
L55940 33600
L56000 33570
L56090 33570
L56140 33600
" />
<path d="M56430 33970
L56430 33570
" />
<path d="M56430 33370
L56400 33400
L56430 33430
L56460 33400
L56430 33370
L56430 33430
" />
<path d="M56810 33970
L56750 33940
L56720 33910
L56690 33860
L56690 33690
L56720 33630
L56750 33600
L56810 33570
L56890 33570
L56950 33600
L56980 33630
L57010 33690
L57010 33860
L56980 33910
L56950 33940
L56890 33970
L56810 33970
" />
<path d="M57260 33570
L57260 33970
" />
<path d="M57260 33630
L57290 33600
L57350 33570
L57430 33570
L57490 33600
L57520 33660
L57520 33970
" />
</g>
<g style="fill:#0000C2; fill-opacity:0.0; 
stroke:#0000C2; stroke-width:0; stroke-opacity:1; 
stroke-linecap:round; stroke-linejoin:round;">
</g>
<g style="fill:#840000; fill-opacity:0.0; 
stroke:#840000; stroke-width:0; stroke-opacity:1; 
stroke-linecap:round; stroke-linejoin:round;">
</g>
<g style="fill:#FFFFC2; fill-opacity:0.0; 
stroke:#FFFFC2; stroke-width:0; stroke-opacity:1; 
stroke-linecap:round; stroke-linejoin:round;">
</g>
<g style="fill:#FFFFC2; fill-opacity:0.6; 
stroke:#FFFFC2; stroke-width:0; stroke-opacity:1; 
stroke-linecap:round; stroke-linejoin:round;">
<rect x="53000" y="35500" width="4000" height="4000" rx="0" />
</g>
<g style="fill:#840000; fill-opacity:0.6; 
stroke:#840000; stroke-width:0; stroke-opacity:1; 
stroke-linecap:round; stroke-linejoin:round;">
</g>
<g style="fill:#840000; fill-opacity:0.0; 
stroke:#840000; stroke-width:100; stroke-opacity:1; 
stroke-linecap:round; stroke-linejoin:round;">
<rect x="53000" y="35500" width="4000" height="4000" rx="0" />
</g>
<g style="fill:#840000; fill-opacity:0.0; 
stroke:#840000; stroke-width:60; stroke-opacity:1; 
stroke-linecap:round; stroke-linejoin:round;">
<path d="M55000 39500
L55000 40500
" />
</g>
<g style="fill:#008484; fill-opacity:0.0; 
stroke:#008484; stroke-width:60; stroke-opacity:1; 
stroke-linecap:round; stroke-linejoin:round;">
<path d="M54750 38820
L54730 38870
L54730 38940
L54750 39010
L54800 39060
L54850 39080
L54940 39100
L55010 39100
L55110 39080
L55150 39060
L55200 39010
L55230 38940
L55230 38890
L55200 38820
L55180 38800
L55010 38800
L55010 38890
" />
<path d="M55230 38580
L54730 38580
L55230 38300
L54730 38300
" />
<path d="M55230 38060
L54730 38060
L54730 37940
L54750 37870
L54800 37820
L54850 37800
L54940 37780
L55010 37780
L55110 37800
L55150 37820
L55200 37870
L55230 37940
L55230 38060
" />
<path d="M54700 37200
L55350 37630
" />
<path d="M55080 37060
L55080 36830
" />
<path d="M55230 37110
L54730 36950
L55230 36780
" />
<path d="M55230 36610
L54730 36610
L54730 36490
L54750 36420
L54800 36370
L54850 36350
L54940 36330
L55010 36330
L55110 36350
L55150 36370
L55200 36420
L55230 36490
L55230 36610
" />
<path d="M54730 35970
L55080 35970
L55150 35990
L55200 36040
L55230 36110
L55230 36160
" />
</g>
<g style="fill:#840000; fill-opacity:0.0; 
stroke:#840000; stroke-width:60; stroke-opacity:1; 
stroke-linecap:round; stroke-linejoin:round;">
<path d="M54880 39860
L54880 40140
" />
<path d="M54880 40000
L54380 40000
L54450 40050
L54500 40100
L54520 40140
" />
<path d="M57000 37500
L58000 37500
" />
</g>
<g style="fill:#008484; fill-opacity:0.0; 
stroke:#008484; stroke-width:60; stroke-opacity:1; 
stroke-linecap:round; stroke-linejoin:round;">
<path d="M55800 37230
L55960 37730
L56130 37230
" />
<path d="M56390 37230
L56490 37230
L56540 37250
L56580 37300
L56610 37390
L56610 37560
L56580 37650
L56540 37700
L56490 37730
L56390 37730
L56350 37700
L56300 37650
L56280 37560
L56280 37390
L56300 37300
L56350 37250
L56390 37230
" />
</g>
<g style="fill:#840000; fill-opacity:0.0; 
stroke:#840000; stroke-width:60; stroke-opacity:1; 
stroke-linecap:round; stroke-linejoin:round;">
<path d="M57360 36920
L57380 36900
L57430 36880
L57550 36880
L57590 36900
L57620 36920
L57640 36970
L57640 37020
L57620 37090
L57330 37380
L57640 37380
" />
<path d="M53000 37500
L52000 37500
" />
</g>
<g style="fill:#008484; fill-opacity:0.0; 
stroke:#008484; stroke-width:60; stroke-opacity:1; 
stroke-linecap:round; stroke-linejoin:round;">
<path d="M53350 37230
L53510 37730
L53680 37230
" />
<path d="M53850 37730
L53850 37230
" />
</g>
<g style="fill:#840000; fill-opacity:0.0; 
stroke:#840000; stroke-width:60; stroke-opacity:1; 
stroke-linecap:round; stroke-linejoin:round;">
<path d="M52330 36880
L52640 36880
L52470 37070
L52550 37070
L52590 37090
L52620 37110
L52640 37160
L52640 37280
L52620 37330
L52590 37350
L52550 37380
L52400 37380
L52360 37350
L52330 37330
" />
</g>
<g style="fill:#008484; fill-opacity:0.0; 
stroke:#008484; stroke-width:60; stroke-opacity:1; 
stroke-linecap:round; stroke-linejoin:round;">
<path d="M55620 39760
L55620 40160
L55640 40210
L55670 40230
L55710 40260
L55810 40260
L55860 40230
L55880 40210
L55900 40160
L55900 39760
" />
<path d="M56120 39800
L56140 39780
L56190 39760
L56310 39760
L56350 39780
L56380 39800
L56400 39850
L56400 39900
L56380 39970
L56090 40260
L56400 40260
" />
<path d="M53010 35260
L52770 35260
L52770 34760
" />
<path d="M53170 35260
L53170 34760
L53340 35110
L53500 34760
L53500 35260
" />
<path d="M54000 35260
L53720 35260
" />
<path d="M53860 35260
L53860 34760
L53810 34830
L53760 34880
L53720 34900
" />
<path d="M54480 35260
L54200 35260
" />
<path d="M54340 35260
L54340 34760
L54290 34830
L54240 34880
L54200 34900
" />
<path d="M54960 35260
L54680 35260
" />
<path d="M54820 35260
L54820 34760
L54770 34830
L54720 34880
L54680 34900
" />
<path d="M55130 34760
L55460 34760
L55250 35260
" />
<path d="M55660 35070
L56040 35070
" />
<path d="M56230 34760
L56540 34760
L56370 34950
L56450 34950
L56490 34970
L56520 34990
L56540 35040
L56540 35160
L56520 35210
L56490 35230
L56450 35260
L56300 35260
L56260 35230
L56230 35210
" />
<path d="M56760 35210
L56780 35230
L56760 35260
L56740 35230
L56760 35210
L56760 35260
" />
<path d="M56950 34760
L57260 34760
L57090 34950
L57170 34950
L57210 34970
L57240 34990
L57260 35040
L57260 35160
L57240 35210
L57210 35230
L57170 35260
L57020 35260
L56980 35230
L56950 35210
" />
</g>
<g style="fill:#008400; fill-opacity:0.0; 
stroke:#008400; stroke-width:60; stroke-opacity:1; 
stroke-linecap:round; stroke-linejoin:round;">
<path d="M55000 41000
L55000 40500
" />
<path d="M58000 37500
L62000 37500
" />
<path d="M59000 37000
L59000 38500
" />
</g>
<g style="fill:#008400; fill-opacity:0.0; 
stroke:#008400; stroke-width:0; stroke-opacity:1; 
stroke-linecap:round; stroke-linejoin:round;">
</g>
<g style="fill:#840000; fill-opacity:0.0; 
stroke:#840000; stroke-width:0; stroke-opacity:1; 
stroke-linecap:round; stroke-linejoin:round;">
</g>
<g style="fill:#840000; fill-opacity:0.0; 
stroke:#840000; stroke-width:130; stroke-opacity:1; 
stroke-linecap:round; stroke-linejoin:round;">
<polyline fill="none;"
points="58400,39700
59600,39700
" /> 
</g>
<g style="fill:#840000; fill-opacity:0.0; 
stroke:#840000; stroke-width:120; stroke-opacity:1; 
stroke-linecap:round; stroke-linejoin:round;">
<polyline fill="none;"
points="58400,39300
59600,39300
" /> 
</g>
<g style="fill:#840000; fill-opacity:0.0; 
stroke:#840000; stroke-width:60; stroke-opacity:1; 
stroke-linecap:round; stroke-linejoin:round;">
<path d="M59000 39300
L59000 38500
" />
<path d="M59000 39700
L59000 40500
" />
</g>
<g style="fill:#008484; fill-opacity:0.0; 
stroke:#008484; stroke-width:60; stroke-opacity:1; 
stroke-linecap:round; stroke-linejoin:round;">
<path d="M59500 39010
L59480 39030
L59410 39060
L59360 39060
L59290 39030
L59240 38980
L59220 38940
L59200 38840
L59200 38770
L59220 38680
L59240 38630
L59290 38580
L59360 38560
L59410 38560
L59480 38580
L59500 38600
" />
<path d="M59700 38600
L59720 38580
L59770 38560
L59890 38560
L59930 38580
L59960 38600
L59980 38650
L59980 38700
L59960 38770
L59670 39060
L59980 39060
" />
<path d="M59310 40060
L59360 40060
L59410 40080
L59430 40100
L59460 40150
L59480 40250
L59480 40370
L59460 40460
L59430 40510
L59410 40530
L59360 40560
L59310 40560
L59270 40530
L59240 40510
L59220 40460
L59200 40370
L59200 40250
L59220 40150
L59240 40100
L59270 40080
L59310 40060
" />
<path d="M59700 40510
L59720 40530
L59700 40560
L59680 40530
L59700 40510
L59700 40560
" />
<path d="M60200 40560
L59920 40560
" />
<path d="M60060 40560
L60060 40060
L60010 40130
L59960 40180
L59920 40200
" />
<path d="M60630 40220
L60630 40560
" />
<path d="M60420 40220
L60420 40480
L60440 40530
L60490 40560
L60560 40560
L60610 40530
L60630 40510
" />
<path d="M61040 40290
L60870 40290
" />
<path d="M60870 40560
L60870 40060
L61110 40060
" />
</g>
<g style="fill:#008484; fill-opacity:0.0; 
stroke:#008484; stroke-width:0; stroke-opacity:1; 
stroke-linecap:round; stroke-linejoin:round;">
</g>
<g style="fill:#840000; fill-opacity:0.0; 
stroke:#840000; stroke-width:0; stroke-opacity:1; 
stroke-linecap:round; stroke-linejoin:round;">
</g>
<g style="fill:#840000; fill-opacity:0.0; 
stroke:#840000; stroke-width:60; stroke-opacity:1; 
stroke-linecap:round; stroke-linejoin:round;">
<polyline fill="none;"
points="59000,41000
59000,41500
59500,41500
59000,42000
58500,41500
59000,41500
" /> 
</g>
<g style="fill:#008484; fill-opacity:0.0; 
stroke:#008484; stroke-width:60; stroke-opacity:1; 
stroke-linecap:round; stroke-linejoin:round;">
<path d="M58620 42280
L58570 42260
L58500 42260
L58430 42280
L58380 42330
L58360 42380
L58340 42470
L58340 42540
L58360 42640
L58380 42680
L58430 42730
L58500 42760
L58550 42760
L58620 42730
L58640 42710
L58640 42540
L58550 42540
" />
<path d="M58860 42760
L58860 42260
L59140 42760
L59140 42260
" />
<path d="M59380 42760
L59380 42260
L59500 42260
L59570 42280
L59620 42330
L59640 42380
L59660 42470
L59660 42540
L59640 42640
L59620 42680
L59570 42730
L59500 42760
L59380 42760
" />
</g>
<g style="fill:#008400; fill-opacity:0.0; 
stroke:#008400; stroke-width:60; stroke-opacity:1; 
stroke-linecap:round; stroke-linejoin:round;">
<path d="M59000 41000
L59000 40500
" />
</g>
<g style="fill:#008400; fill-opacity:0.0; 
stroke:#008400; stroke-width:0; stroke-opacity:1; 
stroke-linecap:round; stroke-linejoin:round;">
</g>
<g style="fill:#008400; fill-opacity:1.0; 
stroke:#008400; stroke-width:100; stroke-opacity:1; 
stroke-linecap:round; stroke-linejoin:round;">
<circle cx="59000" cy="37500" r="200" /> 
</g>
<g style="fill:#008400; fill-opacity:1.0; 
stroke:#008400; stroke-width:0; stroke-opacity:1; 
stroke-linecap:round; stroke-linejoin:round;">
</g>
<g style="fill:#840000; fill-opacity:1.0; 
stroke:#840000; stroke-width:0; stroke-opacity:1; 
stroke-linecap:round; stroke-linejoin:round;">
</g>
<g style="fill:#840000; fill-opacity:0.0; 
stroke:#840000; stroke-width:80; stroke-opacity:1; 
stroke-linecap:round; stroke-linejoin:round;">
<rect x="63200" y="36300" width="600" height="1400" rx="0" />
</g>
<g style="fill:#840000; fill-opacity:0.0; 
stroke:#840000; stroke-width:60; stroke-opacity:1; 
stroke-linecap:round; stroke-linejoin:round;">
<path d="M63500 36300
L63500 36000
" />
<path d="M63500 37700
L63500 38000
" />
</g>
<g style="fill:#008484; fill-opacity:0.0; 
stroke:#008484; stroke-width:60; stroke-opacity:1; 
stroke-linecap:round; stroke-linejoin:round;">
<path d="M64200 37060
L64040 36820
" />
<path d="M63920 37060
L63920 36560
L64110 36560
L64160 36580
L64180 36600
L64200 36650
L64200 36720
L64180 36770
L64160 36790
L64110 36820
L63920 36820
" />
<path d="M64680 37060
L64400 37060
" />
<path d="M64540 37060
L64540 36560
L64490 36630
L64440 36680
L64400 36700
" />
<path d="M64180 37660
L63900 37660
" />
<path d="M64040 37660
L64040 37160
L63990 37230
L63940 37280
L63900 37300
" />
<path d="M64400 37660
L64400 37160
" />
<path d="M64680 37660
L64470 37370
" />
<path d="M64680 37160
L64400 37440
" />
</g>
<g style="fill:#008484; fill-opacity:0.0; 
stroke:#008484; stroke-width:0; stroke-opacity:1; 
stroke-linecap:round; stroke-linejoin:round;">
</g>
<g style="fill:#840000; fill-opacity:0.0; 
stroke:#840000; stroke-width:0; stroke-opacity:1; 
stroke-linecap:round; stroke-linejoin:round;">
</g>
<g style="fill:#840000; fill-opacity:0.0; 
stroke:#840000; stroke-width:60; stroke-opacity:1; 
stroke-linecap:round; stroke-linejoin:round;">
<polyline fill="none;"
points="63900,39800
63100,39800
" /> 
</g>
<g style="fill:#840000; fill-opacity:1.0; 
stroke:#840000; stroke-width:60; stroke-opacity:1; 
stroke-linecap:round; stroke-linejoin:round;">
<polyline style="fill-rule:evenodd;"
points="63900,39200
63500,39800
63100,39200
63900,39200
" /> 
</g>
<g style="fill:#840000; fill-opacity:0.0; 
stroke:#840000; stroke-width:60; stroke-opacity:1; 
stroke-linecap:round; stroke-linejoin:round;">
<polyline fill="none;"
points="63200,39500
63000,39700
63000,39600
63000,39700
63100,39700
" /> 
<polyline fill="none;"
points="63000,39300
62800,39500
62800,39400
62800,39500
62900,39500
" /> 
<path d="M63500 39800
L63500 40500
" />
<path d="M63500 39200
L63500 38500
" />
</g>
<g style="fill:#008484; fill-opacity:0.0; 
stroke:#008484; stroke-width:60; stroke-opacity:1; 
stroke-linecap:round; stroke-linejoin:round;">
<path d="M62510 39880
L62010 39880
L62010 39760
L62030 39690
L62080 39640
L62130 39620
L62220 39600
L62290 39600
L62390 39620
L62430 39640
L62480 39690
L62510 39760
L62510 39880
" />
<path d="M62050 39400
L62030 39380
L62010 39330
L62010 39210
L62030 39170
L62050 39140
L62100 39120
L62150 39120
L62220 39140
L62510 39430
L62510 39120
" />
<path d="M64760 39640
L64760 39880
L64260 39880
" />
<path d="M64730 39290
L64760 39340
L64760 39430
L64730 39480
L64680 39500
L64490 39500
L64450 39480
L64420 39430
L64420 39340
L64450 39290
L64490 39270
L64540 39270
L64590 39500
" />
<path d="M64760 38840
L64260 38840
" />
<path d="M64730 38840
L64760 38880
L64760 38980
L64730 39030
L64710 39050
L64660 39070
L64520 39070
L64470 39050
L64450 39030
L64420 38980
L64420 38880
L64450 38840
" />
</g>
<g style="fill:#008484; fill-opacity:0.0; 
stroke:#008484; stroke-width:0; stroke-opacity:1; 
stroke-linecap:round; stroke-linejoin:round;">
</g>
<g style="fill:#840000; fill-opacity:0.0; 
stroke:#840000; stroke-width:0; stroke-opacity:1; 
stroke-linecap:round; stroke-linejoin:round;">
</g>
<g style="fill:#840000; fill-opacity:0.0; 
stroke:#840000; stroke-width:60; stroke-opacity:1; 
stroke-linecap:round; stroke-linejoin:round;">
<polyline fill="none;"
points="63500,41000
63500,41500
64000,41500
63500,42000
63000,41500
63500,41500
" /> 
</g>
<g style="fill:#008484; fill-opacity:0.0; 
stroke:#008484; stroke-width:60; stroke-opacity:1; 
stroke-linecap:round; stroke-linejoin:round;">
<path d="M63120 42280
L63070 42260
L63000 42260
L62930 42280
L62880 42330
L62860 42380
L62840 42470
L62840 42540
L62860 42640
L62880 42680
L62930 42730
L63000 42760
L63050 42760
L63120 42730
L63140 42710
L63140 42540
L63050 42540
" />
<path d="M63360 42760
L63360 42260
L63640 42760
L63640 42260
" />
<path d="M63880 42760
L63880 42260
L64000 42260
L64070 42280
L64120 42330
L64140 42380
L64160 42470
L64160 42540
L64140 42640
L64120 42680
L64070 42730
L64000 42760
L63880 42760
" />
</g>
<g style="fill:#008400; fill-opacity:0.0; 
stroke:#008400; stroke-width:60; stroke-opacity:1; 
stroke-linecap:round; stroke-linejoin:round;">
<path d="M63500 41000
L63500 40500
" />
<path d="M63500 38500
L63500 38000
" />
<path d="M62000 37500
L62000 35500
" />
<path d="M62000 35500
L63500 35500
" />
<path d="M63500 35500
L63500 36000
" />
</g>
<g style="fill:#008400; fill-opacity:0.0; 
stroke:#008400; stroke-width:0; stroke-opacity:1; 
stroke-linecap:round; stroke-linejoin:round;">
</g>
<g style="fill:#840000; fill-opacity:0.0; 
stroke:#840000; stroke-width:0; stroke-opacity:1; 
stroke-linecap:round; stroke-linejoin:round;">
</g>
<g style="fill:#840000; fill-opacity:0.0; 
stroke:#840000; stroke-width:120; stroke-opacity:1; 
stroke-linecap:round; stroke-linejoin:round;">
<path d="M50598.4 39802.5 A1250 1250 0.0 0 0 49401.6 39802.5 " />
<polyline fill="none;"
points="49400,39300
50600,39300
" /> 
</g>
<g style="fill:#840000; fill-opacity:0.0; 
stroke:#840000; stroke-width:60; stroke-opacity:1; 
stroke-linecap:round; stroke-linejoin:round;">
<polyline fill="none;"
points="49500,38900
49700,38900
" /> 
<polyline fill="none;"
points="49600,39000
49600,38800
" /> 
<path d="M50000 39300
L50000 38500
" />
<path d="M50000 39700
L50000 40500
" />
</g>
<g style="fill:#008484; fill-opacity:0.0; 
stroke:#008484; stroke-width:60; stroke-opacity:1; 
stroke-linecap:round; stroke-linejoin:round;">
<path d="M50500 39010
L50480 39030
L50410 39060
L50360 39060
L50290 39030
L50240 38980
L50220 38940
L50200 38840
L50200 38770
L50220 38680
L50240 38630
L50290 38580
L50360 38560
L50410 38560
L50480 38580
L50500 38600
" />
<path d="M50980 39060
L50700 39060
" />
<path d="M50840 39060
L50840 38560
L50790 38630
L50740 38680
L50700 38700
" />
<path d="M50480 40560
L50200 40560
" />
<path d="M50340 40560
L50340 40060
L50290 40130
L50240 40180
L50200 40200
" />
<path d="M50790 40060
L50840 40060
L50890 40080
L50910 40100
L50940 40150
L50960 40250
L50960 40370
L50940 40460
L50910 40510
L50890 40530
L50840 40560
L50790 40560
L50750 40530
L50720 40510
L50700 40460
L50680 40370
L50680 40250
L50700 40150
L50720 40100
L50750 40080
L50790 40060
" />
<path d="M51390 40220
L51390 40560
" />
<path d="M51180 40220
L51180 40480
L51200 40530
L51250 40560
L51320 40560
L51370 40530
L51390 40510
" />
<path d="M51800 40290
L51630 40290
" />
<path d="M51630 40560
L51630 40060
L51870 40060
" />
</g>
<g style="fill:#008484; fill-opacity:0.0; 
stroke:#008484; stroke-width:0; stroke-opacity:1; 
stroke-linecap:round; stroke-linejoin:round;">
</g>
<g style="fill:#840000; fill-opacity:0.0; 
stroke:#840000; stroke-width:0; stroke-opacity:1; 
stroke-linecap:round; stroke-linejoin:round;">
</g>
<g style="fill:#840000; fill-opacity:0.0; 
stroke:#840000; stroke-width:60; stroke-opacity:1; 
stroke-linecap:round; stroke-linejoin:round;">
<polyline fill="none;"
points="50000,41000
50000,41500
50500,41500
50000,42000
49500,41500
50000,41500
" /> 
</g>
<g style="fill:#008484; fill-opacity:0.0; 
stroke:#008484; stroke-width:60; stroke-opacity:1; 
stroke-linecap:round; stroke-linejoin:round;">
<path d="M49620 42280
L49570 42260
L49500 42260
L49430 42280
L49380 42330
L49360 42380
L49340 42470
L49340 42540
L49360 42640
L49380 42680
L49430 42730
L49500 42760
L49550 42760
L49620 42730
L49640 42710
L49640 42540
L49550 42540
" />
<path d="M49860 42760
L49860 42260
L50140 42760
L50140 42260
" />
<path d="M50380 42760
L50380 42260
L50500 42260
L50570 42280
L50620 42330
L50640 42380
L50660 42470
L50660 42540
L50640 42640
L50620 42680
L50570 42730
L50500 42760
L50380 42760
" />
</g>
<g style="fill:#008400; fill-opacity:0.0; 
stroke:#008400; stroke-width:60; stroke-opacity:1; 
stroke-linecap:round; stroke-linejoin:round;">
<path d="M50000 41000
L50000 40500
" />
<path d="M50000 37000
L50000 38500
" />
<path d="M48000 37500
L52000 37500
" />
</g>
<g style="fill:#008400; fill-opacity:0.0; 
stroke:#008400; stroke-width:0; stroke-opacity:1; 
stroke-linecap:round; stroke-linejoin:round;">
</g>
<g style="fill:#008400; fill-opacity:1.0; 
stroke:#008400; stroke-width:100; stroke-opacity:1; 
stroke-linecap:round; stroke-linejoin:round;">
<circle cx="50000" cy="37500" r="200" /> 
</g>
<g style="fill:#008400; fill-opacity:1.0; 
stroke:#008400; stroke-width:60; stroke-opacity:1; 
stroke-linecap:round; stroke-linejoin:round;">
</g>
<g style="fill:#008400; fill-opacity:0.0; 
stroke:#008400; stroke-width:60; stroke-opacity:1; 
stroke-linecap:round; stroke-linejoin:round;">
<path d="M46000 37500
L45500 37500
" />
<path d="M43500 37500
L43000 37500
" />
</g>
<g style="fill:#848400; fill-opacity:0.0; 
stroke:#848400; stroke-width:60; stroke-opacity:1; 
stroke-linecap:round; stroke-linejoin:round;">
<path d="M39390 37740
L39480 37770
L39620 37770
L39680 37740
L39710 37710
L39740 37660
L39740 37600
L39710 37540
L39680 37510
L39620 37490
L39510 37460
L39450 37430
L39420 37400
L39390 37340
L39390 37290
L39420 37230
L39450 37200
L39510 37170
L39650 37170
L39740 37200
" />
<path d="M40250 37370
L40250 37770
" />
<path d="M39990 37370
L39990 37690
L40020 37740
L40080 37770
L40160 37770
L40220 37740
L40250 37710
" />
<path d="M40530 37370
L40530 37970
" />
<path d="M40530 37400
L40590 37370
L40700 37370
L40760 37400
L40790 37430
L40820 37490
L40820 37660
L40790 37710
L40760 37740
L40700 37770
L40590 37770
L40530 37740
" />
<path d="M41070 37370
L41070 37970
" />
<path d="M41070 37400
L41130 37370
L41240 37370
L41300 37400
L41330 37430
L41360 37490
L41360 37660
L41330 37710
L41300 37740
L41240 37770
L41130 37770
L41070 37740
" />
<path d="M41700 37770
L41640 37740
L41610 37690
L41610 37170
" />
<path d="M41870 37370
L42010 37770
" />
<path d="M42150 37370
L42010 37770
L41950 37910
L41920 37940
L41870 37970
" />
</g>
<g style="fill:#848400; fill-opacity:0.0; 
stroke:#848400; stroke-width:100; stroke-opacity:1; 
stroke-linecap:round; stroke-linejoin:round;">
<polyline fill="none;"
points="43000,37500
42700,37200
42400,37200
42400,37800
42700,37800
43000,37500
" /> 
</g> 
</svg>
