<?xml version="1.0" standalone="no"?>
 <!DOCTYPE svg PUBLIC "-//W3C//DTD SVG 1.1//EN" 
 "http://www.w3.org/Graphics/SVG/1.1/DTD/svg11.dtd"> 
<svg xmlns="http://www.w3.org/2000/svg" version="1.1" 
    width="29.7002cm" height="21.0007cm" viewBox="0 0 116930 82680 ">
<title>SVG Picture created as Port-USB-Buffer.svg date 2017/04/19 11:33:16 </title>
  <desc>Picture generated by Eeschema-SVG </desc>
<g style="fill:#000000; fill-opacity:1;stroke:#000000; stroke-opacity:1;
stroke-linecap:round; stroke-linejoin:round; "
 transform="translate(0 0) scale(1 1)">
</g>
<g style="fill:#000000; fill-opacity:0.0; 
stroke:#000000; stroke-width:-10; stroke-opacity:1; 
stroke-linecap:round; stroke-linejoin:round;">
</g>
<g style="fill:#840000; fill-opacity:0.0; 
stroke:#840000; stroke-width:-10; stroke-opacity:1; 
stroke-linecap:round; stroke-linejoin:round;">
</g>
<g style="fill:#840000; fill-opacity:0.0; 
stroke:#840000; stroke-width:100; stroke-opacity:1; 
stroke-linecap:round; stroke-linejoin:round;">
</g>
<g style="fill:#840000; fill-opacity:0.0; 
stroke:#840000; stroke-width:60; stroke-opacity:1; 
stroke-linecap:round; stroke-linejoin:round;">
<rect x="69690" y="65360" width="42520" height="12600" rx="0" />
</g>
<g style="fill:#840000; fill-opacity:0.0; 
stroke:#840000; stroke-width:100; stroke-opacity:1; 
stroke-linecap:round; stroke-linejoin:round;">
</g>
<g style="fill:#840000; fill-opacity:0.0; 
stroke:#840000; stroke-width:60; stroke-opacity:1; 
stroke-linecap:round; stroke-linejoin:round;">
<rect x="3940" y="3940" width="109050" height="74800" rx="0" />
</g>
<g style="fill:#840000; fill-opacity:0.0; 
stroke:#840000; stroke-width:100; stroke-opacity:1; 
stroke-linecap:round; stroke-linejoin:round;">
</g>
<g style="fill:#840000; fill-opacity:0.0; 
stroke:#840000; stroke-width:60; stroke-opacity:1; 
stroke-linecap:round; stroke-linejoin:round;">
<rect x="4720" y="4720" width="107490" height="73240" rx="0" />
</g>
<g style="fill:#840000; fill-opacity:0.0; 
stroke:#840000; stroke-width:100; stroke-opacity:1; 
stroke-linecap:round; stroke-linejoin:round;">
</g>
<g style="fill:#840000; fill-opacity:0.0; 
stroke:#840000; stroke-width:60; stroke-opacity:1; 
stroke-linecap:round; stroke-linejoin:round;">
<path d="M23620 4720
L23620 3940
" />
</g>
<g style="fill:#840000; fill-opacity:0.0; 
stroke:#840000; stroke-width:100; stroke-opacity:1; 
stroke-linecap:round; stroke-linejoin:round;">
</g>
<g style="fill:#840000; fill-opacity:0.0; 
stroke:#840000; stroke-width:60; stroke-opacity:1; 
stroke-linecap:round; stroke-linejoin:round;">
<path d="M43310 4720
L43310 3940
" />
</g>
<g style="fill:#840000; fill-opacity:0.0; 
stroke:#840000; stroke-width:100; stroke-opacity:1; 
stroke-linecap:round; stroke-linejoin:round;">
</g>
<g style="fill:#840000; fill-opacity:0.0; 
stroke:#840000; stroke-width:60; stroke-opacity:1; 
stroke-linecap:round; stroke-linejoin:round;">
<path d="M62990 4720
L62990 3940
" />
</g>
<g style="fill:#840000; fill-opacity:0.0; 
stroke:#840000; stroke-width:100; stroke-opacity:1; 
stroke-linecap:round; stroke-linejoin:round;">
</g>
<g style="fill:#840000; fill-opacity:0.0; 
stroke:#840000; stroke-width:60; stroke-opacity:1; 
stroke-linecap:round; stroke-linejoin:round;">
<path d="M82680 4720
L82680 3940
" />
</g>
<g style="fill:#840000; fill-opacity:0.0; 
stroke:#840000; stroke-width:100; stroke-opacity:1; 
stroke-linecap:round; stroke-linejoin:round;">
</g>
<g style="fill:#840000; fill-opacity:0.0; 
stroke:#840000; stroke-width:60; stroke-opacity:1; 
stroke-linecap:round; stroke-linejoin:round;">
<path d="M102360 4720
L102360 3940
" />
</g>
<g style="fill:#840000; fill-opacity:0.0; 
stroke:#840000; stroke-width:100; stroke-opacity:1; 
stroke-linecap:round; stroke-linejoin:round;">
</g>
<g style="fill:#840000; fill-opacity:0.0; 
stroke:#840000; stroke-width:60; stroke-opacity:1; 
stroke-linecap:round; stroke-linejoin:round;">
<path d="M14170 4560
L13880 4560
" />
<path d="M14020 4560
L14020 4050
L13970 4120
L13930 4170
L13880 4190
" />
</g>
<g style="fill:#840000; fill-opacity:0.0; 
stroke:#840000; stroke-width:100; stroke-opacity:1; 
stroke-linecap:round; stroke-linejoin:round;">
</g>
<g style="fill:#840000; fill-opacity:0.0; 
stroke:#840000; stroke-width:60; stroke-opacity:1; 
stroke-linecap:round; stroke-linejoin:round;">
<path d="M33560 4090
L33580 4070
L33630 4050
L33750 4050
L33800 4070
L33820 4090
L33850 4140
L33850 4190
L33820 4260
L33530 4560
L33850 4560
" />
</g>
<g style="fill:#840000; fill-opacity:0.0; 
stroke:#840000; stroke-width:100; stroke-opacity:1; 
stroke-linecap:round; stroke-linejoin:round;">
</g>
<g style="fill:#840000; fill-opacity:0.0; 
stroke:#840000; stroke-width:60; stroke-opacity:1; 
stroke-linecap:round; stroke-linejoin:round;">
<path d="M53220 4050
L53540 4050
L53370 4240
L53440 4240
L53490 4260
L53510 4290
L53540 4340
L53540 4460
L53510 4510
L53490 4530
L53440 4560
L53300 4560
L53250 4530
L53220 4510
" />
</g>
<g style="fill:#840000; fill-opacity:0.0; 
stroke:#840000; stroke-width:100; stroke-opacity:1; 
stroke-linecap:round; stroke-linejoin:round;">
</g>
<g style="fill:#840000; fill-opacity:0.0; 
stroke:#840000; stroke-width:60; stroke-opacity:1; 
stroke-linecap:round; stroke-linejoin:round;">
<path d="M73170 4220
L73170 4560
" />
<path d="M73050 4020
L72930 4390
L73240 4390
" />
</g>
<g style="fill:#840000; fill-opacity:0.0; 
stroke:#840000; stroke-width:100; stroke-opacity:1; 
stroke-linecap:round; stroke-linejoin:round;">
</g>
<g style="fill:#840000; fill-opacity:0.0; 
stroke:#840000; stroke-width:60; stroke-opacity:1; 
stroke-linecap:round; stroke-linejoin:round;">
<path d="M92880 4050
L92640 4050
L92620 4290
L92640 4260
L92690 4240
L92810 4240
L92860 4260
L92880 4290
L92910 4340
L92910 4460
L92880 4510
L92860 4530
L92810 4560
L92690 4560
L92640 4530
L92620 4510
" />
</g>
<g style="fill:#840000; fill-opacity:0.0; 
stroke:#840000; stroke-width:100; stroke-opacity:1; 
stroke-linecap:round; stroke-linejoin:round;">
</g>
<g style="fill:#840000; fill-opacity:0.0; 
stroke:#840000; stroke-width:60; stroke-opacity:1; 
stroke-linecap:round; stroke-linejoin:round;">
<path d="M112540 4050
L112440 4050
L112390 4070
L112370 4090
L112320 4170
L112300 4260
L112300 4460
L112320 4510
L112350 4530
L112390 4560
L112490 4560
L112540 4530
L112560 4510
L112590 4460
L112590 4340
L112560 4290
L112540 4260
L112490 4240
L112390 4240
L112350 4260
L112320 4290
L112300 4340
" />
</g>
<g style="fill:#840000; fill-opacity:0.0; 
stroke:#840000; stroke-width:100; stroke-opacity:1; 
stroke-linecap:round; stroke-linejoin:round;">
</g>
<g style="fill:#840000; fill-opacity:0.0; 
stroke:#840000; stroke-width:60; stroke-opacity:1; 
stroke-linecap:round; stroke-linejoin:round;">
<path d="M23620 77960
L23620 78740
" />
</g>
<g style="fill:#840000; fill-opacity:0.0; 
stroke:#840000; stroke-width:100; stroke-opacity:1; 
stroke-linecap:round; stroke-linejoin:round;">
</g>
<g style="fill:#840000; fill-opacity:0.0; 
stroke:#840000; stroke-width:60; stroke-opacity:1; 
stroke-linecap:round; stroke-linejoin:round;">
<path d="M43310 77960
L43310 78740
" />
</g>
<g style="fill:#840000; fill-opacity:0.0; 
stroke:#840000; stroke-width:100; stroke-opacity:1; 
stroke-linecap:round; stroke-linejoin:round;">
</g>
<g style="fill:#840000; fill-opacity:0.0; 
stroke:#840000; stroke-width:60; stroke-opacity:1; 
stroke-linecap:round; stroke-linejoin:round;">
<path d="M62990 77960
L62990 78740
" />
</g>
<g style="fill:#840000; fill-opacity:0.0; 
stroke:#840000; stroke-width:100; stroke-opacity:1; 
stroke-linecap:round; stroke-linejoin:round;">
</g>
<g style="fill:#840000; fill-opacity:0.0; 
stroke:#840000; stroke-width:60; stroke-opacity:1; 
stroke-linecap:round; stroke-linejoin:round;">
<path d="M82680 77960
L82680 78740
" />
</g>
<g style="fill:#840000; fill-opacity:0.0; 
stroke:#840000; stroke-width:100; stroke-opacity:1; 
stroke-linecap:round; stroke-linejoin:round;">
</g>
<g style="fill:#840000; fill-opacity:0.0; 
stroke:#840000; stroke-width:60; stroke-opacity:1; 
stroke-linecap:round; stroke-linejoin:round;">
<path d="M102360 77960
L102360 78740
" />
</g>
<g style="fill:#840000; fill-opacity:0.0; 
stroke:#840000; stroke-width:100; stroke-opacity:1; 
stroke-linecap:round; stroke-linejoin:round;">
</g>
<g style="fill:#840000; fill-opacity:0.0; 
stroke:#840000; stroke-width:60; stroke-opacity:1; 
stroke-linecap:round; stroke-linejoin:round;">
<path d="M14170 78580
L13880 78580
" />
<path d="M14020 78580
L14020 78070
L13970 78140
L13930 78190
L13880 78210
" />
</g>
<g style="fill:#840000; fill-opacity:0.0; 
stroke:#840000; stroke-width:100; stroke-opacity:1; 
stroke-linecap:round; stroke-linejoin:round;">
</g>
<g style="fill:#840000; fill-opacity:0.0; 
stroke:#840000; stroke-width:60; stroke-opacity:1; 
stroke-linecap:round; stroke-linejoin:round;">
<path d="M33560 78110
L33580 78090
L33630 78070
L33750 78070
L33800 78090
L33820 78110
L33850 78160
L33850 78210
L33820 78280
L33530 78580
L33850 78580
" />
</g>
<g style="fill:#840000; fill-opacity:0.0; 
stroke:#840000; stroke-width:100; stroke-opacity:1; 
stroke-linecap:round; stroke-linejoin:round;">
</g>
<g style="fill:#840000; fill-opacity:0.0; 
stroke:#840000; stroke-width:60; stroke-opacity:1; 
stroke-linecap:round; stroke-linejoin:round;">
<path d="M53220 78070
L53540 78070
L53370 78260
L53440 78260
L53490 78280
L53510 78310
L53540 78360
L53540 78480
L53510 78530
L53490 78550
L53440 78580
L53300 78580
L53250 78550
L53220 78530
" />
</g>
<g style="fill:#840000; fill-opacity:0.0; 
stroke:#840000; stroke-width:100; stroke-opacity:1; 
stroke-linecap:round; stroke-linejoin:round;">
</g>
<g style="fill:#840000; fill-opacity:0.0; 
stroke:#840000; stroke-width:60; stroke-opacity:1; 
stroke-linecap:round; stroke-linejoin:round;">
<path d="M73170 78240
L73170 78580
" />
<path d="M73050 78040
L72930 78410
L73240 78410
" />
</g>
<g style="fill:#840000; fill-opacity:0.0; 
stroke:#840000; stroke-width:100; stroke-opacity:1; 
stroke-linecap:round; stroke-linejoin:round;">
</g>
<g style="fill:#840000; fill-opacity:0.0; 
stroke:#840000; stroke-width:60; stroke-opacity:1; 
stroke-linecap:round; stroke-linejoin:round;">
<path d="M92880 78070
L92640 78070
L92620 78310
L92640 78280
L92690 78260
L92810 78260
L92860 78280
L92880 78310
L92910 78360
L92910 78480
L92880 78530
L92860 78550
L92810 78580
L92690 78580
L92640 78550
L92620 78530
" />
</g>
<g style="fill:#840000; fill-opacity:0.0; 
stroke:#840000; stroke-width:100; stroke-opacity:1; 
stroke-linecap:round; stroke-linejoin:round;">
</g>
<g style="fill:#840000; fill-opacity:0.0; 
stroke:#840000; stroke-width:60; stroke-opacity:1; 
stroke-linecap:round; stroke-linejoin:round;">
<path d="M112540 78070
L112440 78070
L112390 78090
L112370 78110
L112320 78190
L112300 78280
L112300 78480
L112320 78530
L112350 78550
L112390 78580
L112490 78580
L112540 78550
L112560 78530
L112590 78480
L112590 78360
L112560 78310
L112540 78280
L112490 78260
L112390 78260
L112350 78280
L112320 78310
L112300 78360
" />
</g>
<g style="fill:#840000; fill-opacity:0.0; 
stroke:#840000; stroke-width:100; stroke-opacity:1; 
stroke-linecap:round; stroke-linejoin:round;">
</g>
<g style="fill:#840000; fill-opacity:0.0; 
stroke:#840000; stroke-width:60; stroke-opacity:1; 
stroke-linecap:round; stroke-linejoin:round;">
<path d="M3940 23620
L4720 23620
" />
</g>
<g style="fill:#840000; fill-opacity:0.0; 
stroke:#840000; stroke-width:100; stroke-opacity:1; 
stroke-linecap:round; stroke-linejoin:round;">
</g>
<g style="fill:#840000; fill-opacity:0.0; 
stroke:#840000; stroke-width:60; stroke-opacity:1; 
stroke-linecap:round; stroke-linejoin:round;">
<path d="M3940 43310
L4720 43310
" />
</g>
<g style="fill:#840000; fill-opacity:0.0; 
stroke:#840000; stroke-width:100; stroke-opacity:1; 
stroke-linecap:round; stroke-linejoin:round;">
</g>
<g style="fill:#840000; fill-opacity:0.0; 
stroke:#840000; stroke-width:60; stroke-opacity:1; 
stroke-linecap:round; stroke-linejoin:round;">
<path d="M3940 62990
L4720 62990
" />
</g>
<g style="fill:#840000; fill-opacity:0.0; 
stroke:#840000; stroke-width:100; stroke-opacity:1; 
stroke-linecap:round; stroke-linejoin:round;">
</g>
<g style="fill:#840000; fill-opacity:0.0; 
stroke:#840000; stroke-width:60; stroke-opacity:1; 
stroke-linecap:round; stroke-linejoin:round;">
<path d="M4210 13860
L4450 13860
" />
<path d="M4160 14010
L4330 13500
L4500 14010
" />
</g>
<g style="fill:#840000; fill-opacity:0.0; 
stroke:#840000; stroke-width:100; stroke-opacity:1; 
stroke-linecap:round; stroke-linejoin:round;">
</g>
<g style="fill:#840000; fill-opacity:0.0; 
stroke:#840000; stroke-width:60; stroke-opacity:1; 
stroke-linecap:round; stroke-linejoin:round;">
<path d="M4370 33420
L4440 33440
L4470 33470
L4490 33520
L4490 33590
L4470 33640
L4440 33660
L4400 33690
L4200 33690
L4200 33180
L4370 33180
L4420 33200
L4440 33220
L4470 33270
L4470 33320
L4440 33370
L4420 33390
L4370 33420
L4200 33420
" />
</g>
<g style="fill:#840000; fill-opacity:0.0; 
stroke:#840000; stroke-width:100; stroke-opacity:1; 
stroke-linecap:round; stroke-linejoin:round;">
</g>
<g style="fill:#840000; fill-opacity:0.0; 
stroke:#840000; stroke-width:60; stroke-opacity:1; 
stroke-linecap:round; stroke-linejoin:round;">
<path d="M4490 53330
L4470 53350
L4400 53380
L4350 53380
L4270 53350
L4230 53300
L4200 53250
L4180 53160
L4180 53080
L4200 52990
L4230 52940
L4270 52890
L4350 52870
L4400 52870
L4470 52890
L4490 52910
" />
</g>
<g style="fill:#840000; fill-opacity:0.0; 
stroke:#840000; stroke-width:100; stroke-opacity:1; 
stroke-linecap:round; stroke-linejoin:round;">
</g>
<g style="fill:#840000; fill-opacity:0.0; 
stroke:#840000; stroke-width:60; stroke-opacity:1; 
stroke-linecap:round; stroke-linejoin:round;">
<path d="M4200 73060
L4200 72550
L4320 72550
L4400 72570
L4440 72620
L4470 72670
L4490 72760
L4490 72840
L4470 72930
L4440 72980
L4400 73030
L4320 73060
L4200 73060
" />
</g>
<g style="fill:#840000; fill-opacity:0.0; 
stroke:#840000; stroke-width:100; stroke-opacity:1; 
stroke-linecap:round; stroke-linejoin:round;">
</g>
<g style="fill:#840000; fill-opacity:0.0; 
stroke:#840000; stroke-width:60; stroke-opacity:1; 
stroke-linecap:round; stroke-linejoin:round;">
<path d="M112990 23620
L112210 23620
" />
</g>
<g style="fill:#840000; fill-opacity:0.0; 
stroke:#840000; stroke-width:100; stroke-opacity:1; 
stroke-linecap:round; stroke-linejoin:round;">
</g>
<g style="fill:#840000; fill-opacity:0.0; 
stroke:#840000; stroke-width:60; stroke-opacity:1; 
stroke-linecap:round; stroke-linejoin:round;">
<path d="M112990 43310
L112210 43310
" />
</g>
<g style="fill:#840000; fill-opacity:0.0; 
stroke:#840000; stroke-width:100; stroke-opacity:1; 
stroke-linecap:round; stroke-linejoin:round;">
</g>
<g style="fill:#840000; fill-opacity:0.0; 
stroke:#840000; stroke-width:60; stroke-opacity:1; 
stroke-linecap:round; stroke-linejoin:round;">
<path d="M112990 62990
L112210 62990
" />
</g>
<g style="fill:#840000; fill-opacity:0.0; 
stroke:#840000; stroke-width:100; stroke-opacity:1; 
stroke-linecap:round; stroke-linejoin:round;">
</g>
<g style="fill:#840000; fill-opacity:0.0; 
stroke:#840000; stroke-width:60; stroke-opacity:1; 
stroke-linecap:round; stroke-linejoin:round;">
<path d="M112480 13860
L112720 13860
" />
<path d="M112430 14010
L112600 13500
L112770 14010
" />
</g>
<g style="fill:#840000; fill-opacity:0.0; 
stroke:#840000; stroke-width:100; stroke-opacity:1; 
stroke-linecap:round; stroke-linejoin:round;">
</g>
<g style="fill:#840000; fill-opacity:0.0; 
stroke:#840000; stroke-width:60; stroke-opacity:1; 
stroke-linecap:round; stroke-linejoin:round;">
<path d="M112640 33420
L112710 33440
L112740 33470
L112760 33520
L112760 33590
L112740 33640
L112710 33660
L112670 33690
L112470 33690
L112470 33180
L112640 33180
L112690 33200
L112710 33220
L112740 33270
L112740 33320
L112710 33370
L112690 33390
L112640 33420
L112470 33420
" />
</g>
<g style="fill:#840000; fill-opacity:0.0; 
stroke:#840000; stroke-width:100; stroke-opacity:1; 
stroke-linecap:round; stroke-linejoin:round;">
</g>
<g style="fill:#840000; fill-opacity:0.0; 
stroke:#840000; stroke-width:60; stroke-opacity:1; 
stroke-linecap:round; stroke-linejoin:round;">
<path d="M112760 53330
L112740 53350
L112670 53380
L112620 53380
L112540 53350
L112500 53300
L112470 53250
L112450 53160
L112450 53080
L112470 52990
L112500 52940
L112540 52890
L112620 52870
L112670 52870
L112740 52890
L112760 52910
" />
</g>
<g style="fill:#840000; fill-opacity:0.0; 
stroke:#840000; stroke-width:100; stroke-opacity:1; 
stroke-linecap:round; stroke-linejoin:round;">
</g>
<g style="fill:#840000; fill-opacity:0.0; 
stroke:#840000; stroke-width:60; stroke-opacity:1; 
stroke-linecap:round; stroke-linejoin:round;">
<path d="M112470 73060
L112470 72550
L112590 72550
L112670 72570
L112710 72620
L112740 72670
L112760 72760
L112760 72840
L112740 72930
L112710 72980
L112670 73030
L112590 73060
L112470 73060
" />
</g>
<g style="fill:#840000; fill-opacity:0.0; 
stroke:#840000; stroke-width:100; stroke-opacity:1; 
stroke-linecap:round; stroke-linejoin:round;">
</g>
<g style="fill:#840000; fill-opacity:0.0; 
stroke:#840000; stroke-width:60; stroke-opacity:1; 
stroke-linecap:round; stroke-linejoin:round;">
<path d="M78880 76290
L78880 75700
L79020 75700
L79110 75730
L79160 75790
L79190 75840
L79220 75950
L79220 76040
L79190 76150
L79160 76210
L79110 76260
L79020 76290
L78880 76290
" />
<path d="M79720 76290
L79720 75980
L79700 75930
L79640 75900
L79530 75900
L79470 75930
" />
<path d="M79720 76260
L79670 76290
L79530 76290
L79470 76260
L79440 76210
L79440 76150
L79470 76100
L79530 76070
L79670 76070
L79720 76040
" />
<path d="M79920 75900
L80140 75900
" />
<path d="M80000 75700
L80000 76210
L80030 76260
L80080 76290
L80140 76290
" />
<path d="M80570 76260
L80510 76290
L80400 76290
L80340 76260
L80310 76210
L80310 75980
L80340 75930
L80400 75900
L80510 75900
L80570 75930
L80590 75980
L80590 76040
L80310 76100
" />
<path d="M80850 76240
L80880 76260
L80850 76290
L80820 76260
L80850 76240
L80850 76290
" />
<path d="M80850 75930
L80880 75950
L80850 75980
L80820 75950
L80850 75930
L80850 75980
" />
</g>
<g style="fill:#840000; fill-opacity:0.0; 
stroke:#840000; stroke-width:100; stroke-opacity:1; 
stroke-linecap:round; stroke-linejoin:round;">
</g>
<g style="fill:#840000; fill-opacity:0.0; 
stroke:#840000; stroke-width:60; stroke-opacity:1; 
stroke-linecap:round; stroke-linejoin:round;">
<path d="M69690 76580
L112210 76580
" />
</g>
<g style="fill:#840000; fill-opacity:0.0; 
stroke:#840000; stroke-width:100; stroke-opacity:1; 
stroke-linecap:round; stroke-linejoin:round;">
</g>
<g style="fill:#840000; fill-opacity:0.0; 
stroke:#840000; stroke-width:60; stroke-opacity:1; 
stroke-linecap:round; stroke-linejoin:round;">
<path d="M70220 77390
L70220 76800
" />
<path d="M70560 77390
L70300 77050
" />
<path d="M70560 76800
L70220 77140
" />
<path d="M70810 77390
L70810 77000
" />
<path d="M70810 76800
L70780 76830
L70810 76860
L70840 76830
L70810 76800
L70810 76860
" />
<path d="M71430 77340
L71400 77360
L71320 77390
L71260 77390
L71170 77360
L71120 77310
L71090 77250
L71060 77140
L71060 77050
L71090 76940
L71120 76890
L71170 76830
L71260 76800
L71320 76800
L71400 76830
L71430 76860
" />
<path d="M71930 77390
L71930 77080
L71910 77030
L71850 77000
L71740 77000
L71680 77030
" />
<path d="M71930 77360
L71880 77390
L71740 77390
L71680 77360
L71650 77310
L71650 77250
L71680 77200
L71740 77170
L71880 77170
L71930 77140
" />
<path d="M72460 77390
L72460 76800
" />
<path d="M72460 77360
L72410 77390
L72290 77390
L72240 77360
L72210 77340
L72180 77280
L72180 77110
L72210 77050
L72240 77030
L72290 77000
L72410 77000
L72460 77030
" />
<path d="M73190 77080
L73390 77080
" />
<path d="M73470 77390
L73190 77390
L73190 76800
L73470 76800
" />
<path d="M73720 77340
L73750 77360
L73720 77390
L73690 77360
L73720 77340
L73720 77390
" />
<path d="M74000 77390
L74000 76800
L74140 76800
L74230 76830
L74280 76890
L74310 76940
L74340 77050
L74340 77140
L74310 77250
L74280 77310
L74230 77360
L74140 77390
L74000 77390
" />
<path d="M74590 77340
L74620 77360
L74590 77390
L74560 77360
L74590 77340
L74590 77390
" />
<path d="M74840 77220
L75120 77220
" />
<path d="M74790 77390
L74980 76800
L75180 77390
" />
<path d="M75380 77340
L75410 77360
L75380 77390
L75350 77360
L75380 77340
L75380 77390
" />
<path d="M76560 77390
L76560 76800
" />
<path d="M76620 77170
L76790 77390
" />
<path d="M76790 77000
L76560 77220
" />
<path d="M77040 77390
L77040 77000
" />
<path d="M77040 76800
L77010 76830
L77040 76860
L77070 76830
L77040 76800
L77040 76860
" />
<path d="M77570 77360
L77520 77390
L77400 77390
L77350 77360
L77320 77340
L77290 77280
L77290 77110
L77320 77050
L77350 77030
L77400 77000
L77520 77000
L77570 77030
" />
<path d="M78080 77390
L78080 77080
L78060 77030
L78000 77000
L77890 77000
L77830 77030
" />
<path d="M78080 77360
L78030 77390
L77890 77390
L77830 77360
L77800 77310
L77800 77250
L77830 77200
L77890 77170
L78030 77170
L78080 77140
" />
<path d="M78610 77390
L78610 76800
" />
<path d="M78610 77360
L78560 77390
L78440 77390
L78390 77360
L78360 77340
L78330 77280
L78330 77110
L78360 77050
L78390 77030
L78440 77000
L78560 77000
L78610 77030
" />
<path d="M79590 77000
L79590 77390
" />
<path d="M79450 76770
L79310 77200
L79680 77200
" />
<path d="M79900 77340
L79930 77360
L79900 77390
L79870 77360
L79900 77340
L79900 77390
" />
<path d="M80290 76800
L80350 76800
L80410 76830
L80430 76860
L80460 76910
L80490 77030
L80490 77170
L80460 77280
L80430 77340
L80410 77360
L80350 77390
L80290 77390
L80240 77360
L80210 77340
L80180 77280
L80150 77170
L80150 77030
L80180 76910
L80210 76860
L80240 76830
L80290 76800
" />
<path d="M80740 77340
L80770 77360
L80740 77390
L80710 77360
L80740 77340
L80740 77390
" />
<path d="M81270 76800
L81160 76800
L81100 76830
L81080 76860
L81020 76940
L80990 77050
L80990 77280
L81020 77340
L81050 77360
L81100 77390
L81220 77390
L81270 77360
L81300 77340
L81330 77280
L81330 77140
L81300 77080
L81270 77050
L81220 77030
L81100 77030
L81050 77050
L81020 77080
L80990 77140
" />
</g>
<g style="fill:#840000; fill-opacity:0.0; 
stroke:#840000; stroke-width:100; stroke-opacity:1; 
stroke-linecap:round; stroke-linejoin:round;">
</g>
<g style="fill:#840000; fill-opacity:0.0; 
stroke:#840000; stroke-width:60; stroke-opacity:1; 
stroke-linecap:round; stroke-linejoin:round;">
<path d="M69690 75400
L112210 75400
" />
</g>
<g style="fill:#840000; fill-opacity:0.0; 
stroke:#840000; stroke-width:100; stroke-opacity:1; 
stroke-linecap:round; stroke-linejoin:round;">
</g>
<g style="fill:#840000; fill-opacity:0.0; 
stroke:#840000; stroke-width:120; stroke-opacity:1; 
stroke-linecap:round; stroke-linejoin:round;">
<path d="M104020 76290
L103820 76010
" />
<path d="M103680 76290
L103680 75700
L103910 75700
L103960 75730
L103990 75760
L104020 75810
L104020 75900
L103990 75950
L103960 75980
L103910 76010
L103680 76010
" />
<path d="M104500 76260
L104440 76290
L104330 76290
L104270 76260
L104240 76210
L104240 75980
L104270 75930
L104330 75900
L104440 75900
L104500 75930
L104520 75980
L104520 76040
L104240 76100
" />
<path d="M104720 75900
L104860 76290
L105010 75900
" />
<path d="M105230 76240
L105260 76260
L105230 76290
L105200 76260
L105230 76240
L105230 76290
" />
<path d="M105230 75930
L105260 75950
L105230 75980
L105200 75950
L105230 75930
L105230 75980
" />
</g>
<g style="fill:#840000; fill-opacity:0.0; 
stroke:#840000; stroke-width:100; stroke-opacity:1; 
stroke-linecap:round; stroke-linejoin:round;">
</g>
<g style="fill:#840000; fill-opacity:0.0; 
stroke:#840000; stroke-width:60; stroke-opacity:1; 
stroke-linecap:round; stroke-linejoin:round;">
<path d="M70190 76260
L70280 76290
L70420 76290
L70470 76260
L70500 76240
L70530 76180
L70530 76120
L70500 76070
L70470 76040
L70420 76010
L70300 75980
L70250 75950
L70220 75930
L70190 75870
L70190 75810
L70220 75760
L70250 75730
L70300 75700
L70450 75700
L70530 75730
" />
<path d="M70780 76290
L70780 75900
" />
<path d="M70780 75700
L70750 75730
L70780 75760
L70810 75730
L70780 75700
L70780 75760
" />
<path d="M71000 75900
L71310 75900
L71000 76290
L71310 76290
" />
<path d="M71770 76260
L71710 76290
L71600 76290
L71540 76260
L71510 76210
L71510 75980
L71540 75930
L71600 75900
L71710 75900
L71770 75930
L71790 75980
L71790 76040
L71510 76100
" />
<path d="M72050 76240
L72080 76260
L72050 76290
L72020 76260
L72050 76240
L72050 76290
" />
<path d="M72050 75930
L72080 75950
L72050 75980
L72020 75950
L72050 75930
L72050 75980
" />
<path d="M72750 76120
L73030 76120
" />
<path d="M72700 76290
L72890 75700
L73090 76290
" />
<path d="M73540 75900
L73540 76290
" />
<path d="M73400 75670
L73260 76100
L73630 76100
" />
</g>
<g style="fill:#840000; fill-opacity:0.0; 
stroke:#840000; stroke-width:100; stroke-opacity:1; 
stroke-linecap:round; stroke-linejoin:round;">
</g>
<g style="fill:#840000; fill-opacity:0.0; 
stroke:#840000; stroke-width:60; stroke-opacity:1; 
stroke-linecap:round; stroke-linejoin:round;">
<path d="M103680 77390
L103680 76800
" />
<path d="M104210 77390
L104210 76800
" />
<path d="M104210 77360
L104160 77390
L104040 77390
L103990 77360
L103960 77340
L103930 77280
L103930 77110
L103960 77050
L103990 77030
L104040 77000
L104160 77000
L104210 77030
" />
<path d="M104490 77340
L104520 77360
L104490 77390
L104460 77360
L104490 77340
L104490 77390
" />
<path d="M104490 77030
L104520 77050
L104490 77080
L104460 77050
L104490 77030
L104490 77080
" />
<path d="M105530 77390
L105190 77390
" />
<path d="M105360 77390
L105360 76800
L105300 76890
L105250 76940
L105190 76970
" />
<path d="M106200 76770
L105700 77530
" />
<path d="M106710 77390
L106370 77390
" />
<path d="M106540 77390
L106540 76800
L106480 76890
L106430 76940
L106370 76970
" />
</g>
<g style="fill:#840000; fill-opacity:0.0; 
stroke:#840000; stroke-width:100; stroke-opacity:1; 
stroke-linecap:round; stroke-linejoin:round;">
</g>
<g style="fill:#840000; fill-opacity:0.0; 
stroke:#840000; stroke-width:60; stroke-opacity:1; 
stroke-linecap:round; stroke-linejoin:round;">
<path d="M69690 73820
L112210 73820
" />
</g>
<g style="fill:#840000; fill-opacity:0.0; 
stroke:#840000; stroke-width:100; stroke-opacity:1; 
stroke-linecap:round; stroke-linejoin:round;">
</g>
<g style="fill:#840000; fill-opacity:0.0; 
stroke:#840000; stroke-width:160; stroke-opacity:1; 
stroke-linecap:round; stroke-linejoin:round;">
<path d="M70260 74090
L70710 74090
" />
<path d="M70390 74880
L70480 74090
" />
<path d="M70880 74880
L70940 74360
" />
<path d="M70970 74090
L70930 74130
L70960 74170
L71010 74130
L70970 74090
L70960 74170
" />
<path d="M71210 74360
L71510 74360
" />
<path d="M71350 74090
L71270 74770
L71300 74840
L71370 74880
L71450 74880
" />
<path d="M71820 74880
L71750 74840
L71720 74770
L71800 74090
" />
<path d="M72420 74840
L72340 74880
L72190 74880
L72120 74840
L72090 74770
L72130 74470
L72180 74390
L72250 74360
L72400 74360
L72480 74390
L72510 74470
L72500 74540
L72110 74620
" />
<path d="M72800 74810
L72840 74840
L72800 74880
L72760 74840
L72800 74810
L72800 74880
" />
<path d="M72860 74390
L72890 74430
L72850 74470
L72810 74430
L72860 74390
L72850 74470
" />
</g>
<g style="fill:#840000; fill-opacity:0.0; 
stroke:#840000; stroke-width:100; stroke-opacity:1; 
stroke-linecap:round; stroke-linejoin:round;">
</g>
<g style="fill:#840000; fill-opacity:0.0; 
stroke:#840000; stroke-width:60; stroke-opacity:1; 
stroke-linecap:round; stroke-linejoin:round;">
<path d="M70420 73060
L70220 73060
" />
<path d="M70220 73370
L70220 72780
L70500 72780
" />
<path d="M70730 73370
L70730 72980
" />
<path d="M70730 72780
L70700 72810
L70730 72840
L70760 72810
L70730 72780
L70730 72840
" />
<path d="M71090 73370
L71040 73340
L71010 73290
L71010 72780
" />
<path d="M71550 73340
L71490 73370
L71380 73370
L71320 73340
L71290 73290
L71290 73060
L71320 73010
L71380 72980
L71490 72980
L71550 73010
L71570 73060
L71570 73120
L71290 73180
" />
<path d="M71830 73320
L71860 73340
L71830 73370
L71800 73340
L71830 73320
L71830 73370
" />
<path d="M71830 73010
L71860 73030
L71830 73060
L71800 73030
L71830 73010
L71830 73060
" />
<path d="M72560 73370
L72560 72780
L72790 72780
L72840 72810
L72870 72840
L72900 72890
L72900 72980
L72870 73030
L72840 73060
L72790 73090
L72560 73090
" />
<path d="M73230 73370
L73180 73340
L73150 73320
L73120 73260
L73120 73090
L73150 73030
L73180 73010
L73230 72980
L73320 72980
L73380 73010
L73400 73030
L73430 73090
L73430 73260
L73400 73320
L73380 73340
L73320 73370
L73230 73370
" />
<path d="M73680 73370
L73680 72980
" />
<path d="M73680 73090
L73710 73030
L73740 73010
L73790 72980
L73850 72980
" />
<path d="M73970 72980
L74190 72980
" />
<path d="M74050 72780
L74050 73290
L74080 73340
L74130 73370
L74190 73370
" />
<path d="M74390 73150
L74840 73150
" />
<path d="M75120 72780
L75120 73260
L75150 73320
L75180 73340
L75230 73370
L75350 73370
L75400 73340
L75430 73320
L75460 73260
L75460 72780
" />
<path d="M75710 73340
L75800 73370
L75940 73370
L75990 73340
L76020 73320
L76050 73260
L76050 73200
L76020 73150
L75990 73120
L75940 73090
L75820 73060
L75770 73030
L75740 73010
L75710 72950
L75710 72890
L75740 72840
L75770 72810
L75820 72780
L75970 72780
L76050 72810
" />
<path d="M76500 73060
L76580 73090
L76610 73120
L76640 73180
L76640 73260
L76610 73320
L76580 73340
L76530 73370
L76300 73370
L76300 72780
L76500 72780
L76550 72810
L76580 72840
L76610 72890
L76610 72950
L76580 73010
L76550 73030
L76500 73060
L76300 73060
" />
<path d="M76890 73150
L77340 73150
" />
<path d="M77820 73060
L77900 73090
L77930 73120
L77960 73180
L77960 73260
L77930 73320
L77900 73340
L77850 73370
L77620 73370
L77620 72780
L77820 72780
L77870 72810
L77900 72840
L77930 72890
L77930 72950
L77900 73010
L77870 73030
L77820 73060
L77620 73060
" />
<path d="M78460 72980
L78460 73370
" />
<path d="M78210 72980
L78210 73290
L78240 73340
L78290 73370
L78380 73370
L78440 73340
L78460 73320
" />
<path d="M78660 72980
L78880 72980
" />
<path d="M78740 73370
L78740 72870
L78770 72810
L78820 72780
L78880 72780
" />
<path d="M79000 72980
L79220 72980
" />
<path d="M79080 73370
L79080 72870
L79110 72810
L79160 72780
L79220 72780
" />
<path d="M79650 73340
L79590 73370
L79480 73370
L79420 73340
L79390 73290
L79390 73060
L79420 73010
L79480 72980
L79590 72980
L79650 73010
L79670 73060
L79670 73120
L79390 73180
" />
<path d="M79930 73370
L79930 72980
" />
<path d="M79930 73090
L79960 73030
L79990 73010
L80040 72980
L80100 72980
" />
<path d="M80300 73320
L80330 73340
L80300 73370
L80270 73340
L80300 73320
L80300 73370
" />
<path d="M80550 73340
L80610 73370
L80720 73370
L80780 73340
L80810 73290
L80810 73260
L80780 73200
L80720 73180
L80640 73180
L80580 73150
L80550 73090
L80550 73060
L80580 73010
L80640 72980
L80720 72980
L80780 73010
" />
<path d="M81310 73340
L81260 73370
L81140 73370
L81090 73340
L81060 73320
L81030 73260
L81030 73090
L81060 73030
L81090 73010
L81140 72980
L81260 72980
L81310 73010
" />
<path d="M81570 73370
L81570 72780
" />
<path d="M81820 73370
L81820 73060
L81800 73010
L81740 72980
L81650 72980
L81600 73010
L81570 73030
" />
</g>
<g style="fill:#840000; fill-opacity:0.0; 
stroke:#840000; stroke-width:100; stroke-opacity:1; 
stroke-linecap:round; stroke-linejoin:round;">
</g>
<g style="fill:#840000; fill-opacity:0.0; 
stroke:#840000; stroke-width:60; stroke-opacity:1; 
stroke-linecap:round; stroke-linejoin:round;">
<path d="M69690 71460
L112210 71460
" />
</g>
<g style="fill:#840000; fill-opacity:0.0; 
stroke:#840000; stroke-width:100; stroke-opacity:1; 
stroke-linecap:round; stroke-linejoin:round;">
</g>
<g style="fill:#840000; fill-opacity:0.0; 
stroke:#840000; stroke-width:60; stroke-opacity:1; 
stroke-linecap:round; stroke-linejoin:round;">
<path d="M70190 72280
L70280 72310
L70420 72310
L70470 72280
L70500 72260
L70530 72200
L70530 72140
L70500 72090
L70470 72060
L70420 72030
L70300 72000
L70250 71970
L70220 71950
L70190 71890
L70190 71830
L70220 71780
L70250 71750
L70300 71720
L70450 71720
L70530 71750
" />
<path d="M70780 72310
L70780 71720
" />
<path d="M71030 72310
L71030 72000
L71010 71950
L70950 71920
L70860 71920
L70810 71950
L70780 71970
" />
<path d="M71540 72280
L71480 72310
L71370 72310
L71310 72280
L71280 72230
L71280 72000
L71310 71950
L71370 71920
L71480 71920
L71540 71950
L71560 72000
L71560 72060
L71280 72120
" />
<path d="M72050 72280
L71990 72310
L71880 72310
L71820 72280
L71790 72230
L71790 72000
L71820 71950
L71880 71920
L71990 71920
L72050 71950
L72070 72000
L72070 72060
L71790 72120
" />
<path d="M72250 71920
L72470 71920
" />
<path d="M72330 71720
L72330 72230
L72360 72280
L72410 72310
L72470 72310
" />
<path d="M72670 72260
L72700 72280
L72670 72310
L72640 72280
L72670 72260
L72670 72310
" />
<path d="M72670 71950
L72700 71970
L72670 72000
L72640 71970
L72670 71950
L72670 72000
" />
<path d="M73820 71690
L73320 72450
" />
</g>
<g style="fill:#840000; fill-opacity:0.0; 
stroke:#840000; stroke-width:100; stroke-opacity:1; 
stroke-linecap:round; stroke-linejoin:round;">
</g>
<g style="fill:#840000; fill-opacity:0.0; 
stroke:#840000; stroke-width:60; stroke-opacity:1; 
stroke-linecap:round; stroke-linejoin:round;">
<path d="M77560 75400
L77560 76580
" />
</g>
<g style="fill:#840000; fill-opacity:0.0; 
stroke:#840000; stroke-width:100; stroke-opacity:1; 
stroke-linecap:round; stroke-linejoin:round;">
</g>
<g style="fill:#840000; fill-opacity:0.0; 
stroke:#840000; stroke-width:60; stroke-opacity:1; 
stroke-linecap:round; stroke-linejoin:round;">
<path d="M102760 75400
L102760 77960
" />
</g>
<g style="fill:#840000; fill-opacity:0.0; 
stroke:#840000; stroke-width:0; stroke-opacity:1; 
stroke-linecap:round; stroke-linejoin:round;">
</g>
<g style="fill:#FFFFC2; fill-opacity:0.0; 
stroke:#FFFFC2; stroke-width:0; stroke-opacity:1; 
stroke-linecap:round; stroke-linejoin:round;">
</g>
<g style="fill:#FFFFC2; fill-opacity:0.6; 
stroke:#FFFFC2; stroke-width:0; stroke-opacity:1; 
stroke-linecap:round; stroke-linejoin:round;">
<rect x="52000" y="38500" width="6000" height="6000" rx="0" />
</g>
<g style="fill:#840000; fill-opacity:0.6; 
stroke:#840000; stroke-width:0; stroke-opacity:1; 
stroke-linecap:round; stroke-linejoin:round;">
</g>
<g style="fill:#840000; fill-opacity:0.0; 
stroke:#840000; stroke-width:100; stroke-opacity:1; 
stroke-linecap:round; stroke-linejoin:round;">
<rect x="52000" y="38500" width="6000" height="6000" rx="0" />
</g>
<g style="fill:#840000; fill-opacity:0.0; 
stroke:#840000; stroke-width:60; stroke-opacity:1; 
stroke-linecap:round; stroke-linejoin:round;">
<path d="M58000 43500
L59000 43500
" />
</g>
<g style="fill:#008484; fill-opacity:0.0; 
stroke:#008484; stroke-width:60; stroke-opacity:1; 
stroke-linecap:round; stroke-linejoin:round;">
<path d="M56200 43730
L56200 43230
L56320 43230
L56390 43250
L56440 43300
L56460 43350
L56480 43440
L56480 43510
L56460 43610
L56440 43650
L56390 43700
L56320 43730
L56200 43730
" />
<path d="M56700 43730
L56700 43230
L56890 43230
L56940 43250
L56960 43270
L56980 43320
L56980 43390
L56960 43440
L56940 43460
L56890 43490
L56700 43490
" />
<path d="M57290 43230
L57390 43230
L57440 43250
L57480 43300
L57510 43390
L57510 43560
L57480 43650
L57440 43700
L57390 43730
L57290 43730
L57250 43700
L57200 43650
L57180 43560
L57180 43390
L57200 43300
L57250 43250
L57290 43230
" />
</g>
<g style="fill:#840000; fill-opacity:0.0; 
stroke:#840000; stroke-width:60; stroke-opacity:1; 
stroke-linecap:round; stroke-linejoin:round;">
<path d="M58640 43380
L58360 43380
" />
<path d="M58500 43380
L58500 42880
L58450 42950
L58400 43000
L58360 43020
" />
<path d="M55000 44500
L55000 45500
" />
</g>
<g style="fill:#008484; fill-opacity:0.0; 
stroke:#008484; stroke-width:60; stroke-opacity:1; 
stroke-linecap:round; stroke-linejoin:round;">
<path d="M54750 43720
L54730 43770
L54730 43840
L54750 43910
L54800 43960
L54850 43980
L54940 44000
L55010 44000
L55110 43980
L55150 43960
L55200 43910
L55230 43840
L55230 43790
L55200 43720
L55180 43700
L55010 43700
L55010 43790
" />
<path d="M55230 43480
L54730 43480
L55230 43200
L54730 43200
" />
<path d="M55230 42960
L54730 42960
L54730 42840
L54750 42770
L54800 42720
L54850 42700
L54940 42680
L55010 42680
L55110 42700
L55150 42720
L55200 42770
L55230 42840
L55230 42960
" />
</g>
<g style="fill:#840000; fill-opacity:0.0; 
stroke:#840000; stroke-width:60; stroke-opacity:1; 
stroke-linecap:round; stroke-linejoin:round;">
<path d="M54420 45140
L54400 45120
L54380 45070
L54380 44950
L54400 44910
L54420 44880
L54470 44860
L54520 44860
L54590 44880
L54880 45170
L54880 44860
" />
<path d="M58000 39500
L59000 39500
" />
</g>
<g style="fill:#008484; fill-opacity:0.0; 
stroke:#008484; stroke-width:60; stroke-opacity:1; 
stroke-linecap:round; stroke-linejoin:round;">
<path d="M56130 39730
L56130 39230
L56250 39230
L56320 39250
L56370 39300
L56390 39350
L56410 39440
L56410 39510
L56390 39610
L56370 39650
L56320 39700
L56250 39730
L56130 39730
" />
<path d="M56630 39730
L56630 39230
L56800 39580
L56960 39230
L56960 39730
" />
<path d="M57290 39230
L57390 39230
L57440 39250
L57480 39300
L57510 39390
L57510 39560
L57480 39650
L57440 39700
L57390 39730
L57290 39730
L57250 39700
L57200 39650
L57180 39560
L57180 39390
L57200 39300
L57250 39250
L57290 39230
" />
</g>
<g style="fill:#840000; fill-opacity:0.0; 
stroke:#840000; stroke-width:60; stroke-opacity:1; 
stroke-linecap:round; stroke-linejoin:round;">
<path d="M58330 38880
L58640 38880
L58470 39070
L58550 39070
L58590 39090
L58620 39110
L58640 39160
L58640 39280
L58620 39330
L58590 39350
L58550 39380
L58400 39380
L58360 39350
L58330 39330
" />
<path d="M52000 39500
L51000 39500
" />
</g>
<g style="fill:#008484; fill-opacity:0.0; 
stroke:#008484; stroke-width:60; stroke-opacity:1; 
stroke-linecap:round; stroke-linejoin:round;">
<path d="M52520 39730
L52520 39230
L52640 39230
L52710 39250
L52760 39300
L52780 39350
L52800 39440
L52800 39510
L52780 39610
L52760 39650
L52710 39700
L52640 39730
L52520 39730
" />
<path d="M53020 39730
L53020 39230
L53190 39580
L53350 39230
L53350 39730
" />
<path d="M53590 39730
L53590 39230
" />
</g>
<g style="fill:#840000; fill-opacity:0.0; 
stroke:#840000; stroke-width:60; stroke-opacity:1; 
stroke-linecap:round; stroke-linejoin:round;">
<path d="M51590 39040
L51590 39380
" />
<path d="M51470 38850
L51360 39210
L51660 39210
" />
<path d="M55000 38500
L55000 37500
" />
</g>
<g style="fill:#008484; fill-opacity:0.0; 
stroke:#008484; stroke-width:60; stroke-opacity:1; 
stroke-linecap:round; stroke-linejoin:round;">
<path d="M54730 40780
L55230 40620
L54730 40450
" />
<path d="M54960 40110
L54990 40040
L55010 40020
L55060 40000
L55130 40000
L55180 40020
L55200 40040
L55230 40090
L55230 40280
L54730 40280
L54730 40110
L54750 40070
L54770 40040
L54820 40020
L54870 40020
L54920 40040
L54940 40070
L54960 40110
L54960 40280
" />
<path d="M54730 39780
L55130 39780
L55180 39760
L55200 39730
L55230 39690
L55230 39590
L55200 39540
L55180 39520
L55130 39500
L54730 39500
" />
<path d="M55200 39280
L55230 39210
L55230 39090
L55200 39050
L55180 39020
L55130 39000
L55080 39000
L55040 39020
L55010 39050
L54990 39090
L54960 39190
L54940 39240
L54920 39260
L54870 39280
L54820 39280
L54770 39260
L54750 39240
L54730 39190
L54730 39070
L54750 39000
" />
</g>
<g style="fill:#840000; fill-opacity:0.0; 
stroke:#840000; stroke-width:60; stroke-opacity:1; 
stroke-linecap:round; stroke-linejoin:round;">
<path d="M54380 37880
L54380 38120
L54610 38140
L54590 38120
L54570 38070
L54570 37950
L54590 37910
L54610 37880
L54660 37860
L54780 37860
L54830 37880
L54850 37910
L54880 37950
L54880 38070
L54850 38120
L54830 38140
" />
<path d="M52000 43500
L51000 43500
" />
</g>
<g style="fill:#008484; fill-opacity:0.0; 
stroke:#008484; stroke-width:60; stroke-opacity:1; 
stroke-linecap:round; stroke-linejoin:round;">
<path d="M52520 43730
L52520 43230
L52640 43230
L52710 43250
L52760 43300
L52780 43350
L52800 43440
L52800 43510
L52780 43610
L52760 43650
L52710 43700
L52640 43730
L52520 43730
" />
<path d="M53020 43730
L53020 43230
L53210 43230
L53260 43250
L53280 43270
L53300 43320
L53300 43390
L53280 43440
L53260 43460
L53210 43490
L53020 43490
" />
<path d="M53520 43730
L53520 43230
" />
</g>
<g style="fill:#840000; fill-opacity:0.0; 
stroke:#840000; stroke-width:60; stroke-opacity:1; 
stroke-linecap:round; stroke-linejoin:round;">
<path d="M51590 42880
L51500 42880
L51450 42900
L51430 42920
L51380 43000
L51360 43090
L51360 43280
L51380 43330
L51400 43350
L51450 43380
L51550 43380
L51590 43350
L51620 43330
L51640 43280
L51640 43160
L51620 43110
L51590 43090
L51550 43070
L51450 43070
L51400 43090
L51380 43110
L51360 43160
" />
</g>
<g style="fill:#008484; fill-opacity:0.0; 
stroke:#008484; stroke-width:60; stroke-opacity:1; 
stroke-linecap:round; stroke-linejoin:round;">
<path d="M52120 37760
L52120 38160
L52140 38210
L52170 38230
L52210 38260
L52310 38260
L52360 38230
L52380 38210
L52400 38160
L52400 37760
" />
<path d="M52900 38260
L52620 38260
" />
<path d="M52760 38260
L52760 37760
L52710 37830
L52660 37880
L52620 37900
" />
<path d="M56120 38260
L56120 37760
L56400 38260
L56400 37760
" />
<path d="M56640 37760
L56640 38160
L56660 38210
L56690 38230
L56730 38260
L56830 38260
L56880 38230
L56900 38210
L56920 38160
L56920 37760
" />
<path d="M57330 37990
L57160 37990
" />
<path d="M57160 38260
L57160 37760
L57400 37760
" />
<path d="M57570 37800
L57590 37780
L57640 37760
L57760 37760
L57800 37780
L57830 37800
L57850 37850
L57850 37900
L57830 37970
L57540 38260
L57850 38260
" />
<path d="M58160 37760
L58210 37760
L58260 37780
L58280 37800
L58310 37850
L58330 37950
L58330 38070
L58310 38160
L58280 38210
L58260 38230
L58210 38260
L58160 38260
L58120 38230
L58090 38210
L58070 38160
L58050 38070
L58050 37950
L58070 37850
L58090 37800
L58120 37780
L58160 37760
" />
<path d="M58760 37920
L58760 38260
" />
<path d="M58640 37730
L58530 38090
L58830 38090
" />
<path d="M59010 37800
L59030 37780
L59080 37760
L59200 37760
L59240 37780
L59270 37800
L59290 37850
L59290 37900
L59270 37970
L58980 38260
L59290 38260
" />
<path d="M59460 37760
L59790 38260
" />
<path d="M59790 37760
L59460 38260
" />
<path d="M59920 37760
L60080 38260
L60250 37760
" />
<path d="M60630 37760
L60540 37760
L60490 37780
L60470 37800
L60420 37880
L60400 37970
L60400 38160
L60420 38210
L60440 38230
L60490 38260
L60590 38260
L60630 38230
L60660 38210
L60680 38160
L60680 38040
L60660 37990
L60630 37970
L60590 37950
L60490 37950
L60440 37970
L60420 37990
L60400 38040
" />
</g>
<g style="fill:#008484; fill-opacity:0.0; 
stroke:#008484; stroke-width:0; stroke-opacity:1; 
stroke-linecap:round; stroke-linejoin:round;">
</g>
<g style="fill:#840000; fill-opacity:0.0; 
stroke:#840000; stroke-width:0; stroke-opacity:1; 
stroke-linecap:round; stroke-linejoin:round;">
</g>
<g style="fill:#840000; fill-opacity:0.0; 
stroke:#840000; stroke-width:60; stroke-opacity:1; 
stroke-linecap:round; stroke-linejoin:round;">
<polyline fill="none;"
points="55000,46500
55000,47000
55500,47000
55000,47500
54500,47000
55000,47000
" /> 
</g>
<g style="fill:#008484; fill-opacity:0.0; 
stroke:#008484; stroke-width:60; stroke-opacity:1; 
stroke-linecap:round; stroke-linejoin:round;">
<path d="M54620 47780
L54570 47760
L54500 47760
L54430 47780
L54380 47830
L54360 47880
L54340 47970
L54340 48040
L54360 48140
L54380 48180
L54430 48230
L54500 48260
L54550 48260
L54620 48230
L54640 48210
L54640 48040
L54550 48040
" />
<path d="M54860 48260
L54860 47760
L55140 48260
L55140 47760
" />
<path d="M55380 48260
L55380 47760
L55500 47760
L55570 47780
L55620 47830
L55640 47880
L55660 47970
L55660 48040
L55640 48140
L55620 48180
L55570 48230
L55500 48260
L55380 48260
" />
</g>
<g style="fill:#008400; fill-opacity:0.0; 
stroke:#008400; stroke-width:60; stroke-opacity:1; 
stroke-linecap:round; stroke-linejoin:round;">
<path d="M55000 45500
L55000 46500
" />
<path d="M49000 43500
L51000 43500
" />
<path d="M49500 36000
L49500 38000
" />
<path d="M49500 38000
L47500 38000
" />
</g>
<g style="fill:#008400; fill-opacity:0.0; 
stroke:#008400; stroke-width:0; stroke-opacity:1; 
stroke-linecap:round; stroke-linejoin:round;">
</g>
<g style="fill:#840000; fill-opacity:0.0; 
stroke:#840000; stroke-width:0; stroke-opacity:1; 
stroke-linecap:round; stroke-linejoin:round;">
</g>
<g style="fill:#840000; fill-opacity:0.0; 
stroke:#840000; stroke-width:80; stroke-opacity:1; 
stroke-linecap:round; stroke-linejoin:round;">
<rect x="52300" y="32700" width="1400" height="600" rx="0" />
</g>
<g style="fill:#840000; fill-opacity:0.0; 
stroke:#840000; stroke-width:60; stroke-opacity:1; 
stroke-linecap:round; stroke-linejoin:round;">
<path d="M53700 33000
L54000 33000
" />
<path d="M52300 33000
L52000 33000
" />
</g>
<g style="fill:#008484; fill-opacity:0.0; 
stroke:#008484; stroke-width:60; stroke-opacity:1; 
stroke-linecap:round; stroke-linejoin:round;">
<path d="M53390 33880
L53150 34040
" />
<path d="M53390 34160
L52890 34160
L52890 33970
L52910 33920
L52930 33900
L52980 33880
L53050 33880
L53100 33900
L53120 33920
L53150 33970
L53150 34160
" />
<path d="M53390 33400
L53390 33680
" />
<path d="M53390 33540
L52890 33540
L52960 33590
L53010 33640
L53030 33680
" />
<path d="M52790 34380
L52790 34660
" />
<path d="M52790 34520
L52290 34520
L52360 34570
L52410 34620
L52430 34660
" />
<path d="M52790 34160
L52290 34160
" />
<path d="M52790 33880
L52500 34090
" />
<path d="M52290 33880
L52570 34160
" />
<path d="M52290 33420
L52290 33660
L52520 33680
L52500 33660
L52480 33610
L52480 33490
L52500 33450
L52520 33420
L52570 33400
L52690 33400
L52740 33420
L52760 33450
L52790 33490
L52790 33610
L52760 33660
L52740 33680
" />
</g>
<g style="fill:#008400; fill-opacity:0.0; 
stroke:#008400; stroke-width:60; stroke-opacity:1; 
stroke-linecap:round; stroke-linejoin:round;">
<path d="M50500 33000
L50500 43500
" />
</g>
<g style="fill:#008400; fill-opacity:0.0; 
stroke:#008400; stroke-width:0; stroke-opacity:1; 
stroke-linecap:round; stroke-linejoin:round;">
</g>
<g style="fill:#008400; fill-opacity:1.0; 
stroke:#008400; stroke-width:100; stroke-opacity:1; 
stroke-linecap:round; stroke-linejoin:round;">
<circle cx="50500" cy="43500" r="200" /> 
</g>
<g style="fill:#008400; fill-opacity:1.0; 
stroke:#008400; stroke-width:60; stroke-opacity:1; 
stroke-linecap:round; stroke-linejoin:round;">
</g>
<g style="fill:#008400; fill-opacity:0.0; 
stroke:#008400; stroke-width:60; stroke-opacity:1; 
stroke-linecap:round; stroke-linejoin:round;">
<path d="M51000 39500
L49500 39500
" />
<path d="M49500 39500
L49500 41000
" />
<path d="M55000 36000
L55000 37500
" />
<path d="M48500 36000
L55500 36000
" />
</g>
<g style="fill:#008400; fill-opacity:0.0; 
stroke:#008400; stroke-width:0; stroke-opacity:1; 
stroke-linecap:round; stroke-linejoin:round;">
</g>
<g style="fill:#840000; fill-opacity:0.0; 
stroke:#840000; stroke-width:0; stroke-opacity:1; 
stroke-linecap:round; stroke-linejoin:round;">
</g>
<g style="fill:#840000; fill-opacity:0.0; 
stroke:#840000; stroke-width:80; stroke-opacity:1; 
stroke-linecap:round; stroke-linejoin:round;">
<rect x="55800" y="35700" width="1400" height="600" rx="0" />
</g>
<g style="fill:#840000; fill-opacity:0.0; 
stroke:#840000; stroke-width:60; stroke-opacity:1; 
stroke-linecap:round; stroke-linejoin:round;">
<path d="M55800 36000
L55500 36000
" />
<path d="M57200 36000
L57500 36000
" />
</g>
<g style="fill:#008484; fill-opacity:0.0; 
stroke:#008484; stroke-width:60; stroke-opacity:1; 
stroke-linecap:round; stroke-linejoin:round;">
<path d="M56420 34190
L56260 33950
" />
<path d="M56140 34190
L56140 33690
L56330 33690
L56380 33710
L56400 33730
L56420 33780
L56420 33850
L56400 33900
L56380 33920
L56330 33950
L56140 33950
" />
<path d="M56620 33730
L56640 33710
L56690 33690
L56810 33690
L56850 33710
L56880 33730
L56900 33780
L56900 33830
L56880 33900
L56590 34190
L56900 34190
" />
<path d="M56420 35190
L56140 35190
" />
<path d="M56280 35190
L56280 34690
L56230 34760
L56180 34810
L56140 34830
" />
<path d="M56730 34690
L56780 34690
L56830 34710
L56850 34730
L56880 34780
L56900 34880
L56900 35000
L56880 35090
L56850 35140
L56830 35160
L56780 35190
L56730 35190
L56690 35160
L56660 35140
L56640 35090
L56620 35000
L56620 34880
L56640 34780
L56660 34730
L56690 34710
L56730 34690
" />
<path d="M57120 35190
L57120 34690
" />
<path d="M57400 35190
L57190 34900
" />
<path d="M57400 34690
L57120 34970
" />
</g>
<g style="fill:#008484; fill-opacity:0.0; 
stroke:#008484; stroke-width:0; stroke-opacity:1; 
stroke-linecap:round; stroke-linejoin:round;">
</g>
<g style="fill:#008400; fill-opacity:0.0; 
stroke:#008400; stroke-width:0; stroke-opacity:1; 
stroke-linecap:round; stroke-linejoin:round;">
</g>
<g style="fill:#008400; fill-opacity:1.0; 
stroke:#008400; stroke-width:100; stroke-opacity:1; 
stroke-linecap:round; stroke-linejoin:round;">
<circle cx="55000" cy="36000" r="200" /> 
</g>
<g style="fill:#008400; fill-opacity:1.0; 
stroke:#008400; stroke-width:60; stroke-opacity:1; 
stroke-linecap:round; stroke-linejoin:round;">
</g>
<g style="fill:#008400; fill-opacity:0.0; 
stroke:#008400; stroke-width:60; stroke-opacity:1; 
stroke-linecap:round; stroke-linejoin:round;">
<path d="M60500 36000
L57500 36000
" />
<path d="M60500 39500
L59000 39500
" />
<path d="M60500 43500
L59000 43500
" />
</g>
<g style="fill:#008400; fill-opacity:0.0; 
stroke:#008400; stroke-width:0; stroke-opacity:1; 
stroke-linecap:round; stroke-linejoin:round;">
</g>
<g style="fill:#008400; fill-opacity:1.0; 
stroke:#008400; stroke-width:100; stroke-opacity:1; 
stroke-linecap:round; stroke-linejoin:round;">
<circle cx="49500" cy="36000" r="200" /> 
</g>
<g style="fill:#008400; fill-opacity:1.0; 
stroke:#008400; stroke-width:60; stroke-opacity:1; 
stroke-linecap:round; stroke-linejoin:round;">
</g>
<g style="fill:#0000C2; fill-opacity:0.0; 
stroke:#0000C2; stroke-width:60; stroke-opacity:1; 
stroke-linecap:round; stroke-linejoin:round;">
<path d="M52140 23870
L52140 24360
L52170 24410
L52200 24440
L52260 24470
L52370 24470
L52430 24440
L52460 24410
L52490 24360
L52490 23870
" />
<path d="M52740 24440
L52830 24470
L52970 24470
L53030 24440
L53060 24410
L53090 24360
L53090 24300
L53060 24240
L53030 24210
L52970 24190
L52860 24160
L52800 24130
L52770 24100
L52740 24040
L52740 23990
L52770 23930
L52800 23900
L52860 23870
L53000 23870
L53090 23900
" />
<path d="M53540 24160
L53630 24190
L53660 24210
L53690 24270
L53690 24360
L53660 24410
L53630 24440
L53570 24470
L53340 24470
L53340 23870
L53540 23870
L53600 23900
L53630 23930
L53660 23990
L53660 24040
L53630 24100
L53600 24130
L53540 24160
L53340 24160
" />
<path d="M54600 24160
L54690 24190
L54720 24210
L54750 24270
L54750 24360
L54720 24410
L54690 24440
L54630 24470
L54400 24470
L54400 23870
L54600 23870
L54660 23900
L54690 23930
L54720 23990
L54720 24040
L54690 24100
L54660 24130
L54600 24160
L54400 24160
" />
<path d="M55260 24070
L55260 24470
" />
<path d="M55000 24070
L55000 24390
L55030 24440
L55090 24470
L55170 24470
L55230 24440
L55260 24410
" />
<path d="M55460 24070
L55690 24070
" />
<path d="M55540 24470
L55540 23960
L55570 23900
L55630 23870
L55690 23870
" />
<path d="M55800 24070
L56030 24070
" />
<path d="M55880 24470
L55880 23960
L55910 23900
L55970 23870
L56030 23870
" />
<path d="M56450 24440
L56390 24470
L56280 24470
L56220 24440
L56190 24390
L56190 24160
L56220 24100
L56280 24070
L56390 24070
L56450 24100
L56480 24160
L56480 24210
L56190 24270
" />
<path d="M56730 24470
L56730 24070
" />
<path d="M56730 24190
L56760 24130
L56790 24100
L56850 24070
L56900 24070
" />
</g>
<g style="fill:#0000C2; fill-opacity:0.0; 
stroke:#0000C2; stroke-width:0; stroke-opacity:1; 
stroke-linecap:round; stroke-linejoin:round;">
</g>
<g style="fill:#840000; fill-opacity:0.0; 
stroke:#840000; stroke-width:0; stroke-opacity:1; 
stroke-linecap:round; stroke-linejoin:round;">
</g>
<g style="fill:#840000; fill-opacity:0.0; 
stroke:#840000; stroke-width:30; stroke-opacity:1; 
stroke-linecap:round; stroke-linejoin:round;">
<path d="M57680 30930
L57570 30930
" />
<path d="M57630 30930
L57630 30730
L57610 30760
L57590 30780
L57570 30790
" />
<path d="M57810 30730
L57820 30730
L57840 30740
L57850 30750
L57860 30770
L57870 30810
L57870 30850
L57860 30890
L57850 30910
L57840 30920
L57820 30930
L57810 30930
L57790 30920
L57780 30910
L57770 30890
L57760 30850
L57760 30810
L57770 30770
L57780 30750
L57790 30740
L57810 30730
" />
<path d="M57960 30930
L57960 30730
" />
<path d="M57980 30850
L58030 30930
" />
<path d="M58030 30800
L57960 30870
" />
<path d="M57430 30020
L57430 30130
" />
<path d="M57430 30070
L57230 30070
L57260 30090
L57280 30110
L57290 30130
" />
<path d="M57230 29890
L57230 29880
L57240 29860
L57250 29850
L57270 29840
L57310 29830
L57350 29830
L57390 29840
L57410 29850
L57420 29860
L57430 29880
L57430 29890
L57420 29910
L57410 29920
L57390 29930
L57350 29940
L57310 29940
L57270 29930
L57250 29920
L57240 29910
L57230 29890
" />
<path d="M57430 29740
L57230 29740
" />
<path d="M57350 29720
L57430 29670
" />
<path d="M57300 29670
L57370 29740
" />
</g>
<g style="fill:#840000; fill-opacity:0.0; 
stroke:#840000; stroke-width:100; stroke-opacity:1; 
stroke-linecap:round; stroke-linejoin:round;">
<path d="M57002.2 31750 A1250 1250 0.0 0 0 57002.2 29250 " />
<path d="M56247.8 29250 A1250 1250 0.0 0 0 56247.8 31750 " />
</g>
<g style="fill:#840000; fill-opacity:0.0; 
stroke:#840000; stroke-width:60; stroke-opacity:1; 
stroke-linecap:round; stroke-linejoin:round;">
<circle cx="57000" cy="30500" r="50" /> 
<circle cx="55500" cy="29600" r="50" /> 
<polyline fill="none;"
points="57850,30500
58000,30500
" /> 
</g>
<g style="fill:#840000; fill-opacity:0.0; 
stroke:#840000; stroke-width:100; stroke-opacity:1; 
stroke-linecap:round; stroke-linejoin:round;">
<polyline fill="none;"
points="57000,29250
56250,29250
" /> 
<polyline fill="none;"
points="57000,31750
56250,31750
" /> 
</g>
<g style="fill:#840000; fill-opacity:0.0; 
stroke:#840000; stroke-width:60; stroke-opacity:1; 
stroke-linecap:round; stroke-linejoin:round;">
<polyline fill="none;"
points="56500,30400
55500,31400
" /> 
</g>
<g style="fill:#840000; fill-opacity:1.0; 
stroke:#840000; stroke-width:200; stroke-opacity:1; 
stroke-linecap:round; stroke-linejoin:round;">
<polyline style="fill-rule:evenodd;"
points="56450,31100
56450,29850
" /> 
</g>
<g style="fill:#840000; fill-opacity:0.0; 
stroke:#840000; stroke-width:60; stroke-opacity:1; 
stroke-linecap:round; stroke-linejoin:round;">
<polyline fill="none;"
points="55500,31400
55500,31500
" /> 
<polyline fill="none;"
points="55500,29600
56500,30600
56500,30600
" /> 
</g>
<g style="fill:#840000; fill-opacity:1.0; 
stroke:#840000; stroke-width:60; stroke-opacity:1; 
stroke-linecap:round; stroke-linejoin:round;">
<polyline style="fill-rule:evenodd;"
points="55950,29850
55750,30050
56150,30250
55950,29850
" /> 
</g>
<g style="fill:#840000; fill-opacity:0.0; 
stroke:#840000; stroke-width:60; stroke-opacity:1; 
stroke-linecap:round; stroke-linejoin:round;">
<polyline fill="none;"
points="56500,30500
57250,30500
57300,30700
57400,30300
57500,30700
57600,30300
57700,30700
57800,30300
57850,30500
" /> 
<polyline fill="none;"
points="57000,30500
57000,30350
56800,30300
57200,30200
56800,30100
57200,30000
56800,29900
57200,29800
57000,29750
57000,29600
55500,29600
" /> 
<path d="M58000 30500
L59000 30500
" />
</g>
<g style="fill:#008484; fill-opacity:0.0; 
stroke:#008484; stroke-width:60; stroke-opacity:1; 
stroke-linecap:round; stroke-linejoin:round;">
<path d="M58540 30110
L58610 30140
L58630 30160
L58650 30210
L58650 30280
L58630 30330
L58610 30350
L58560 30380
L58370 30380
L58370 29880
L58540 29880
L58580 29900
L58610 29920
L58630 29970
L58630 30020
L58610 30070
L58580 30090
L58540 30110
L58370 30110
" />
</g>
<g style="fill:#840000; fill-opacity:0.0; 
stroke:#840000; stroke-width:60; stroke-opacity:1; 
stroke-linecap:round; stroke-linejoin:round;">
<path d="M58640 31080
L58360 31080
" />
<path d="M58500 31080
L58500 30580
L58450 30650
L58400 30700
L58360 30720
" />
<path d="M55500 29500
L55500 28500
" />
</g>
<g style="fill:#008484; fill-opacity:0.0; 
stroke:#008484; stroke-width:60; stroke-opacity:1; 
stroke-linecap:round; stroke-linejoin:round;">
<path d="M55110 29100
L55110 28930
" />
<path d="M55380 28860
L55380 29100
L54880 29100
L54880 28860
" />
</g>
<g style="fill:#840000; fill-opacity:0.0; 
stroke:#840000; stroke-width:60; stroke-opacity:1; 
stroke-linecap:round; stroke-linejoin:round;">
<path d="M55620 29140
L55600 29120
L55580 29070
L55580 28950
L55600 28910
L55620 28880
L55670 28860
L55720 28860
L55790 28880
L56080 29170
L56080 28860
" />
<path d="M55500 31500
L55500 32500
" />
</g>
<g style="fill:#008484; fill-opacity:0.0; 
stroke:#008484; stroke-width:60; stroke-opacity:1; 
stroke-linecap:round; stroke-linejoin:round;">
<path d="M55330 31850
L55350 31870
L55380 31940
L55380 31990
L55350 32060
L55300 32110
L55260 32130
L55160 32150
L55090 32150
L55000 32130
L54950 32110
L54900 32060
L54880 31990
L54880 31940
L54900 31870
L54920 31850
" />
</g>
<g style="fill:#840000; fill-opacity:0.0; 
stroke:#840000; stroke-width:60; stroke-opacity:1; 
stroke-linecap:round; stroke-linejoin:round;">
<path d="M55580 32170
L55580 31860
L55770 32030
L55770 31950
L55790 31910
L55810 31880
L55860 31860
L55980 31860
L56030 31880
L56050 31910
L56080 31950
L56080 32100
L56050 32140
L56030 32170
" />
</g>
<g style="fill:#008484; fill-opacity:0.0; 
stroke:#008484; stroke-width:60; stroke-opacity:1; 
stroke-linecap:round; stroke-linejoin:round;">
<path d="M53950 31480
L53900 31460
L53860 31410
L53790 31340
L53740 31320
L53690 31320
" />
<path d="M53710 31440
L53670 31410
L53620 31360
L53600 31270
L53600 31100
L53620 31010
L53670 30960
L53710 30940
L53810 30940
L53860 30960
L53900 31010
L53930 31100
L53930 31270
L53900 31360
L53860 31410
L53810 31440
L53710 31440
" />
<path d="M54400 31440
L54120 31440
" />
<path d="M54260 31440
L54260 30940
L54210 31010
L54160 31060
L54120 31080
" />
<path d="M51420 30690
L51420 30190
L51540 30190
L51610 30210
L51660 30260
L51680 30310
L51700 30400
L51700 30470
L51680 30570
L51660 30610
L51610 30660
L51540 30690
L51420 30690
" />
<path d="M51850 30190
L52130 30190
" />
<path d="M51990 30690
L51990 30190
" />
<path d="M52280 30540
L52510 30540
" />
<path d="M52230 30690
L52390 30190
L52560 30690
" />
<path d="M52990 30690
L52710 30690
" />
<path d="M52850 30690
L52850 30190
L52800 30260
L52750 30310
L52710 30330
" />
<path d="M53470 30690
L53190 30690
" />
<path d="M53330 30690
L53330 30190
L53280 30260
L53230 30310
L53190 30330
" />
<path d="M53900 30350
L53900 30690
" />
<path d="M53780 30160
L53670 30520
L53970 30520
" />
<path d="M54170 30420
L54340 30420
" />
<path d="M54410 30690
L54170 30690
L54170 30190
L54410 30190
" />
</g>
<g style="fill:#008484; fill-opacity:0.0; 
stroke:#008484; stroke-width:0; stroke-opacity:1; 
stroke-linecap:round; stroke-linejoin:round;">
</g>
<g style="fill:#840000; fill-opacity:0.0; 
stroke:#840000; stroke-width:0; stroke-opacity:1; 
stroke-linecap:round; stroke-linejoin:round;">
</g>
<g style="fill:#840000; fill-opacity:0.0; 
stroke:#840000; stroke-width:60; stroke-opacity:1; 
stroke-linecap:round; stroke-linejoin:round;">
<polyline fill="none;"
points="55200,27500
55500,27000
" /> 
<polyline fill="none;"
points="55500,28000
55500,27000
" /> 
<polyline fill="none;"
points="55500,27000
55800,27500
" /> 
</g>
<g style="fill:#008484; fill-opacity:0.0; 
stroke:#008484; stroke-width:60; stroke-opacity:1; 
stroke-linecap:round; stroke-linejoin:round;">
<path d="M54500 26670
L54880 26670
" />
<path d="M54690 26860
L54690 26480
" />
<path d="M55070 26360
L55380 26360
L55210 26550
L55290 26550
L55330 26570
L55360 26590
L55380 26640
L55380 26760
L55360 26810
L55330 26830
L55290 26860
L55140 26860
L55100 26830
L55070 26810
" />
<path d="M55600 26810
L55620 26830
L55600 26860
L55580 26830
L55600 26810
L55600 26860
" />
<path d="M55790 26360
L56100 26360
L55930 26550
L56010 26550
L56050 26570
L56080 26590
L56100 26640
L56100 26760
L56080 26810
L56050 26830
L56010 26860
L55860 26860
L55820 26830
L55790 26810
" />
<path d="M56250 26360
L56410 26860
L56580 26360
" />
</g>
<g style="fill:#008400; fill-opacity:0.0; 
stroke:#008400; stroke-width:60; stroke-opacity:1; 
stroke-linecap:round; stroke-linejoin:round;">
<path d="M50500 33000
L52000 33000
" />
<path d="M54000 33000
L55500 33000
" />
<path d="M55500 33000
L55500 32500
" />
<path d="M60500 30500
L59000 30500
" />
<path d="M55500 28500
L55500 28000
" />
</g>
<g style="fill:#848400; fill-opacity:0.0; 
stroke:#848400; stroke-width:60; stroke-opacity:1; 
stroke-linecap:round; stroke-linejoin:round;">
<path d="M61400 30170
L61400 30660
L61430 30710
L61460 30740
L61520 30770
L61630 30770
L61690 30740
L61720 30710
L61750 30660
L61750 30170
" />
<path d="M62000 30740
L62090 30770
L62230 30770
L62290 30740
L62320 30710
L62350 30660
L62350 30600
L62320 30540
L62290 30510
L62230 30490
L62120 30460
L62060 30430
L62030 30400
L62000 30340
L62000 30290
L62030 30230
L62060 30200
L62120 30170
L62260 30170
L62350 30200
" />
<path d="M62800 30460
L62890 30490
L62920 30510
L62950 30570
L62950 30660
L62920 30710
L62890 30740
L62830 30770
L62600 30770
L62600 30170
L62800 30170
L62860 30200
L62890 30230
L62920 30290
L62920 30340
L62890 30400
L62860 30430
L62800 30460
L62600 30460
" />
<path d="M63060 30830
L63520 30830
" />
<path d="M64010 30710
L63980 30740
L63890 30770
L63830 30770
L63750 30740
L63690 30690
L63660 30630
L63630 30510
L63630 30430
L63660 30310
L63690 30260
L63750 30200
L63830 30170
L63890 30170
L63980 30200
L64010 30230
" />
<path d="M64350 30770
L64290 30740
L64260 30710
L64230 30660
L64230 30490
L64260 30430
L64290 30400
L64350 30370
L64430 30370
L64490 30400
L64520 30430
L64550 30490
L64550 30660
L64520 30710
L64490 30740
L64430 30770
L64350 30770
" />
<path d="M64800 30370
L64800 30770
" />
<path d="M64800 30430
L64830 30400
L64890 30370
L64970 30370
L65030 30400
L65060 30460
L65060 30770
" />
<path d="M65340 30370
L65340 30770
" />
<path d="M65340 30430
L65370 30400
L65430 30370
L65510 30370
L65570 30400
L65600 30460
L65600 30770
" />
<path d="M66110 30740
L66050 30770
L65940 30770
L65880 30740
L65850 30690
L65850 30460
L65880 30400
L65940 30370
L66050 30370
L66110 30400
L66140 30460
L66140 30510
L65850 30570
" />
<path d="M66650 30740
L66590 30770
L66480 30770
L66420 30740
L66390 30710
L66360 30660
L66360 30490
L66390 30430
L66420 30400
L66480 30370
L66590 30370
L66650 30400
" />
<path d="M66820 30370
L67050 30370
" />
<path d="M66900 30170
L66900 30690
L66930 30740
L66990 30770
L67050 30770
" />
</g>
<g style="fill:#848400; fill-opacity:0.0; 
stroke:#848400; stroke-width:100; stroke-opacity:1; 
stroke-linecap:round; stroke-linejoin:round;">
<polyline fill="none;"
points="60500,30500
60800,30800
61100,30800
61100,30200
60800,30200
60500,30500
" /> 
</g>
<g style="fill:#848400; fill-opacity:0.0; 
stroke:#848400; stroke-width:60; stroke-opacity:1; 
stroke-linecap:round; stroke-linejoin:round;">
<path d="M61400 35670
L61400 36160
L61430 36210
L61460 36240
L61520 36270
L61630 36270
L61690 36240
L61720 36210
L61750 36160
L61750 35670
" />
<path d="M62000 36240
L62090 36270
L62230 36270
L62290 36240
L62320 36210
L62350 36160
L62350 36100
L62320 36040
L62290 36010
L62230 35990
L62120 35960
L62060 35930
L62030 35900
L62000 35840
L62000 35790
L62030 35730
L62060 35700
L62120 35670
L62260 35670
L62350 35700
" />
<path d="M62800 35960
L62890 35990
L62920 36010
L62950 36070
L62950 36160
L62920 36210
L62890 36240
L62830 36270
L62600 36270
L62600 35670
L62800 35670
L62860 35700
L62890 35730
L62920 35790
L62920 35840
L62890 35900
L62860 35930
L62800 35960
L62600 35960
" />
<path d="M63060 36330
L63520 36330
" />
<path d="M63580 35670
L63780 36270
L63980 35670
" />
<path d="M64370 35960
L64460 35990
L64490 36010
L64520 36070
L64520 36160
L64490 36210
L64460 36240
L64400 36270
L64170 36270
L64170 35670
L64370 35670
L64430 35700
L64460 35730
L64490 35790
L64490 35840
L64460 35900
L64430 35930
L64370 35960
L64170 35960
" />
<path d="M64770 35670
L64770 36160
L64800 36210
L64830 36240
L64890 36270
L65000 36270
L65060 36240
L65090 36210
L65120 36160
L65120 35670
" />
<path d="M65370 36240
L65460 36270
L65600 36270
L65660 36240
L65690 36210
L65720 36160
L65720 36100
L65690 36040
L65660 36010
L65600 35990
L65490 35960
L65430 35930
L65400 35900
L65370 35840
L65370 35790
L65400 35730
L65430 35700
L65490 35670
L65630 35670
L65720 35700
" />
</g>
<g style="fill:#848400; fill-opacity:0.0; 
stroke:#848400; stroke-width:100; stroke-opacity:1; 
stroke-linecap:round; stroke-linejoin:round;">
<polyline fill="none;"
points="60500,36000
60800,36300
61100,36300
61100,35700
60800,35700
60500,36000
" /> 
</g>
<g style="fill:#848400; fill-opacity:0.0; 
stroke:#848400; stroke-width:60; stroke-opacity:1; 
stroke-linecap:round; stroke-linejoin:round;">
<path d="M61400 39170
L61400 39660
L61430 39710
L61460 39740
L61520 39770
L61630 39770
L61690 39740
L61720 39710
L61750 39660
L61750 39170
" />
<path d="M62000 39740
L62090 39770
L62230 39770
L62290 39740
L62320 39710
L62350 39660
L62350 39600
L62320 39540
L62290 39510
L62230 39490
L62120 39460
L62060 39430
L62030 39400
L62000 39340
L62000 39290
L62030 39230
L62060 39200
L62120 39170
L62260 39170
L62350 39200
" />
<path d="M62800 39460
L62890 39490
L62920 39510
L62950 39570
L62950 39660
L62920 39710
L62890 39740
L62830 39770
L62600 39770
L62600 39170
L62800 39170
L62860 39200
L62890 39230
L62920 39290
L62920 39340
L62890 39400
L62860 39430
L62800 39460
L62600 39460
" />
<path d="M63060 39830
L63520 39830
" />
<path d="M63660 39770
L63660 39170
L63810 39170
L63890 39200
L63950 39260
L63980 39310
L64010 39430
L64010 39510
L63980 39630
L63950 39690
L63890 39740
L63810 39770
L63660 39770
" />
<path d="M64260 39770
L64260 39170
L64460 39600
L64660 39170
L64660 39770
" />
</g>
<g style="fill:#848400; fill-opacity:0.0; 
stroke:#848400; stroke-width:100; stroke-opacity:1; 
stroke-linecap:round; stroke-linejoin:round;">
<polyline fill="none;"
points="60500,39500
60800,39800
61100,39800
61100,39200
60800,39200
60500,39500
" /> 
</g>
<g style="fill:#848400; fill-opacity:0.0; 
stroke:#848400; stroke-width:60; stroke-opacity:1; 
stroke-linecap:round; stroke-linejoin:round;">
<path d="M61400 43170
L61400 43660
L61430 43710
L61460 43740
L61520 43770
L61630 43770
L61690 43740
L61720 43710
L61750 43660
L61750 43170
" />
<path d="M62000 43740
L62090 43770
L62230 43770
L62290 43740
L62320 43710
L62350 43660
L62350 43600
L62320 43540
L62290 43510
L62230 43490
L62120 43460
L62060 43430
L62030 43400
L62000 43340
L62000 43290
L62030 43230
L62060 43200
L62120 43170
L62260 43170
L62350 43200
" />
<path d="M62800 43460
L62890 43490
L62920 43510
L62950 43570
L62950 43660
L62920 43710
L62890 43740
L62830 43770
L62600 43770
L62600 43170
L62800 43170
L62860 43200
L62890 43230
L62920 43290
L62920 43340
L62890 43400
L62860 43430
L62800 43460
L62600 43460
" />
<path d="M63060 43830
L63520 43830
" />
<path d="M63660 43770
L63660 43170
L63810 43170
L63890 43200
L63950 43260
L63980 43310
L64010 43430
L64010 43510
L63980 43630
L63950 43690
L63890 43740
L63810 43770
L63660 43770
" />
<path d="M64260 43770
L64260 43170
L64490 43170
L64550 43200
L64580 43230
L64610 43290
L64610 43370
L64580 43430
L64550 43460
L64490 43490
L64260 43490
" />
</g>
<g style="fill:#848400; fill-opacity:0.0; 
stroke:#848400; stroke-width:100; stroke-opacity:1; 
stroke-linecap:round; stroke-linejoin:round;">
<polyline fill="none;"
points="60500,43500
60800,43800
61100,43800
61100,43200
60800,43200
60500,43500
" /> 
</g>
<g style="fill:#848400; fill-opacity:0.0; 
stroke:#848400; stroke-width:60; stroke-opacity:1; 
stroke-linecap:round; stroke-linejoin:round;">
<path d="M44540 35670
L44540 36160
L44570 36210
L44600 36240
L44660 36270
L44770 36270
L44830 36240
L44860 36210
L44890 36160
L44890 35670
" />
<path d="M45140 36240
L45230 36270
L45370 36270
L45430 36240
L45460 36210
L45490 36160
L45490 36100
L45460 36040
L45430 36010
L45370 35990
L45260 35960
L45200 35930
L45170 35900
L45140 35840
L45140 35790
L45170 35730
L45200 35700
L45260 35670
L45400 35670
L45490 35700
" />
<path d="M45940 35960
L46030 35990
L46060 36010
L46090 36070
L46090 36160
L46060 36210
L46030 36240
L45970 36270
L45740 36270
L45740 35670
L45940 35670
L46000 35700
L46030 35730
L46060 35790
L46060 35840
L46030 35900
L46000 35930
L45940 35960
L45740 35960
" />
<path d="M46200 36330
L46660 36330
" />
<path d="M47090 35670
L46800 35670
L46770 35960
L46800 35930
L46860 35900
L47000 35900
L47060 35930
L47090 35960
L47120 36010
L47120 36160
L47090 36210
L47060 36240
L47000 36270
L46860 36270
L46800 36240
L46770 36210
" />
<path d="M47290 35670
L47490 36270
L47690 35670
" />
</g>
<g style="fill:#848400; fill-opacity:0.0; 
stroke:#848400; stroke-width:100; stroke-opacity:1; 
stroke-linecap:round; stroke-linejoin:round;">
<polyline fill="none;"
points="48500,36000
48200,35700
47900,35700
47900,36300
48200,36300
48500,36000
" /> 
</g>
<g style="fill:#848400; fill-opacity:0.0; 
stroke:#848400; stroke-width:0; stroke-opacity:1; 
stroke-linecap:round; stroke-linejoin:round;">
</g>
<g style="fill:#840000; fill-opacity:0.0; 
stroke:#840000; stroke-width:0; stroke-opacity:1; 
stroke-linecap:round; stroke-linejoin:round;">
</g>
<g style="fill:#FFFFC2; fill-opacity:0.0; 
stroke:#FFFFC2; stroke-width:0; stroke-opacity:1; 
stroke-linecap:round; stroke-linejoin:round;">
</g>
<g style="fill:#FFFFC2; fill-opacity:0.6; 
stroke:#FFFFC2; stroke-width:0; stroke-opacity:1; 
stroke-linecap:round; stroke-linejoin:round;">
<rect x="42500" y="37000" width="4000" height="6000" rx="0" />
</g>
<g style="fill:#840000; fill-opacity:0.6; 
stroke:#840000; stroke-width:0; stroke-opacity:1; 
stroke-linecap:round; stroke-linejoin:round;">
</g>
<g style="fill:#840000; fill-opacity:0.0; 
stroke:#840000; stroke-width:100; stroke-opacity:1; 
stroke-linecap:round; stroke-linejoin:round;">
<rect x="42500" y="37000" width="4000" height="6000" rx="0" />
</g>
<g style="fill:#840000; fill-opacity:1.0; 
stroke:#840000; stroke-width:100; stroke-opacity:1; 
stroke-linecap:round; stroke-linejoin:round;">
<circle cx="43000" cy="39150" r="250" /> 
<circle cx="44250" cy="38650" r="150" /> 
</g>
<g style="fill:#840000; fill-opacity:0.0; 
stroke:#840000; stroke-width:60; stroke-opacity:1; 
stroke-linecap:round; stroke-linejoin:round;">
<rect x="44450" y="42700" width="100" height="300" rx="0" />
</g>
<g style="fill:#840000; fill-opacity:1.0; 
stroke:#840000; stroke-width:100; stroke-opacity:1; 
stroke-linecap:round; stroke-linejoin:round;">
<rect x="44300" y="39500" width="300" height="300" rx="0" />
</g>
<g style="fill:#840000; fill-opacity:0.0; 
stroke:#840000; stroke-width:60; stroke-opacity:1; 
stroke-linecap:round; stroke-linejoin:round;">
<rect x="46200" y="41950" width="300" height="100" rx="0" />
<rect x="46200" y="40950" width="300" height="100" rx="0" />
<rect x="46200" y="39950" width="300" height="100" rx="0" />
<rect x="46200" y="37950" width="300" height="100" rx="0" />
</g>
<g style="fill:#840000; fill-opacity:0.0; 
stroke:#840000; stroke-width:100; stroke-opacity:1; 
stroke-linecap:round; stroke-linejoin:round;">
<polyline fill="none;"
points="43750,39150
44750,39150
" /> 
<polyline fill="none;"
points="43250,39150
43500,39150
44000,38650
44250,38650
" /> 
<polyline fill="none;"
points="43500,39150
43750,39150
44000,39650
44500,39650
" /> 
</g>
<g style="fill:#840000; fill-opacity:1.0; 
stroke:#840000; stroke-width:100; stroke-opacity:1; 
stroke-linecap:round; stroke-linejoin:round;">
<polyline style="fill-rule:evenodd;"
points="44750,38900
44750,39400
45250,39150
44750,38900
" /> 
</g>
<g style="fill:#840000; fill-opacity:1.0; 
stroke:#840000; stroke-width:60; stroke-opacity:1; 
stroke-linecap:round; stroke-linejoin:round;">
<polyline style="fill-rule:evenodd;"
points="42800,37800
43800,37800
43700,38100
42900,38100
42800,37800
" /> 
</g>
<g style="fill:#840000; fill-opacity:0.0; 
stroke:#840000; stroke-width:60; stroke-opacity:1; 
stroke-linecap:round; stroke-linejoin:round;">
<polyline fill="none;"
points="42650,37700
42650,37800
42750,38100
42750,38200
43850,38200
43850,38100
43950,37800
43950,37700
42650,37700
" /> 
<path d="M46500 38000
L47500 38000
" />
</g>
<g style="fill:#008484; fill-opacity:0.0; 
stroke:#008484; stroke-width:60; stroke-opacity:1; 
stroke-linecap:round; stroke-linejoin:round;">
<path d="M44220 37730
L44380 38230
L44550 37730
" />
<path d="M44890 37960
L44960 37990
L44980 38010
L45000 38060
L45000 38130
L44980 38180
L44960 38200
L44910 38230
L44720 38230
L44720 37730
L44890 37730
L44930 37750
L44960 37770
L44980 37820
L44980 37870
L44960 37920
L44930 37940
L44890 37960
L44720 37960
" />
<path d="M45220 37730
L45220 38130
L45240 38180
L45270 38200
L45310 38230
L45410 38230
L45460 38200
L45480 38180
L45500 38130
L45500 37730
" />
<path d="M45720 38200
L45790 38230
L45910 38230
L45950 38200
L45980 38180
L46000 38130
L46000 38080
L45980 38040
L45950 38010
L45910 37990
L45810 37960
L45760 37940
L45740 37920
L45720 37870
L45720 37820
L45740 37770
L45760 37750
L45810 37730
L45930 37730
L46000 37750
" />
</g>
<g style="fill:#840000; fill-opacity:0.0; 
stroke:#840000; stroke-width:60; stroke-opacity:1; 
stroke-linecap:round; stroke-linejoin:round;">
<path d="M47140 37880
L46860 37880
" />
<path d="M47000 37880
L47000 37380
L46950 37450
L46900 37500
L46860 37520
" />
<path d="M46500 41000
L47500 41000
" />
</g>
<g style="fill:#008484; fill-opacity:0.0; 
stroke:#008484; stroke-width:60; stroke-opacity:1; 
stroke-linecap:round; stroke-linejoin:round;">
<path d="M45100 41230
L45100 40730
L45220 40730
L45290 40750
L45340 40800
L45360 40850
L45380 40940
L45380 41010
L45360 41110
L45340 41150
L45290 41200
L45220 41230
L45100 41230
" />
<path d="M45600 41040
L45980 41040
" />
</g>
<g style="fill:#840000; fill-opacity:0.0; 
stroke:#840000; stroke-width:60; stroke-opacity:1; 
stroke-linecap:round; stroke-linejoin:round;">
<path d="M46860 40420
L46880 40400
L46930 40380
L47050 40380
L47090 40400
L47120 40420
L47140 40470
L47140 40520
L47120 40590
L46830 40880
L47140 40880
" />
<path d="M46500 40000
L47500 40000
" />
</g>
<g style="fill:#008484; fill-opacity:0.0; 
stroke:#008484; stroke-width:60; stroke-opacity:1; 
stroke-linecap:round; stroke-linejoin:round;">
<path d="M45100 40230
L45100 39730
L45220 39730
L45290 39750
L45340 39800
L45360 39850
L45380 39940
L45380 40010
L45360 40110
L45340 40150
L45290 40200
L45220 40230
L45100 40230
" />
<path d="M45600 40040
L45980 40040
" />
<path d="M45790 40230
L45790 39850
" />
</g>
<g style="fill:#840000; fill-opacity:0.0; 
stroke:#840000; stroke-width:60; stroke-opacity:1; 
stroke-linecap:round; stroke-linejoin:round;">
<path d="M46830 39380
L47140 39380
L46970 39570
L47050 39570
L47090 39590
L47120 39610
L47140 39660
L47140 39780
L47120 39830
L47090 39850
L47050 39880
L46900 39880
L46860 39850
L46830 39830
" />
<path d="M46500 42000
L47500 42000
" />
</g>
<g style="fill:#008484; fill-opacity:0.0; 
stroke:#008484; stroke-width:60; stroke-opacity:1; 
stroke-linecap:round; stroke-linejoin:round;">
<path d="M45480 42230
L45480 41730
" />
<path d="M45720 42230
L45720 41730
L45840 41730
L45910 41750
L45960 41800
L45980 41850
L46000 41940
L46000 42010
L45980 42110
L45960 42150
L45910 42200
L45840 42230
L45720 42230
" />
</g>
<g style="fill:#840000; fill-opacity:0.0; 
stroke:#840000; stroke-width:60; stroke-opacity:1; 
stroke-linecap:round; stroke-linejoin:round;">
<path d="M47090 41540
L47090 41880
" />
<path d="M46970 41350
L46860 41710
L47160 41710
" />
<path d="M44500 43000
L44500 44000
" />
</g>
<g style="fill:#008484; fill-opacity:0.0; 
stroke:#008484; stroke-width:60; stroke-opacity:1; 
stroke-linecap:round; stroke-linejoin:round;">
<path d="M44250 42220
L44230 42270
L44230 42340
L44250 42410
L44300 42460
L44350 42480
L44440 42500
L44510 42500
L44610 42480
L44650 42460
L44700 42410
L44730 42340
L44730 42290
L44700 42220
L44680 42200
L44510 42200
L44510 42290
" />
<path d="M44730 41980
L44230 41980
L44730 41700
L44230 41700
" />
<path d="M44730 41460
L44230 41460
L44230 41340
L44250 41270
L44300 41220
L44350 41200
L44440 41180
L44510 41180
L44610 41200
L44650 41220
L44700 41270
L44730 41340
L44730 41460
" />
</g>
<g style="fill:#840000; fill-opacity:0.0; 
stroke:#840000; stroke-width:60; stroke-opacity:1; 
stroke-linecap:round; stroke-linejoin:round;">
<path d="M43880 43380
L43880 43620
L44110 43640
L44090 43620
L44070 43570
L44070 43450
L44090 43410
L44110 43380
L44160 43360
L44280 43360
L44330 43380
L44350 43410
L44380 43450
L44380 43570
L44350 43620
L44330 43640
" />
<path d="M43500 43000
L43500 44000
" />
</g>
<g style="fill:#008484; fill-opacity:0.0; 
stroke:#008484; stroke-width:60; stroke-opacity:1; 
stroke-linecap:round; stroke-linejoin:round;">
<path d="M43700 42500
L43730 42430
L43730 42310
L43700 42270
L43680 42240
L43630 42220
L43580 42220
L43540 42240
L43510 42270
L43490 42310
L43460 42410
L43440 42460
L43420 42480
L43370 42500
L43320 42500
L43270 42480
L43250 42460
L43230 42410
L43230 42290
L43250 42220
" />
<path d="M43730 42000
L43230 42000
" />
<path d="M43730 41790
L43460 41790
L43420 41810
L43390 41860
L43390 41930
L43420 41980
L43440 42000
" />
<path d="M43730 41550
L43390 41550
" />
<path d="M43230 41550
L43250 41570
L43270 41550
L43250 41530
L43230 41550
L43270 41550
" />
<path d="M43700 41120
L43730 41170
L43730 41260
L43700 41310
L43650 41330
L43460 41330
L43420 41310
L43390 41260
L43390 41170
L43420 41120
L43460 41100
L43510 41100
L43560 41330
" />
<path d="M43730 40810
L43700 40860
L43650 40880
L43230 40880
" />
<path d="M43730 40410
L43230 40410
" />
<path d="M43700 40410
L43730 40450
L43730 40550
L43700 40600
L43680 40620
L43630 40640
L43490 40640
L43440 40620
L43420 40600
L43390 40550
L43390 40450
L43420 40410
" />
</g>
<g style="fill:#840000; fill-opacity:0.0; 
stroke:#840000; stroke-width:60; stroke-opacity:1; 
stroke-linecap:round; stroke-linejoin:round;">
<path d="M42880 43410
L42880 43500
L42900 43550
L42920 43570
L43000 43620
L43090 43640
L43280 43640
L43330 43620
L43350 43600
L43380 43550
L43380 43450
L43350 43410
L43330 43380
L43280 43360
L43160 43360
L43110 43380
L43090 43410
L43070 43450
L43070 43550
L43090 43600
L43110 43620
L43160 43640
" />
</g>
<g style="fill:#008484; fill-opacity:0.0; 
stroke:#008484; stroke-width:60; stroke-opacity:1; 
stroke-linecap:round; stroke-linejoin:round;">
<path d="M42760 36260
L42760 36610
L42740 36680
L42690 36730
L42620 36760
L42570 36760
" />
<path d="M43070 36710
L43090 36730
L43070 36760
L43050 36730
L43070 36710
L43070 36760
" />
<path d="M42980 36280
L43020 36260
L43140 36260
L43190 36280
L43210 36330
L43210 36380
L43190 36420
L43170 36450
L43120 36470
L43090 36490
L43070 36540
L43070 36570
" />
<path d="M41760 41380
L42160 41380
L42210 41360
L42230 41330
L42260 41290
L42260 41190
L42230 41140
L42210 41120
L42160 41100
L41760 41100
" />
<path d="M42230 40880
L42260 40810
L42260 40690
L42230 40650
L42210 40620
L42160 40600
L42110 40600
L42070 40620
L42040 40650
L42020 40690
L41990 40790
L41970 40840
L41950 40860
L41900 40880
L41850 40880
L41800 40860
L41780 40840
L41760 40790
L41760 40670
L41780 40600
" />
<path d="M41990 40210
L42020 40140
L42040 40120
L42090 40100
L42160 40100
L42210 40120
L42230 40140
L42260 40190
L42260 40380
L41760 40380
L41760 40210
L41780 40170
L41800 40140
L41850 40120
L41900 40120
L41950 40140
L41970 40170
L41990 40210
L41990 40380
" />
<path d="M42300 40000
L42300 39620
" />
<path d="M41760 39410
L41760 39310
L41780 39260
L41830 39220
L41920 39190
L42090 39190
L42180 39220
L42230 39260
L42260 39310
L42260 39410
L42230 39450
L42180 39500
L42090 39520
L41920 39520
L41830 39500
L41780 39450
L41760 39410
" />
<path d="M41760 39050
L41760 38770
" />
<path d="M42260 38910
L41760 38910
" />
<path d="M41780 38340
L41760 38390
L41760 38460
L41780 38530
L41830 38580
L41880 38600
L41970 38620
L42040 38620
L42140 38600
L42180 38580
L42230 38530
L42260 38460
L42260 38410
L42230 38340
L42210 38320
L42040 38320
L42040 38410
" />
</g>
<g style="fill:#008484; fill-opacity:0.0; 
stroke:#008484; stroke-width:0; stroke-opacity:1; 
stroke-linecap:round; stroke-linejoin:round;">
</g>
<g style="fill:#840000; fill-opacity:0.0; 
stroke:#840000; stroke-width:0; stroke-opacity:1; 
stroke-linecap:round; stroke-linejoin:round;">
</g>
<g style="fill:#840000; fill-opacity:0.0; 
stroke:#840000; stroke-width:60; stroke-opacity:1; 
stroke-linecap:round; stroke-linejoin:round;">
<polyline fill="none;"
points="43500,45000
43500,45500
44000,45500
43500,46000
43000,45500
43500,45500
" /> 
</g>
<g style="fill:#008484; fill-opacity:0.0; 
stroke:#008484; stroke-width:60; stroke-opacity:1; 
stroke-linecap:round; stroke-linejoin:round;">
<path d="M43120 46280
L43070 46260
L43000 46260
L42930 46280
L42880 46330
L42860 46380
L42840 46470
L42840 46540
L42860 46640
L42880 46680
L42930 46730
L43000 46760
L43050 46760
L43120 46730
L43140 46710
L43140 46540
L43050 46540
" />
<path d="M43360 46760
L43360 46260
L43640 46760
L43640 46260
" />
<path d="M43880 46760
L43880 46260
L44000 46260
L44070 46280
L44120 46330
L44140 46380
L44160 46470
L44160 46540
L44140 46640
L44120 46680
L44070 46730
L44000 46760
L43880 46760
" />
</g>
<g style="fill:#008400; fill-opacity:0.0; 
stroke:#008400; stroke-width:60; stroke-opacity:1; 
stroke-linecap:round; stroke-linejoin:round;">
<path d="M43500 44000
L43500 45000
" />
<path d="M43500 44500
L44500 44500
" />
<path d="M44500 44500
L44500 44000
" />
</g>
<g style="fill:#008400; fill-opacity:0.0; 
stroke:#008400; stroke-width:0; stroke-opacity:1; 
stroke-linecap:round; stroke-linejoin:round;">
</g>
<g style="fill:#008400; fill-opacity:1.0; 
stroke:#008400; stroke-width:100; stroke-opacity:1; 
stroke-linecap:round; stroke-linejoin:round;">
<circle cx="43500" cy="44500" r="200" /> 
</g>
<g style="fill:#008400; fill-opacity:1.0; 
stroke:#008400; stroke-width:60; stroke-opacity:1; 
stroke-linecap:round; stroke-linejoin:round;">
</g>
<g style="fill:#000084; fill-opacity:1.0; 
stroke:#000084; stroke-width:60; stroke-opacity:1; 
stroke-linecap:round; stroke-linejoin:round;">
</g>
<g style="fill:#000084; fill-opacity:0.0; 
stroke:#000084; stroke-width:60; stroke-opacity:1; 
stroke-linecap:round; stroke-linejoin:round;">
<path d="M47260 41760
L47740 42240
" />
<path d="M47740 41760
L47260 42240
" />
</g>
<g style="fill:#008400; fill-opacity:0.0; 
stroke:#008400; stroke-width:60; stroke-opacity:1; 
stroke-linecap:round; stroke-linejoin:round;">
<path d="M49500 41000
L47500 41000
" />
<path d="M47500 40000
L49000 40000
" />
<path d="M49000 40000
L49000 43500
" />
</g> 
</svg>
